<?xml version="1.0" encoding="UTF-8"?>
<svg id="Ebene_2" xmlns="http://www.w3.org/2000/svg" version="1.1" viewBox="0 0 255.1 255.1">
  <!-- Generator: Adobe Illustrator 29.3.0, SVG Export Plug-In . SVG Version: 2.1.0 Build 146)  -->
  <defs>
    <style>
      .st0 {
        fill: #fff;
      }

      .st1 {
        fill: #254980;
      }
    </style>
  </defs>
  <circle class="st1" cx="127.6" cy="127.6" r="126"/>
  <g>
    <path class="st0" d="M91.8,135.7c-2.7-2.1-5.6-2.4-5.6-4.4,0-1.4,6.9-5.6,8.8-10.6,1-2.5,1.9-5.9,1.8-10.2-.2-6.1-3.9-9.8-9.1-12-5-2.2-10.7-3.9-16.1-4.6-6.3-.8-25.2,1.1-25.4,6-.3,6.5,0,12.8.1,19.3.1,3.9,0,7.6.2,11.3.1,3.7-1,7.3-1,11,0,4.3.1,8,.2,11.7s.4,4.9.5,9.1c0,.7.7,5.3.7,6,.1,4,3.4,8.6,8.1,8.5s7,0,11.2-.2c1.4,0,2.9-.3,4.2-.4,6.5-.2,9.1-.8,14.5-3.4,3.3-1.5,2.2-1,6.9-4.9,6-5,8.5-9.3,8.2-18.3-.2-7.2-3.8-10.2-8.2-14ZM58.6,113c0,0,0-.2,0-.2,0-1,0-2,.5-2.9,1.7-2.9,7.5-2.3,10.2-2,1.2.1,2.4.3,3.6.6.8.2,2.2,1.1,3,1.1,2.5,1.3,3.7,3.7,3.7,6.5.3,9.9-12.8,11.2-19.8,11.8-.8-4.9-1.2-9.9-1.3-14.8ZM84.2,150.8c-3,11.7-11.8,11.1-22.1,10.9-.5,0-.9,0-1.3-.3-.5-.4-.6-1.1-.6-1.8-.1-4.3-.3-8.6-.4-12.9,0-1.5,0-3,.8-4.2.7-1,2-1.4,3.2-1.5,3.9-.2,8.1,0,12.1,0,.7,0,1.2,0,2,.3,4.3.8,6.5,3.1,6.6,6.7,0,.8,0,1.7-.2,2.6Z"/>
    <path class="st0" d="M124.6,138.3c.9-1.6,1.7-2.5,2.6-4,.7-1.1,1-2.3,1.6-3.4.5-.6,1.2-1.1,1.7-1.8,2.3-3.3,4.9-6.5,7.1-9.9,1.3-2.1,3.3-4.5,3.6-7.1.4-3.3-3.3-3.9-5.9-3.9-5.8.1-11.6.2-17.4.4s-2.9,0-4.4,0-3.3-.4-4.1,0c-1.2.7-.7,4.1-.7,5.2,0,.9.2,2,.9,2.6.6.5,1.3.5,2.1.6,2.8.2,5.8.7,8.6.6.9.1,2,.3,2.9.3.4,0,1.1,0,1.3.7v.3c0,.7-.8,1.6-1.2,2-1.3,1.8-3.5,4.7-4.7,6.5-1.6,2.3-2.3,4.3-3.6,6.6-.8,1.6-1.9,3.1-2.8,4.6-.5.7-1.3,2.2-1.7,3.1-.8,1.5-2.3,4.4-2.2,6.3s.1.8.3,1.1c.4.5.7,1.1,1.2,1.5,1.3,1.1,2.5.9,4,1h.8c.9,0,2.1-.2,3.2-.2s1.5,0,1.8.1c1,.4,2.1.5,3.2.4,1.5,0,3-.3,4.4-.4h.7c1.9,0,3.7,0,5.6.1,1.5,0,3,0,4.4,0s3,1,4.1-.4c.6-.8.6-1.8.6-2.8,0-1.9.4-4.9-1.1-6.3-1.3-1.3-4-1-5.7-1s-4.6.2-6.8,0h-.4c-1.4,0-4,0-4.4-1.1v-.3c0-.6.3-1.3.5-1.8Z"/>
    <path class="st0" d="M172.3,78.3c7.3.1,15.2.5,21.8,3.7,1.7.9,3.5,1.5,4.9,3,3.1,3.6,3.8,9.2,4.2,13.8,0,3.2-1.8,8.1-3.7,10.8-1.4,2-3.2,3.6-4.8,5.4,1,.9,2.2.9,3.4,1.5s2.5,1.9,3.8,2.8c2.5,1.8,5.7,4.9,6.4,7.9.6,2.1,1.2,4.2,1.2,6.3v1.2c-.3,2.2-.9,4.5-1.5,6.6-.7,2.9-2.5,5.2-4.3,7.6-1,1.1-2.3,2.7-3.5,3.6-1.7,1.4-3.4,2.6-5.2,3.6-2,.8-4.2,1.3-6,2.3-2.1,1-4.4,1.4-6.7,1.9-1.6.3-3.1.6-4.6.6-4.8.1-10-.7-14.8,0-1.7.3-2.6.7-4-.6-1.6-1.5-2.1-3.9-2.5-6-1.4-7.5-2.1-15.2-1.9-22.9.1-6.5-.4-12.9-.6-19.4-.1-4.5-.2-7.6-.7-12.1-.6-5.1-.6-10.2-.7-15.4,0-1.6,0-3.2.9-4.5.8-1.1,2.2-1.6,3.5-1.6,4.7-.3,9.6-.1,14.4,0,.3,0,.6,0,.9,0ZM175.2,91.9c-1.9,0-3.9.2-5.8.5-1.1.1-2.4.3-3.2,1.1-1.7,1.6-1.1,4.5-.8,6.6s.2,4.2.4,6.5c.2,1.7,1,3.4,2.5,4.2,2.5,1.4,9.4.9,12,0,3.5-1.1,6.3-4.1,7-7.6.9-4.6-3.4-9.4-7.7-10.7-1.5-.4-3-.6-4.5-.6ZM174.6,125.8c-2.7.2-5.4.7-6.2,2.4-.5,1.1-.4,2.3-.2,3.5.5,3.6.9,7.3,1.4,10.9,0,.6.2,1.4.7,1.8.4.3,1,.4,1.5.4,4.9,0,9.8.8,14.3-1.3,3.5-1.7,4.8-3.2,6.3-6.7.2-.8.2-1.8.2-2.8,0-1.7-.2-3.7-1.7-5.1-2.4-2.9-7.3-3.1-10.7-3-1.3,0-3.4,0-5.6,0Z"/>
  </g>
</svg>