<?xml version="1.0" encoding="UTF-8" standalone="no"?>
<!-- Created with Inkscape (http://www.inkscape.org/) -->

<svg
   width="59.53125mm"
   height="59.53125mm"
   viewBox="0 0 59.53125 59.53125"
   version="1.1"
   id="svg827"
   inkscape:version="1.1.2 (b8e25be833, 2022-02-05)"
   sodipodi:docname="logo_hoehenrausch.svg"
   xmlns:inkscape="http://www.inkscape.org/namespaces/inkscape"
   xmlns:sodipodi="http://sodipodi.sourceforge.net/DTD/sodipodi-0.dtd"
   xmlns="http://www.w3.org/2000/svg"
   xmlns:svg="http://www.w3.org/2000/svg">
  <sodipodi:namedview
     id="namedview829"
     pagecolor="#ffffff"
     bordercolor="#666666"
     borderopacity="1.0"
     inkscape:pageshadow="2"
     inkscape:pageopacity="0.0"
     inkscape:pagecheckerboard="0"
     inkscape:document-units="mm"
     showgrid="false"
     inkscape:zoom="0.76435185"
     inkscape:cx="140.64204"
     inkscape:cy="213.90672"
     inkscape:window-width="1822"
     inkscape:window-height="1051"
     inkscape:window-x="-9"
     inkscape:window-y="-9"
     inkscape:window-maximized="1"
     inkscape:current-layer="g1054" />
  <defs
     id="defs824" />
  <g
     inkscape:label="Ebene 1"
     inkscape:groupmode="layer"
     id="layer1"
     transform="translate(-67.849762,-92.080528)">
    <g
       id="g1054">
      <path
         style="display:inline;fill:#c8edfd;stroke-width:0.264583"
         d="m 95.044568,146.65391 c 0.768864,-0.0536 1.959489,-0.053 2.645834,0.001 0.686345,0.0543 0.05728,0.0982 -1.397932,0.0975 -1.455208,-8e-4 -2.016764,-0.0451 -1.247902,-0.0987 z m -5.149315,-0.59619 c -6.530051,-1.71165 -12.198078,-6.30471 -15.266134,-12.37085 -0.956414,-1.89101 -2.019728,-4.87515 -1.840474,-5.16518 0.08061,-0.13043 0.433445,0.61478 0.784079,1.65602 1.332646,3.95742 3.129572,6.72396 6.389643,9.83747 3.264017,3.11728 7.214654,5.19684 11.699895,6.15865 0.993884,0.21313 1.384757,0.37153 0.926042,0.37526 -0.436563,0.004 -1.648436,-0.21756 -2.693051,-0.49137 z m 10.732947,0.14078 c 2.71763,-0.62575 4.25065,-1.18772 6.64448,-2.4357 6.49813,-3.38768 11.25555,-9.81583 12.54561,-16.95143 0.20432,-1.13014 0.38134,-1.69761 0.39338,-1.26105 0.0405,1.46758 -1.04167,5.24943 -2.19224,7.66139 -2.01562,4.2254 -5.11369,7.66084 -9.14679,10.14283 -2.33873,1.43926 -6.4433,2.93056 -8.57415,3.11521 l -1.360186,0.11787 z m -6.253959,-0.58994 c 0.254662,-0.0666 0.67138,-0.0666 0.926042,0 0.254661,0.0665 0.0463,0.121 -0.463021,0.121 -0.509323,0 -0.717682,-0.0545 -0.463021,-0.121 z m 2.915452,-0.001 c 0.257431,-0.0671 0.614619,-0.0627 0.79375,0.01 0.179131,0.0725 -0.03149,0.12736 -0.468056,0.12197 -0.436563,-0.005 -0.583126,-0.0647 -0.325694,-0.13178 z m -6.024306,-0.47198 c -0.727604,-0.18703 -1.150276,-0.35419 -0.939271,-0.37148 0.298391,-0.0245 0.31309,-0.10199 0.06615,-0.34893 -0.174625,-0.17462 -0.303413,-0.62111 -0.286196,-0.99219 0.02963,-0.6385 0.04027,-0.63302 0.198438,0.1023 0.130318,0.60584 0.366398,0.82861 1.07177,1.01135 0.497551,0.1289 1.129433,0.17557 1.404184,0.10372 0.390516,-0.10212 0.436088,-0.0542 0.208799,0.2197 -0.214635,0.25862 -0.201277,0.38623 0.05102,0.48746 0.65968,0.26469 -0.424075,0.13528 -1.774894,-0.21193 z m 8.549349,0.2101 c 0.190994,-0.0764 0.419194,-0.067 0.507114,0.0209 0.0879,0.0879 -0.0683,0.15045 -0.347261,0.13896 -0.308226,-0.0127 -0.370919,-0.0754 -0.159853,-0.15985 z m 1.367494,-0.75136 c -0.27986,-0.33722 -0.26302,-0.37554 0.10327,-0.23498 0.24072,0.0924 0.60538,0.0288 0.81036,-0.14136 0.30431,-0.25256 0.34657,-0.20944 0.23035,0.23499 -0.16812,0.6429 -0.67568,0.70562 -1.14398,0.14135 z M 87.461391,143.9907 c -0.92803,-0.37993 -1.559797,-0.73329 -1.403926,-0.78525 0.155872,-0.052 0.214543,-0.29513 0.13038,-0.54039 -0.139747,-0.40724 -0.121242,-0.40905 0.213301,-0.0208 0.306282,0.35544 2.309626,1.29468 2.761455,1.29468 0.0745,0 0.243142,-0.26789 0.374749,-0.59531 0.16193,-0.40286 0.244708,-0.4561 0.256058,-0.16469 0.0092,0.23685 -0.167459,0.58352 -0.392628,0.7704 -0.326998,0.27138 -0.340311,0.38359 -0.06615,0.55751 0.634333,0.40239 -0.172988,0.17995 -1.873243,-0.51613 z m 13.238479,-1.11011 c 0,-0.3638 0.0601,-0.51263 0.13345,-0.33073 0.0734,0.1819 0.0734,0.47956 0,0.66146 -0.0734,0.1819 -0.13345,0.0331 -0.13345,-0.33073 z m 6.07659,0.0933 c 0.0281,-0.12409 -0.0325,-0.41416 -0.13465,-0.64461 -0.10214,-0.23044 -0.14527,-1.42106 -0.0959,-2.64583 l 0.0898,-2.22684 0.0539,2.4474 c 0.0296,1.34606 0.11575,2.44739 0.1914,2.44739 0.0756,0 0.58167,-0.27894 1.12448,-0.61986 1.01318,-0.63636 2.15331,-0.69397 1.20393,-0.0608 -1.34519,0.89708 -2.47849,1.50411 -2.43301,1.30319 z m -16.956906,-0.55634 c 0.0052,-0.10914 0.179532,-0.4961 0.3875,-0.8599 l 0.378123,-0.66146 0.0094,0.8599 c 0.0065,0.59213 -0.11421,0.85989 -0.3875,0.85989 -0.218282,0 -0.392656,-0.0893 -0.3875,-0.19843 z m 20.363546,-1.48896 c 0,-0.0549 0.20835,-0.2633 0.46302,-0.46302 0.41964,-0.32911 0.429,-0.31975 0.0999,0.0999 -0.34564,0.44073 -0.56291,0.58089 -0.56291,0.36313 z m -28.873337,-0.62771 c -0.329107,-0.41964 -0.319749,-0.429 0.09989,-0.0999 0.254661,0.19973 0.463021,0.40808 0.463021,0.46303 0,0.21776 -0.217272,0.0776 -0.562916,-0.36313 z m 27.856777,-0.0661 c 0,-0.3638 0.0601,-0.51263 0.13345,-0.33072 0.0734,0.1819 0.0734,0.47955 0,0.66145 -0.0734,0.1819 -0.13345,0.0331 -0.13345,-0.33073 z m 2.60406,-0.61195 c 0,-0.0455 0.38695,-0.43249 0.85989,-0.8599 l 0.8599,-0.7771 -0.77711,0.85989 c -0.72437,0.80155 -0.94268,0.98151 -0.94268,0.77711 z m -16.668755,-1.4891 c 0,-0.13693 0.1177,-0.32171 0.261554,-0.41061 0.149982,-0.0927 0.194337,0.0135 0.103984,0.24896 -0.175892,0.45837 -0.365538,0.54224 -0.365538,0.16165 z m 14.572975,-0.69912 c 0.0127,-0.30822 0.0754,-0.37092 0.15985,-0.15985 0.0764,0.19099 0.067,0.4192 -0.0209,0.50712 -0.0879,0.0879 -0.15045,-0.0684 -0.13896,-0.34727 z m -31.540057,-0.30868 c -0.329107,-0.41964 -0.319749,-0.429 0.09989,-0.0999 0.254661,0.19973 0.463021,0.40808 0.463021,0.46303 0,0.21776 -0.217272,0.0776 -0.562916,-0.36313 z m 17.95927,0.28779 c 0.181901,-0.0734 0.479557,-0.0734 0.661458,0 0.181901,0.0734 0.03307,0.13346 -0.330729,0.13346 -0.363802,0 -0.51263,-0.0601 -0.330729,-0.13346 z m 4.517627,-0.44014 c -0.0984,-0.48282 -0.0616,-0.65679 0.1041,-0.49113 0.1411,0.1411 0.2097,0.47755 0.15244,0.74767 -0.0771,0.36375 -0.14363,0.29722 -0.25654,-0.25654 z m 13.2756,0.25089 c 0,-0.0549 0.20836,-0.2633 0.46302,-0.46302 0.41965,-0.32911 0.42901,-0.31975 0.0999,0.0999 -0.34564,0.44073 -0.56292,0.58088 -0.56292,0.36312 z m -30.101114,-2.28135 c 0,-0.50932 0.05445,-0.71768 0.121,-0.46302 0.06655,0.25466 0.06655,0.67138 0,0.92604 -0.06655,0.25466 -0.121,0.0463 -0.121,-0.46302 z m 22.489584,0 c 0,-0.50932 0.0545,-0.71768 0.121,-0.46302 0.0665,0.25466 0.0665,0.67138 0,0.92604 -0.0666,0.25466 -0.121,0.0463 -0.121,-0.46302 z m 3.7095,-0.39688 c 0.003,-0.58208 0.0571,-0.78905 0.12041,-0.45993 0.0633,0.32912 0.0609,0.80537 -0.005,1.05833 -0.0662,0.25297 -0.11801,-0.0163 -0.11507,-0.5984 z m -4.34966,-1.10678 c 0.19099,-0.0764 0.4192,-0.067 0.50712,0.0209 0.0879,0.0879 -0.0683,0.15045 -0.34727,0.13896 -0.30822,-0.0127 -0.37092,-0.0754 -0.15985,-0.15985 z m 4.28294,-1.59485 c 0,-0.15195 0.20836,-0.43969 0.46302,-0.63941 0.4283,-0.33589 0.43391,-0.32344 0.0749,0.16604 -0.21348,0.29104 -0.42184,0.57878 -0.46302,0.63941 -0.0412,0.0606 -0.0749,-0.0141 -0.0749,-0.16604 z m 1.71979,-1.66399 c 0.26339,-0.29104 0.53843,-0.52917 0.61119,-0.52917 0.0728,0 -0.0832,0.23813 -0.3466,0.52917 -0.26339,0.29104 -0.53842,0.52916 -0.61119,0.52916 -0.0728,0 0.0832,-0.23812 0.3466,-0.52916 z m -38.145878,-2.00854 c -0.106233,-0.27683 0.189367,-0.75256 0.863123,-1.38906 l 1.02469,-0.96803 -0.889819,0.97475 c -0.551013,0.6036 -0.829284,1.1325 -0.730833,1.38906 0.08744,0.22788 0.09946,0.41432 0.0267,0.41432 -0.07276,0 -0.204996,-0.18947 -0.293857,-0.42104 z m 40.209538,-2.75396 c 0,-0.80037 0.0496,-1.12779 0.11023,-0.72761 0.0606,0.40019 0.0606,1.05503 0,1.45521 -0.0606,0.40018 -0.11023,0.0728 -0.11023,-0.7276 z m -41.464451,0.59538 c -0.360947,-0.36094 -0.124046,-6.13279 0.344989,-8.40528 1.417217,-6.86647 5.683553,-12.65508 11.941537,-16.20239 1.969145,-1.1162 5.884574,-2.399411 7.813432,-2.560705 1.556989,-0.130197 1.560111,-0.129076 0.293103,0.105304 -9.485001,1.754601 -16.868451,8.385151 -19.50695,17.517801 -0.687587,2.37994 -1.044832,8.48789 -0.515576,8.81499 0.18038,0.11148 0.403949,0.0981 0.49682,-0.0296 0.154029,-0.21193 1.094898,-0.40878 1.094898,-0.22907 0,0.20265 -1.827511,1.12374 -1.962253,0.98899 z m 46.697721,-0.22055 c 0.0127,-0.30823 0.0754,-0.37092 0.15985,-0.15986 0.0764,0.191 0.067,0.4192 -0.0209,0.50712 -0.0879,0.0879 -0.15045,-0.0683 -0.13897,-0.34726 z m -30.977135,0.0715 c 0,-0.0455 0.386953,-0.43248 0.859896,-0.85989 l 0.859896,-0.77711 -0.777105,0.8599 c -0.724372,0.80154 -0.942687,0.98151 -0.942687,0.7771 z m 32.155135,-1.84685 c -0.11326,-0.26093 -0.13168,-0.54867 -0.0409,-0.6394 0.26869,-0.26869 0.48527,0.10872 0.36161,0.63011 -0.10963,0.46221 -0.12389,0.46262 -0.32066,0.009 z m -1.04958,-0.37405 c -0.14359,-0.37708 -0.1132,-0.40747 0.14811,-0.14811 0.18082,0.17948 0.26212,0.39297 0.18065,0.47443 -0.0815,0.0815 -0.2294,-0.0654 -0.32876,-0.32632 z m -42.61493,-0.87131 c 0.56839,-0.58208 1.092967,-1.05833 1.165727,-1.05833 0.07276,0 -0.332754,0.47625 -0.901143,1.05833 -0.56839,0.58209 -1.092967,1.05834 -1.165727,1.05834 -0.07276,0 0.332754,-0.47625 0.901143,-1.05834 z m 37.76927,0.64063 c 0.25466,-0.3025 0.46302,-0.74899 0.46302,-0.99219 0,-0.2432 0.14883,-0.44219 0.33073,-0.44219 0.1819,0 0.33073,0.28629 0.33073,0.6362 0,0.3499 -0.0968,0.57637 -0.21511,0.50325 -0.11831,-0.0731 -0.4755,0.0871 -0.79375,0.35599 -0.57522,0.48605 -0.5759,0.48569 -0.11562,-0.0611 z m -36.578645,0.0703 c 0,-0.0455 0.386953,-0.43248 0.859896,-0.85989 l 0.859896,-0.77711 -0.777105,0.8599 c -0.724372,0.80154 -0.942687,0.98151 -0.942687,0.7771 z m 40.018225,-1.68709 c 0.25467,-0.0665 0.67138,-0.0665 0.92605,0 0.25466,0.0666 0.0463,0.121 -0.46302,0.121 -0.50933,0 -0.71769,-0.0545 -0.46303,-0.121 z m 1.52136,-0.54051 c 0,-0.20167 0.13237,-0.28486 0.29416,-0.18486 0.1618,0.1 0.38661,0.0322 0.49959,-0.15058 0.11298,-0.18281 0.33779,-0.25056 0.49958,-0.15057 0.51785,0.32004 0.31677,0.61636 -0.49958,0.73618 -0.55614,0.0816 -0.79375,0.007 -0.79375,-0.25017 z m -39.158335,-0.43533 c 0,-0.055 0.20836,-0.2633 0.463021,-0.46303 0.419644,-0.3291 0.429002,-0.31974 0.0999,0.0999 -0.345644,0.44073 -0.562916,0.58089 -0.562916,0.36313 z m -6.83739,-0.69386 c 0,-0.3638 0.06005,-0.51263 0.133452,-0.33073 0.0734,0.1819 0.0734,0.47956 0,0.66146 -0.0734,0.1819 -0.133452,0.0331 -0.133452,-0.33073 z m 46.721495,-0.94905 c -0.15819,-1.40351 -0.60711,-2.04719 -0.99732,-1.42999 -0.21368,0.33798 -0.2501,0.33045 -0.25357,-0.0524 -0.003,-0.32077 -0.28432,-0.47637 -0.99624,-0.55084 -0.89055,-0.0931 -0.8609,-0.10834 0.28936,-0.14826 1.01464,-0.0352 1.30892,-0.14918 1.413,-0.54719 0.0931,-0.35591 0.46073,-0.5521 1.25897,-0.6718 0.81164,-0.12171 1.22135,-0.34442 1.46248,-0.79497 0.34387,-0.64254 0.16494,-1.33376 -0.2749,-1.06193 -0.13546,0.0837 -0.2463,0.0272 -0.2463,-0.12568 0,-0.15285 -0.43147,-0.84316 -0.95881,-1.53403 -0.95706,-1.25381 -0.95851,-1.25977 -0.79155,-3.26181 0.1322,-1.58508 0.0632,-2.32116 -0.32896,-3.5099 -0.86664,-2.62695 -2.66692,-4.60204 -4.60141,-5.04819 -1.02913,-0.23735 -0.96709,0.49776 0.13229,1.5673 1.70406,1.65782 2.39252,3.05474 2.71833,5.51566 0.11981,0.905 0.0916,1.26998 -0.0846,1.09369 -0.14543,-0.14552 -0.32941,-0.74084 -0.40883,-1.32292 -0.28898,-2.11785 -0.51406,-2.82054 -1.00083,-3.12453 -0.27305,-0.17053 -0.49646,-0.4554 -0.49646,-0.63306 0,-0.33802 -1.93226,-2.39197 -2.6849,-2.85398 -0.23976,-0.14718 -0.83507,-0.58158 -1.32291,-0.965347 -1.33406,-1.049446 -4.65099,-2.344324 -6.45552,-2.520138 -1.37661,-0.134121 -1.8067,-0.05798 -3.083,0.545807 -1.64206,0.776816 -2.641859,1.914108 -2.02585,2.304438 0.19725,0.12499 0.23957,0.22528 0.094,0.22289 -0.14552,-0.002 -0.495699,-0.17918 -0.778174,-0.392828 -0.282474,-0.213654 -0.416724,-0.388461 -0.298331,-0.388461 0.118391,0 0.06704,-0.178593 -0.11412,-0.396875 -0.252896,-0.304722 -0.255169,-0.396875 -0.0098,-0.396875 0.175773,0 1.165475,-0.416718 2.199325,-0.926041 1.49687,-0.737424 2.19386,-0.926042 3.42194,-0.926042 2.50819,0 7.4656,1.946792 7.90582,3.104637 0.12536,0.329745 0.43924,0.595745 0.69751,0.591115 0.42456,-0.008 0.41885,-0.0469 -0.0596,-0.40965 -0.49014,-0.371649 -0.44136,-0.387965 0.66146,-0.221243 2.6056,0.393913 4.22187,1.582903 5.43024,3.994703 0.70103,1.3992 0.77257,1.7924 0.78545,4.31752 l 0.0142,2.77813 1.27816,1.56538 c 1.11893,1.37037 1.25985,1.6782 1.13119,2.471 -0.18289,1.12702 -0.59281,1.6333 -1.69573,2.09432 -0.85897,0.35906 -0.86116,0.36479 -0.69117,1.8111 0.0938,0.798 0.11008,1.4509 0.0362,1.4509 -0.0739,0 -0.19586,-0.54613 -0.2711,-1.21363 z m 0.068,-1.96137 c 0,-0.14552 -0.11906,-0.26458 -0.26458,-0.26458 -0.14553,0 -0.26459,0.11906 -0.26459,0.26458 0,0.14553 0.11906,0.26459 0.26459,0.26459 0.14552,0 0.26458,-0.11906 0.26458,-0.26459 z m 0.9977,-0.74414 c 0.0576,-0.1728 -0.0838,-0.31419 -0.3142,-0.31419 -0.2304,0 -0.41892,0.18852 -0.41892,0.41892 0,0.46724 0.56959,0.38587 0.73312,-0.10473 z m 0.98667,-0.31419 c 0.0899,-0.14552 -0.0221,-0.26458 -0.24896,-0.26458 -0.22687,0 -0.41249,0.11906 -0.41249,0.26458 0,0.14552 0.11203,0.26458 0.24896,0.26458 0.13694,0 0.32256,-0.11906 0.41249,-0.26458 z m -21.8943,-17.352292 c -0.252139,-0.252136 -0.757636,0.156263 -0.569731,0.460296 0.111685,0.180711 0.259677,0.176146 0.449696,-0.01387 0.155775,-0.155775 0.209795,-0.356665 0.120035,-0.446423 z m -1.599241,20.613302 c 0.07399,-0.19283 0.291661,-0.35059 0.483701,-0.35059 0.192042,0 0.387664,-0.16688 0.434715,-0.37084 0.06389,-0.27696 0.156173,-0.29371 0.364522,-0.0662 0.20247,0.22114 0.04637,0.41898 -0.569248,0.72143 -0.647462,0.3181 -0.816383,0.33376 -0.71369,0.0662 z m 20.471721,0.0242 c 0.0127,-0.30823 0.0754,-0.37092 0.15985,-0.15986 0.0764,0.191 0.067,0.4192 -0.0209,0.50712 -0.0879,0.0879 -0.15045,-0.0683 -0.13897,-0.34726 z M 81.343532,119.2327 c 0,-0.055 0.208359,-0.2633 0.463021,-0.46303 0.419644,-0.3291 0.429002,-0.31974 0.0999,0.0999 -0.345644,0.44073 -0.562916,0.58089 -0.562916,0.36313 z m -0.264583,-1.09073 c 0.493655,-0.50933 0.957086,-0.92605 1.029846,-0.92605 0.07276,0 -0.271608,0.41672 -0.765263,0.92605 -0.493655,0.50932 -0.957086,0.92604 -1.029847,0.92604 -0.07276,0 0.271609,-0.41672 0.765264,-0.92604 z m 20.565061,-0.11979 c 0.22454,-0.25631 0.24095,-0.47092 0.0533,-0.69703 -0.16471,-0.19846 -0.17401,-0.38673 -0.0237,-0.47963 0.13609,-0.0841 0.37958,0.006 0.54108,0.20086 0.22408,0.27001 0.15285,0.47132 -0.30075,0.84997 -0.32691,0.27289 -0.44839,0.32951 -0.26995,0.12583 z m -2.748149,-3.20805 c -1.033598,-1.00735 -1.819254,-1.83154 -1.745904,-1.83154 0.07335,0 -0.02521,-0.20836 -0.219014,-0.46302 -0.19381,-0.25466 0.119034,0.0182 0.695209,0.60628 0.576172,0.58811 1.627066,1.55474 2.335313,2.14806 0.708245,0.59333 1.181065,1.14469 1.050695,1.22527 -0.13037,0.0806 -1.082699,-0.6777 -2.116299,-1.68505 z m -16.229412,1.50815 c 0,-0.0549 0.208359,-0.2633 0.46302,-0.46302 0.419644,-0.32911 0.429003,-0.31975 0.0999,0.0999 -0.345643,0.44073 -0.562915,0.58089 -0.562915,0.36313 z m 12.1866,-0.76 c -0.157584,-0.40477 -0.125281,-0.68 0.100927,-0.8599 0.182981,-0.14552 0.348724,-0.35514 0.368316,-0.46581 0.08542,-0.48256 0.91617,-1.50142 1.120995,-1.37483 0.212794,0.13151 -0.152678,0.69822 -1.098963,1.70409 -0.28797,0.30611 -0.352692,0.62463 -0.206962,1.01857 0.116618,0.31526 0.152503,0.57319 0.07974,0.57319 -0.07276,0 -0.236586,-0.26789 -0.364056,-0.59531 z m -5.605766,-2.51354 c -0.329107,-0.41965 -0.319749,-0.42901 0.09989,-0.0999 0.254661,0.19972 0.463021,0.40808 0.463021,0.46302 0,0.21776 -0.217272,0.0776 -0.562916,-0.36312 z m 0,-0.79375 c -0.329107,-0.41965 -0.319749,-0.42901 0.09989,-0.0999 0.254661,0.19972 0.463021,0.40808 0.463021,0.46302 0,0.21776 -0.217272,0.0776 -0.562916,-0.36312 z m -3.275738,-0.28444 c 0.09822,-0.0982 0.257959,-0.18887 0.354973,-0.20143 0.09701,-0.0126 0.393981,-0.11815 0.659926,-0.23462 0.33302,-0.14585 0.621281,-0.0609 0.926042,0.27294 0.415447,0.45507 0.414398,0.46356 -0.01715,0.13887 -0.27142,-0.20421 -0.650643,-0.26317 -0.926042,-0.14398 -0.662388,0.28668 -1.208246,0.37871 -0.997752,0.16822 z m 23.417825,-0.44317 c 0.34177,-0.3638 0.68093,-0.66146 0.7537,-0.66146 0.0728,0 -0.14735,0.29766 -0.48912,0.66146 -0.34178,0.36381 -0.68094,0.66146 -0.7537,0.66146 -0.0728,0 0.14734,-0.29765 0.48912,-0.66146 z m -21.588685,-0.46302 -0.504028,-0.59531 0.595312,0.50403 c 0.559447,0.47366 0.715762,0.68659 0.504029,0.68659 -0.05021,0 -0.318098,-0.26789 -0.595313,-0.59531 z m 27.361345,0.27306 c 0.1411,-0.14109 0.47755,-0.20969 0.74767,-0.15244 0.36375,0.0771 0.29722,0.14364 -0.25654,0.25654 -0.48282,0.0984 -0.65679,0.0616 -0.49113,-0.1041 z m -4.71433,-0.57548 c 0,-0.0572 0.17859,-0.17252 0.39687,-0.25628 0.21828,-0.0838 0.39688,-0.037 0.39688,0.10399 0,0.14095 -0.1786,0.25627 -0.39688,0.25627 -0.21828,0 -0.39687,-0.0468 -0.39687,-0.10398 z M 77.903929,108.3848 c 0,-0.0549 0.208359,-0.2633 0.463021,-0.46302 0.419643,-0.32911 0.429002,-0.31975 0.09989,0.0999 -0.345643,0.44073 -0.562915,0.58089 -0.562915,0.36313 z m 35.591871,-1.20598 c -0.0964,-0.30361 -0.51641,-0.72845 -0.93343,-0.9441 -0.41702,-0.21565 -0.84815,-0.54177 -0.95808,-0.72471 -0.13792,-0.22954 -0.0611,-0.22008 0.24781,0.0305 0.35009,0.28398 0.44766,0.28946 0.44766,0.0252 0,-0.18587 -0.50601,-0.8204 -1.12448,-1.41006 -0.61846,-0.58966 -0.97565,-0.98092 -0.79375,-0.86946 0.36305,0.22245 0.44665,-0.10051 0.13229,-0.5111 -0.10914,-0.14255 0.24853,0.22059 0.79482,0.80698 1.07888,1.15809 2.71925,3.79186 2.49889,4.01222 -0.0751,0.0751 -0.21538,-0.11187 -0.31173,-0.41548 z M 81.078929,105.2098 c 0,-0.0549 0.208359,-0.2633 0.46302,-0.46302 0.419644,-0.32911 0.429003,-0.31975 0.0999,0.0999 -0.345643,0.44073 -0.562915,0.58089 -0.562915,0.36313 z m 27.927511,-1.99417 c -0.0852,-0.13784 -0.0421,-0.32032 0.0957,-0.40551 0.13784,-0.0852 0.32032,-0.0421 0.40551,0.0957 0.0852,0.13784 0.0421,0.32031 -0.0957,0.4055 -0.13784,0.0852 -0.32031,0.0421 -0.4055,-0.0957 z m -0.85686,-0.35333 c -0.11696,-0.1819 -0.36685,-0.62136 -0.5553,-0.97658 -0.32937,-0.6208 -0.32349,-0.62849 0.15173,-0.19843 0.2719,0.24607 0.6636,0.44923 0.87042,0.45146 0.31633,0.003 0.31815,0.0407 0.0114,0.235 -0.20054,0.12702 -0.28281,0.36332 -0.18282,0.52511 0.25182,0.40746 -0.0326,0.37226 -0.29544,-0.0366 z m 0.89215,-1.01654 c -0.1389,-0.53114 -0.1241,-0.53483 0.36602,-0.0913 0.60766,0.54993 0.62896,0.64481 0.14475,0.64481 -0.20131,0 -0.43116,-0.24909 -0.51077,-0.55352 z m -2.29822,-1.43086 c -0.65484,-0.35065 -1.09658,-0.642924 -0.98164,-0.6495 0.28097,-0.01607 2.30456,1.02361 2.30456,1.18405 0,0.17528 0.011,0.17972 -1.32292,-0.53455 z m -1.5875,0.13229 c -0.21828,-0.14106 -0.27781,-0.25648 -0.13229,-0.25648 0.14552,0 0.44318,0.11542 0.66146,0.25648 0.21828,0.14107 0.27781,0.25648 0.13229,0.25648 -0.14552,0 -0.44318,-0.11541 -0.66146,-0.25648 z m -3.5238,-0.43699 c -0.34277,-0.342772 -0.1777,-0.56016 0.52776,-0.695017 0.42608,-0.08145 0.86035,0.01685 1.0903,0.246802 0.33316,0.333169 0.28962,0.358945 -0.33965,0.201004 -0.44411,-0.111463 -0.7942,-0.06406 -0.90993,0.123205 -0.10346,0.167406 -0.26928,0.223206 -0.36848,0.124006 z m 2.41586,-0.008 c 0.19099,-0.0764 0.4192,-0.067 0.50712,0.0209 0.0879,0.0879 -0.0683,0.15045 -0.34727,0.13896 -0.30822,-0.0127 -0.37092,-0.0754 -0.15985,-0.15985 z M 92.141819,99.837286 c 0.190996,-0.07643 0.4192,-0.06703 0.507118,0.02089 0.08792,0.08792 -0.06835,0.150454 -0.347265,0.138965 -0.308225,-0.0127 -0.37092,-0.07539 -0.159853,-0.159853 z m 2.89388,-0.277571 c 0.618464,-0.0557 1.630495,-0.0557 2.248959,0 0.618463,0.0557 0.112448,0.101281 -1.124479,0.101281 -1.236927,0 -1.742943,-0.04558 -1.12448,-0.101281 z m 0.132292,-1.057344 c 0.545703,-0.05708 1.438672,-0.05708 1.984375,0 0.545703,0.05708 0.09922,0.103786 -0.992187,0.103786 -1.091407,0 -1.537891,-0.0467 -0.992188,-0.103786 z"
         id="path1064" />
      <path
         style="display:inline;fill:#b1e6fd;stroke-width:0.264583"
         d="m 95.966776,145.60759 c 0.257432,-0.0671 0.614619,-0.0627 0.79375,0.01 0.179131,0.0725 -0.03149,0.12736 -0.468056,0.12197 -0.436562,-0.005 -0.583125,-0.0647 -0.325694,-0.13178 z m -2.892898,-0.28539 c -0.226848,-0.14432 -0.202171,-0.33527 0.09351,-0.72356 0.395691,-0.51961 0.399139,-0.51892 0.23103,0.0463 -0.124777,0.41953 -0.04322,0.60689 0.303364,0.69691 0.323494,0.084 0.347992,0.13158 0.07715,0.14976 -0.218282,0.0147 -0.535554,-0.0616 -0.705051,-0.16942 z m 5.538732,0.0208 c 0.257431,-0.0671 0.614619,-0.0627 0.79375,0.01 0.17913,0.0725 -0.03149,0.12737 -0.468056,0.12197 -0.436563,-0.005 -0.583126,-0.0647 -0.325694,-0.13177 z m 2.1012,-0.45034 c 0.18764,-0.203 0.44317,-0.30718 0.56784,-0.23151 0.12468,0.0757 0.0652,0.23995 -0.13229,0.36506 -0.5583,0.35376 -0.81361,0.27548 -0.43555,-0.13355 z m -11.379176,-0.3859 c -0.274165,-0.17392 -0.260852,-0.28613 0.06615,-0.55752 0.225169,-0.18688 0.409399,-0.56332 0.409399,-0.83654 0,-0.27323 0.102552,-0.49678 0.227893,-0.49678 0.125341,0 0.170862,0.29835 0.101156,0.66298 -0.0697,0.36464 0.02092,0.84089 0.201379,1.05834 0.271298,0.32689 0.242328,0.39465 -0.167302,0.3913 -0.27248,-0.002 -0.649882,-0.10204 -0.838671,-0.22179 z m 13.075436,-0.50177 c 0.23922,-0.99719 0.28327,-1.00543 0.41933,-0.0784 0.0818,0.55764 0.009,0.80601 -0.23779,0.80601 -0.25439,0 -0.30624,-0.20781 -0.18154,-0.7276 z m -1.73109,-0.22049 c 0.0127,-0.30822 0.0754,-0.37092 0.15985,-0.15985 0.0764,0.19099 0.067,0.4192 -0.0209,0.50712 -0.0879,0.0879 -0.15045,-0.0683 -0.13897,-0.34727 z m -14.851075,-3.0862 c 0.119356,-2.46013 0.20029,-2.26937 0.336721,0.79363 0.04345,0.97542 -0.03488,1.65418 -0.190906,1.65425 -0.165887,8e-5 -0.22028,-0.91304 -0.145815,-2.44788 z m 20.651025,2.0343 c 0,-0.22687 0.121,-0.3377 0.2689,-0.2463 0.14789,0.0914 0.2004,0.27702 0.11667,0.41249 -0.22681,0.36699 -0.38557,0.29856 -0.38557,-0.16619 z m -22.372869,-0.52815 c -0.49319,-0.39512 -0.489944,-0.40001 0.08172,-0.12298 0.327422,0.15867 0.595312,0.34383 0.595312,0.41147 0,0.20247 -0.137215,0.144 -0.677034,-0.28849 z m 18.689589,-0.007 c 0.0127,-0.30823 0.0754,-0.37092 0.15985,-0.15985 0.0764,0.19099 0.067,0.4192 -0.0209,0.50712 -0.0879,0.0879 -0.15046,-0.0684 -0.13897,-0.34727 z m -2.30676,-2.2269 c 0,-1.38245 0.0446,-1.94799 0.0991,-1.25677 0.0545,0.69122 0.0545,1.82232 0,2.51354 -0.0545,0.69123 -0.0991,0.12568 -0.0991,-1.25677 z m 2.57134,0.904 c 0.0127,-0.30823 0.0754,-0.37092 0.15985,-0.15986 0.0764,0.191 0.067,0.4192 -0.0209,0.50712 -0.0879,0.0879 -0.15045,-0.0684 -0.13897,-0.34726 z m 6.06453,0.13872 c 0,-0.15411 0.12428,-0.20339 0.27617,-0.10951 0.1519,0.0939 0.47932,0.0116 0.72761,-0.18283 0.40661,-0.3184 0.41538,-0.30753 0.0883,0.10952 -0.39946,0.50934 -1.09209,0.62529 -1.09209,0.18282 z m -27.28583,-0.44741 c -0.329108,-0.41964 -0.319749,-0.429 0.09989,-0.0999 0.254662,0.19972 0.463021,0.40808 0.463021,0.46302 0,0.21776 -0.217272,0.0776 -0.562915,-0.36313 z m 30.46083,-1.78593 c 0.79042,-0.80037 1.49667,-1.45521 1.56943,-1.45521 0.0728,0 -0.51442,0.65484 -1.30484,1.45521 -0.79043,0.80036 -1.49667,1.4552 -1.56943,1.4552 -0.0728,0 0.51442,-0.65484 1.30484,-1.4552 z m -32.543748,0 c -0.642681,-0.65485 -1.108979,-1.19063 -1.036218,-1.19063 0.07276,0 0.658121,0.53578 1.300801,1.19063 0.642681,0.65484 1.108979,1.19062 1.036219,1.19062 -0.07276,0 -0.658121,-0.53578 -1.300802,-1.19062 z m 29.918808,-0.55122 c 0.0127,-0.30822 0.0754,-0.37092 0.15985,-0.15985 0.0764,0.19099 0.067,0.4192 -0.0209,0.50712 -0.0879,0.0879 -0.15045,-0.0683 -0.13896,-0.34727 z M 85.131121,137.8516 c -0.317909,-0.12809 -0.708301,-0.5075 -0.867539,-0.84313 l -0.289522,-0.61023 0.43679,0.59531 c 0.240234,0.32742 0.660392,0.59531 0.933684,0.59531 0.273292,0 0.496895,0.11906 0.496895,0.26458 0,0.14553 -0.02977,0.25704 -0.06615,0.24782 -0.03638,-0.009 -0.326253,-0.12157 -0.644162,-0.24966 z m 10.429335,-0.031 c 0.179477,-0.18082 0.392969,-0.26211 0.474432,-0.18065 0.08146,0.0815 -0.06538,0.22941 -0.326319,0.32877 -0.377084,0.14358 -0.407474,0.11319 -0.148113,-0.14812 z m 10.720614,-1.15779 c 0.003,-0.58208 0.0571,-0.78905 0.1204,-0.45994 0.0633,0.32912 0.0609,0.80537 -0.005,1.05834 -0.0662,0.25296 -0.118,-0.0163 -0.11507,-0.5984 z m -28.41089,-0.0662 c -0.329108,-0.41964 -0.319749,-0.429 0.09989,-0.0999 0.254662,0.19972 0.463021,0.40808 0.463021,0.46302 0,0.21776 -0.217272,0.0776 -0.562915,-0.36313 z m 32.10972,-0.33073 c 0,-0.50932 0.0545,-0.71768 0.121,-0.46302 0.0666,0.25467 0.0666,0.67138 0,0.92605 -0.0665,0.25466 -0.121,0.0463 -0.121,-0.46303 z m -9.85097,0.26459 c -0.238468,-0.15411 -0.271101,-0.2581 -0.0818,-0.26053 0.17331,-0.002 0.3887,0.11501 0.47863,0.26053 0.20302,0.32849 0.11143,0.32849 -0.39687,0 z m 14.02292,0.16469 c 0,-0.055 0.20835,-0.2633 0.46302,-0.46303 0.41964,-0.3291 0.429,-0.31974 0.0999,0.0999 -0.34564,0.44073 -0.56291,0.58089 -0.56291,0.36313 z m 1.5875,-2.28136 c 0.15576,-0.29104 0.34273,-0.52917 0.41549,-0.52917 0.0728,0 0.005,0.23813 -0.15091,0.52917 -0.15576,0.29104 -0.34273,0.52917 -0.4155,0.52917 -0.0728,0 -0.005,-0.23813 0.15092,-0.52917 z m -10.47103,-0.0878 c 0.0837,-0.26657 0.15228,-0.53446 0.15228,-0.59532 0,-0.0609 0.17859,-0.11065 0.39687,-0.11065 0.21828,0 0.39688,0.12609 0.39688,0.2802 0,0.15411 -0.11175,0.21114 -0.24833,0.12673 -0.13657,-0.0844 -0.38369,0.0574 -0.54914,0.31511 -0.28376,0.442 -0.29218,0.44109 -0.14856,-0.0161 z m -29.216475,-0.44139 c -0.15576,-0.29104 -0.22367,-0.52916 -0.15091,-0.52916 0.07276,0 0.259733,0.23812 0.415494,0.52916 0.15576,0.29105 0.22367,0.52917 0.15091,0.52917 -0.07276,0 -0.259733,-0.23812 -0.415494,-0.52917 z m 34.175725,-1.21576 c -0.0342,-0.83233 0.0935,-1.2003 0.55084,-1.5875 0.59064,-0.50007 0.59183,-0.49987 0.15183,0.0251 -0.24392,0.29104 -0.4918,1.00541 -0.55084,1.5875 l -0.10735,1.05833 -0.0445,-1.08347 z m 1.27844,-2.05913 c 0,-0.0549 0.20836,-0.2633 0.46302,-0.46302 0.41965,-0.32911 0.42901,-0.31975 0.0999,0.0999 -0.34564,0.44073 -0.56292,0.58089 -0.56292,0.36313 z m -25.135415,-2.28136 c 0.440753,-0.87312 0.860899,-1.5875 0.933659,-1.5875 0.07276,0 -0.228323,0.71438 -0.669075,1.5875 -0.440753,0.87313 -0.860899,1.5875 -0.933659,1.5875 -0.07276,0 0.228323,-0.71437 0.669075,-1.5875 z m 32.035475,-0.41892 c 0.0127,-0.30822 0.0754,-0.37092 0.15985,-0.15985 0.0764,0.19099 0.067,0.4192 -0.0209,0.50712 -0.0879,0.0879 -0.15045,-0.0683 -0.13896,-0.34727 z m -41.825058,-3.15295 c 1.230501,-1.23693 2.296807,-2.24896 2.369567,-2.24896 0.07276,0 -0.874482,1.01203 -2.104984,2.24896 -1.230501,1.23693 -2.296806,2.24896 -2.369567,2.24896 -0.07276,0 0.874483,-1.01203 2.104984,-2.24896 z m 42.089638,1.83004 c 0.0127,-0.30823 0.0754,-0.37092 0.15985,-0.15986 0.0764,0.191 0.067,0.4192 -0.0209,0.50712 -0.0879,0.0879 -0.15046,-0.0683 -0.13897,-0.34726 z m -30.31568,-1.43317 c 0.263389,-0.29104 0.538421,-0.52916 0.611181,-0.52916 0.07276,0 -0.08321,0.23812 -0.346597,0.52916 -0.263389,0.29105 -0.538421,0.52917 -0.611181,0.52917 -0.07276,0 0.08321,-0.23812 0.346597,-0.52917 z m 30.60172,-0.57441 -0.0423,-0.97128 -2.05053,-0.0939 c -1.52188,-0.0697 -2.18694,0.008 -2.57968,0.301 -0.51206,0.38218 -0.51411,0.37835 -0.0635,-0.11861 0.39881,-0.4398 0.75979,-0.5019 2.51354,-0.43239 1.12633,0.0446 2.14583,0.17528 2.26557,0.2903 0.11975,0.11502 0.16856,0.61122 0.10849,1.10267 l -0.10922,0.89354 z m -45.7037,0.21893 c -0.07503,-0.19553 -0.09495,-1.23732 -0.04427,-2.31511 l 0.09215,-1.95961 0.05257,2.16076 c 0.03501,1.43885 0.163069,2.20535 0.383301,2.29422 0.259043,0.10452 0.257243,0.13798 -0.0083,0.15434 -0.186468,0.0115 -0.400419,-0.13909 -0.475447,-0.3346 z m 1.994048,-1.03358 c 0.648762,-0.69122 1.214309,-1.25677 1.256771,-1.25677 0.198672,0 -0.01138,0.23755 -1.179568,1.33397 l -1.256771,1.17957 z m 17.738141,-1.37044 c 0,-0.0728 0.238125,-0.25974 0.529166,-0.4155 0.291042,-0.15576 0.529167,-0.22367 0.529167,-0.15091 0,0.0728 -0.238125,0.25974 -0.529167,0.4155 -0.291041,0.15576 -0.529166,0.22367 -0.529166,0.15091 z m -13.229167,-1.07695 c 0.341774,-0.36381 0.680939,-0.66146 0.753699,-0.66146 0.07276,0 -0.147341,0.29765 -0.489116,0.66146 -0.341774,0.3638 -0.680939,0.66145 -0.753699,0.66145 -0.07276,0 0.147342,-0.29765 0.489116,-0.66145 z m 35.220278,0.0661 c 0.0219,-0.42487 0.0645,-0.46687 0.14892,-0.14669 0.0813,0.3086 0.46399,0.47998 1.22607,0.54909 l 1.10786,0.10047 -1.25677,0.0462 c -1.14872,0.0422 -1.25414,-0.005 -1.22608,-0.54909 z m -36.14632,-0.99219 c 0.716664,-0.7276 1.362556,-1.32291 1.435316,-1.32291 0.07276,0 -0.454069,0.59531 -1.170732,1.32291 -0.716664,0.72761 -1.362556,1.32292 -1.435316,1.32292 -0.07276,0 0.454069,-0.59531 1.170732,-1.32292 z m 39.95208,1.05834 c 0.0899,-0.14552 0.21603,-0.26459 0.2802,-0.26459 0.0642,0 0.11668,0.11907 0.11668,0.26459 0,0.14552 -0.12609,0.26458 -0.2802,0.26458 -0.15411,0 -0.20661,-0.11906 -0.11668,-0.26458 z m -23.415621,-0.39494 c 0,-0.17923 2.149099,-1.24832 2.268794,-1.12863 0.05546,0.0555 -0.432324,0.35988 -1.083974,0.67648 -0.651651,0.31659 -1.18482,0.52006 -1.18482,0.45215 z m 23.589691,-0.6634 c 0,-0.3638 0.0601,-0.51263 0.13345,-0.33072 0.0734,0.1819 0.0734,0.47955 0,0.66145 -0.0734,0.1819 -0.13345,0.0331 -0.13345,-0.33073 z m -3.72505,-0.15433 c 0.0127,-0.30823 0.0754,-0.37092 0.15985,-0.15986 0.0764,0.191 0.067,0.4192 -0.0209,0.50712 -0.0879,0.0879 -0.15045,-0.0684 -0.13896,-0.34726 z m -34.01985,-0.63942 c 0.263389,-0.29104 0.538421,-0.52916 0.611181,-0.52916 0.07276,0 -0.08321,0.23812 -0.346597,0.52916 -0.263389,0.29105 -0.538421,0.52917 -0.611181,0.52917 -0.07276,0 0.08321,-0.23812 0.346597,-0.52917 z m 16.864891,0.13291 c 0.107879,-0.11908 0.06127,-0.37902 -0.103568,-0.57764 -0.236868,-0.28541 -0.208645,-0.32618 0.134588,-0.19447 0.517125,0.19844 0.560813,0.53517 0.103569,0.7983 -0.181902,0.10468 -0.242465,0.0929 -0.134589,-0.0262 z m -24.628323,-0.66207 c 0,-0.3638 0.06005,-0.51263 0.133453,-0.33073 0.0734,0.1819 0.0734,0.47956 0,0.66146 -0.0734,0.1819 -0.133453,0.0331 -0.133453,-0.33073 z m 42.047862,0.11024 c 0.0127,-0.30822 0.0754,-0.37092 0.15985,-0.15985 0.0764,0.19099 0.067,0.4192 -0.0209,0.50712 -0.0879,0.0879 -0.15046,-0.0684 -0.13897,-0.34727 z m 3.19589,-0.63941 c 0,-0.3638 0.06,-0.51263 0.13345,-0.33073 0.0734,0.1819 0.0734,0.47956 0,0.66146 -0.0734,0.1819 -0.13345,0.0331 -0.13345,-0.33073 z m -19.091778,0.008 c 0,-0.14095 0.179512,-0.18739 0.398918,-0.1032 0.21941,0.0842 0.70568,-0.0479 1.08061,-0.29358 0.6683,-0.43788 0.67216,-0.45795 0.1964,-1.02128 l -0.4853,-0.57461 0.61729,0.52392 0.61729,0.52392 -0.69819,0.60055 c -0.70836,0.60931 -1.727018,0.81238 -1.727018,0.34428 z m -17.4625,-0.10819 c 0,-0.0549 0.208359,-0.26331 0.463021,-0.46302 0.419644,-0.32911 0.429002,-0.31975 0.09989,0.0999 -0.345644,0.44073 -0.562916,0.58089 -0.562916,0.36313 z m 33.708838,-0.6916 c 0.0166,-0.4274 0.19017,-0.67378 0.49374,-0.70067 0.29693,-0.0263 0.32698,0.003 0.0821,0.0802 -0.21233,0.0669 -0.43452,0.38223 -0.49374,0.70068 -0.0887,0.47695 -0.10318,0.46282 -0.0821,-0.0802 z m -17.370817,0.11099 c -0.989129,-0.53661 -0.928921,-0.76011 0.06615,-0.24554 0.436562,0.22575 0.79375,0.46694 0.79375,0.53596 0,0.17026 -0.02843,0.16066 -0.859896,-0.29042 z m -24.7838,-0.26759 c 0.01269,-0.30822 0.07539,-0.37092 0.159853,-0.15985 0.07643,0.19099 0.06703,0.4192 -0.02089,0.50712 -0.08792,0.0879 -0.150453,-0.0683 -0.138963,-0.34727 z m 7.387446,0.33613 c 0,-0.0455 0.386953,-0.43248 0.859895,-0.85989 l 0.859896,-0.77711 -0.777105,0.8599 c -0.724371,0.80154 -0.942686,0.98151 -0.942686,0.7771 z m 1.852083,-0.54627 c 0,-0.0549 0.208359,-0.2633 0.463021,-0.46302 0.419644,-0.32911 0.429002,-0.31975 0.0999,0.0999 -0.345644,0.44073 -0.562916,0.58088 -0.562916,0.36312 z m 18.653128,-0.85514 -1.05834,-0.94716 1.19063,0.86984 c 0.65484,0.47842 1.24023,0.90641 1.30087,0.9511 0.0606,0.0447 10e-4,0.0795 -0.13229,0.0773 -0.1334,-0.002 -0.71879,-0.43016 -1.30087,-0.9511 z m 17.85937,0.69045 c 0,-0.14552 0.11906,-0.26458 0.26459,-0.26458 0.14552,0 0.26458,0.11906 0.26458,0.26458 0,0.14553 -0.11906,0.26459 -0.26458,0.26459 -0.14553,0 -0.26459,-0.11906 -0.26459,-0.26459 z m -45.487443,-0.6835 c 0.01269,-0.30823 0.07539,-0.37092 0.159852,-0.15985 0.07643,0.19099 0.06703,0.41919 -0.02089,0.50711 -0.08792,0.0879 -0.150453,-0.0683 -0.138964,-0.34726 z m 21.63811,-0.39053 -0.624623,-0.54487 0.727604,0.44301 c 0.400182,0.24365 0.727604,0.48884 0.727604,0.54487 0,0.20659 -0.221057,0.0887 -0.830585,-0.44301 z m 3.065449,-1.26757 c -1.103865,-1.06213 -1.6803,-1.78193 -1.411137,-1.7621 0.535991,0.0395 1.370037,0.67522 1.160611,0.88464 -0.07981,0.0798 0.418849,0.7177 1.108138,1.41751 1.853462,1.88176 1.291712,1.52802 -0.857612,-0.54005 z m -0.382781,-0.93329 c 0,-0.0549 -0.208359,-0.2633 -0.463021,-0.46302 -0.419645,-0.32911 -0.429003,-0.31975 -0.0999,0.0999 0.345644,0.44073 0.562917,0.58089 0.562917,0.36313 z m 23.018755,2.21656 c 0,-0.14552 0.18562,-0.26458 0.41249,-0.26458 0.22687,0 0.3389,0.11906 0.24896,0.26458 -0.0899,0.14552 -0.27555,0.26458 -0.41249,0.26458 -0.13693,0 -0.24896,-0.11906 -0.24896,-0.26458 z m -38.232296,-0.52917 c 0.263389,-0.29104 0.53842,-0.52916 0.611181,-0.52916 0.07276,0 -0.08321,0.23812 -0.346598,0.52916 -0.263389,0.29105 -0.53842,0.52917 -0.611181,0.52917 -0.07276,0 0.08321,-0.23812 0.346598,-0.52917 z m 23.151046,-0.13229 c 0.34177,-0.3638 0.68093,-0.66146 0.7537,-0.66146 0.0728,0 -0.14735,0.29766 -0.48912,0.66146 -0.34178,0.36381 -0.68094,0.66146 -0.7537,0.66146 -0.0728,0 0.14734,-0.29765 0.48912,-0.66146 z m -21.960421,0.0324 c 0,-0.0549 0.208359,-0.2633 0.46302,-0.46302 0.419644,-0.32911 0.429003,-0.31975 0.0999,0.0999 -0.345643,0.44073 -0.562915,0.58089 -0.562915,0.36313 z m 15.196896,-0.76 -0.777105,-0.8599 0.859896,0.77711 c 0.801544,0.72437 0.981514,0.94268 0.777104,0.94268 -0.0455,0 -0.432487,-0.38695 -0.859895,-0.85989 z m -4.34898,0.5104 c 0,-0.11426 0.297657,-0.64579 0.661459,-1.18117 0.363802,-0.53538 0.661458,-0.87994 0.661458,-0.76568 0,0.11427 -0.297656,0.64579 -0.661458,1.18118 -0.363802,0.53538 -0.661459,0.87993 -0.661459,0.76567 z m -0.79375,-0.27957 c 0,-0.0549 0.20836,-0.2633 0.463021,-0.46302 0.419645,-0.32911 0.429004,-0.31975 0.0999,0.0999 -0.345643,0.44073 -0.562917,0.58088 -0.562917,0.36312 z m 27.002815,-0.27853 c -0.25083,-0.30223 -0.20731,-0.43555 0.21613,-0.66217 0.60053,-0.32139 0.97255,0.0148 0.72635,0.65639 -0.18713,0.48764 -0.54078,0.48981 -0.94248,0.006 z m 0.64614,-0.15074 c 0.0899,-0.14552 0.0374,-0.26458 -0.11667,-0.26458 -0.15411,0 -0.2802,0.11906 -0.2802,0.26458 0,0.14552 0.0525,0.26458 0.11667,0.26458 0.0642,0 0.19027,-0.11906 0.2802,-0.26458 z m -38.232288,0.16469 c 0,-0.0549 0.208359,-0.2633 0.463021,-0.46302 0.419644,-0.32911 0.429002,-0.31975 0.0999,0.0999 -0.345644,0.44073 -0.562916,0.58089 -0.562916,0.36313 z m 8.847966,-0.31158 c -0.49319,-0.39512 -0.489944,-0.40001 0.08172,-0.12298 0.327422,0.15867 0.595313,0.34383 0.595313,0.41147 0,0.20247 -0.137215,0.144 -0.677033,-0.28849 z m -2.390813,-0.44842 -0.504028,-0.59531 0.595313,0.50402 c 0.559446,0.47367 0.715761,0.6866 0.504028,0.6866 -0.05021,0 -0.318098,-0.26789 -0.595313,-0.59531 z m 4.91993,-0.0337 c 0,-0.0549 0.20836,-0.2633 0.463021,-0.46302 0.419645,-0.32911 0.429004,-0.31975 0.0999,0.0999 -0.345643,0.44073 -0.562917,0.58089 -0.562917,0.36313 z M 84.518512,113.6761 c 0,-0.0549 0.208359,-0.26331 0.463021,-0.46302 0.419644,-0.32911 0.429002,-0.31975 0.0999,0.0999 -0.345644,0.44073 -0.562916,0.58089 -0.562916,0.36313 z m 4.213308,-0.8923 -0.641433,-0.7276 0.727604,0.64143 c 0.680056,0.59952 0.848939,0.81378 0.641433,0.81378 -0.04739,0 -0.374816,-0.32742 -0.727604,-0.72761 z m 7.163775,0.0986 c 0,-0.055 0.20836,-0.26331 0.463021,-0.46302 0.419645,-0.32911 0.429004,-0.31975 0.0999,0.0999 -0.345643,0.44073 -0.562917,0.58089 -0.562917,0.36313 z m 19.334135,-0.8026 c -0.2173,-0.26183 -0.22502,-0.42573 -0.0259,-0.54883 0.15619,-0.0965 0.25127,-0.0207 0.21128,0.1686 -0.04,0.18927 0.21195,0.38719 0.55986,0.43983 0.52089,0.0788 0.59986,0.01 0.44734,-0.3906 -0.14126,-0.3709 -0.11162,-0.41329 0.12491,-0.17862 0.17057,0.16922 0.23013,0.43711 0.13236,0.59531 -0.2511,0.40627 -1.08239,0.35715 -1.44991,-0.0857 z m -39.177885,-0.68501 c 0.155761,-0.29104 0.342733,-0.52917 0.415494,-0.52917 0.07276,0 0.0048,0.23813 -0.15091,0.52917 -0.155761,0.29104 -0.342733,0.52917 -0.415494,0.52917 -0.07276,0 -0.0048,-0.23813 0.15091,-0.52917 z m 10.054167,0 c 0.155761,-0.29104 0.342733,-0.52917 0.415493,-0.52917 0.07276,0 0.0048,0.23813 -0.15091,0.52917 -0.15576,0.29104 -0.342732,0.52917 -0.415493,0.52917 -0.07276,0 -0.0048,-0.23813 0.15091,-0.52917 z m 2.22382,-0.0661 -0.504028,-0.59532 0.595312,0.50403 c 0.559447,0.47366 0.715762,0.6866 0.504028,0.6866 -0.05021,0 -0.318097,-0.26789 -0.595312,-0.59531 z m 20.794928,0.23083 c 0,-0.0549 0.20836,-0.2633 0.46302,-0.46302 0.41965,-0.32911 0.42901,-0.31975 0.0999,0.0999 -0.34564,0.44073 -0.56292,0.58089 -0.56292,0.36313 z m 1.78097,-1.50881 c 0.0936,-0.35777 0.21349,-0.47771 0.27954,-0.27955 0.0636,0.19088 -0.0101,0.47285 -0.16386,0.6266 -0.19633,0.19634 -0.23077,0.093 -0.11568,-0.34705 z m 1.27699,-1.01245 c -0.0816,-0.13195 0.09,-0.1776 0.38126,-0.10144 0.6178,0.16156 0.69589,0.34134 0.14827,0.34134 -0.20969,0 -0.44798,-0.10795 -0.52953,-0.2399 z m -34.543375,-0.12457 c 0,-0.055 0.20836,-0.26331 0.463021,-0.46302 0.419644,-0.32911 0.429002,-0.31975 0.09989,0.0999 -0.345644,0.44073 -0.562916,0.58089 -0.562916,0.36313 z m 33.531525,-0.19752 c 0.17948,-0.18082 0.39297,-0.26212 0.47443,-0.18066 0.0815,0.0815 -0.0654,0.22941 -0.32631,0.32877 -0.37709,0.14358 -0.40748,0.11319 -0.14812,-0.14811 z m 2.40537,-0.41013 c 0.11291,-0.55376 0.17944,-0.6203 0.25655,-0.25654 0.0572,0.27012 -0.0114,0.60657 -0.15244,0.74766 -0.16567,0.16567 -0.20254,-0.008 -0.10411,-0.49112 z m -33.831285,-1.73985 c 1.096424,-1.16819 1.333974,-1.37824 1.333974,-1.17957 0,0.0425 -0.565547,0.60801 -1.256771,1.25677 l -1.256771,1.17957 z m 32.290225,-0.49289 c -0.80037,-0.74081 -1.00458,-0.97762 -0.45381,-0.52624 0.55076,0.45138 1.11212,0.82069 1.24746,0.82069 0.13533,0 0.37351,0.23812 0.52927,0.52916 0.15576,0.29105 0.24924,0.52786 0.20774,0.52625 -0.0415,-0.002 -0.7303,-0.60904 -1.53066,-1.34986 z m -30.427085,-1.12836 c 0,-0.055 0.20836,-0.26331 0.463021,-0.46302 0.419644,-0.32911 0.429002,-0.31975 0.09989,0.0999 -0.345644,0.44073 -0.562916,0.58089 -0.562916,0.36313 z M 109.76108,104.221 c -0.27721,-0.30775 -0.74215,-0.67065 -1.03319,-0.80646 -1.42292,-0.66399 -3.40949,-1.7756 -3.175,-1.77663 0.14552,-6.3e-4 0.80036,0.28325 1.45521,0.63084 0.65484,0.34759 1.42875,0.74465 1.71979,0.88235 0.52109,0.24655 1.94233,1.62943 1.67462,1.62943 -0.0756,0 -0.36421,-0.25179 -0.64143,-0.55953 z m -26.036318,-0.87706 c 0,-0.0728 0.238125,-0.25973 0.529167,-0.4155 0.291041,-0.15576 0.529166,-0.22367 0.529166,-0.15091 0,0.0728 -0.238125,0.25974 -0.529166,0.4155 -0.291042,0.15576 -0.529167,0.22367 -0.529167,0.15091 z m 26.259898,-0.17323 c -0.65341,-0.24719 -0.81028,-0.77143 -0.23084,-0.77143 0.36997,0 1.1203,0.72741 0.93,0.90159 -0.0571,0.0523 -0.37174,-0.006 -0.69916,-0.13016 z m -2.05363,-1.30563 c -0.24566,-0.39748 -2.48367,-1.48362 -3.77164,-1.83043 -1.33148,-0.358535 -1.55291,-0.961278 -0.26015,-0.70814 1.18116,0.231285 5.22552,2.1905 5.22552,2.53141 0,0.35592 -0.97457,0.36177 -1.19373,0.007 z m -17.641294,-1.49863 c 0.190996,-0.0764 0.419199,-0.067 0.507118,0.0209 0.08792,0.0879 -0.06835,0.15046 -0.347266,0.13897 -0.308224,-0.0127 -0.370919,-0.0754 -0.159852,-0.15986 z m 11.014244,-0.20772 c -0.28248,-0.213649 -0.39453,-0.388456 -0.24901,-0.388456 0.14552,0 0.4957,0.174807 0.77817,0.388456 0.28248,0.21366 0.39453,0.38846 0.24901,0.38846 -0.14552,0 -0.4957,-0.1748 -0.77817,-0.38846 z m 11.38178,0.10628 c -0.28822,-0.466351 0.0156,-0.531735 0.55936,-0.12037 0.44764,0.33866 0.45526,0.38675 0.0624,0.39414 -0.24608,0.005 -0.52589,-0.11857 -0.62181,-0.27377 z m -21.073107,-0.16314 c 0.190996,-0.0764 0.419199,-0.067 0.507118,0.0209 0.08792,0.0879 -0.06835,0.15045 -0.347266,0.13896 -0.308224,-0.0127 -0.370919,-0.0754 -0.159852,-0.15985 z m 7.325651,-0.0838 -0.79375,-0.201977 0.711988,-0.0313 c 0.391594,-0.01722 0.785574,0.08776 0.875512,0.233277 0.08994,0.14552 0.12673,0.25049 0.08176,0.23328 -0.04497,-0.0172 -0.438949,-0.1222 -0.87551,-0.23328 z M 93.05636,99.834674 c 0.257431,-0.06708 0.614618,-0.06267 0.79375,0.0098 0.179131,0.07248 -0.03149,0.127363 -0.468056,0.121971 -0.436563,-0.0054 -0.583125,-0.06469 -0.325694,-0.131774 z m 6.436659,-0.56906 c -0.09156,-0.148145 -0.03755,-0.349036 0.12003,-0.446423 0.406791,-0.251412 0.669251,0.09296 0.329666,0.43255 -0.190019,0.190019 -0.338011,0.194584 -0.449696,0.01387 z"
         id="path1062" />
      <path
         style="display:inline;fill:#57ccfd;stroke-width:0.264583"
         d="m 93.870322,144.61149 c 0.08141,-0.21214 0.573931,-1.75008 1.094498,-3.41765 l 0.946489,-3.03195 1.089676,-0.1841 c 0.599321,-0.10126 1.501621,-0.35623 2.005116,-0.5666 0.503491,-0.21037 0.949242,-0.34575 0.990557,-0.30085 0.04131,0.0449 0.119982,1.76891 0.174822,3.83112 l 0.0997,3.74947 -0.765655,0.15313 c -0.421113,0.0842 -1.894607,0.15313 -3.274435,0.15313 -2.089029,0 -2.484013,-0.0645 -2.360768,-0.3857 z m 9.588658,-2.55232 c 0.43857,-2.30167 0.4938,-2.50217 1.37483,-4.99057 0.5992,-1.6924 0.72549,-1.88197 0.88131,-1.32292 0.10004,0.35891 0.19376,2.11715 0.20827,3.9072 l 0.0264,3.25465 -0.8599,0.35168 c -2.1223,0.86798 -2.0369,0.93081 -1.63088,-1.20004 z m -19.584168,-0.63974 c -4.403245,-3.04572 -7.357966,-6.90238 -9.015919,-11.76807 l -0.586008,-1.71979 2.940001,-3.04271 c 3.388585,-3.50696 5.811995,-6.46345 8.295743,-10.12056 1.540743,-2.26861 1.805845,-2.53999 2.196909,-2.24896 0.244601,0.18204 1.145631,0.90114 2.002289,1.59801 0.856658,0.69687 2.962562,2.17948 4.679786,3.29469 l 3.122226,2.02765 -1.005559,0.50998 c -2.943934,1.49305 -7.709116,4.27092 -8.31944,4.84983 -0.992619,0.94151 -4.44922,7.57731 -4.78775,9.19127 -0.248856,1.18642 -0.214318,1.50841 0.282205,2.63089 0.323359,0.73101 0.783911,1.33605 1.074905,1.41215 0.280026,0.0732 0.578052,0.39002 0.662279,0.70399 0.223662,0.83373 0.19423,3.61605 -0.03807,3.59898 -0.109141,-0.008 -0.785759,-0.42082 -1.503597,-0.91735 z m 26.134818,-1.75002 c 0.15818,-0.58692 0.48983,-3.18652 0.84519,-6.62506 0.12316,-1.19166 0.28533,-1.58705 0.78531,-1.91465 0.34655,-0.22706 1.07227,-1.1586 1.61271,-2.07007 0.7629,-1.28665 1.01765,-2.04179 1.13925,-3.37702 l 0.15663,-1.71979 h 1.98438 1.98437 l -0.0745,1.19062 c -0.18119,2.89633 -1.84352,7.38731 -3.78749,10.23232 -1.0179,1.48971 -3.58215,4.2495 -4.31067,4.63939 -0.44391,0.23758 -0.48372,0.19532 -0.3352,-0.35574 z M 73.787822,124.07074 c -0.291009,-0.47087 0.150017,-4.92729 0.703056,-7.10415 2.125647,-8.36692 9.250364,-14.92431 17.832842,-16.41285 2.92961,-0.50811 8.04718,-0.13707 10.92276,0.79194 1.65065,0.53326 4.27382,1.73154 4.55537,2.08091 0.0728,0.0903 0.46081,0.33351 0.86235,0.54049 0.93371,0.48131 4.53475,3.7054 4.64582,4.15951 0.0625,0.25544 -0.27903,0.32903 -1.32291,0.28507 -1.40141,-0.059 -1.40747,-0.0558 -1.48853,0.78019 -0.0521,0.53781 -0.31247,0.99087 -0.72449,1.26084 -0.35371,0.23176 -1.3078,1.36996 -2.12019,2.52933 -1.56771,2.23728 -2.30246,2.8927 -3.86844,3.45072 -0.952,0.33923 -1.00501,0.32269 -2.38125,-0.74326 -0.77417,-0.59961 -2.05835,-1.75161 -2.853743,-2.56 -0.795393,-0.80838 -1.638806,-1.46979 -1.87425,-1.46979 -0.235445,0 -0.879089,0.65485 -1.430322,1.45521 -0.551233,0.80037 -1.091527,1.45521 -1.200656,1.45521 -0.357973,0 -4.074882,-2.52926 -5.375631,-3.65798 -0.700075,-0.60748 -1.422586,-1.10452 -1.605582,-1.10452 -0.182995,0 -1.12027,1.16086 -2.082832,2.57969 -2.935522,4.32699 -10.718904,12.45114 -11.193372,11.68344 z m 41.956628,-3.05141 c 0.003,-0.27285 0.1587,-1.09141 0.34644,-1.81901 0.30919,-1.19832 0.41872,-1.33057 1.16291,-1.40414 0.90968,-0.0899 0.96961,0.0116 1.25764,2.13174 0.16332,1.20213 0.14272,1.25677 -0.47385,1.25677 -0.35453,0 -1.01667,0.0744 -1.47142,0.16537 -0.69183,0.13837 -0.82599,0.0844 -0.82172,-0.33073 z m -17.930626,-4.22069 c -1.200546,-0.66072 -2.182812,-1.26522 -2.182812,-1.34334 0,-0.0781 0.245957,-0.48746 0.546571,-0.90963 l 0.546574,-0.76759 2.07701,1.78508 c 3.173593,2.72753 2.730733,3.28169 -0.987343,1.23548 z"
         id="path1056" />
    </g>
  </g>
</svg>
