<?xml version="1.0" encoding="UTF-8" standalone="no"?>
<svg
   width="25"
   height="25"
   viewBox="0 0 26 26"
   fill="none"
   version="1.1"
   id="svg1"
   sodipodi:docname="logo_bzb.svg"
   inkscape:version="1.4.2 (f4327f4, 2025-05-13)"
   xmlns:inkscape="http://www.inkscape.org/namespaces/inkscape"
   xmlns:sodipodi="http://sodipodi.sourceforge.net/DTD/sodipodi-0.dtd"
   xmlns="http://www.w3.org/2000/svg"
   xmlns:svg="http://www.w3.org/2000/svg">
  <defs
     id="defs1" />
  <sodipodi:namedview
     id="namedview1"
     pagecolor="#ffffff"
     bordercolor="#000000"
     borderopacity="0.25"
     inkscape:showpageshadow="2"
     inkscape:pageopacity="0.0"
     inkscape:pagecheckerboard="0"
     inkscape:deskcolor="#d1d1d1"
     inkscape:zoom="10.19"
     inkscape:cx="12.512267"
     inkscape:cy="12.512267"
     inkscape:window-width="2560"
     inkscape:window-height="1369"
     inkscape:window-x="-8"
     inkscape:window-y="-8"
     inkscape:window-maximized="1"
     inkscape:current-layer="svg1" />
  <circle
     cx="13.010304"
     cy="13.112365"
     r="12.5"
     fill="white"
     id="circle1"
     style="fill:#254980;fill-opacity:1" />
  <path
     class="st0"
     d="m 22.903895,17.223464 c -0.02352,-0.0679 -0.04704,-0.135808 -0.05175,-0.145507 -0.02823,-0.07761 -0.06586,-0.174612 -0.122304,-0.291018 -0.05644,-0.111556 -0.127009,-0.237664 -0.206978,-0.383171 -0.27283,-0.489877 -0.545663,-0.974904 -0.95021,-1.653941 -0.0141,-0.02427 -0.02352,-0.0485 -0.03764,-0.07275 -0.05644,-0.106707 -0.145825,-0.213411 -0.202272,-0.324968 -0.02823,-0.0582 -0.05644,-0.116406 -0.08467,-0.174609 -0.03293,-0.06305 -0.06586,-0.121259 -0.09879,-0.179461 -0.07056,-0.121256 -0.145827,-0.237662 -0.221089,-0.35892 -0.03764,-0.0582 -0.07527,-0.121255 -0.117602,-0.18431 -0.03763,-0.06305 -0.07997,-0.126107 -0.117598,-0.194011 -0.145815,-0.242519 -0.296342,-0.485031 -0.44687,-0.737243 -0.150529,-0.252215 -0.301059,-0.50928 -0.446882,-0.766343 -0.145823,-0.261917 -0.29165,-0.523831 -0.428064,-0.790596 -0.09879,-0.18916 -0.202273,-0.378319 -0.310466,-0.56263 C 18.97133,10.253627 18.844325,10.127519 18.74554,9.9820123 18.627948,9.8122513 18.515051,9.6376428 18.397449,9.4678833 18.162248,9.1186649 17.927048,8.7694445 17.710665,8.4105253 17.663625,8.3280696 17.597767,8.2650178 17.546023,8.1777104 c -0.03292,-0.053351 -0.07996,-0.1115543 -0.145824,-0.1115543 -0.07527,0 -0.131712,0.067903 -0.169344,0.1358065 -0.04704,0.082455 -0.112895,0.1358087 -0.169346,0.2085627 -0.07527,0.1018548 -0.371617,0.5238293 -0.451583,0.6547861 -0.131712,0.2085599 -0.183457,0.4316734 -0.319873,0.6402364 -0.159937,0.2328115 -0.301057,0.4898742 -0.456289,0.7178372 -0.04233,0.06306 -0.07997,0.121259 -0.117602,0.18916 -0.159937,0.257067 -0.305759,0.538381 -0.456289,0.829398 -0.07527,0.145508 -0.141118,0.291015 -0.21168,0.426824 -0.01882,0.03395 -0.03293,0.0679 -0.05175,0.101855 l -0.05644,0.101855 -0.1176,0.203711 c -0.0094,0.01456 -0.0094,0.01939 -0.01412,0.02427 l -0.0094,0.01939 -0.01883,0.03395 -0.03293,0.0679 c -0.04233,0.08245 -0.09879,0.164908 -0.150528,0.247363 -0.05175,0.08731 -0.103495,0.179459 -0.159937,0.266765 -0.108192,0.179459 -0.216386,0.354068 -0.319872,0.533529 -0.04704,0.0776 -0.08938,0.160058 -0.131715,0.237663 -0.02352,0.0388 -0.04234,0.08245 -0.06586,0.121256 l -0.06115,0.121258 c -0.03763,0.07761 -0.07996,0.155209 -0.122304,0.232812 l -0.06115,0.116406 -0.04233,0.09701 c -0.268128,0 -0.545666,0.0097 -0.823202,0.0097 0.03293,-0.05336 0.08938,-0.174609 0.122304,-0.227964 0.159937,-0.281316 0.333985,-0.582032 0.517442,-0.907 0.07527,-0.130957 0.145824,-0.257064 0.22579,-0.383171 0.07056,-0.111558 0.178754,-0.232813 0.145827,-0.37832 -0.0047,-0.0291 -0.01883,-0.0582 -0.03293,-0.08731 -0.05644,-0.126107 -0.103484,-0.252215 -0.150523,-0.383171 -0.05174,-0.13096 -0.09879,-0.266766 -0.150528,-0.402575 C 13.387698,11.364345 13.288918,11.08788 13.180723,10.811413 13.072501,10.534948 12.950197,10.258484 12.809078,9.9965673 12.672663,9.7395048 12.550355,9.477591 12.428052,9.2108255 l 0.01412,0.024262 C 12.291645,8.9052701 12.145822,8.5657507 12.009405,8.2359327 11.938843,8.0710221 11.872989,7.9061122 11.807134,7.746054 11.774204,7.66845 11.741274,7.5859951 11.708344,7.5083906 c -0.0094,-0.019398 -0.01882,-0.038803 -0.02353,-0.0582 l -0.0141,-0.0291 c 0,-0.0097 -0.0094,-0.024249 -0.01882,-0.038803 l -0.0141,-0.024249 c -0.0047,-0.0097 -0.0094,-0.014554 -0.01412,-0.024256 -0.0094,-0.014554 -0.01882,-0.033951 -0.02353,-0.053355 -0.06115,-0.1358078 -0.103484,-0.2958667 -0.169343,-0.4413748 -0.01882,-0.038803 -0.03293,-0.072754 -0.05644,-0.106706 -0.0094,-0.019397 -0.01882,-0.033951 -0.03292,-0.053356 l -0.01883,-0.024255 c -0.0094,-0.0097 -0.0047,-0.0097 -0.0094,-0.019398 -0.03764,-0.0582 -0.07056,-0.1212569 -0.103495,-0.1794602 -0.03293,-0.0582 -0.06586,-0.1164068 -0.09879,-0.1697598 -0.01412,-0.0291 -0.03292,-0.053356 -0.04704,-0.082455 -0.0141,-0.019398 -0.02353,-0.038803 -0.03764,-0.058207 -0.04704,-0.072754 -0.103484,-0.1309575 -0.159936,-0.1940106 -0.01882,-0.024255 -0.04704,-0.043653 -0.07527,-0.043653 -0.03293,0 -0.05174,0.0291 -0.07056,0.053356 -0.05644,0.072754 -0.117601,0.1455082 -0.169345,0.2231127 -0.0094,0.0097 -0.0141,0.019398 -0.02353,0.0291 -0.02823,0.038803 -0.05644,0.082454 -0.08938,0.1261069 -0.06115,0.087306 -0.127007,0.1843106 -0.197569,0.286166 -0.141138,0.2037112 -0.2963717,0.4365241 -0.4610102,0.698439 -0.042339,0.063051 -0.079969,0.1309575 -0.1223042,0.1988604 -0.042339,0.072755 -0.084675,0.1503587 -0.1223065,0.2182629 -0.07526,0.1455068 -0.1552312,0.2861645 -0.2493107,0.431672 v 0.00971 c -0.00473,0 -0.00939,0 -0.00939,0 0,0 0,0 0,0 L 9.2622622,8.1631875 9.243434,8.138925 C 9.0787932,7.940064 8.8718167,7.7654544 8.6883607,7.581144 8.6319141,7.5277952 8.561352,7.4647379 8.4907923,7.4938392 8.4484536,7.5083926 8.4202302,7.5471949 8.3967136,7.5859945 8.2791115,7.7654544 8.1474,7.940064 8.0345037,8.1195226 7.9074942,8.3232354 7.7804856,8.5269457 7.6487741,8.7306565 7.3900532,9.1380803 7.1313329,9.5552018 6.9102448,9.9965763 c -0.028224,0.0582 -0.056446,0.1115557 -0.079969,0.1697597 l -0.075267,0.16976 -0.075259,0.16491 -0.075267,0.160058 c -0.1034899,0.213412 -0.2116818,0.426824 -0.3292832,0.635384 -0.230496,0.421975 -0.4798089,0.829398 -0.7291219,1.241671 l -0.3763201,0.620833 c -0.1270087,0.208562 -0.2493129,0.417124 -0.3669143,0.625685 l -0.7197117,1.261071 c -0.061151,0.106705 -0.1223042,0.20856 -0.1787538,0.315267 l -0.1787509,0.315268 -0.1787539,0.315267 -0.089377,0.160058 -0.0094,0.01939 -0.0094,0.01456 c -0.00473,0.0097 -0.014123,0.01939 -0.018828,0.03395 -0.014101,0.02427 -0.032929,0.0485 -0.047037,0.07275 -0.065857,0.09701 -0.1364167,0.19886 -0.2069757,0.300716 -0.032929,0.05336 -0.065857,0.106708 -0.098784,0.16491 -0.0094,0.01456 -0.014123,0.0291 -0.023526,0.04366 l -0.014101,0.02427 -0.0094,0.01939 -0.0094,0.01939 c -0.028224,0.05335 -0.047036,0.111554 -0.056446,0.164908 -0.0094,0.05336 -0.0094,0.106707 0.0094,0.155208 0.0094,0.02427 0.023526,0.0485 0.037634,0.0679 0,0 0.00939,0.0097 0.00939,0.01456 0,0 0,0 0.0094,0.0049 h 0.0094 c 0,0 0.037634,0.01939 0.037634,0.01939 l 0.070562,0.03395 0.037634,0.01456 c 0.014123,0.0049 0.023526,0.0097 0.037634,0.01456 0.014101,0 0.028224,0.0049 0.042339,0.0097 h 0.032929 c 0,0.0049 0.047043,0.01456 0.047043,0.01456 0.032929,0.0049 0.061151,0.0097 0.094081,0.01456 0.032929,0 0.061151,0.0097 0.094079,0.0097 0.061151,0.0049 0.1223035,0.01456 0.1834561,0.01456 0.3010573,0.01939 0.6021125,0.01939 0.8984656,0.0097 0.1505283,0 0.2963522,-0.0097 0.4421792,-0.01455 0.075267,0 0.1411188,0 0.2163829,0 0.075267,0 0.1458239,0 0.2210881,0 0.291651,0 0.5880032,0 0.8749459,0 0.1458269,0 0.2916502,0 0.4327689,0 0.070562,0 0.145827,0 0.216386,0 h 0.065857 c 0.018828,0 0.042332,0 0.061151,-0.0097 v 0 c 0,0 0,0.0097 0,0.0097 h 0.00473 c 0,0 0.014101,0 0.014101,0 H 7.20661 c 0,0 0.051741,0.0049 0.051741,0.0049 h 0.051741 c 0,0 0.089374,0 0.089374,0 0.6303374,0.0049 1.2653807,0.0097 1.8957181,0.0097 1.2230429,0 2.4460869,0 3.6644259,0 0.296352,0 0.592705,0 0.893762,0 0.112897,0 0.258721,0.01939 0.390432,0.0049 1.00666,0 2.018023,0 3.024682,-0.0049 h 0.108193 c 0.700895,0 1.397091,0 2.097988,0.0049 0.686786,0 1.382979,0 2.046247,0 0.268127,0 0.536256,-0.0049 0.804383,-0.01455 0.136416,0 0.277539,-0.01939 0.409249,-0.01456 0.15053,0.0097 0.254019,-0.0097 0.192867,-0.18916 z M 12.44217,14.381206 c -0.04233,0.0485 -0.07056,0.0291 -0.127009,0.0291 -0.05644,0 -0.112894,0 -0.169345,0 -0.01883,0 -0.04233,0 -0.06115,0 -0.865539,0 -1.726371,0 -2.59191,0 H 9.1869967 c -0.079969,0 -0.2257933,-0.0291 -0.3057626,0 -0.1175991,0.0485 -0.2210889,0.320119 -0.2916479,0.431676 -0.216386,0.349217 -0.437474,0.688736 -0.6491527,1.042807 L 7.7099352,16.26796 c -0.1411188,0.223111 -0.2822399,0.451074 -0.4280638,0.674187 -0.032929,0.0485 -0.065857,0.130957 -0.1081918,0.169759 -0.047045,0.0388 -0.075267,0.03395 -0.1364167,0.03395 0,0 -0.00473,0 -0.0094,0 -0.1317115,0 -0.2587202,0 -0.3904317,0 -0.5268483,0 -1.0536998,0 -1.5852533,0.0097 -0.070562,0 -0.1411188,0 -0.2116808,0 -0.2822399,0 -0.5785929,0 -0.879648,-0.0097 -0.1505306,-0.0097 -0.3010597,-0.01939 -0.4562939,-0.0388 -0.037627,-0.0049 -0.07526,-0.0097 -0.1128939,-0.01455 -0.018828,0 -0.037634,-0.0049 -0.056446,-0.0097 l -0.042334,-0.0097 c -0.014101,0 -0.028224,-0.0097 -0.037634,-0.0097 -0.00473,0 -0.014123,-0.0049 -0.014123,-0.01456 0,-0.0049 0,-0.01456 0,-0.01939 0,-0.01456 0.0094,-0.02427 0.018828,-0.0388 l 0.018828,-0.0388 c 0.0094,-0.01456 0.018828,-0.03395 0.028224,-0.0485 0.042339,-0.0679 0.089377,-0.135807 0.1364167,-0.203711 0.047045,-0.0679 0.098784,-0.135808 0.145827,-0.208562 0.023526,-0.03395 0.051741,-0.07275 0.075267,-0.111554 0.00473,-0.0097 0.0141,-0.01939 0.018828,-0.03395 l 0.0141,-0.0291 0.032929,-0.0582 c 0.084671,-0.15036 0.1740487,-0.305566 0.2634252,-0.455926 0.089377,-0.155209 0.1787509,-0.310417 0.2681282,-0.465627 0.1834561,-0.315266 0.3716172,-0.630534 0.5597784,-0.955503 0.1881612,-0.324968 0.3810245,-0.654786 0.5785929,-0.984603 0.3998421,-0.654788 0.8137934,-1.299872 1.1854106,-1.983761 0.094081,-0.169759 0.1834561,-0.344371 0.2681282,-0.51898 0.042339,-0.08731 0.084674,-0.174609 0.1270086,-0.266765 L 7.0984445,10.36521 c 0.079967,-0.16976 0.1646385,-0.334668 0.254015,-0.5044267 0.098784,-0.1794605 0.842019,-1.4599317 1.1148516,-1.8819061 0.0094,-0.014554 0.018828,-0.038803 0.032929,-0.048504 0.023526,-0.014554 0.056446,0 0.075267,0.014554 0.061151,0.063058 0.1223044,0.1406584 0.1740488,0.2134119 0.056446,0.072754 0.1176014,0.155209 0.1881612,0.2376639 0.023526,0.038803 0.051741,0.072754 0.075267,0.1067046 0.023526,0.038803 0.061151,0.067905 0.056446,0.111557 0,0.048504 -0.028224,0.097006 -0.051749,0.1358086 -0.037634,0.067902 -0.094079,0.1309568 -0.1364159,0.1988612 -0.037634,0.053349 -0.070562,0.1164061 -0.075267,0.1843103 -0.0094,0.0582 0.014123,0.092154 0.047044,0.1406557 0.028224,0.043653 0.061151,0.082455 0.089374,0.1261077 0.089376,0.1164047 0.1834591,0.2328137 0.2822429,0.3395187 0.032929,0.03395 0.2304961,0.2473645 0.263423,0.1115565 0.0094,-0.03395 0,-0.0679 -0.014123,-0.09701 C 9.4222166,9.6570328 9.3657664,9.5648788 9.3140219,9.4678732 9.2669861,9.3854176 9.2011249,9.3078143 9.1446783,9.2302091 9.1211524,9.1962578 9.0976425,9.1623065 9.0976425,9.1235039 c 0,-0.038803 0.018828,-0.072753 0.037634,-0.1018548 0.1317116,-0.2182643 0.2587202,-0.4413749 0.399839,-0.6499375 l 0.018828,-0.033951 c 0.0141,-0.019391 0.028224,-0.043654 0.037634,-0.063058 0.051741,-0.087305 0.1034885,-0.1746088 0.1505289,-0.2619136 0.047036,-0.087305 0.089374,-0.1746101 0.1364159,-0.2570644 0.0094,-0.019398 0.02353,-0.038803 0.03293,-0.0582 l 0.03763,-0.06305 0.07527,-0.126107 c 0.09878,-0.1649106 0.202274,-0.32982 0.305761,-0.4947292 0.06586,-0.1018561 0.131712,-0.208562 0.197568,-0.3152679 0.03293,-0.053356 0.06586,-0.1067059 0.09879,-0.1600588 0.02353,-0.043653 0.04233,-0.1067059 0.07997,-0.1358073 0.06586,-0.0582 0.08467,0.014554 0.108192,0.0582 0.03293,0.063051 0.07527,0.1261077 0.108192,0.1940113 0.07056,0.1406576 0.141121,0.2861658 0.206975,0.4268235 0.06586,0.1309575 0.117602,0.2716152 0.188161,0.3977222 l 0.01412,0.024249 c 0,0.00487 0,0 0,0 0,0 0,0 0,0 l 0.01882,0.043653 0.03763,0.087306 0.145826,0.3492191 c 0.09879,0.2328122 0.197569,0.4704762 0.291648,0.7032878 0.197569,0.4704762 0.404544,0.9409525 0.639744,1.3968757 l 0.08467,0.164911 c 0.02823,0.05336 0.05644,0.111557 0.07996,0.16976 0.05174,0.111556 0.103495,0.227962 0.150528,0.344369 0.09408,0.232812 0.183457,0.465627 0.268129,0.703288 0.06586,0.179461 0.131711,0.358921 0.192866,0.533531 0.02823,0.07275 0.05175,0.145508 0.07526,0.218261 0.02353,0.07761 0.07527,0.135809 0.07997,0.223113 0.0047,0.101856 -0.01882,0.189161 -0.06586,0.271615 -0.05644,0.101855 -0.112897,0.198862 -0.169343,0.300716 -0.112898,0.198862 -0.225794,0.402572 -0.338691,0.601433 -0.09408,0.16976 -0.188158,0.334671 -0.282239,0.504429 -0.04233,0.07761 -0.07996,0.17946 -0.14112,0.242515 z m 7.404115,0.0291 c 0.05175,-0.08245 0.103495,-0.164909 0.155232,-0.247363 0.0141,-0.02427 0.136416,-0.140659 0.136416,-0.160058 0,-0.05336 -0.155231,-0.160061 -0.192864,-0.189163 -0.141121,-0.126107 -0.282239,-0.252212 -0.423361,-0.37347 -0.06115,-0.05336 -0.122304,-0.106705 -0.188159,-0.155209 -0.02823,-0.02427 -0.07997,-0.0679 -0.122306,-0.0679 -0.04234,0 -0.08938,0.05336 -0.09408,0.097 0,0.03395 0.02352,0.06305 0.04704,0.09216 0.07056,0.08245 0.159936,0.164908 0.221089,0.257064 0.05174,0.07761 0.09879,0.145508 0.164641,0.213412 0.04234,0.0485 0.08467,0.09215 0.131711,0.135806 l 0.01883,0.01456 0.0094,0.0097 c 0,0 0,0 0,0 0,0 0,0 0,0 0,0 0,0 0,0 0,0 -0.0047,0.0097 -0.0047,0.0097 l -0.0141,0.01939 c -0.07056,0.111557 -0.131715,0.223113 -0.188162,0.33952 -0.04234,0 -0.08467,0 -0.122303,0 h 0.0141 c -0.08467,0 -0.164641,0 -0.249313,0 -0.413956,0 -0.827906,0.0049 -1.241861,0.0049 -0.206976,0 -0.413951,0 -0.620928,-0.0049 -0.103484,0 -0.141122,-0.0097 -0.244611,-0.0097 -0.05644,0 -0.150528,0 -0.197568,0.04365 -0.01412,0.01456 -0.02353,0.03395 -0.03293,0.0485 -0.03293,0.06305 -0.06585,0.126107 -0.09408,0.19401 -0.08467,0.189161 -0.216386,0.373472 -0.319875,0.552931 -0.108192,0.18431 -0.211678,0.36862 -0.319873,0.552931 -0.211681,0.368621 -0.428064,0.737241 -0.639745,1.105861 -0.03293,0.0582 -0.07527,0.15521 -0.131711,0.198862 -0.03764,0.0291 -0.15053,0.01456 -0.192867,0.01456 -0.08467,0 -0.169343,0 -0.254015,-0.0049 -0.02823,0 -0.32928,-0.01456 -0.33869,0 0.141121,-0.291015 0.36221,-0.57718 0.522146,-0.858496 0.178754,-0.32012 0.32928,-0.659636 0.522146,-0.970054 0,0 0,-0.0049 0.0047,-0.0097 0.05174,-0.07761 0.112895,-0.179459 0.18816,-0.295867 0.03764,-0.0582 0.07997,-0.126105 0.122304,-0.19401 0.0094,-0.01939 0.02353,-0.03395 0.03293,-0.05336 0.01412,-0.01456 0.02352,-0.03395 0.03763,-0.05336 0.03763,-0.05335 0.127007,-0.145508 0.112894,-0.218261 -0.0141,-0.08731 -0.183456,-0.05336 -0.239902,-0.05336 -0.602114,0 -1.199524,-0.0049 -1.801637,0 0,0 0,-0.07761 0,-0.07761 0.03763,-0.0679 0.07056,-0.13581 0.108192,-0.203713 l 0.06115,-0.116406 c 0.01883,-0.0388 0.04233,-0.07761 0.06115,-0.116406 0.04233,-0.07761 0.08467,-0.15521 0.127009,-0.227964 0.169344,-0.295866 0.352799,-0.586881 0.531554,-0.892449 0,0 0,0 0.0047,-0.0049 h 0.0047 c 0,-0.0049 0,-0.0097 0,-0.0097 l 0.0094,-0.0097 v -0.0097 c 0.0047,0 0.01412,-0.01455 0.01412,-0.01455 0.0094,-0.01456 0.01882,-0.0291 0.02823,-0.04366 0.0141,-0.0291 0.02823,-0.05336 0.04233,-0.0776 0.02352,-0.04366 0.04704,-0.09215 0.07056,-0.135807 l 0.09872,-0.174608 c 0.03293,-0.0582 0.06586,-0.116409 0.09878,-0.174612 0.06115,-0.121255 0.122305,-0.242513 0.178751,-0.35892 0.02823,-0.05819 0.05644,-0.116405 0.08938,-0.174608 l 0.09408,-0.174609 c 0.06115,-0.116409 0.122304,-0.232815 0.188161,-0.344372 0.06115,-0.111554 0.12701,-0.227962 0.197569,-0.334666 0.211681,-0.334671 0.418657,-0.683889 0.606818,-1.0379582 0.112897,-0.2085625 0.465696,-0.8633491 0.602113,-1.0282564 0.02353,-0.0291 0.05175,-0.063058 0.08938,-0.063058 0.08467,0 0.174048,0.1600609 0.216385,0.2182636 0.07996,0.1115571 0.164639,0.2231114 0.244609,0.3346677 0.428064,0.5868821 0.809088,1.1931663 1.190112,1.8140023 0.09879,0.160058 0.211681,0.291015 0.301058,0.460774 0.108192,0.198862 0.221089,0.402572 0.333985,0.596584 0.211682,0.37347 0.428065,0.732388 0.639746,1.07676 0.108193,0.174609 0.206978,0.344369 0.31517,0.514128 0.108191,0.16976 0.216382,0.329819 0.310465,0.489878 0.04704,0.08245 0.09408,0.160057 0.136416,0.242512 0.0094,0.01939 0.01882,0.0388 0.02823,0.0582 -0.390432,0 -0.794976,0 -1.199523,0 z"
     id="path1-8"
     style="fill:#ffffff;stroke-width:0.0477657" />
</svg>
