<svg width="25" height="25" viewBox="0 0 25 25" fill="none" xmlns="http://www.w3.org/2000/svg">
<circle cx="12.5" cy="12.5" r="12.5" fill="#DDDDDD"/>
<path d="M9.98812 7.79929L9.06605 6.41913C8.79589 6.01389 8.2497 5.9023 7.84446 6.17246C7.71525 6.25468 7.61541 6.37214 7.54493 6.5131L6.02382 9.5612H13.0715L11.8557 7.12976C11.6384 6.69516 11.1099 6.51897 10.6753 6.73627C10.593 6.77738 10.5167 6.83611 10.4462 6.90072L9.80018 7.51739" stroke="#8B8B8B" stroke-width="0.990481" stroke-linecap="round" stroke-linejoin="round"/>
<path d="M17.4763 7.34766L15.7143 12.1929H19.2382L17.4763 7.34766Z" stroke="#8B8B8B" stroke-width="0.990481" stroke-linecap="round" stroke-linejoin="round"/>
<path d="M17.4762 12.1929V13.9548" stroke="#8B8B8B" stroke-width="0.990481" stroke-linecap="round" stroke-linejoin="round"/>
<path d="M7.78573 12.6333L6.02382 17.4786H9.54764L7.78573 12.6333Z" stroke="#8B8B8B" stroke-width="0.990481" stroke-linecap="round" stroke-linejoin="round"/>
<path d="M7.78573 17.4785V19.2404" stroke="#8B8B8B" stroke-width="0.990481" stroke-linecap="round" stroke-linejoin="round"/>
<path d="M17.0358 17.1558C17.3823 17.4905 17.6407 17.9016 17.7817 18.3656" stroke="#8B8B8B" stroke-width="0.990481" stroke-linecap="round" stroke-linejoin="round"/>
<path d="M14.3929 16.0688C14.5339 16.1041 14.6807 16.1335 14.8334 16.1569C15.1329 16.2039 15.4324 16.2803 15.7202 16.3801" stroke="#8B8B8B" stroke-width="0.990481" stroke-linecap="round" stroke-linejoin="round"/>
<path d="M11.8675 14.2012C12.0554 14.577 12.3139 14.9177 12.631 15.1996" stroke="#8B8B8B" stroke-width="0.990481" stroke-linecap="round" stroke-linejoin="round"/>
<path d="M11.3096 11.312C11.3096 11.6526 11.3272 11.9992 11.3624 12.3398" stroke="#8B8B8B" stroke-width="0.990481" stroke-linecap="round" stroke-linejoin="round"/>
</svg>
