<?xml version="1.0" encoding="utf-8"?>
<!-- Generator: Adobe Illustrator 16.0.2, SVG Export Plug-In . SVG Version: 6.00 Build 0)  -->
<!DOCTYPE svg PUBLIC "-//W3C//DTD SVG 1.1//EN" "http://www.w3.org/Graphics/SVG/1.1/DTD/svg11.dtd">
<svg version="1.1" id="Ebene_2" xmlns="http://www.w3.org/2000/svg" xmlns:xlink="http://www.w3.org/1999/xlink" x="0px" y="0px"
	 width="130px" height="105px" viewBox="0 0 130 105" enable-background="new 0 0 130 105" xml:space="preserve">
<path fill="#FFFFFF" d="M111.816,39.342c0.316,0.128,0.205,0.062,0.098,0.141c-0.277,0.213-0.277,0.314-0.499,0.484l-0.316,0.179
	c-0.7,0.312,0.414-0.063-0.039,0.337c-1.57,0.38,0.764-0.004-0.218,0.651c0.149,0.118,1.55-0.217,1.336,0
	c0.162,0.141,4.811-1.176,4.285-0.759c1.473-0.359,0.209,0.021,1.52-0.297c-0.205,0.356,0.312,0.188,0.636,0.371l-0.231,0.088
	c0.708-0.092-0.248,0.335,0.453,0.271c-0.146,0.156,0.644-0.023,0.871-0.054c-0.141,0.275,0.396,0.358,0.333,0.502
	c0.162,0.098,0.205,0.194,0.615,0.271c-0.47,0.315,0.529,0.162,0.162,0.455c0.469,0-0.06,0.32-0.111,0.504
	c-0.704,0.437,0.03,0.336-0.7,0.851c-0.197,0.141,0.606,0.083,0.32,0.188c0.004,0.136-0.264,0.324-0.013,0.441
	c-0.149,0.045-0.529,0.346-0.593,0.421c0.004,0.108,0.286,0.567-0.35,0.976c-0.132,0.092-0.081,0.55-0.478,0.689
	c-0.397,0.149,2.117,0.009,2.126,0.171c0.474-0.101-0.163,0.512,0.29,0.441c-0.136,0.197,0.252,0.083-0.213,0.354
	c0.755-0.1-1.541,0.873-0.879,0.826c-0.141,0.143-0.999,0.327-0.679,0.31c-0.017,0.066,0.004,0.216-0.158,0.237
	c-0.346,0.055-0.815,0.342-0.44,0.313c-0.154,0.229-0.098,0.312,0.064,0.354c0.375,0.109-0.948,0.434-0.867,0.577
	c0.389,0.128,0.193,0.369,0.444,0.569c-0.307,0.493-0.542,0.306-0.943,0.538c-0.414,0.239,0.448,0.118-0.154,0.297
	c-1.438,0.433,0.299,0.175-1.012,0.517c-1.067,0.301-1.118,0.885-2.301,1.084c-0.457,0.344-0.251,0.269-0.618,0.563
	c0.853-0.267-0.141,0.427,0.802,0.055c1.003-0.147,0.017,0.395,0.79,0.368l-0.141,0.124c0.286,0.025-1.823,0.743-1.486,0.755
	c0.094,0,0.158,0.066,0.085,0.135c-0.457,0.158-1.166,0.354-1.46,0.595c0.713-0.201-0.405,0.401,0.06,0.371
	c0.312-0.029,0.316,0.133,0.32,0.214l-0.136,0.087l0.23-0.009l-0.384,0.329c0.077,0.03,0.534-0.1,0.401,0.043
	c-0.482,0.111-0.316,0.229-0.555,0.346c0.085,0.088,0.627-0.17,0.482,0.025l0.312-0.156c0.132-0.013,0.132-0.013,0.141,0.039
	c-0.53,0.233-0.457,0.404-0.517,0.572c-0.683,0.416-5.895,0.595-6.501,0.954c-0.867,0.3-1.34,0.213-2.185,0.476
	c-0.321-0.013-0.713,0.045-0.961-0.047c-0.913,0.363-0.935-0.145-1.874,0.143c-0.17-0.222-1.242,0.245-1.708,0.262
	c-0.926,0.162-1.656,0.039-2.655,0.455c-0.862,0.058-2.095,0.48-2.731,0.31c-0.307,0.083-0.636,0.041-0.863,0.184
	c-0.776,0.087-1.34-0.101-2.569,0.354c-1.26,0.211-1.52-0.092-2.976,0.35c-1.097,0.013-2.198,0.367-3.282,0.546
	c-0.79,0.166-1.545,0.459-2.105,0.341c-1.233,0.434-1.878,0.205-3.035,0.559c-1.498,0.175-3.287,0.408-4.913,0.976
	c0.077-0.075,0.077-0.179-0.162-0.114c-0.615,0.331-0.713-0.023-1.396,0.285c-0.712-0.092-1.797,0.205-2.583,0.266
	c-1.229,0.455-1.98,0.064-3.346,0.615c-0.649-0.004-1.183,0.333-1.797,0.35l-0.631,0.154l0.076-0.141
	c-1.639,0.25-3.261,0.574-4.908,0.875c-1.793,0.096-4.124,0.784-5.853,0.835c-1.417,0.184-2.565,0.616-4.038,0.871
	c-0.721-0.096-2.036,0.463-2.667,0.313c-0.696,0.333-1.024,0.018-1.711,0.429c-0.551-0.058-1.307,0.393-1.793,0.263
	c-0.786,0.188-1.563,0.248-2.19,0.262c-0.798,0.139-1.797,0.455-2.194,0.343c-1.216,0.404-1.635-0.042-2.719,0.396
	c-0.948-0.032-2.263,0.418-3.351,0.61c-1.263-0.018-3.03,0.717-3.991,0.478c-1.238,0.349-4.977,0.397-6.133,0.672
	c-0.632,0.034-3.915,0.342-4.931,0.688c-1.229,0.526-1.212,0.375-2.301,0.627c-0.55,0.075-1.63,0.434-1.711,0.184
	c-0.316,0.032-1.007,0.337-1.033,0.106c-0.782,0.052,0.951,0,0.854-0.354c-0.76,0.213-0.401-0.237-0.559-0.275
	c-0.696,0.03,0.294-0.246,0.064-0.395l0.457-0.239c-0.162,0.047,1.191,0,0.73,0.162c-0.388-0.027,0.823-0.228,0.657-0.316
	l-2.053,0.341c0.235-0.117,0.662-0.604,1.063-0.607c0.244-0.005,0.197-0.385,0.265-0.618c0.307-0.248,0.905-0.313,1.059-0.467
	c0.064-0.06,0.047-0.122-0.026-0.18c-0.047-0.034-0.389-0.079-0.389-0.079s-0.008-0.113-0.14-0.139
	c-0.214-0.035-0.491-0.035-0.726-0.03c0.222-0.441,1.469-0.534,0.769-0.657c-0.009-0.135,1.221-0.184,0.739-0.384l0.994-0.892
	c-1.413,0.075,1.033-0.798,0.064-0.96c0.025-0.04,0.521-0.17,0.845-0.258c0.316-0.079,0.171-0.241,0.171-0.241
	c0.606-0.092,1.144-0.197,1.357-0.318l-0.606-0.163c0.171-0.087,0.743-0.188,0.829-0.345c0,0-0.034-0.056-0.159-0.052
	C18.673,64.87,18.2,65,17.768,65.075c-0.047,0.013-0.678,0.088-1.11,0.149c-0.474,0.064-0.414-0.111-0.802-0.074
	c-0.55,0.062-0.858,0.058-0.841-0.021c0.15-0.295,0-0.116-0.145-0.284c-0.876,0.243,0.017-0.299-0.688-0.258
	c-0.708,0.039,0.841-0.425-0.132-0.241c-0.145,0.03-0.559-0.162-0.725-0.405c-0.133-0.199-0.491-0.12-0.628-0.215
	c0.389-0.192,0.44-0.515,0.589-0.721c-0.938,0.183,0.359-0.786-0.336-0.722c0.149-0.064,1.737-0.542,1.647-0.619
	c-1.058,0.165,0.755-0.275-0.307-0.298c-0.235,0.004,0.375-0.213-0.008-0.188c0.443-0.339-0.368-0.043-0.077-0.372
	c0.068-0.209,0.064-0.218,0.222-0.51l-0.563-0.004l-0.235-0.045c0.547-0.175-0.124-0.222-0.196-0.233l0.768-0.371
	c-0.235-0.013-1.673-0.147-1.212-0.314c-0.546-0.004-0.76-0.126-0.085-0.559c-0.166-0.146,0.102-0.722-0.683-0.713
	c0,0,0.998-0.48,0.316-0.608c0.076,0.017,0.149-0.088,0.217-0.135c0.081-0.058,0.094-0.118,0.094-0.118
	c0.205-0.053,0.482-0.023,0.624-0.132c0.145-0.109,0.324-0.109,0.324-0.109s0.372-0.018,0.503-0.079
	c0.137-0.058,0.184-0.201,0.184-0.201l-0.235-0.025l-0.884-0.229c0,0,1.148-0.3,0.367-0.217l-0.325,0.025l0.321-0.188
	c0.132-0.229-0.91-0.066-1.221-0.167c0.452-0.262-0.213-0.009-0.32-0.301l0.034-0.083c0.384-0.163,0.145-0.254-0.013-0.321
	c0.696-0.362-1.324-0.492-0.563-0.721c-0.35,0.101-0.162-0.476-0.171-0.685c0.162-0.045,0.261-0.403,0.329-0.441
	c0.256-0.163,0.44-0.079,0.372-0.163c0.209-0.331,0.444-0.2,0.812-0.519c-0.936-0.062,0.58-0.67,0.422-0.945l-0.384-0.468
	l1.793-0.537c0.286-0.626,1.408-0.438,0.29-0.827l0.581-0.087l-0.235-0.314c0.465-0.21,0.376-0.391,0.282-0.474
	c0,0,0.525-0.239,0.691-0.1c-0.042-0.038,0.359-0.096,0.312-0.047c0.145-0.146,0.166-0.063,0.175-0.132
	c0.008-0.068-0.068-0.222-0.068-0.222c0.029,0.017,0.396,0.013,0.239-0.137c0,0,0.205-0.121,0.376-0.151
	c-0.351,0.06-0.252-0.288-0.12-0.395c0.341-0.28-0.734-0.226,0.047-0.305c0.41,0.153-0.192-0.209,2.403-1.238
	c0.857-0.405,1.255,0.137,2.019-0.489c1.259-0.241,1.114,0.312,2.301,0.109c0.068,0.036,0.239,0.04,0.157,0.128l-0.162,0.096
	c0.627,0.008,4.665-1.125,4.832-0.792c0.235-0.039,0.393-0.03,0.542-0.149c1.558-0.367,2.728-0.292,4.205-0.624
	c0.316-0.006,0.866-0.211,1.037-0.096c0.841-0.132,1.634-0.195,2.488-0.329c0.089,0.354,2.331-0.629,1.806,0.035
	c0.324,0.045,0.866-0.083,1.336-0.188l0.005,0.083c1.066-0.358,1.477-0.013,2.646-0.367c0.307-0.167,0.764-0.246,0.755-0.405
	c1.315-0.479,2.275-0.558,3.44-0.78c1.789-0.396,4.038-0.864,5.391-0.708c0.542-0.205,0.918-0.309,1.409-0.309
	c1.148-0.246,2.484-0.7,3.342-0.587c0.154-0.151,0.307-0.091,0.538-0.151c0.004,0.075,0.243,0.013,0.396,0.025
	c0.303-0.088,0.615-0.233,1.003-0.318c1.251-0.242,1.131,0.472,2.438-0.083c0.777,0.266,2.894,0.338,4.358,0.067
	c0.393-0.134,0.636-0.042,0.862-0.025c0.798-0.226,1.498-0.154,2.271-0.506c0.077-0.049-0.008-0.158,0.312-0.198
	c0.077,0.115,0.623,0.019,0.49,0.215c0.674-0.141,1.772-0.416,2.032-0.22c1.929-0.572,3.658-0.519,5.686-1.035
	c0.371,0,0.606-0.196,0.999-0.25c1.545-0.467,2.583-0.301,4.042-0.868c0.547,0.029,1.234-0.491,1.789-0.425
	c1.716-0.56,3.496-0.796,5.208-1.36l0.06-0.122c0.393-0.083,0.717-0.124,1.024-0.342c0-0.03,0.077-0.053,0.154-0.096
	c0.926-0.205,1.784-0.45,2.847-0.809c1.396-0.738,3.253-1.513,5.049-1.718c0.077,0.062,0.461,0.057,0.777-0.03
	c-0.15,0.372,1.187-0.192,0.879,0.213l-0.384,0.192c0.166,0.167,1.101-0.038,0.875,0.295c0.394,0.077,0.794,0.101,0.722,0.368
	c0.79-0.067,1.473-0.308,2.186-0.459c0.461-0.291,1.793,0.051,2.236-0.237c0.798-0.114,0.12,0.226,0.509,0.354
	c0.943-0.271,0.248,0.354,1.032,0.162c0.406,0.073,0.163-0.192,0.708-0.211c-0.085,0.083,0.099,0.128,0.231,0.063
	c0.124-0.07,0.478-0.158,0.439-0.063c-0.094,0.276,0.674-0.322,0.683-0.104c0.581-0.092-0.213,0.196,0.755,0.026
	c0.73,0.179,0.708-0.148,0.905-0.193c0.047-0.008,0.248,0.111,0.346-0.013c0.115-0.158,0.248,0.133,0.312,0.137
	c0,0,0.073-0.041,0.162-0.054c0.103-0.013,0.235-0.03,0.312-0.042c0.166-0.032,0.004,0.226,0.089,0.188
	c0.137-0.063,0.359-0.005,0.636-0.071c0,0-0.008,0.122,0.072,0.145c0.099,0.021,0.209,0,0.291-0.015
	c0.082-0.013,0.154,0.163,0.308,0.111c-0.009,0-0.282,0.226,0.175,0.101c0,0-0.056,0.183-0.145,0.235
	c-0.111,0.057,0.469,0.224,0.436,0.253c-0.052,0.045-0.291,0.305-0.291,0.305c-0.115,0.071-0.316,0.154-0.418,0.224
	c-0.085,0.058,0.227,0.175,0.034,0.222c-0.188,0.049-0.282,0.271-0.201,0.292l-0.324,0.35l0.431-0.029l-0.581,0.396l0.192,0.015
	l0.222-0.049c-0.201,0.109-1.123,0.595-0.409,0.499l-0.154,0.122c0.146,0.092-0.422,0.547-0.422,0.547
	c-0.294,0.07-0.679,0.664-0.529,0.672c0.521,0.036-1.046,0.792,0.008,0.857l-0.167,0.077c0.239,0.011,0.26,0.228,0.346,0.307
	C111.641,39.12,112.183,39.078,111.816,39.342"/>
<path fill="#E30613" d="M122.987,62.219l0.077,0.036c-0.53,0.226,0.004,0.241-0.287,0.48c-0.781,0.542-1.729,0.455-2.728,0.775
	c-0.717-0.045-1.016,0.401-1.792,0.467c-0.073,0.24-1.169,0.41-1.626,0.698c-0.624,0.053-1.396,0.469-1.942,0.525
	c-1.084,0.491-2.203,0.246-2.967,0.927l0.316,0.023l-0.619,0.226c0.244,0.113,0.154,0.354,0.567,0.446
	c-0.311,0.104-0.474,0.188-0.691,0.318c0.769-0.135,0.777,0.089,0.712,0.307c-0.234,0.35-1.715,0.629-2.483,0.9
	c-0.214,0.126-0.235,0.179-0.462,0.31c-0.631,0.058-0.704,0.296-1.254,0.458c-1.003,0.32-2.651,0.455-2.864,0.954
	c0.068,0.056-0.004,0.271,0.474,0.152l-0.081,0.02c0.56-0.041-0.769,0.384,0.085,0.208c0.303,0.047,1.268-0.044,0.401,0.292
	c0.004,0.118,0.393,0.145-0.072,0.342c0.789-0.201,0.567,0.104,0.721,0.139c0.089,0.175-0.064,0.258-0.064,0.482
	c-0.158,0.165-0.636,0.13-0.619,0.279l0.23,0.017l-0.149,0.083c0.943-0.158,1.02,0.17,1.904,0.051
	c-0.555,0.303,0.457,0.088,0.542,0.211c-0.141,0.152,0.79-0.017,0.329,0.213c0.696-0.096,0.405,0.171,0.478,0.301
	c0.85-0.135-0.218,0.303-0.055,0.412c0.149,0.034,0.154,0.23,0.248,0.179l0.38,0.083l-0.154,0.083l0.461,0.039
	c-0.303,0.117-0.384,0.196-0.294,0.267c-0.077,0.021-0.077,0.021-0.158,0.058c0.089,0.13,0.79-0.066,0.311,0.2
	c0.624-0.096-0.141,0.23,0.163,0.301l-0.439,0.242l1.016-0.058c-1.243,0.375,0.013,0.32-0.61,0.642
	c-0.167,0.07-0.316,0.158-0.448,0.237c0,0.051,0.222-0.004,0.137,0.07l-0.153,0.088c0.469-0.124,0.093,0.168,0.541,0.056
	c-1.066,0.384,0.812,0.224-0.277,0.617c-0.316,0.121,0,0.145,0.004,0.213c0.303-0.021,0.235,0.017,0.077,0.137l-0.068,0.013
	c0.004,0.196-0.457,0.676,0.248,0.629c0.244,0.088,0.248,0.135,0.013,0.341c-0.772,0.344,0.546,0.13,0.018,0.468
	c0.149,0.083,0.64-0.063,0.781-0.092c-0.235,0.175-0.303,0.339-0.461,0.533c1.272-0.087-0.905,0.589,0.35,0.502
	c0.009,0.149-0.725,0.179-0.486,0.292c0.248-0.013,0.871-0.164,0.726,0.045c-0.325,0.047-0.619,0.231-0.79,0.309
	c0.571-0.062-0.222,0.267-0.06,0.289c-0.845,0.258-0.764,0.57-1.46,0.638c-0.867,0.391-1.81,0.271-2.42,0.617
	c-0.18-0.105-0.479,0.092-0.632,0.013c-1.025,0.372-1.947,0.621-2.805,1.059c-1.084-0.004-2.57,0.685-3.488,0.935
	c-0.571-0.033-0.635,0.28-1.182,0.389c-1.016,0.276-1.473,0.167-2.483,0.487l-1.503,0.021v-0.021
	c-0.308-0.075-0.631-0.088-0.482-0.32c-0.615,0.124-0.866-0.013-1.264-0.034l0.081-0.021c-0.849-0.12-1.823-0.267-3.073-0.184
	c-0.004-0.096-0.47-0.031-0.162-0.183c-1.478,0.514-1.178-0.224-2.421,0.16c-0.248-0.021-0.708,0.071-0.798,0.016
	c-0.465,0.072-1.4,0.348-1.566,0.147c-1.716,0.296-2.344-0.092-4.367,0.433c-0.256-0.137-1.11,0.096-1.652,0.109
	c-1.332,0.354-2.262,0.333-3.607,0.647c0.077-0.075-0.154-0.039-0.226-0.043c-1.336,0.422-2.036,0.156-3.521,0.621
	c-1.093-0.054-2.728,0.197-4.158,0.719c-0.755-0.104-2.398,0.521-3.116,0.403c-3.112,0.664-5.463,0.751-8.443,1.338
	c-2.574,0.655-5.152,0.995-7.496,1.353c-1.076,0.216-2.236,0.771-3.035,0.675c-0.546,0.208-1.003,0.149-1.486,0.239
	c-1.016,0.228-2.011,0.474-2.813,0.524c-0.474,0.088-0.243,0.154-0.615,0.299c-0.47,0.017-1.007,0.269-1.344,0.13
	c-0.854,0.309-2.156,0.655-2.869,0.608c-1.021,0.401-2.194,0.468-3.039,0.948c-1.332,0.104-2.792,0.817-3.915,0.738
	c-0.465-0.154-1.805,0.128-1.583-0.292c-0.79,0.092,0.157-0.262-0.397-0.275c-0.935-0.113-1.169-0.424-2.527-0.337
	c-0.017-0.213-0.623-0.213-0.772-0.322c-0.568,0.088-0.572-0.158-0.884-0.158c0.687-0.517-1.024-0.021-0.952-0.305l0.163-0.092
	c-0.419-0.119-1.277,0.092-1.814,0.073c0.082-0.017,0.149-0.055,0.149-0.079c-0.393,0.019-1.173,0.036-1.177-0.16
	c-0.726,0.079-0.73-0.267-1.336-0.216c-0.085-0.147-0.333-0.288-0.884-0.196c-0.235-0.217-0.251-0.559-1.114-0.493
	c-0.713-0.141-1.055-0.508-1.119-0.809l-0.09-0.054c0.376-0.235,0.227-0.3,0.525-0.576l-0.546-0.079l0.141-0.109l-0.222,0.005
	c0-0.049,0.218-0.15,0.073-0.171c-0.163,0.071-0.163,0.018-0.231,0.013c0.367-0.213-0.17-0.138,0.218-0.358
	c-0.538-0.083,0.7-0.414,0.213-0.414c-0.606,0.1-0.385-0.054-0.316-0.22c0.952-0.284,0.38-0.493,0.53-0.721
	c0.392-0.393-0.708-0.072-0.948-0.239l0.991-0.643c0.157-0.403-0.786-0.32-1.178-0.472l0.076-0.019
	c-0.396,0.049-0.085-0.175-0.175-0.244l0.239-0.141c-0.47,0.066-0.478-0.1-0.167-0.28c0.315-0.17,1.08-0.362,1.08-0.559
	c0.773-0.241-0.09-0.175,0.389-0.416c-0.333-0.073,0.692-0.472,0.056-0.41l0.396-0.197l-0.328-0.019
	c0.559-0.235-0.628-0.118,0.073-0.389c-0.491-0.025,0.763-0.438-0.24-0.31c0.222-0.201-0.495-0.1,0.064-0.333
	c-1.259,0.088,0.674-0.664-0.256-0.655c0.231-0.205-0.478-0.03-0.636-0.062l-0.081-0.013c0.303-0.143,0.453-0.354,0.299-0.367
	c-0.086-0.025-0.081-0.175-0.312-0.118l-0.013-0.245c0.384-0.096,0.235-0.134,0.38-0.267c0.009-0.052-0.243,0.062-0.162-0.009
	c0.785-0.262,0-0.292,0.708-0.571c-0.649-0.233,1.536-0.726,0.973-1.001c0.47-0.288,0.299-0.592,0.064-0.683l-0.086,0.023
	c0.606-0.575-1.502-0.325-1.11-0.837c-0.73,0.053,0.538-0.41-0.255-0.292l-0.252-0.275l2.407-1.343
	c-0.021-0.301-1.195,0.053-1.66-0.004c-1.481,0.316-3.278,0.783-3.748,0.382c-0.482,0.025-0.641-0.071-0.877-0.128l0.143-0.305
	c-0.073,0.013-0.073-0.004-0.156,0.009c0.233-0.158,0.86-0.354,0.625-0.472l-0.166-0.009c0.764-0.333,0.474-0.486,0.828-0.8
	l-0.226,0.005c0.627-0.297-0.081-0.368,0.06-0.577c0.551-0.354,0.602-0.513,1.153-0.875l-0.311-0.053l0.226-0.121l-0.231-0.013
	c0.056-0.071,0.303-0.088,0.384-0.171c-0.56,0.083-0.09-0.205-0.802-0.029l0.307-0.167c-0.153-0.017-0.153-0.044-0.077-0.109
	l0.167-0.092c-0.243,0.034-0.649,0.034-0.239-0.115c-1.25,0.286-0.183-0.376-1.11-0.222c0.073-0.258-0.717-0.222-0.098-0.613
	c-0.397-0.126,0.61-0.322,0.679-0.563c0.614-0.446,1.575-0.488,2.501-0.717c1.332-0.004,2.976-0.313,4.081-0.117
	c0.321-0.075,0.858-0.205,0.782-0.044c1.101-0.144,2.134-0.056,3.359-0.427c0.396-0.027,0.401,0.117,1.029-0.062
	c3.854-0.384,6.979-0.309,11.422-1.231c1.106,0.021,2.809-0.565,3.842-0.451c2.1-0.399,3.535-0.354,5.626-0.774
	c0.704-0.043,1.571-0.213,2.352-0.406c0.149,0.088,0.858-0.158,1.178-0.115c2.109-0.401,4-0.446,6.249-0.978
	c3.359-0.455,7.115-1.059,10.625-1.68c0.384,0.058,1.011-0.292,1.408-0.222c0.696-0.167,1.639-0.354,2.027-0.271
	c1.101-0.38,2.344-0.608,3.215-0.578c0.465-0.16,0.776-0.087,1.242-0.16c0.879-0.159,1.951-0.575,2.51-0.396
	c0.717-0.221,1.012-0.068,1.639-0.371c1.101,0.045,2.339-0.459,3.517-0.519c0.226-0.088,0.551-0.066,0.858-0.119
	c1.485-0.118,3.581-0.685,5.083-0.984c0.7,0,1.392-0.313,2.109-0.367l0.619-0.205c0.158,0.104,0.854-0.062,1.328-0.104l1.639-0.329
	c0.619-0.205,1.716-0.275,2.339-0.605c0.235,0.042,0.551-0.111,0.943-0.154c0.546-0.058,1.404-0.25,1.652-0.163
	c1.08-0.392,1.708-0.147,2.864-0.58c0.162,0.108,0.563,0.055,0.947-0.009c0.397-0.128,0.244-0.215,0.692-0.271
	c0.09,0.147,0.875-0.118,1.344-0.184c0.53-0.205,1.409-0.1,2.024-0.424c1.323-0.45,0.951,0.083,2.271-0.288
	c0.38-0.218,0.875-0.192,1.259-0.262c0.312,0.145,0.845-0.258,1.225-0.354c0.64-0.051,2.036-0.668,2.194-0.341
	c0.867-0.188,0.96,0.111,1.191,0.228c0.47-0.045,0.768-0.117,1.259-0.087c0.396,0,0.248,0.188,0.478,0.275
	c-0.461,0.217,0.469,0.058,0.252,0.237l0.457,0.056c-0.312,0.132,0.008,0.17-0.136,0.284l0.145-0.034
	c-0.311,0.25,0.482,0.079,0.713,0.092l-0.696,0.393c0.79-0.143,0.174,0.303,0.952,0.163l-0.235,0.132
	c0.081,0.009,0.171-0.015,0.239-0.036l-0.068,0.021c-0.393,0.316,1.242-0.188,0.841,0.162l0.167,0.005
	c-0.683,0.288,0.32,0.117,0.175,0.324c0.632,0.117,0.713,0.243,1.349,0.335c-0.619,0.446,0.948,0.286,0.649,0.657
	c0.149,0.034,0.559,0.034,0.085,0.247l1.028,0.07l-0.307,0.128c-0.081,0.088,0.231-0.011,0.316,0.013l0.163-0.036
	c0,0.175,0.23,0.188,0.537,0.241l0.158-0.049c0.397,0.036-0.598,0.425,0.248,0.266c-0.628,0.229,0.158,0.154,0.089,0.25l0.141-0.039
	l0.004,0.047l-0.068,0.018c0.943-0.109-0.922,0.529,0.324,0.271c0.406,0.17-0.136,0.5,0.192,0.691
	c-0.167,0.213,0.995-0.049,0.397,0.301c0,0.092-0.623,0.42,0.069,0.298c-1.153,0.305-0.047,0.356-0.521,0.668
	c0.478-0.114,0.405,0.1,0.777,0.029C122.982,62.15,122.987,62.193,122.987,62.219"/>
<path fill="#E30613" d="M119.23,14.344c0.312,0.137-0.538,0.465-0.854,0.704c-0.943,0.15-1.473,0.363-2.411,0.688
	c-0.24,0.013-0.858,0.122-1.08,0.284l0.008,0.162c-0.708,0.292-1.328,0.213-1.784,0.606c-1.571,0.355-2.57,0.972-3.56,1.605
	c0.153,0.122,0.448,0.149,0.23,0.362c0.163,0.146,1.187,0.009,0.649,0.421c1.477-0.346,0.09,0.559,1.417,0.26
	c-0.222,0.354,0.871,0.171,1.196,0.354l-0.235,0.083c0.712-0.079,0.103,0.429,0.802,0.38c-0.154,0.149,0.158,0.124,0.389,0.083
	c-0.141,0.28,0.405,0.35,0.333,0.5c0.167,0.087,0.482,0.25,0.888,0.326c-0.474,0.316,0.615,0.125,0.248,0.421
	c0.461,0.009-0.154,0.359-0.213,0.533c-0.704,0.423-1.562,0.647-2.497,0.818c-0.244-0.045-0.645,0.196-0.935,0.297
	c0.009,0.132-0.7,0.371-0.452,0.49c-0.154,0.047-0.32,0.086-0.38,0.161c0.004,0.188,0.085,0.271-0.389,0.555
	c-0.401,0.132-0.153,0.28-0.146,0.438c0.47-0.1,0.329,0.158,0.782,0.092c-0.141,0.192,0.251,0.092-0.218,0.346
	c0.717-0.079-0.448,0.359,0.239,0.314c-0.136,0.145,0.094,0.294,0.418,0.291c-0.077,0.205,0.021,0.448,0.551,0.418
	c-0.149,0.224,0.243,0.25,0.333,0.389c0.542-0.039,1.344-0.035,1.421,0.106c0.393,0.134,1.191,0.139,1.435,0.335
	c-0.316,0.487-1.623,1.046-2.561,1.509c-0.474-0.066-1.157,0.359-1.716,0.31c-1.473,0.262-2.51,0.586-3.815,0.904
	c-1.081,0.289-1.618,0.805-2.809,0.979c-0.457,0.329-0.231,0.359-0.598,0.643c0.854-0.258,0.551,0.2,1.502-0.158
	c1.008-0.135,0.018,0.39,0.786,0.381l-0.141,0.118c0.291,0.021,0.009,0.235,0.312,0.367c0.149-0.037,0.231,0.047,0.154,0.117
	c-0.534,0.175-0.158,0.122-0.38,0.288c0.721-0.188,0.103,0.211,0.563,0.196c0.307-0.025,0.312,0.128,0.316,0.215l-0.137,0.088
	l0.235-0.004l-0.397,0.31c0.082,0.039,0.542-0.083,0.41,0.058c-0.486,0.104-0.324,0.221-0.559,0.331
	c0.077,0.087,0.624-0.165,0.474,0.036l-0.137,0.091c0.137-0.008,0.137-0.008,0.146,0.039c-0.538,0.219-0.465,0.393-0.529,0.563
	c-0.688,0.399-1.785,0.583-2.395,0.933c-0.875,0.279-1.345,0.192-2.199,0.439c-0.316-0.018-0.708,0.027-0.951-0.068
	c-0.923,0.343-0.939-0.154-1.874,0.117c-0.167-0.222-1.255,0.222-1.72,0.241c-0.931,0.139-1.652,0.008-2.655,0.41
	c-0.862,0.041-2.109,0.45-2.741,0.262c-0.308,0.088-0.64,0.034-0.862,0.18c-0.772,0.07-1.341-0.126-2.579,0.305
	c-1.263,0.203-1.515-0.113-2.975,0.307c-1.101-0.004-2.203,0.335-3.291,0.489c-0.79,0.153-1.554,0.442-2.113,0.32
	c-1.238,0.401-1.878,0.165-3.043,0.502c-1.498,0.153-3.291,0.358-4.926,0.9c0.077-0.075,0.077-0.179-0.157-0.113
	c-0.624,0.318-0.713-0.032-1.404,0.258c-0.717-0.107-1.802,0.18-2.587,0.23c-1.238,0.434-1.976,0.03-3.351,0.564
	c-0.649-0.018-1.187,0.307-1.801,0.316l-0.64,0.143l0.081-0.135c-1.639,0.218-3.274,0.515-4.921,0.792
	c-1.789,0.064-4.132,0.715-5.861,0.743c-1.421,0.156-2.578,0.576-4.055,0.805c-0.717-0.103-2.041,0.427-2.668,0.271
	c-0.7,0.322-1.024,0.004-1.72,0.396c-0.556-0.062-1.319,0.38-1.792,0.235c-0.79,0.179-1.572,0.229-2.199,0.237
	c-0.803,0.126-1.802,0.42-2.198,0.305c-1.217,0.382-1.635-0.068-2.719,0.346c-0.956-0.039-2.275,0.388-3.359,0.568
	c-1.272-0.039-3.047,0.67-4.003,0.416c-1.238,0.318-2.284,0.358-3.445,0.613c-0.628,0.029-0.935-0.211-1.959,0.113
	c-1.238,0.513-2.028,0.35-3.12,0.585c-0.547,0.062-1.635,0.403-1.708,0.154c-0.32,0.03-1.012,0.325-1.037,0.092
	c-0.781,0.034-2.028,0.504-2.122,0.154c-0.768,0.205-0.401-0.242-0.559-0.28c-0.696,0.021,0.308-0.241,0.073-0.395l0.457-0.226
	c-0.163,0.042,0.076-0.206-0.389-0.058c-0.384-0.026,0.312-0.109,0.145-0.196l-0.312-0.025c0.239-0.118-0.149-0.071-0.149-0.122
	c0.068-0.229,0.674-0.517,0.747-0.75c0.316-0.248,1.093-0.375,1.084-0.581c0.153-0.262-1.106-0.036-0.235-0.472
	c-0.564-0.092,0.999-0.503,0.282-0.503c0.222-0.438,0.521-0.772-0.17-0.918c-0.005-0.134,0.367-0.28-0.09-0.271l0.205-0.455
	c-1.408,0.058-0.239-0.708-1.208-0.873c0.073-0.137-0.243-0.267,0.231-0.521l-0.726-0.104c0.222-0.115,0.619-0.321,0.47-0.386
	c0.627-0.226,1.938-0.484,2.015-0.773c0.153-0.279,1.165-0.389,1.016-0.559c-0.867,0.222-1.042-0.027-1.738,0.051
	c-1.408,0.267-2.262,0.202-3.684,0.495c-0.924,0.025-1.332-0.258-1.658-0.5c0.393-0.184,0.222-0.327,0.38-0.527
	c-0.941,0.169-0.18-0.25-0.871-0.194c0.145-0.064,0.384-0.26,0.303-0.343c-1.326,0.183,0.217-0.57-0.578-0.6
	c-0.231,0.004,0.384-0.205,0-0.188c0.45-0.329-0.318-0.284-0.021-0.608c0.07-0.209-0.325-0.262-0.167-0.546l0.529-0.267L8.606,36.23
	c0.547-0.167,0.149-0.22,0.075-0.232l0.779-0.335c-0.237-0.023-0.325-0.158,0.139-0.307c-0.542-0.013-1.324,0.054-0.639-0.363
	c-0.17-0.147,0.297-0.506-0.563-0.358c-0.617-0.105,0.922-0.773-0.017-0.638c0.305-0.213,0.226-0.296-0.009-0.367
	c-0.079-0.013-0.004-0.047-0.004-0.073l0.147-0.074l-0.227-0.04l0.455-0.231l-0.237-0.023l0.468-0.279
	c-0.472,0.044,0.065-0.418-0.715-0.339l0.147-0.146L8.021,32.44c0.13-0.222,0.292-0.372-0.021-0.472
	c0.459-0.254,0.143-0.226,0.527-0.463l-0.227,0.008c0.38-0.158,0.141-0.25-0.013-0.318c0.694-0.349,1.001-0.716,1.937-0.94
	c-0.318-0.184,0.843-0.41,0.839-0.617c0.162-0.042,0.546-0.226,0.315-0.243c-0.324,0.087-0.555,0.096-0.631,0.004
	c0.218-0.32-0.627-0.209-0.256-0.517c-0.939-0.075,0.054-0.66-0.109-0.935l0.676-0.442l-0.068-0.008
	c0.299-0.622,3.5-1.298,2.386-1.697l0.085-0.021l-0.009-0.109c0.475-0.206-0.23-0.15-0.328-0.233
	c-0.388,0.079-0.244-0.175-0.79,0.049c0-0.053-0.158-0.036-0.227-0.045c0.312-0.217-0.315-0.264-0.555-0.309
	c0.146-0.118-0.013-0.288-0.482-0.113c-0.094,0.025-0.076-0.013-0.145,0.008c-0.098-0.026,0.145-0.083,0.218-0.158
	c-0.47,0.04-0.325-0.188-0.18-0.354c0.628-0.301,1.242-0.73,2.023-0.804c0.405,0.166,1.238-0.511,1.874-0.515
	c0.153-0.092,0.311-0.167,0.537-0.197c0.175,0.03,0.256,0.201,0.628,0.18c0.948-0.22,0.269,0.352,1.259,0.017
	c0.551-0.045,0.713,0.239,1.648-0.15c0.636-0.345,1.169-0.192,1.878-0.459c0.863-0.392,1.255,0.154,2.028-0.454
	c1.264-0.222,1.105,0.316,2.301,0.141c0.06,0.038,0.234,0.042,0.145,0.125l-0.153,0.092c0.623,0.018,1.963-0.284,2.122,0.054
	c0.239-0.036,0.392-0.028,0.542-0.146c1.571-0.333,2.74-0.241,4.222-0.555c0.311,0,0.871-0.196,1.037-0.083
	c0.845-0.118,1.643-0.167,2.493-0.284c0.081,0.35,2.339-0.591,1.809,0.058c0.321,0.047,0.867-0.066,1.337-0.163l0.004,0.079
	c1.076-0.337,1.473,0.009,2.647-0.324c0.307-0.163,0.772-0.233,0.768-0.393c1.323-0.45,2.275-0.521,3.449-0.722
	c1.792-0.367,4.055-0.8,5.399-0.625c0.542-0.197,0.914-0.292,1.413-0.288c1.153-0.224,2.493-0.655,3.347-0.529
	c0.154-0.149,0.312-0.092,0.538-0.149c0.004,0.079,0.248,0.02,0.406,0.032c0.303-0.083,0.615-0.215,1.007-0.294
	c1.255-0.222,1.115,0.482,2.433-0.052c0.777,0.275,2.903-0.425,4.371-0.679c0.401-0.126,0.64-0.03,0.862-0.008
	c0.802-0.213,1.498-0.13,2.284-0.467c0.072-0.047-0.009-0.158,0.307-0.188c0.077,0.108,0.624,0.021,0.491,0.208
	c0.678-0.122,1.78-0.384,2.036-0.183c1.934-0.536,3.663-0.459,5.699-0.939c0.371,0.005,0.61-0.192,1.003-0.237
	c1.553-0.439,2.586-0.26,4.054-0.802c0.551,0.038,1.238-0.463,1.798-0.399c1.724-0.522,3.504-0.734,5.225-1.263l0.06-0.13
	c0.401-0.07,0.717-0.104,1.033-0.316c0-0.034,0.077-0.051,0.149-0.094c0.931-0.198,1.797-0.42,2.864-0.757
	c1.404-0.712,3.278-1.451,5.076-1.63c0.081,0.062,0.461,0.066,0.781-0.021c-0.158,0.367,1.182-0.175,0.871,0.224l-0.393,0.188
	c0.166,0.164,1.105-0.023,0.879,0.296c0.393,0.087,0.786,0.118,0.712,0.38c0.79-0.058,1.473-0.284,2.186-0.425
	c0.47-0.275,0.938-0.134,1.399-0.423c0.799-0.096,1.648-0.29,2.037-0.157c0.943-0.25,0.009,0.318,0.798,0.134
	c0.393,0.083,0.943,0.18,1.498,0.171c-0.171,0.145,0.329,0.07,0.563,0.036c0.068,0.117,0.384,0.217,0.389,0.431
	c0.857-0.117-0.12,0.487,0.875,0.308c-0.534,0.271,0.636,0.042,0.094,0.318c0.495,0.299,1.592,0.358,2.766,0.284
	c-0.465,0.258,0.312,0.102,0.094,0.295c0.234,0.125,1.152-0.167,1.003,0.16c0.875-0.173,1.81-0.152,2.13-0.073l-0.234,0.109
	l0.474,0.06l-0.465,0.18l0.316,0.023l-0.235,0.139c0.947-0.243,0.013,0.35,0.725,0.263l-0.158,0.122
	c0.396-0.073,0.094,0.162,0.401,0.106c0.307,0,0.627,0.077,0.316,0.292c1.092-0.341,0.785,0.218,1.895,0.008l-0.162,0.07
	c0.239,0.018,0.55,0.043,0.627,0.126C119.06,14.122,119.602,14.088,119.23,14.344"/>
<rect x="8" y="10.199" fill="none" width="584" height="123.75"/>
<g>
</g>
<g>
</g>
<g>
</g>
<g>
</g>
<g>
</g>
<g>
</g>
</svg>
