<svg xmlns="http://www.w3.org/2000/svg" fill="none" viewBox="0 0 64 64"><g clip-path="url(#favicon__a)"><path fill="url(#favicon__b)" d="M0 0h64v64H0z"/><g clip-path="url(#favicon__c)"><path fill="#C4944D" d="m49.222 57.976-.297 63.262s1.78.594 1.642.159c-.138-.436 0-63.995 0-63.995l-1.345.594v-.02Z"/><path fill="#24150E" d="m48.629 57.976.138-6.983s-1.187 3.719-1.484 6.231l-1.938-.296s0-6.232 3.719-8.309c0 0-.158-1.048 1.187-.89 1.345.138 1.187 1.029 1.187 1.484 0 .454-.436 8.901-.436 8.901l-2.373-.158v.02Z"/><path fill="#E5E5E5" d="M40.953 70.696c-2.809-.04-5.143 1.008-7.418 2.235-.593.316-1.246.574-1.78 1.009-.574.455-.93.198-1.345-.297-.713-.83-1.187-1.82-1.84-2.69-.376-.515-.732-.554-1.266-.317-1.187.534-2.255 1.306-3.403 1.939a25.24 25.24 0 0 1-1.642.83c-.375.179-.652.12-.712-.355-.06-.376-.237-.653-.514-.91-1.721-1.603-2.394-3.66-2.473-5.935-.079-2.374.277-4.708.594-7.062.099-.732.553-1.029 1.187-1.246 2.334-.811 4.747-1.345 7.16-1.82 3.086-.613 6.192-1.128 9.278-1.701.89-.178 1.385.494 1.978.91 2.275 1.562 3.462 3.877 4.412 6.37.732 1.918 1.464 3.857 2.215 5.776.198.494.277.87-.296 1.186-.396.218-.594.653-.95.95-.989.811-2.018 1.444-3.205 1.128h.02Z"/><path fill="#C7C6CB" d="M39.944 63.198c.792-.277 2.869 1.998 2.631 2.77-.653.296-1.464.02-2.077.395-.415.258-.573-2.987-.554-3.165Z"/><path fill="#76777C" d="M22.042 69.528c.752.06 1.464.258 2.215.356.811.1 1.959-.771 2.79-.534.514.139.692.594 1.068.97.099.099 0 .494.119.593a.712.712 0 0 0 .296.198c.198.099.297.277.435.415.1.1.258.356.376.396a5.034 5.034 0 0 0-.158-.336c-.514-1.108-.95-2.275-1.642-3.304-.04-.06-.06-.099-.079-.118-.89-1.464-1.543-2.79-2.018-4.471-.118-.416-.336-2.038-.93-2.196-1.542-.396 1.583 4.57.475 4.945-.415.159-1.463-.257-1.82-.474-.435-.257-.712-.712-1.246-.693-.395 1.266.99 2.275 1.049 3.264 0 .356-2.988-.593-3.205-.652" opacity=".18"/><path fill="#76777C" d="M37.452 60.172a4.949 4.949 0 0 1 2.117.989c.652.554 1.048 1.7 1.444 2.433-.436-.791-1.603-1.088-2.256-1.642-.91-.752-1.582-1.009-2.828-1.108-.89-.06-1.504.514-2.354.613 1.186-.138 2.828.337 3.916.673 1.207.356 1.979.97 1.761 2.216-.139.85-.356 2.472-1.088 3.006-.673.495-2.077.1-2.888.337-.574.178-1.088.593-1.78.455-.634-.119-1.03-1.049-1.78-.633-1.801.969 1.384 3.086-.317 4.332-.238.178-1.484.83-1.8.771-.614-.118-.99-1.285-1.247-1.78-.791-1.543-1.464-3.145-2.136-4.748-.495-1.206-1.266-2.472-1.603-3.719-.276-1.028-.356-2.057-.751-3.086-.495-1.285-.495-2.057.93-2.789.712-.356 1.503-.435 2.235-.593.593-.139 1.226-.495 1.82-.633.672-.158 1.483-.06 2.176-.06.791 0 1.444-.198 2.215-.217.87-.04 1.88.237 2.275 1.068.594 1.207-.376 1.919-1.028 2.79-.87 1.127.276 1.325 1.246 1.245a5.44 5.44 0 0 1 1.701.08h.02Z" opacity=".2"/><path fill="#76777C" d="M27.066 66.304c.218.554.693 1.305.792 1.88.138.91-.554 1.325-1.326 1.68-.217.1-.85.238-1.068.258-.376.04-.494-.06-.89 0-.831.118-1.207.633-1.959.85-.237-.276-.316-.553-.514-.85-.237-.416-.593-.633-.83-.93a54.651 54.651 0 0 0-1.445-1.681c-.653-.732-.83-1.306-.83-2.275 0-.97.079-1.939.217-2.889.099-.771 0-1.879.277-2.67.257-.83 1.444-1.86 2.176-2.216.791-.395 1.602-.79 2.453-1.008 2.67-.693 1.464 1.503 1.464 3.204 0 2.275.672 4.53 1.464 6.647h.02Z" opacity=".2"/><path fill="#8E1248" d="M27.244 23.12c.594-1.127.238-1.543 1.543-1.543.653 0 3.205-.356 3.858-.296.87.099 1.068.059 1.938.158.614.06.93.218 1.484.455.574.237.99.633 1.543.87 1.266.534 2.532-.316 3.66.633.989.831.969 2.315 1.167 3.502.435 2.73.653 5.519.752 8.288 0 .277.02.534.02.791 0 1.78-.297 4.471-.594 6.093-.297 1.622-1.187 4.154-1.345 5.045-.159.89-.297 4.589-.297 4.589l-.158 5.36s-9.95-.296-11.276 0c-1.325.298-5.638-.454-6.825 0-1.186.436-1.78-10.543-2.235-11.136-.099-.119 0-.416.02-.534.198-1.702.85-3.423 1.305-5.065.732-2.571 1.504-5.103 2.275-7.655.712-2.295 1.425-4.59 2.157-6.884.257-.831.553-1.84 1.008-2.69v.02Z"/><path fill="#65102B" d="M29.52 27.531c.138.713.276 1.425.474 2.078.336 1.167.87 2.492 2.038 3.165.474.257 1.187.356 1.562.85.554.712.594 1.959.732 2.81.198 1.127-.197 2.334-.474 3.422-.258 1.008-.297 2.512 0 3.56.534 1.9 1.76 3.363 2.789 4.985.415.673.771 1.642.692 2.433-.099 1.01-.91.811-1.681.89-.594.08-.93.258-1.484.495-1.147.495-2.215 1.167-3.422 1.504-1.187.336-1.959-.04-3.126-.238-.435-.079-.455 0-.85.06-.534.098-.732-.258-1.247-.456-1.167-.435-1.523-1.226-1.938-2.413-.574-1.662-.534-3.284-.712-5.005-.159-1.76-.198-3.52 0-5.281.217-2.058.79-4.095 1.008-6.093.1-.95.337-1.84.456-2.79.098-.949.197-1.899.514-2.789.435-1.206.97-2.373 1.662-3.442.296-.455 1.404-2.69 2.195-2.136.475.336.277 1.464.396 1.978.158.752.277 1.563.435 2.354l-.02.06Z"/><path fill="#561B0E" d="M25.978 30.954c.534-1.86.277-4.075 1.306-5.776.633-1.049 1.622-1.286 2.75-1.524.593-.138 1.919-.712 2.472-.454.693.316.337.79.258 1.424-.159 1.266-.04 3.106 1.167 3.857.771.495 1.305-.099 1.543.91.217.87-.178 1.998-.178 2.908 0 1.227-.159 2.453-.159 3.7 0 1.246-.158 2.531 0 3.718.139 1.148.06 2.453.297 3.561.336 1.602.752 3.304 1.74 4.649.772 1.029 2.217 1.404 2.89 2.473.316.494.276.87.276 1.503 0 1.088-.04 2.176.02 3.244-1.345-.514-2.572-1.978-3.759-2.868-.83-.633-1.543-1.029-2.552-.673-1.978.693-3.006 3.047-5.202 3.6-.97.258-2.394.376-3.403.297-.91-.099-1.483-.613-2.275-.989-.91-.415-2.136-.099-2.848-.791-.653-.653-.712-1.998-.792-2.849-.217-1.899-.296-3.956.12-5.835.375-1.721 1.048-3.264 1.82-4.847.533-1.088 1.384-2.097 1.78-3.185.454-1.266 1.226-2.63 1.76-3.877.297-.732.712-1.444.93-2.196l.04.02Z" opacity=".2"/><path fill="#070909" d="M28.649 24.564s2.235-3.56 3.125-3.422c0 0 2.83.297 3.72.752 0 0-3.423 1.938-4.61 3.56-1.187 1.642-2.829 6.232-2.829 6.687 0 .455.594-7.577.594-7.577Z"/><path fill="#110F13" d="M29.242 34.812s5.638 3.956 7.26 3.343c1.642-.594 5.638-4.471 6.35-7.775 0 0 .495 3.521.356 5.599 0 0-2.235 3.857-4.747 7.28a34.37 34.37 0 0 1-5.084 5.499c-1.207 1.048-2.73 1.938-3.72 3.185-1.008 1.285-1.602 2.848-2.67 4.114-.237.297-.85 1.068-1.226.89-.455-.198-.356-1.562-.297-1.958.099-.653.534-1.187.692-1.78.515-1.979.515-3.917.89-5.895.337-1.939.693-3.858 1.03-5.797.078-.435 1.404-6.646 1.186-6.725l-.02.02Z"/><path fill="#201F27" d="M23.288 21.894c1.385-.317 2.493-.198 3.937-.02.732.1 1.879.238 2.512.554 1.048.554.455 1.167.218 2.057-.455 1.662-.356 3.462-.693 5.163-.316 1.662-.04 3.482-.04 5.164 0 1.325-1.345 17.447-1.622 18.674-.296 1.226-1.345 4.787-3.56 5.222-2.236.435-9.357.593-10.544.593-1.187 0-3.58-.79-5.934-7.873-.752-2.215-.89-5.638-.89-5.638l1.186-.89s-.296-19.445 15.45-23.026l-.02.02Z"/><path fill="#ECDEC5" d="M8.59 44.465c0-.752 1.306-12.562 7.122-16.637 0 0-.159.594-.297 2.078-.158 1.483-1.939 9.811-2.235 11.137-.297 1.325-.594 3.857-.594 3.857l-4.016-.455.02.02Zm15.212-17.388c.337-1.365.416-2.433-.494-3.521-1.148-1.385-1.563-.12-2.473.712-.85.771-1.88 1.563-2.334 2.611-.791 1.8-1.227 3.778-1.741 5.638-.277 1.088-.791 2.097-1.048 3.185-.159.593-2.374 8.625-1.92 9.06.436.455 2.078.89 2.671.89.594 0 1.345.297 1.642-.297.297-.593 1.187-4.154 1.642-5.796.435-1.642 2.235-5.638 2.829-7.715a99.32 99.32 0 0 0 1.246-4.767h-.02Zm-4.49 17.962c.95.237 2.433-1.563 3.106-2.137.91-.791 1.82-1.602 2.67-2.453 1.345-1.345 3.422-3.264 3.422-4.312 0-1.049-1.938-3.7-2.235-4.451-.297-.752-1.246-.89-1.958-.139-.435.455-.673 1.266-.91 1.82a81.897 81.897 0 0 0-1.444 3.64 355.588 355.588 0 0 0-1.524 4.174c-.395 1.088-1.265 2.67-1.107 3.838l-.02.02Z"/><path fill="#110F13" d="M7.64 50.36v.02c.416 1.602.871 3.184 1.88 4.51.475.613.989 1.147 1.325 1.86.238.533.218 1.305.752 1.641.475.317 1.286.159 1.86.159.79 0 1.266.237 1.997.395 1.346.297 2.83-.198 4.056-.336 1.602-.178 3.264-.277 4.866-.574 1.523-.277 2.176-1.998 2.908-3.204.534-.89.574-2.533.613-3.62.04-1.326.119-2.513.218-3.779.079-.93-.08-3.026.396-3.759-.554.416-.693 1.959-.87 2.631-.238.95-.436 1.94-.654 2.908-.197.97-.652 1.82-.85 2.71-.1.475.138 1.128-.317 1.464-.435.317-1.048-.197-1.483-.158-.218.99.91 1.444.514 2.433-.317.792-1.345 1.187-2.156 1.029-.87-.158-1.543-.87-1.444-1.78.059-.693 1.147-1.662.197-2.176-.375-.198-1.345-.12-1.8-.218-.474-.08-1.088-.277-1.543-.257.159-.594.91-.633 1.266-1.128.416-.554.317-1.325.08-1.919 1.68.08 4.114 2.038 5.479.139.87-1.227.514-1.602-.613-2.235-1.326-.732-.95-1.326-.87-2.592.632.02 1.226.831 1.918.831.416-1.048-.692-1.9-.138-3.046.554-.218.93.336 1.483.158-.079-2.73 2.255-4.154 2.255-6.864 0-1.247-.296-2.612-.712-3.74-.455-1.147-.93-2.195-1.681-3.184-.633-.83-1.148-2.255-1.78-2.868-.277.989-.416 1.82-.554 2.828-.12.851-.515 1.484-.357 2.473.297-.178 1.01-.97 1.326-1.048.732-.178 1.029.672 1.365 1.246.554.97 1.187 1.958 1.72 2.947.614 1.128.08 1.998-.434 3.106-.831 1.74-2.275 2.868-3.502 4.293-.593.692-1.404 1.206-1.998 1.76-.692.633-1.345 1.741-2.096 2.256-.87.593-2.137.178-3.126.118-.692-.04-1.563.119-2.216-.178-1.879-.87-.91-3.758-.474-5.183.593-1.958.455-4.213.95-6.172.85-3.303 2.393-7.635 5.34-9.653 1.068-.732 2.216-1.068 3.403-1.227 1.127-.138 2.393-.771 3.501-.751.08-.119.08-.238 0-.376-.277 0-.514-.178-.692-.218-.277-.04-.495.119-.673.119-.514 0-1.127.178-1.563.218-1.028.098-2.077.237-3.026.553-1.523.515-3.343 1.682-4.115 3.106-.336.613-.554 1.128-1.068 1.662-.495.494-1.147.93-1.325 1.642-.277 1.068-.159 2.294-.436 3.343-.514 1.978-1.187 4.213-1.325 6.231-.08 1.108-.178 2.097-.435 3.126-.277 1.048-.791 1.998-.97 3.066-1.187-.08-3.66-1.009-4.629.138-.553.653-.02 1.385 0 2.097.06 1.049-.04 1.88.258 2.967v.06Z"/><path fill="#F6BAA3" d="M41.646 23.99c.85.377 1.187 1.03 1.167 1.96-.04 2.195-.752 4.213-1.365 6.27-.87 2.908-2.176 5.638-3.264 8.467-.435 1.107-.435 1.958.455 2.947 2.255 2.493 4.332 5.143 6.666 7.557.87.89 1.306.95 2.117-.06.712-.89 1.464-1.068 2.492-.85.416.099 1.167.237 1.524-.277.118-.178.296 0 .435.06.93.395 1.009 1.245 1.325 2.076.1.297.119 1.365 0 1.563-.376.613-.277 1.325-.277 1.998 0 .89-.217 1.187-1.068 1.424-.83.218-1.701.257-2.512 0-1.583-.494-3.165-1.048-4.57-1.899-3.501-2.116-6.864-4.45-10.188-6.825-1.147-.83-2.274-1.661-3.422-2.492v-.99c.119-.078.139-.177.139-.296.099-1.345.395-2.65.652-3.976.653-3.323 1.484-6.488 2.869-9.555 1.266-2.809 3.086-5.46 5.855-7.081h.99l-.02-.02Z"/><path fill="#722C27" d="M39.39 47.353c-1.899 1.048 2.552 4.115 3.522 4.649.85.474 1.503 1.246 2.294 1.8 1.405.95 1.108.237 1.702-.97.04-.079 2.255-1.345 2.591-1.523 2.77-1.285 2.928 3.62 1.76 5.065-1.78 2.195-6.112-1.168-7.714-2.315-.594-.415-1.187-.712-1.84-1.068a21.063 21.063 0 0 1-4.055-2.908c-.495-.455-1.148-.99-1.721-1.543-.633-.633-1.088-.93-1.8-1.484-.95-.732-3.482-2.868-.752-2.967 1.958-.08 5.044 1.543 5.974 3.264h.04Zm-7.655-4.629c1.048-.415 1.365-2.136 1.583-3.066.336-1.464.989-2.849 1.444-4.313.276-.95.455-2.097.969-2.947.257-.416 1.009-1.484 1.464-1.662.296 1.207.613 2.334.95 3.541.237.83-.12 2.433.83 2.868.633-1.127.91-2.334 1.444-3.5.594-1.287 1.108-2.652 1.029-4.116-.04-.989-.337-3.264-1.326-3.778-1.602-.85-2.67 1.543-3.382 2.453-.772.99-1.266 1.959-1.9 2.987-1.167 1.919-1.582 4.154-2.235 6.271-.257.85-.375 1.582-.494 2.433-.02.218-.514 2.849-.396 2.79l.02.039Z" opacity=".13"/><path fill="#F4B79E" d="M39.648 23.12c.197-.06.415-.119.593-.198.95-.395 2.888-.415 3.482-1.325.217-.336.257-1.246.237-2.275 0-.593-.06-1.642-.099-1.8-.118-.455 1.029-.712.99-1.266 0-.317-.416-.692-.614-.89a9.847 9.847 0 0 1-1.029-1.187c-.593-.811-.375-1.603-.652-2.79-.337-1.443-.95-2.73-1.998-3.797l-.1-.1c-1.82-1.78-4.628.06-6.31 1.326-1.444 1.088-3.382 2.572-3.56 4.51-.218 2.275 1.325 4.352 1.76 6.509.158.731 0 3.125.594 3.56.375.277 1.246.139 1.681.139 1.583-.06 3.462.04 5.025-.396v-.02Z"/><path fill="#CE5F5A" d="M40.478 14.436a3.086 3.086 0 0 0-.099-.415c-.276-.713-.969-1.227-.988-2.018-.02-1.444.633-3.106-.436-4.233.436-.258 1.187 0 1.642.098-.198-1.206-1.305-1.167-2.294-.93-1.543.377-2.75 1.385-3.799 2.553-.87.969-3.303 3.105-.356 2.077.85-.297 1.642-.159 2.176.573.238.356.396.91.376 1.306 0 .178-.534 1.306-.514 1.306.356.375.93.336 1.305-.04.792.534.752 2.67 1.88 2.275.89-.317 1.246-1.622 1.107-2.572v.02Z" opacity=".2"/><path fill="#722C27" d="M33.733 15.227s.613 1.76.574 1.78c-1.03.297-.238.93.237 1.366.732.672 1.444 1.167 2.037 1.978.376.534.376.95.376 1.602 0 .277-.06.653 0 .91.297 1.207 1.326.198 1.998 0 .633-.198 3.521-.316 3.779-1.048.079-.218-1.227-1.227-3.443-2.552-.79-.475-3.244-2.374-4.609-3.6-.356-.317-.435-.495-.95-.416v-.02Z" opacity=".13"/><path fill="#722C27" d="M35.612 17.462c-.277.277-.316.89-.336 1.207-.1 1.464.475 2.888 1.899 3.442.217.08.435.119.633.257.297.179.494.693.91.653.316-.02.534-.455.751-.672.574-.574 1.03-1.01.436-1.8-.515-.673-1.326-1.286-1.998-1.78-.356-.258-.752-.476-1.088-.772-.238-.218-.435-.574-.772-.653-.197-.06-.356 0-.455.118h.02Z" opacity=".13"/><path fill="#722C27" d="M34.643 17.502c-.93.455-.04 3.996.475 4.728.514.732 1.305.752 2.116.791 1.563.06 1.682-1.86.85-2.789-.731-.83-1.602-1.899-2.512-2.492-.415-.277-.712-.337-.93-.238Z" opacity=".23"/><path fill="#722C27" d="m43.822 17.344-.02-.712.89-.06-.87.772Z" opacity=".13"/><path fill="#F4B79E" d="M35.375 18.511c.494.614 1.385 1.345 1.879 1.959.336.395.712.751.791 1.246.04.198.435 1.662.337 1.662l-4.61-.159 1.583-4.728.02.02Z"/><path fill="#7F432C" d="M36.028 11.726c1.543.475 1.424 1.681 1.879 2.928.514 1.384 1.444.356 1.701-.732-.08.336-.752-.93-.791-1.01-.198-.612-.337-1.305-.198-1.938.08-.395.396-.87.297-1.305-.139-.653-1.642-1.504-1.227-2.216.475-.83 2.928-.138 3.225.455.178-.633.375-1.919.455-2.235.138-.673-.91-.554-.99-1.227-.633-.217-.87.534-1.503.376.04-.237-.099-.593-.06-.83-.652-.1-1.344.118-1.977-.1-.693-.237-1.128-.91-1.979-.692-.534.138-.81.554-.593 1.068-.336.08-.673.158-.99.238-.256.059-.434.276-.672.336-.81.217-1.76-.139-2.551.237-.376.178-.89.613-.97 1.049-.02.138.277 1.127.238 1.127-1.207.613-2.315.99-2.493 2.552-.099.87-.257 1.226-.752 1.919-.415.613-.316 1.286-.158 1.938.178.673.158 1.366.158 2.078 0 .732-.296 1.365-.04 2.077.199.534.614.81.99 1.206.395.436.593.91.771 1.464.218.653.317 1.701 1.01 2.058.434.217.85.02 1.285.02 1.068 0 2.077.573 3.125.078.416-.197 1.049-.494 1.227-.95.158-.454-.099-.691.316-1.067.337-.297.633-.613.93-.93.396-.396.91-.218 1.187-.771.238-.475.08-.614-.217-1.049-.357-.514-.851-.95-1.168-1.484-.178-.316-.217-.692-.415-1.008-.495-.772-1.424-1.03-1.523-2.058-.1-.97-.06-1.642 1.048-1.8.495-.06.99-.04 1.444.099l-.02.099Z"/><path fill="#090A09" d="M29.974 9.372c-.158-.04-.059-.712-.474-.811-.337-.08-.732.257-.97.455-.494.415-.95.692-1.345 1.226-.336.495-.653.89-1.029 1.365-.435.554-.257 1.168-.02 1.741.238.613 0 1.345 0 2.018 0 .712-.237 1.385-.078 2.097.237 1.068 1.483 1.483 1.76 2.591.139.574.396 1.128.534 1.701.08.357 0 .554.356.752.436.257.91-.218 1.385-.218.554 0 1.029.396 1.543.396.277 0 .593-.079.89-.099.416-.02.89 0 1.286-.198.435-.217.772-.633 1.029-1.048.316-.475.415-1.306.83-1.681.317-.258.752-.297 1.069-.495.356-.257.356-.554.197-.91-.514-1.207-1.7-1.82-2.373-2.908-.435-.712-1.227-1.602-1.326-2.453-.118-1.048.534-1.365 1.405-1.582.791-.198 1.8-.04 2.176-.95.376-.93-.08-1.88-.178-2.809-.06-.574 0-.791-.574-1.127-.395-.218-.712-.258-1.029.118-.276-.138-.276-.455-.633-.554-.474-.099-.85.119-1.226.356.06.574 1.147.752 1.226 1.346.06.474-.375.395-.712.455-.573.118-1.048.454-1.503.79-.633.456-1.444.654-2.216.416v.02Z" opacity=".2"/></g></g><defs><clipPath id="favicon__a"><path fill="#fff" d="M0 0h64v64H0z"/></clipPath><clipPath id="favicon__c"><path fill="#fff" d="M0 0h89.374v163.2H0z" transform="translate(-19.915 3.2)"/></clipPath><linearGradient id="favicon__b" x1="32" x2="32" y1="0" y2="64" gradientUnits="userSpaceOnUse"><stop stop-color="#E3D8CF"/><stop offset="1" stop-color="#EFEBE7"/></linearGradient></defs></svg>