<svg width="25" height="25" viewBox="0 0 26 26" fill="none" xmlns="http://www.w3.org/2000/svg">
<circle cx="12.5" cy="12.5" r="12" fill="white" stroke="white"/>
<g clip-path="url(#clip0_55_11258)">
<path fill-rule="evenodd" clip-rule="evenodd" d="M12.493 8.08634C12.493 8.08634 10.5164 6.00781 6.98391 6.00781C2.56598 6.00781 1.54497 9.32516 1.5392 11.072C1.52437 15.6573 5.52629 18.2286 8.57872 19.487C10.4481 20.2576 12.493 20.9998 12.493 20.9998C12.493 20.9998 14.538 20.2576 16.4073 19.487C19.4598 18.2286 23.4617 15.6573 23.4469 11.072C23.4411 9.32516 22.4201 6.00781 18.0021 6.00781C14.4696 6.00781 12.493 8.08634 12.493 8.08634Z" fill="#157E41"/>
<path fill-rule="evenodd" clip-rule="evenodd" d="M17.1771 11.2864C17.1507 11.2807 17.1042 11.2989 16.9897 11.2173C16.8792 11.1386 16.676 11.0504 16.4396 11.2171C16.2032 11.3838 16.0071 11.8137 16.17 12.1821C16.2954 12.4656 16.5966 12.4432 16.8287 12.1851C16.9727 12.025 17.0495 11.7771 17.1518 11.4449C17.1698 11.3863 17.2002 11.2913 17.1771 11.2864ZM11.0104 10.9679C11.0369 10.8842 11.0429 10.759 10.935 10.7277C10.8356 10.6989 10.7235 10.7467 10.6723 10.9389C10.6244 11.1187 10.6342 11.3779 10.685 11.4936C10.7253 11.4717 10.962 11.1205 11.0104 10.9679ZM8.61659 11.2819C8.66094 11.1728 8.62004 11.0661 8.51711 11.0522C8.45848 11.0442 8.34998 11.0664 8.29678 11.2755C8.24416 11.4825 8.25094 11.7561 8.31643 11.8685C8.35189 11.844 8.56422 11.4108 8.61659 11.2819ZM19.552 12.1646C19.552 12.1646 19.8385 11.93 20.0603 11.6996C20.3226 11.4271 20.5751 11.0283 20.6633 10.8242C20.7649 10.589 20.5791 10.4855 20.4145 10.6347C20.2474 10.7861 19.9963 11.1769 19.7981 11.5914C19.6696 11.8601 19.5837 12.0773 19.552 12.1646ZM16.9631 12.4622C16.9631 12.4622 16.7384 12.8446 16.3302 12.8015C16.0428 12.7711 15.8707 12.5708 15.8105 12.336C15.801 12.3501 15.7927 12.3658 15.78 12.3795C15.59 12.5851 15.3219 12.6931 15.1712 12.5858C14.887 12.3835 15.0023 11.8157 15.2312 11.2021C15.3425 10.9038 15.2525 10.8594 15.1345 10.871C14.998 10.8843 14.8657 10.9525 14.7074 11.1579C14.6256 11.2641 14.5715 11.3535 14.5157 11.5404C14.4441 11.7804 14.4174 12.2319 14.3646 12.4801C14.3338 12.511 14.2401 12.5037 14.1924 12.5018C14.14 12.4998 14.0663 12.4833 14.0541 12.4565C14.0271 12.3976 14.0745 12.0703 14.0906 11.9539C14.1045 11.8523 14.1296 11.7193 14.1433 11.6017C14.1571 11.4843 14.2141 11.112 14.2145 11.0273C14.215 10.9435 14.2037 10.8423 14.1086 10.826C14.0176 10.8105 13.8951 10.8477 13.7392 11.0621C13.6689 11.1585 13.6089 11.272 13.547 11.4376C13.4623 11.6637 13.4506 11.8364 13.4039 12.2167C13.4007 12.2427 13.3856 12.4261 13.3718 12.4382C13.344 12.4625 13.1676 12.461 13.0759 12.4294C13.0412 12.4174 13.0566 12.2207 13.0703 12.1009C12.9377 12.2819 12.7671 12.4294 12.6087 12.4275C12.4804 12.426 12.3507 12.3219 12.295 12.1702C12.1686 11.8259 12.3513 11.1758 12.3967 11.0465C12.4152 10.9938 12.4559 10.9135 12.3965 10.8898C12.3371 10.8661 12.3009 10.932 12.2311 10.9588C12.1613 10.9856 12.0183 10.9409 12.0183 10.9409C11.989 11.3051 11.9048 11.5947 11.7892 11.8599C11.6738 12.1252 11.4654 12.4755 11.1016 12.4888C10.7819 12.5005 10.6087 12.16 10.5784 12.0608C10.5409 12.1121 10.3555 12.5158 10.0698 12.5917C9.54539 12.7309 9.50501 11.9941 9.50501 11.9941C9.4946 12.1266 9.25711 12.7249 8.82941 12.7813C8.40173 12.8377 8.2434 12.493 8.2434 12.493L8.23271 12.4923C8.23271 12.4923 7.92851 13.2245 7.4273 13.0372C7.14935 12.9332 7.05594 12.4659 6.99659 11.7681C6.99659 11.7681 6.75583 12.9542 6.08042 13.2726C5.38274 14.451 4.12692 14.1898 3.82769 13.9488C3.40206 13.606 3.48334 12.9558 3.95378 12.7029C4.26572 12.5352 4.41241 12.6699 4.12271 12.8709C4.01211 12.9477 3.87815 13.1211 3.92766 13.3573C4.01668 13.782 4.63485 13.7678 4.85009 13.711C5.83162 13.4521 5.80236 12.7327 5.7973 12.5871C5.79271 12.4549 5.64471 11.9602 5.01047 12.0416C4.37627 12.1229 4.10834 12.0039 3.99364 11.9442C3.71883 11.801 3.56397 11.4021 3.71752 10.9003C3.84517 10.4829 4.09359 10.2123 4.56785 9.99584C5.08818 9.75863 5.80129 9.86401 5.93599 10.2356C5.99184 10.3896 5.97638 10.6651 5.81203 10.7907C5.58004 10.9681 5.26911 10.8687 5.50337 10.7181C5.66405 10.6148 5.70577 10.322 5.37856 10.2012C4.80957 9.99117 3.83853 10.584 4.11373 11.3586C4.16987 11.5167 4.29974 11.7017 4.967 11.657C5.6343 11.6125 5.96121 11.7589 6.11034 12.0546C6.25957 12.3505 6.2343 12.6228 6.2343 12.6228C6.40504 12.5055 6.64597 12.1413 6.76405 11.473C6.59102 11.5292 6.45916 11.5722 6.45162 11.5652C6.42938 11.5442 6.36624 11.2777 6.38356 11.2462C6.3975 11.2208 6.58728 11.1747 6.81435 11.1183C6.89474 10.4266 6.92162 10.148 6.93321 10.0716C6.93883 10.0343 6.97178 10.0225 6.98342 10.0217C6.99506 10.0209 7.04195 10.0274 7.0502 10.0879C7.05209 10.1016 7.11189 10.5073 7.20105 10.9976C7.42695 10.9311 7.60638 10.8881 7.64318 10.9052C7.67872 10.9218 7.70405 11.1582 7.65165 11.2046C7.61755 11.2348 7.42353 11.2723 7.22493 11.3251C7.27113 11.9104 7.37345 12.5726 7.58468 12.6198C7.83717 12.6761 8.08859 12.1361 8.08859 12.1361C7.99413 11.8465 7.94531 11.5562 8.01211 11.2426C8.07793 10.9336 8.28047 10.6775 8.57627 10.7083C8.89681 10.7417 8.94903 10.9415 8.90777 11.2654C8.8611 11.6321 8.4493 12.1519 8.4493 12.1519C8.4493 12.1519 8.56422 12.383 8.83023 12.3568C9.24987 12.3155 9.42853 11.438 9.43504 11.4088C9.44154 11.3795 9.45564 10.9494 9.45659 10.897C9.4584 10.7991 9.43913 10.6399 9.53364 10.5683C9.62668 10.4979 9.81842 10.5078 9.84378 10.5675C9.90569 10.7134 9.84648 11.2389 9.83864 11.5138C9.83441 11.6625 9.83296 12.1494 10.032 12.1626C10.1468 12.1703 10.2415 12.0858 10.3146 11.9925C10.4697 11.7948 10.4422 11.7622 10.4422 11.7622C10.3485 11.3526 10.3459 11.1748 10.379 10.952C10.4254 10.6391 10.7386 10.2867 11.0745 10.3917C11.3804 10.4874 11.3576 10.8133 11.2971 11.0065C11.2504 11.1556 11.1423 11.3364 11.0343 11.4817C10.9262 11.6271 10.8327 11.7378 10.81 11.766C10.9133 12.0665 11.0426 12.0605 11.1382 12.0537C11.2171 12.048 11.3122 11.9928 11.3968 11.897C11.5611 11.7112 11.7018 11.3564 11.7733 10.8565C11.7733 10.8565 11.5853 10.6834 11.698 10.4271C11.8108 10.1707 12.0923 10.5132 12.14 10.5571C12.1876 10.601 12.2816 10.6452 12.4804 10.5488C12.6793 10.4525 12.8297 10.4358 12.8167 10.6466C12.8079 10.7894 12.7206 10.8494 12.6898 10.9169C12.6607 10.9807 12.3684 11.8671 12.6295 11.9804C12.7722 12.0423 13.0076 11.8301 13.1126 11.6043C13.1278 11.3726 13.1586 11.1355 13.1718 10.8986C13.1815 10.7246 13.2079 10.5985 13.1998 10.5226C13.3243 10.4443 13.4755 10.4396 13.4985 10.4406C13.6187 10.4458 13.5821 10.601 13.549 10.9568C13.5998 10.8651 13.6444 10.8085 13.7072 10.7417C13.9849 10.4462 14.1127 10.3849 14.3022 10.3952C14.3854 10.3998 14.4972 10.457 14.543 10.5952C14.5786 10.7024 14.581 10.7746 14.5568 10.9923C14.7498 10.7234 14.9825 10.5445 15.2843 10.5171C15.3714 10.5092 15.496 10.5277 15.5784 10.5884C15.8065 10.7562 15.6154 11.0402 15.428 11.6092C15.3085 11.972 15.2931 12.205 15.456 12.2101C15.5849 12.2141 15.6989 12.0681 15.7523 11.9913C15.7514 11.5451 16.0005 11.0811 16.3389 10.9107C16.7673 10.6948 17.0674 10.8201 17.2158 10.9314C17.2644 10.9678 17.271 11.0161 17.271 11.0161C17.271 11.0161 17.2883 10.9719 17.3037 10.9492C17.3191 10.9266 17.3754 10.8951 17.4509 10.9104C17.5263 10.9257 17.6032 10.9823 17.5942 11.031C17.5862 11.0746 17.4622 11.3955 17.3994 11.6303C17.3365 11.8651 17.2796 12.1008 17.2656 12.2559C17.2511 12.4172 17.2569 12.5664 17.3349 12.603C17.55 12.704 17.9275 11.8697 17.9403 11.541C17.9551 11.4908 17.8721 11.3938 17.9426 11.1987C17.9906 11.066 18.1797 11.0147 18.2662 11.1328C18.3848 11.2948 18.3846 11.41 18.4777 11.4373C18.6351 11.4834 18.782 11.3772 18.9196 11.4653C19.0007 11.5173 19.0104 11.6844 18.8742 11.814C18.6721 12.0062 18.2448 12.8211 18.4916 12.9418C18.6294 13.0091 19.033 12.4829 19.2002 12.2706C19.2571 12.1137 19.2778 12.0883 19.4535 11.6625C19.6142 11.2727 19.8768 10.7709 20.15 10.477C20.4023 10.2055 20.6903 10.1367 20.8671 10.24C21.316 10.5022 20.8433 11.3887 20.1274 11.9854C19.9218 12.1569 19.5113 12.4244 19.4527 12.4756C19.4471 12.4805 19.442 12.5031 19.4426 12.5028C19.5495 12.444 20.3481 11.848 20.6291 12.0922C20.8577 12.2908 20.6877 12.8241 19.9932 13.0787C19.9839 13.182 19.9762 13.2929 20.0844 13.5126C20.1784 13.7036 20.3147 13.7992 20.4671 13.8649C20.6031 13.9236 21.0064 13.9693 21.1035 13.6422C21.1575 13.4602 21.091 13.3272 21.0259 13.2535C20.9647 13.1843 20.9394 13.1233 20.9653 13.086C20.9874 13.0543 21.0634 13.068 21.1492 13.1381C21.4394 13.375 21.4263 13.8695 21.1154 14.1117C21.0144 14.1904 20.7147 14.2843 20.4104 14.1786C20.2278 14.1151 20.0574 13.986 19.8995 13.7262C19.8188 13.5934 19.7733 13.5164 19.7257 13.3072C19.6439 12.9473 19.7624 12.8535 19.8283 12.8374C19.914 12.8164 19.9817 12.8749 19.9817 12.8749C19.9817 12.8749 20.2028 12.7617 20.3227 12.5802C20.3743 12.5021 20.3766 12.4008 20.2969 12.3475C20.2089 12.2886 19.8483 12.4703 19.5978 12.6241C19.5128 12.6763 19.3867 12.7605 19.3663 12.8049C19.3522 12.8354 19.0803 13.4439 19.0367 13.5112C19.0064 13.558 18.9255 13.5552 18.8489 13.5004C18.7746 13.4473 18.7406 13.4116 18.7619 13.3271C18.7851 13.2351 19.0125 12.8022 19.0125 12.8022C18.8959 12.9385 18.5497 13.4057 18.3052 13.3086C17.9777 13.1784 18.0468 12.7474 18.2255 12.3414C18.3338 12.0954 18.5706 11.8194 18.5639 11.7624C18.5571 11.7054 18.5177 11.7202 18.3845 11.7254C18.2514 11.7307 18.1728 11.662 18.1728 11.662C18.0409 12.1866 17.7453 13.1967 17.1336 12.985C16.972 12.929 16.9233 12.6135 16.9631 12.4622ZM9.42777 9.95765C9.43831 9.90612 9.47015 9.84267 9.50826 9.8089C9.54684 9.7747 9.60206 9.75593 9.65187 9.75229C9.74042 9.74584 9.88946 9.77644 9.93605 9.86838C9.96446 9.92448 9.96129 10.0078 9.94698 10.067C9.93547 10.1147 9.90791 10.1635 9.87575 10.1987C9.78998 10.2926 9.64785 10.2838 9.54594 10.2269C9.45255 10.1747 9.40542 10.067 9.42777 9.95765ZM19.6718 15.2852C19.6484 15.2522 19.6067 15.2366 19.5642 15.2366C19.5138 15.2366 19.4635 15.2591 19.4635 15.3155C19.4635 15.4388 19.7551 15.3685 19.7551 15.5872C19.7551 15.7191 19.651 15.7834 19.5303 15.7834C19.4539 15.7834 19.3793 15.7599 19.3289 15.7001L19.4114 15.6202C19.4383 15.661 19.4843 15.6844 19.5329 15.6844C19.5833 15.6844 19.6406 15.6567 19.6406 15.6002C19.6406 15.4657 19.3489 15.5429 19.3489 15.3234C19.3489 15.1966 19.4618 15.1376 19.5754 15.1376C19.6397 15.1376 19.7039 15.1558 19.7516 15.201L19.6718 15.2852ZM18.6884 15.1532H18.7978V15.398H19.0851V15.1532H19.1944V15.7678H19.0851V15.4969H18.7978V15.7678H18.6884V15.1532ZM18.4766 15.2973C18.4315 15.2496 18.3898 15.2366 18.3473 15.2366C18.2206 15.2366 18.1364 15.3338 18.1364 15.4562C18.1364 15.5872 18.2206 15.6844 18.3473 15.6844C18.3968 15.6844 18.4445 15.6619 18.4853 15.6098L18.5756 15.674C18.52 15.7504 18.4367 15.7834 18.3464 15.7834C18.1572 15.7834 18.0218 15.6549 18.0218 15.4631C18.0218 15.2661 18.1572 15.1376 18.3464 15.1376C18.4297 15.1376 18.5009 15.1645 18.5617 15.2348L18.4766 15.2973ZM17.7718 15.7678H17.8812V15.1532H17.7718V15.7678ZM17.1877 15.1532H17.5948V15.2522H17.2971V15.4032H17.5792V15.5022H17.2971V15.6688H17.6104V15.7678H17.1877V15.1532ZM16.7963 15.4136C16.8579 15.4136 16.9299 15.4084 16.9299 15.3286C16.9299 15.2557 16.8622 15.247 16.8058 15.247H16.7112V15.4136H16.7963ZM16.6018 15.1532H16.8154C16.9334 15.1532 17.0445 15.1914 17.0445 15.3295C17.0445 15.4179 16.9933 15.4831 16.9022 15.4961L17.0653 15.7678H16.9334L16.7911 15.5073H16.7112V15.7678H16.6018V15.1532ZM16.2104 15.4136C16.272 15.4136 16.3441 15.4084 16.3441 15.3286C16.3441 15.2557 16.2764 15.247 16.22 15.247H16.1254V15.4136H16.2104ZM16.016 15.1532H16.2295C16.3476 15.1532 16.4586 15.1914 16.4586 15.3295C16.4586 15.4179 16.4074 15.4831 16.3163 15.4961L16.4795 15.7678H16.3475L16.2052 15.5073H16.1254V15.7678H16.016V15.1532ZM15.4466 15.1532H15.8537V15.2522H15.556V15.4032H15.8381V15.5022H15.556V15.6688H15.8693V15.7678H15.4466V15.1532ZM15.0352 15.2522H14.8469V15.1532H15.3329V15.2522H15.1446V15.7678H15.0352V15.2522ZM14.6733 15.2852C14.6498 15.2522 14.6082 15.2366 14.5657 15.2366C14.5153 15.2366 14.465 15.2591 14.465 15.3155C14.465 15.4388 14.7566 15.3685 14.7566 15.5872C14.7566 15.7191 14.6525 15.7834 14.5318 15.7834C14.4554 15.7834 14.3808 15.7599 14.3304 15.7001L14.4129 15.6202C14.4398 15.661 14.4858 15.6844 14.5344 15.6844C14.5848 15.6844 14.642 15.6567 14.642 15.6002C14.642 15.4657 14.3504 15.5429 14.3504 15.3234C14.3504 15.1966 14.4633 15.1376 14.5769 15.1376C14.6412 15.1376 14.7054 15.1558 14.7532 15.201L14.6733 15.2852ZM14.0176 14.9353C14.0557 14.9353 14.0853 14.9622 14.0853 14.9978C14.0853 15.0334 14.0557 15.0603 14.0176 15.0603C13.9794 15.0603 13.9516 15.0308 13.9516 14.9978C13.9516 14.9648 13.9794 14.9353 14.0176 14.9353ZM13.7875 14.9353C13.8257 14.9353 13.8552 14.9622 13.8552 14.9978C13.8552 15.0334 13.8257 15.0603 13.7875 15.0603C13.7493 15.0603 13.7215 15.0308 13.7215 14.9978C13.7215 14.9648 13.7493 14.9353 13.7875 14.9353ZM13.9025 15.6844C14.0301 15.6844 14.1143 15.5872 14.1143 15.4562C14.1143 15.3338 14.0301 15.2366 13.9025 15.2366C13.7758 15.2366 13.6916 15.3338 13.6916 15.4562C13.6916 15.5872 13.7758 15.6844 13.9025 15.6844ZM13.9017 15.1376C14.0935 15.1342 14.2289 15.2626 14.2289 15.4596C14.2289 15.6514 14.0935 15.7799 13.9017 15.7834C13.7124 15.7834 13.5771 15.6549 13.5771 15.4631C13.5771 15.2661 13.7124 15.1376 13.9017 15.1376ZM12.7239 15.6688L13.0519 15.2522H12.7291V15.1532H13.1882V15.2522L12.8575 15.6688H13.1934V15.7678H12.7239V15.6688ZM12.3706 15.4136C12.4323 15.4136 12.5043 15.4084 12.5043 15.3286C12.5043 15.2557 12.4366 15.247 12.3802 15.247H12.2856V15.4136H12.3706ZM12.1762 15.1532H12.3897C12.5077 15.1532 12.6189 15.1914 12.6189 15.3295C12.6189 15.4179 12.5677 15.4831 12.4765 15.4961L12.6397 15.7678H12.5077L12.3654 15.5073H12.2856V15.7678H12.1762V15.1532ZM11.6068 15.1532H12.0139V15.2522H11.7162V15.4032H11.9983V15.5022H11.7162V15.6688H12.0295V15.7678H11.6068V15.1532ZM10.9246 15.1532H11.034V15.398H11.3213V15.1532H11.4306V15.7678H11.3213V15.4969H11.034V15.7678H10.9246V15.1532ZM10.0593 15.1532H10.4663V15.2522H10.1686V15.4032H10.4507V15.5022H10.1686V15.6688H10.482V15.7678H10.0593V15.1532ZM9.32935 15.1532H9.4743L9.772 15.6098H9.77372V15.1532H9.8831V15.7678H9.74422L9.44045 15.2964H9.4387V15.7678H9.32935V15.1532ZM9.02255 14.9353C9.06075 14.9353 9.09026 14.9622 9.09026 14.9978C9.09026 15.0334 9.06075 15.0603 9.02255 15.0603C8.98435 15.0603 8.95659 15.0308 8.95659 14.9978C8.95659 14.9648 8.98435 14.9353 9.02255 14.9353ZM8.7925 14.9353C8.83066 14.9353 8.8602 14.9622 8.8602 14.9978C8.8602 15.0334 8.83066 15.0603 8.7925 15.0603C8.7543 15.0603 8.72651 15.0308 8.72651 14.9978C8.72651 14.9648 8.7543 14.9353 8.7925 14.9353ZM9.15575 15.5421C9.15575 15.6905 9.049 15.7834 8.9084 15.7834C8.76777 15.7834 8.66102 15.6905 8.66102 15.5421V15.1532H8.77039V15.5386C8.77039 15.5994 8.80337 15.6792 8.9084 15.6792C9.01342 15.6792 9.0464 15.5994 9.0464 15.5386V15.1532H9.15575V15.5421ZM8.27219 15.4136C8.33381 15.4136 8.40586 15.4084 8.40586 15.3286C8.40586 15.2557 8.33815 15.247 8.28173 15.247H8.18711V15.4136H8.27219ZM8.07777 15.1532H8.29129C8.40933 15.1532 8.52042 15.1914 8.52042 15.3295C8.52042 15.4179 8.46922 15.4831 8.37807 15.4961L8.54127 15.7678H8.40933L8.26698 15.5073H8.18711V15.7678H8.07777V15.1532ZM7.90938 15.7226C7.83474 15.7625 7.74968 15.7834 7.65506 15.7834C7.46586 15.7834 7.33045 15.6549 7.33045 15.4631C7.33045 15.2661 7.46586 15.1376 7.65506 15.1376C7.74881 15.1376 7.83299 15.1576 7.89722 15.2149L7.81651 15.2964C7.77744 15.2583 7.71755 15.2366 7.65594 15.2366C7.52922 15.2366 7.44501 15.3338 7.44501 15.4562C7.44501 15.5872 7.52922 15.6844 7.65594 15.6844C7.71148 15.6844 7.76181 15.674 7.80001 15.6523V15.5073H7.67416V15.4084H7.90938V15.7226ZM6.8661 15.2852C6.84269 15.2522 6.80102 15.2366 6.75848 15.2366C6.70815 15.2366 6.6578 15.2591 6.6578 15.3155C6.6578 15.4388 6.94944 15.3685 6.94944 15.5872C6.94944 15.7191 6.84528 15.7834 6.72463 15.7834C6.64826 15.7834 6.57362 15.7599 6.52329 15.7001L6.60572 15.6202C6.63263 15.661 6.67864 15.6844 6.72725 15.6844C6.77758 15.6844 6.83487 15.6567 6.83487 15.6002C6.83487 15.4657 6.54323 15.5429 6.54323 15.3234C6.54323 15.1966 6.65607 15.1376 6.76976 15.1376C6.834 15.1376 6.89823 15.1558 6.94597 15.201L6.8661 15.2852ZM6.23687 15.5334L6.14225 15.2834L6.04591 15.5334H6.23687ZM6.09799 15.1532H6.19258L6.4573 15.7678H6.33233L6.27504 15.6271H6.00856L5.95301 15.7678H5.83064L6.09799 15.1532ZM5.39236 15.6688C5.52949 15.6688 5.64146 15.6098 5.64146 15.4605C5.64146 15.3112 5.54424 15.2522 5.41058 15.2522H5.31075V15.6688H5.39236ZM5.2014 15.1532H5.44356C5.60498 15.1532 5.75602 15.2522 5.75602 15.4605C5.75602 15.6705 5.5781 15.7678 5.43053 15.7678H5.2014V15.1532Z" fill="#FFFFFE"/>
</g>
<defs>
<clipPath id="clip0_55_11258">
<rect width="21.9126" height="15" fill="white" transform="translate(1.53911 6)"/>
</clipPath>
</defs>
</svg>
