<?xml version="1.0" encoding="UTF-8" standalone="no"?>
<svg
   width="25"
   height="25"
   viewBox="0 0 26 26"
   fill="none"
   version="1.1"
   id="svg22"
   sodipodi:docname="logo_bergsteigen.svg"
   inkscape:version="1.1.2 (b8e25be833, 2022-02-05)"
   xmlns:inkscape="http://www.inkscape.org/namespaces/inkscape"
   xmlns:sodipodi="http://sodipodi.sourceforge.net/DTD/sodipodi-0.dtd"
   xmlns="http://www.w3.org/2000/svg"
   xmlns:svg="http://www.w3.org/2000/svg">
  <defs
     id="defs26" />
  <sodipodi:namedview
     id="namedview24"
     pagecolor="#ffffff"
     bordercolor="#666666"
     borderopacity="1.0"
     inkscape:pageshadow="2"
     inkscape:pageopacity="0.0"
     inkscape:pagecheckerboard="0"
     showgrid="false"
     inkscape:zoom="19.731349"
     inkscape:cx="12.51815"
     inkscape:cy="12.264747"
     inkscape:window-width="1822"
     inkscape:window-height="1051"
     inkscape:window-x="-9"
     inkscape:window-y="-9"
     inkscape:window-maximized="1"
     inkscape:current-layer="svg22" />
  <path
     style="fill:#083d65;stroke-width:0.275343;fill-opacity:1"
     d="M 2.9249317,25.67256 C 1.6227963,25.213401 0.35603013,23.850679 0.13671961,22.673142 0.05149529,22.215568 0.0193816,17.579315 0.06534707,12.370359 0.16017335,1.6244393 0.08886905,1.9630051 2.5141994,0.74378737 3.7100737,0.14261892 3.9386066,0.12929995 13.057337,0.12929995 c 9.118731,0 9.347264,0.0133201 10.543138,0.61448742 0.672304,0.33796803 1.479523,0.96146693 1.793823,1.38555433 0.552565,0.7455847 0.571451,1.1066015 0.571451,10.9242203 v 10.153153 l -0.646487,0.891714 C 23.997998,25.92088 23.935472,25.93092 13.473737,26.00094 5.8553501,26.051927 3.8212084,25.988596 2.9249282,25.67256 Z M 23.059289,24.913625 c 0.680009,-0.337967 1.518459,-1.032079 1.863221,-1.542467 0.620118,-0.91803 0.626842,-1.028157 0.626842,-10.269347 0,-9.2377534 -0.007,-9.3513789 -0.624601,-10.2442337 C 24.581221,2.3609989 23.947459,1.6976135 23.516393,1.3833863 22.756378,0.82937016 22.439552,0.81206312 13.05734,0.81206312 c -9.3822117,0 -9.6990371,0.0173093 -10.4590527,0.57132318 C 2.1672205,1.6976135 1.5334597,2.3609989 1.1899295,2.8575773 0.57225673,3.7504321 0.56532857,3.8640576 0.56532857,13.101811 c 0,9.24119 0.006708,9.351317 0.62684183,10.269347 0.344763,0.510388 1.1832122,1.2045 1.8632226,1.542467 1.2043979,0.598592 1.4631321,0.614488 10.001947,0.614488 8.538816,0 8.79755,-0.0159 10.001949,-0.614488 z M 3.7312308,24.188835 C 1.7676549,23.311514 1.3981302,22.371303 1.3981302,18.252551 v -3.524165 l 2.3552783,-2.305107 c 2.0791345,-2.034845 2.39647,-2.252943 2.7066024,-1.860195 1.8683895,2.366103 4.5158431,5.406335 4.7078711,5.406335 0.131869,0 1.370064,-0.877171 2.751546,-1.949271 2.121814,-1.646633 2.56881,-1.890442 2.879068,-1.570357 1.784616,1.841136 7.918054,8.86499 7.918054,9.067548 0,0.714313 -1.310089,2.214416 -2.3331,2.671496 -1.026103,0.45846 -1.935001,0.507966 -9.32611,0.507966 -7.3911083,0 -8.3000063,-0.04951 -9.3261092,-0.507966 z M 20.707427,12.934972 C 17.675245,9.5642291 16.743445,8.6845932 16.404622,8.8730488 16.166758,9.0053485 14.978553,9.9017857 13.764166,10.865131 L 11.556189,12.616665 8.9245648,9.5010529 6.2929394,6.3854402 3.8455349,8.7820629 1.3981302,11.178684 V 7.7426711 c 0,-3.1144682 0.058452,-3.5202574 0.6245999,-4.3362432 C 2.3662602,2.9113009 3.0845511,2.2755002 3.6189313,1.9935368 4.5198876,1.5181501 5.226338,1.4863466 13.334941,1.5561272 c 8.652682,0.074465 8.753916,0.081921 9.650797,0.7112707 1.68017,1.1789858 1.748938,1.5337414 1.666446,8.5968311 l -0.07443,6.373212 z"
     id="path1054"
     inkscape:label="path839" />
  <path
     style="fill:#f9f9f9;fill-opacity:1;stroke-width:0.0506808"
     d="M 5.6255656,24.471239 C 4.9057954,24.44131 4.0997243,24.344151 3.7367919,24.243578 2.6969085,23.955411 1.3652754,22.92761 0.96425366,22.103636 0.72426744,21.61054 0.65963787,21.081122 0.60767167,19.182672 0.54683724,16.960244 0.54683163,8.2323452 0.6076632,6.0310117 0.65955212,4.1532897 0.72635418,3.5791247 0.94332962,3.1459527 1.3006245,2.4326455 2.3585143,1.3511509 2.9360833,1.1087345 3.3620288,0.92995723 3.9866861,0.88744889 7.0192868,0.83086981 10.389562,0.76799075 19.545738,0.80682649 20.750863,0.88911202 c 1.400835,0.0956486 1.674178,0.21863028 2.570734,1.15661888 0.55144,0.5769241 0.857926,1.0302964 0.981059,1.4512423 0.176703,0.6040837 0.189343,1.0958917 0.212331,8.2609658 0.02801,8.731287 -0.0026,9.60336 -0.363413,10.337993 -0.432149,0.879985 -1.777892,1.892832 -2.894349,2.178376 -0.718004,0.183636 -1.09829,0.193011 -8.232267,0.202953 -3.8606076,0.0054 -7.1903343,0.0027 -7.3993924,-0.006 z M 19.131991,23.689086 c 1.877499,-0.09378 2.445193,-0.275731 3.396738,-1.088662 0.366629,-0.313221 0.897916,-0.976086 1.090525,-1.360606 0.238976,-0.477082 0.221308,-0.544122 -0.317568,-1.204969 -1.365708,-1.674828 -5.552416,-6.435188 -6.80489,-7.737278 -0.454866,-0.472885 -0.45642,-0.473927 -0.670587,-0.449787 -0.275226,0.03102 -0.739075,0.307097 -1.567495,0.932949 -2.007337,1.516493 -2.723541,2.045968 -3.103776,2.29456 L 10.732004,15.3518 10.293174,14.89791 C 9.5329304,14.111575 7.8825536,12.187404 6.5488957,10.532463 6.3202155,10.248693 6.0867134,10.001791 6.0300022,9.9837916 5.8907319,9.9395888 5.5577887,10.106995 5.2174857,10.392332 5.0656249,10.519664 4.1260483,11.413611 3.1295376,12.378882 L 1.3177,14.13392 l 7.841e-4,2.283642 c 8.154e-4,2.374534 0.048158,3.485313 0.1815737,4.260193 0.2362327,1.372039 0.7571826,2.021449 2.091308,2.607001 0.4290774,0.188323 0.8303146,0.283474 1.527392,0.362214 1.1120284,0.125611 11.7044082,0.157446 14.0132332,0.04212 z m 4.562233,-10.220671 c 0.05711,-4.6469945 0.04985,-7.696382 -0.02,-8.3978393 C 23.520422,3.5259187 23.281777,3.0227457 22.385481,2.3533098 21.337285,1.5704212 21.367352,1.5736891 14.44402,1.4901546 9.4644591,1.430073 5.3707704,1.4527493 4.6879713,1.5441967 3.717782,1.6741342 3.2103538,1.9366296 2.4316169,2.7114212 1.8705298,3.2696657 1.6561651,3.5957302 1.4986826,4.1304828 1.3619038,4.5949336 1.3131161,5.8077143 1.3284441,8.3623272 l 0.014596,2.4326768 2.3236751,-2.2806345 c 1.2780213,-1.2543491 2.340825,-2.2871056 2.361786,-2.2950148 0.020961,-0.00791 1.1493938,1.3034557 2.5076283,2.9141443 1.358234,1.610689 2.4986315,2.949124 2.5342145,2.974301 0.04559,0.03226 0.46733,-0.274233 1.427772,-1.037588 1.975636,-1.5702241 3.26353,-2.5305021 3.393829,-2.5305021 0.278072,0 1.18418,0.8439615 2.809259,2.6165841 0.487803,0.532091 1.787765,1.972544 2.888804,3.201008 1.10104,1.228463 2.01626,2.235163 2.033822,2.23711 0.01756,0.0019 0.04924,-1.404751 0.07039,-3.125997 z"
     id="path1148"
     transform="scale(1.04)" />
</svg>
