<?xml version="1.0" encoding="UTF-8" standalone="no"?>
<!-- Created with Inkscape (http://www.inkscape.org/) -->

<svg
   version="1.1"
   id="svg1357"
   width="145.341"
   height="139.5"
   viewBox="0 0 145.341 139.5"
   sodipodi:docname="Download.png"
   inkscape:version="1.1.2 (b8e25be833, 2022-02-05)"
   xmlns:inkscape="http://www.inkscape.org/namespaces/inkscape"
   xmlns:sodipodi="http://sodipodi.sourceforge.net/DTD/sodipodi-0.dtd"
   xmlns="http://www.w3.org/2000/svg"
   xmlns:svg="http://www.w3.org/2000/svg">
  <defs
     id="defs1361" />
  <sodipodi:namedview
     id="namedview1359"
     pagecolor="#ffffff"
     bordercolor="#666666"
     borderopacity="1.0"
     inkscape:pageshadow="2"
     inkscape:pageopacity="0.0"
     inkscape:pagecheckerboard="0"
     showgrid="false"
     inkscape:zoom="3.8133333"
     inkscape:cx="87.194056"
     inkscape:cy="48.645105"
     inkscape:window-width="1822"
     inkscape:window-height="1051"
     inkscape:window-x="-9"
     inkscape:window-y="-9"
     inkscape:window-maximized="1"
     inkscape:current-layer="g1363" />
  <g
     inkscape:groupmode="layer"
     inkscape:label="Image"
     id="g1363"
     transform="translate(-25.256563,-64.052447)">
    <g
       id="g1460"
       transform="translate(-19.143357,29.370629)"
       style="fill:#1b877b;fill-opacity:1">
      <path
         style="fill:#1b877b;fill-opacity:1"
         d="m 84.384615,149.18182 c 0.995486,-1.1 2.034975,-2 2.309975,-2 0.275,0 -0.314489,0.9 -1.309975,2 -0.995486,1.1 -2.034975,2 -2.309975,2 -0.275,0 0.314489,-0.9 1.309975,-2 z m 21.312495,-23.68311 c 0.72187,-0.28887 1.58437,-0.25335 1.91667,0.0789 0.33229,0.33229 -0.25834,0.56864 -1.3125,0.52522 -1.16495,-0.048 -1.4019,-0.28494 -0.60417,-0.60416 z m 21.9375,-29.022621 c 1.2375,-0.23836 3.2625,-0.23836 4.5,0 1.2375,0.238349 0.225,0.433369 -2.25,0.433369 -2.475,0 -3.4875,-0.19502 -2.25,-0.433369 z m 12.0625,-22.977384 c 0.72187,-0.288871 1.58437,-0.253344 1.91667,0.07895 0.33229,0.332292 -0.25834,0.568641 -1.3125,0.52522 -1.16495,-0.04798 -1.4019,-0.284941 -0.60417,-0.604167 z m 41,0 c 0.72187,-0.288871 1.58437,-0.253344 1.91667,0.07895 0.33229,0.332292 -0.25834,0.568641 -1.3125,0.52522 -1.16495,-0.04798 -1.4019,-0.284941 -0.60417,-0.604167 z M 104.0425,48.181818 c 0,-1.375 0.22698,-1.9375 0.50439,-1.25 0.27741,0.6875 0.27741,1.8125 0,2.5 -0.27741,0.6875 -0.50439,0.125 -0.50439,-1.25 z m 9.92106,-2.583333 c 0.048,-1.164943 0.28494,-1.4019 0.60416,-0.604167 0.28887,0.721875 0.25335,1.584375 -0.0789,1.916667 -0.3323,0.332291 -0.56864,-0.258334 -0.52522,-1.3125 z"
         id="path1472" />
      <path
         style="fill:#1b877b;fill-opacity:1"
         d="m 100.96356,166.59849 c 0.048,-1.16495 0.28494,-1.4019 0.60417,-0.60417 0.28887,0.72187 0.25334,1.58437 -0.0789,1.91667 -0.33229,0.33229 -0.56864,-0.25834 -0.52522,-1.3125 z m 10,-9 c 0.048,-1.16495 0.28494,-1.4019 0.60416,-0.60417 0.28887,0.72187 0.25335,1.58437 -0.0789,1.91667 -0.3323,0.33229 -0.56864,-0.25834 -0.52522,-1.3125 z m -8.26645,-32.09978 c 0.72187,-0.28887 1.58437,-0.25335 1.91667,0.0789 0.33229,0.33229 -0.25834,0.56864 -1.3125,0.52522 -1.16494,-0.048 -1.4019,-0.28494 -0.60417,-0.60416 z m 14.95541,-29.041621 c 1.79735,-0.22256 4.49735,-0.21797 6,0.0102 1.50265,0.22818 0.0321,0.41027 -3.26791,0.40466 -3.3,-0.006 -4.52944,-0.1923 -2.73209,-0.41486 z m -3.68896,-47.858603 c 0.048,-1.164943 0.28494,-1.4019 0.60416,-0.604167 0.28887,0.721875 0.25335,1.584375 -0.0789,1.916667 -0.3323,0.33229 -0.56864,-0.258334 -0.52522,-1.3125 z"
         id="path1470" />
      <path
         style="fill:#1b877b;fill-opacity:1"
         d="m 172.96356,140.59849 c 0.048,-1.16495 0.28494,-1.4019 0.60416,-0.60417 0.28887,0.72187 0.25335,1.58437 -0.0789,1.91667 -0.3323,0.33229 -0.56864,-0.25834 -0.52522,-1.3125 z M 90.884615,89.804264 c 0,-0.207656 0.7875,-0.995156 1.75,-1.75 1.586056,-1.243871 1.621426,-1.208501 0.377555,0.377555 -1.306369,1.665747 -2.127555,2.195479 -2.127555,1.372445 z M 113.96356,51.598485 c 0.048,-1.164943 0.28494,-1.4019 0.60416,-0.604167 0.28887,0.721875 0.25335,1.584375 -0.0789,1.916667 -0.3323,0.332291 -0.56864,-0.258334 -0.52522,-1.3125 z"
         id="path1468" />
      <path
         style="fill:#1b877b;fill-opacity:1"
         d="m 61.884615,156.86891 c 0,-0.1721 1.4625,-1.6346 3.25,-3.25 l 3.25,-2.93709 -2.937091,3.25 c -2.737781,3.02946 -3.562909,3.70965 -3.562909,2.93709 z m 49.157885,-3.68709 c 0,-1.375 0.22698,-1.9375 0.50439,-1.25 0.27741,0.6875 0.27741,1.8125 0,2.5 -0.27741,0.6875 -0.50439,0.125 -0.50439,-1.25 z m -4.88886,-17.69299 c 0.97297,-0.25354 2.32297,-0.23687 3,0.0371 0.67703,0.27393 -0.11903,0.48137 -1.76903,0.46099 -1.65,-0.0204 -2.20394,-0.2445 -1.23097,-0.49804 z m 57.99472,-21.02459 c 1.52006,-0.22986 3.77006,-0.22371 5,0.0136 1.22994,0.23736 -0.0137,0.42542 -2.76375,0.41792 -2.75,-0.008 -3.75631,-0.20172 -2.23625,-0.43157 z M 95.884615,97.804259 c 0,-0.20765 0.7875,-0.99515 1.75,-1.75 1.586056,-1.24387 1.621426,-1.2085 0.377555,0.37756 -1.306369,1.66575 -2.127555,2.19548 -2.127555,1.37244 z M 123.13461,76.492493 c 0.9625,-0.251527 2.5375,-0.251527 3.5,0 0.9625,0.251528 0.175,0.457323 -1.75,0.457323 -1.925,0 -2.7125,-0.205795 -1.75,-0.457323 z m -8.95034,-18.310675 c 0,-3.025 0.18747,-4.2625 0.41659,-2.75 0.22913,1.512501 0.22913,3.9875 0,5.5 -0.22912,1.512501 -0.41659,0.275001 -0.41659,-2.75 z"
         id="path1466" />
      <path
         style="fill:#1b877b;fill-opacity:1"
         d="m 134.38461,123.18182 c 0.99549,-1.1 2.03498,-2 2.30998,-2 0.275,0 -0.31449,0.9 -1.30998,2 -0.99549,1.1 -2.03498,2 -2.30998,2 -0.275,0 0.31449,-0.9 1.30998,-2 z M 81.963562,110.59849 c 0.04798,-1.16495 0.284941,-1.4019 0.604167,-0.60417 0.288871,0.72187 0.253344,1.58437 -0.07895,1.91667 -0.332292,0.33229 -0.568641,-0.25834 -0.52522,-1.3125 z m 37.671048,-5.15391 c 2.8875,-0.202 7.6125,-0.202 10.5,0 2.8875,0.202 0.525,0.36728 -5.25,0.36728 -5.775,0 -8.1375,-0.16528 -5.25,-0.36728 z m 25.32895,-2.84609 c 0.048,-1.16495 0.28494,-1.4019 0.60416,-0.60417 0.28887,0.72187 0.25335,1.58437 -0.0789,1.91667 -0.3323,0.33229 -0.56864,-0.25834 -0.52522,-1.3125 z m -3.07895,-44.916672 c 1.29175,-1.375 2.57363,-2.5 2.84863,-2.5 0.275,0 -0.55688,1.125 -1.84863,2.5 -1.29175,1.375 -2.57363,2.5 -2.84863,2.5 -0.275,0 0.55688,-1.125 1.84863,-2.5 z M 60.963562,56.598485 c 0.04798,-1.164943 0.284941,-1.4019 0.604167,-0.604167 0.288871,0.721875 0.253344,1.584375 -0.07895,1.916668 -0.332292,0.33229 -0.568641,-0.258335 -0.52522,-1.3125 z"
         id="path1464" />
      <path
         style="fill:#1b877b;fill-opacity:1"
         d="m 102.86157,172.65406 c -0.94697,-1.14104 -1.09654,-4.17882 -0.59085,-12.00055 0.84831,-13.12134 1.05048,-13.65903 4.99154,-13.27553 l 3.12235,0.30384 -0.12745,11.74988 c -0.1316,12.1319 -0.90775,14.75012 -4.37255,14.75012 -0.96531,0 -2.32568,-0.68749 -3.02304,-1.52776 z m 31.57204,-9.76553 c -1.28752,-2.91132 -3.30269,-8.40706 -4.47816,-12.21278 -1.77462,-5.74555 -1.93765,-7.40128 -0.96091,-9.75932 0.9296,-2.24426 1.72301,-2.77637 3.78318,-2.53722 2.33066,0.27054 3.15297,1.64461 7.76053,12.96767 4.70443,11.56112 5.02635,12.8468 3.6933,14.75 -0.92805,1.32497 -2.55325,2.08494 -4.45867,2.08494 -2.65865,0 -3.26354,-0.59968 -5.33927,-5.29329 z m -71.121937,0.52798 c -0.590117,-0.40408 -1.404868,-1.63001 -1.810557,-2.72429 -0.605016,-1.63193 1.186772,-3.8341 9.967158,-12.25 5.887626,-5.64322 11.524044,-10.2604 12.525374,-10.2604 2.338681,0 4.227551,3.52281 3.481875,6.49382 -0.580873,2.31438 -15.178335,16.22183 -19.275167,18.36404 -2.529803,1.32282 -3.408257,1.39054 -4.888683,0.37683 z m 95.975527,-22.7661 c -11.00377,-6.83692 -14.6791,-10.54688 -13.52884,-13.65634 1.66122,-4.49069 3.31845,-4.33421 12.1892,1.15094 11.84685,7.32542 14.93705,9.83973 14.93705,12.15344 0,2.76347 -1.79376,5.88337 -3.38259,5.88337 -0.72172,0 -5.31839,-2.48913 -10.21482,-5.53141 z m -62.436813,-6.74159 c -9.434805,-4.56805 -13.978229,-12.1188 -13.94381,-23.17334 0.02657,-8.53457 1.887329,-13.065201 8.267909,-20.130976 8.001204,-8.860431 20.702844,-13.946801 33.093814,-13.252408 4.60906,0.258292 6.17912,0.776517 7.24741,2.392129 2.4766,3.745437 -0.0356,5.362234 -10.64813,6.852795 -14.46489,2.031644 -21.674628,5.888757 -27.160672,14.53058 -5.176869,8.1548 -3.116405,19.45023 4.262513,23.36704 4.987019,2.64717 14.676339,1.84508 22.197119,-1.83748 6.95815,-3.40707 14.71807,-11.28005 14.71807,-14.9325 v -2.54284 h -10.96482 c -9.43313,0 -11.09054,-0.24446 -11.86487,-1.75 -0.99815,-1.94074 -0.45602,-4.358902 1.22963,-5.484691 1.63933,-1.09485 26.06768,-0.918221 29.03496,0.20994 2.1428,0.81469 2.5651,1.61156 2.5651,4.840281 0,9.09041 -10.55538,22.84037 -22.08267,28.76597 -4.53096,2.32914 -6.88989,2.83286 -14.41733,3.07863 -5.65402,0.18461 -9.942159,-0.16231 -11.534223,-0.93313 z m -49.215772,-4.8071 c -2.034688,-1.1851 -2.362092,-6.19621 -0.5,-7.6528 1.54413,-1.20788 22.04889,-8.2671 24.013241,-8.2671 2.507126,0 5.030651,3.69291 4.357174,6.37625 -0.532926,2.12335 -2.279924,3.01114 -12.869992,6.5403 -13.777166,4.59126 -12.658645,4.36731 -15.000423,3.00335 z M 180.38461,116.55003 c -2.2,-0.81997 -8.49032,-1.80076 -13.9785,-2.17954 -9.82883,-0.67834 -9.99351,-0.73149 -10.97985,-3.54334 -0.86865,-2.47636 -0.6746,-3.11926 1.46431,-4.85124 2.22045,-1.79801 3.36928,-1.92882 11.55175,-1.31536 4.99735,0.37467 11.75374,1.20773 15.01419,1.85124 5.42368,1.07047 5.95556,1.40953 6.25076,3.98467 0.35314,3.08053 -2.14592,7.72687 -4.09571,7.6149 -0.67482,-0.0388 -3.02695,-0.74135 -5.22695,-1.56133 z M 58.018971,95.646559 c -11.638518,-1.81691 -12.936587,-2.22639 -13.362938,-4.215422 -1.247186,-5.818436 1.820282,-6.943093 14.537701,-5.330101 16.101495,2.042205 18.947666,3.545645 17.190881,9.080783 -0.760606,2.39646 -5.262007,2.51036 -18.365644,0.46474 z m 93.407559,-6.332658 c -0.32607,-1.027355 -0.16419,-2.995392 0.35973,-4.373415 0.80328,-2.11277 2.77772,-3.090355 12.59644,-6.236757 15.32274,-4.91016 18.47673,-5.312203 20.87596,-2.661083 1.26089,1.393267 1.66349,2.85348 1.24569,4.518106 -0.67844,2.703131 -2.62138,3.495491 -19.75478,8.056285 -11.60618,3.089486 -14.52157,3.222073 -15.32304,0.696864 z M 73.384615,67.61424 c -10.71672,-7.251154 -11,-7.539266 -11,-11.187624 0,-5.73689 2.813707,-5.462839 13.241645,1.28972 13.3722,8.659101 15.481797,11.113669 13.651366,15.883696 -1.114918,2.905429 -4.808177,1.514436 -15.893011,-5.985792 z m 64.056695,3.345073 c -0.85618,-1.222379 -1.5567,-3.055785 -1.5567,-4.074238 0,-4.568125 19.70911,-20.796331 23.49342,-19.344154 0.83814,0.321622 2.04139,1.720568 2.6739,3.10877 1.38838,3.047169 -0.19283,5.184957 -6.62175,8.952552 -4.31498,2.528748 -12.54557,10.766987 -12.54557,12.557232 0,1.895187 -3.87341,1.041159 -5.4433,-1.200162 z m -29.96593,-4.677198 c -1.31926,-1.457767 -1.84094,-4.423868 -2.24245,-12.750001 -0.66668,-13.8249 0.3109,-18.850296 3.66691,-18.850296 3.98556,0 4.95361,3.515716 4.97003,18.05 0.0145,12.860418 -0.57718,15.450001 -3.53027,15.450001 -0.62976,0 -1.91866,-0.854867 -2.86422,-1.899704 z"
         id="path1462" />
    </g>
  </g>
</svg>
