<?xml version="1.0" encoding="UTF-8" standalone="no"?>
<svg
   width="21.474358"
   height="21.037296"
   viewBox="0 0 21.474358 21.037296"
   fill="none"
   version="1.1"
   id="svg6"
   sodipodi:docname="logo_bahnzumberg.svg"
   inkscape:version="1.4.2 (f4327f4, 2025-05-13)"
   xmlns:inkscape="http://www.inkscape.org/namespaces/inkscape"
   xmlns:sodipodi="http://sodipodi.sourceforge.net/DTD/sodipodi-0.dtd"
   xmlns="http://www.w3.org/2000/svg"
   xmlns:svg="http://www.w3.org/2000/svg">
  <defs
     id="defs10" />
  <sodipodi:namedview
     id="namedview8"
     pagecolor="#ffffff"
     bordercolor="#666666"
     borderopacity="1.0"
     inkscape:pageshadow="2"
     inkscape:pageopacity="0.0"
     inkscape:pagecheckerboard="0"
     showgrid="false"
     inkscape:zoom="26.04"
     inkscape:cx="10.560676"
     inkscape:cy="9.8502304"
     inkscape:window-width="2560"
     inkscape:window-height="1351"
     inkscape:window-x="-9"
     inkscape:window-y="-9"
     inkscape:window-maximized="1"
     inkscape:current-layer="svg6"
     inkscape:showpageshadow="2"
     inkscape:deskcolor="#d1d1d1" />
  <circle
     cx="10.547787"
     cy="9.8484859"
     r="12.5"
     fill="#ffffff"
     id="circle2" />
  <path
     id="path1241"
     style="fill:#254980;stroke-width:1.253"
     d="M 21.474358,10.518648 A 10.737179,10.518648 0 0 1 10.737179,21.037296 10.737179,10.518648 0 0 1 0,10.518648 10.737179,10.518648 0 0 1 10.737179,0 10.737179,10.518648 0 0 1 21.474358,10.518648 Z" />
  <polygon
     class="st0"
     points=""
     id="polygon1"
     style="fill:#ff0000"
     transform="matrix(0.04199447,0,0,0.04842346,1.7151439,3.2964823)" />
  <path
     class="st0"
     d="m 19.67198,14.666309 c -0.021,-0.06779 -0.042,-0.135586 -0.0462,-0.14527 -0.0252,-0.07747 -0.05879,-0.174325 -0.109186,-0.290541 -0.05039,-0.111375 -0.113381,-0.237275 -0.184771,-0.382546 -0.243568,-0.489076 -0.487136,-0.97331 -0.848289,-1.651239 -0.01259,-0.02421 -0.021,-0.04842 -0.03359,-0.07264 -0.0504,-0.106532 -0.130183,-0.213064 -0.180576,-0.324437 -0.0252,-0.05811 -0.0504,-0.116217 -0.07559,-0.174325 -0.0294,-0.06295 -0.05879,-0.121058 -0.08819,-0.179167 -0.063,-0.121056 -0.130189,-0.237272 -0.197381,-0.358331 -0.0336,-0.05811 -0.06719,-0.121059 -0.104984,-0.184009 -0.0336,-0.06295 -0.07139,-0.125901 -0.104988,-0.193694 C 17.568056,10.467996 17.433675,10.225878 17.299293,9.9740764 17.16491,9.7222741 17.030528,9.4656301 16.900344,9.2089857 16.770163,8.9474991 16.639979,8.6860125 16.518195,8.4196833 16.430007,8.2308316 16.337619,8.0419805 16.241031,7.8579713 16.161242,7.7078584 16.047858,7.5819576 15.959668,7.4366872 15.854683,7.2672052 15.753897,7.0928807 15.64891,6.9233987 15.438937,6.5747498 15.228964,6.2261009 15.03579,5.8677672 14.9938,5.7854476 14.935003,5.7224968 14.888809,5.6353347 14.859419,5.5820687 14.81742,5.5239606 14.758628,5.5239606 c -0.06719,0 -0.117585,0.067792 -0.151181,0.1355857 -0.042,0.08232 -0.100787,0.1355857 -0.151179,0.2082209 -0.06719,0.1016893 -0.331758,0.5229734 -0.403148,0.6537167 -0.117584,0.2082209 -0.163778,0.4309687 -0.285563,0.6391897 -0.14278,0.2324325 -0.268764,0.4890767 -0.407345,0.7166669 -0.0378,0.062951 -0.07139,0.1210588 -0.104987,0.1888515 -0.142781,0.2566444 -0.272964,0.5375005 -0.407346,0.8280411 -0.06719,0.1452704 -0.125983,0.2905409 -0.188976,0.4261266 -0.0168,0.033896 -0.02939,0.067792 -0.04619,0.1016892 l -0.0504,0.1016895 -0.104986,0.2033783 c -0.0084,0.014527 -0.0084,0.01937 -0.01259,0.024213 l -0.0084,0.01937 -0.0168,0.033897 -0.0294,0.067793 c -0.0378,0.08232 -0.08819,0.1646393 -0.134382,0.2469593 -0.0462,0.08716 -0.09239,0.179167 -0.142782,0.266329 -0.09659,0.179167 -0.193174,0.353492 -0.285562,0.532658 -0.04199,0.07748 -0.07979,0.159798 -0.117585,0.237275 -0.021,0.03874 -0.0378,0.08232 -0.05879,0.121059 l -0.05459,0.121058 c -0.0336,0.07747 -0.07139,0.154956 -0.109185,0.232433 l -0.05459,0.116217 -0.0378,0.09685 c -0.239369,0 -0.487136,0.0097 -0.734905,0.0097 0.0294,-0.05326 0.07979,-0.174325 0.109186,-0.227591 0.142808,-0.280871 0.298187,-0.581097 0.461966,-0.905534 0.06719,-0.130744 0.130181,-0.256644 0.201573,-0.382545 0.06299,-0.111374 0.159578,-0.232433 0.130182,-0.3777033 -0.0041,-0.029055 -0.0168,-0.058108 -0.02939,-0.087162 C 11.483059,9.7464885 11.441066,9.6205872 11.39907,9.4898442 11.352877,9.3591006 11.310883,9.2235149 11.264688,9.0879293 11.176501,8.8167583 11.088312,8.5407443 10.991724,8.2647306 10.895138,7.9887171 10.785951,7.7127032 10.659968,7.4512166 10.538186,7.1945723 10.429,6.9330856 10.319812,6.6667566 l 0.01259,0.024211 C 10.198022,6.3616886 10.067839,6.0227245 9.9460539,5.6934451 9.8830629,5.5288052 9.8242716,5.3641655 9.7654786,5.2043681 9.7360821,5.1268906 9.7066874,5.0445707 9.6772908,4.9670931 c -0.0084,-0.01937 -0.016801,-0.038738 -0.020998,-0.058108 l -0.012592,-0.029055 c 0,-0.00968 -0.0084,-0.024211 -0.016801,-0.038739 l -0.012592,-0.024211 c -0.00419,-0.00969 -0.0084,-0.014527 -0.012592,-0.024211 -0.0084,-0.014528 -0.016801,-0.033897 -0.020998,-0.053266 C 9.5261265,4.6039174 9.4883312,4.4441201 9.4295401,4.2988496 9.4127389,4.2601112 9.4001437,4.2262145 9.3791461,4.1923181 c -0.0084,-0.019369 -0.016801,-0.033896 -0.029395,-0.053266 l -0.016801,-0.024211 c -0.0084,-0.00968 -0.00419,-0.00968 -0.0084,-0.019369 C 9.290956,4.0373632 9.2615587,3.9744128 9.2321625,3.9163047 9.2027679,3.8581964 9.1733714,3.8000884 9.143975,3.7468225 9.1313834,3.7177681 9.1145786,3.6935566 9.1019808,3.6645026 9.0893891,3.6451328 9.0809832,3.6257636 9.0683836,3.6063944 9.0263902,3.5337592 8.9759975,3.4756511 8.9256032,3.4127005 8.908802,3.3884883 8.8836019,3.3691185 8.8584045,3.3691185 c -0.029395,0 -0.046194,0.029055 -0.062992,0.053266 -0.050393,0.072635 -0.1049855,0.1452704 -0.1511794,0.2227479 -0.0084,0.00968 -0.012592,0.019369 -0.020998,0.029055 -0.025197,0.038739 -0.050392,0.08232 -0.079789,0.125901 C 8.4888541,3.8872501 8.4300613,3.9840972 8.3670695,4.0857864 8.2410866,4.2891646 8.1025047,4.5215973 7.9555236,4.783084 7.9177284,4.8460345 7.8841338,4.9138273 7.8463382,4.9816202 7.808543,5.0542552 7.7707477,5.1317328 7.7371527,5.1995257 7.669961,5.344796 7.5985705,5.4852241 7.5145813,5.6304945 v 0.00969 c -0.00419,0 -0.0084,0 -0.0084,0 0,0 0,0 0,0 l -0.012592,-0.01937 -0.016801,-0.024212 C 7.3298064,5.3980624 7.1450302,5.223738 6.9812521,5.0397288 6.9308578,4.986463 6.8678663,4.9235125 6.8048746,4.9525665 6.7670793,4.9670938 6.7418831,5.0058322 6.7208854,5.0445711 6.6159002,5.223738 6.498316,5.3980624 6.397529,5.5772292 6.2841433,5.7806077 6.1707575,5.9839862 6.053173,6.1873646 5.822205,6.5941217 5.5912348,7.0105634 5.3938616,7.4512169 c -0.025199,0.058108 -0.050394,0.1113739 -0.071392,0.169482 l -0.06719,0.1694823 -0.067192,0.1646396 -0.067192,0.1597976 C 5.0285079,8.3276815 4.9319215,8.5407446 4.826936,8.7489659 4.6211623,9.1702499 4.3985908,9.5770069 4.1760215,9.9886063 L 3.8400661,10.608427 c -0.1133858,0.20822 -0.2225715,0.416441 -0.3275585,0.624662 l -0.6425142,1.259009 c -0.054593,0.106532 -0.1091855,0.208221 -0.1595797,0.314753 l -0.1595779,0.314752 -0.15958,0.314754 -0.079789,0.159797 -0.0084,0.01937 -0.0084,0.01453 c -0.00419,0.0097 -0.012592,0.01937 -0.016801,0.0339 -0.012592,0.02421 -0.029395,0.04842 -0.041993,0.07264 -0.058791,0.09685 -0.1217847,0.198536 -0.1847762,0.300225 -0.029395,0.05326 -0.058791,0.106532 -0.088188,0.16464 -0.0084,0.01453 -0.012592,0.02906 -0.020998,0.04359 l -0.012592,0.02421 -0.0084,0.01937 -0.0084,0.01937 c -0.025196,0.05326 -0.041994,0.111373 -0.050392,0.164639 -0.0084,0.05326 -0.0084,0.106532 0.0084,0.154956 0.0084,0.02421 0.020998,0.04842 0.033595,0.06779 0,0 0.0084,0.0097 0.0084,0.01453 0,0 0,0 0.0084,0.0048 h 0.0084 c 0,0 0.033594,0.01937 0.033594,0.01937 l 0.062992,0.0339 0.033594,0.01453 c 0.012592,0.0048 0.020998,0.0097 0.033597,0.01453 0.012592,0 0.025197,0.0048 0.037795,0.0097 h 0.029395 c 0,0.0048 0.041996,0.01453 0.041996,0.01453 0.029396,0.0048 0.054593,0.0097 0.083989,0.01453 0.029395,0 0.054593,0.0097 0.083988,0.0097 0.054593,0.0048 0.1091854,0.01453 0.1637784,0.01453 0.2687652,0.01937 0.5375306,0.01937 0.8020958,0.0097 0.1343817,0 0.2645649,-0.0097 0.3947466,-0.01453 0.067192,0 0.1259847,0 0.1931747,0 0.067192,0 0.1301832,0 0.1973752,0 0.2603647,0 0.5249298,0 0.7810962,0 0.1301833,0 0.2603665,0 0.3863497,0 0.062992,0 0.1301832,0 0.1931746,0 h 0.058791 c 0.016801,0 0.037795,0 0.054593,-0.0097 v 0 c 0,0 0,0.0097 0,0.0097 h 0.00419 c 0,0 0.012592,0 0.012592,0 h 0.046194 c 0,0 0.046194,0.0048 0.046194,0.0048 h 0.046192 c 0,0 0.079791,0 0.079791,0 0.562725,0.0048 1.1296506,0.0097 1.6923774,0.0097 1.0918554,0 2.1837127,0 3.2713692,0 0.264565,0 0.529131,0 0.797894,0 0.100787,0 0.23097,0.01937 0.348554,0.0048 0.898683,0 1.801564,0 2.700246,-0.0048 h 0.09659 c 0.625718,0 1.247236,0 1.872953,0.0048 0.61312,0 1.234637,0 1.826759,0 0.239369,0 0.478737,-0.0048 0.718107,-0.01453 0.121783,0 0.247765,-0.01937 0.365351,-0.01453 0.134383,0.0097 0.22677,-0.0097 0.172177,-0.188852 z m -9.33957,-2.837614 c -0.0378,0.04842 -0.06299,0.02905 -0.113386,0.02905 -0.05039,0 -0.100785,0 -0.151179,0 -0.0168,0 -0.0378,0 -0.05459,0 -0.7726978,0 -1.5411967,0 -2.313896,0 H 7.426396 c -0.07139,0 -0.2015736,-0.02905 -0.2729639,0 -0.1049905,0.04842 -0.1973767,0.319596 -0.26037,0.430969 -0.193173,0.34865 -0.390548,0.687614 -0.5795227,1.041105 l -0.2057738,0.382545 c -0.1259832,0.222748 -0.2519661,0.450338 -0.3821493,0.673087 -0.029396,0.04842 -0.058791,0.130742 -0.096587,0.169482 -0.041996,0.03874 -0.067192,0.0339 -0.1217844,0.0339 0,0 -0.00419,0 -0.0084,0 -0.1175842,0 -0.2309702,0 -0.3485544,0 -0.470337,0 -0.9406759,0 -1.4152133,0.0097 -0.062992,0 -0.1259832,0 -0.1889747,0 -0.2519679,0 -0.5165328,0 -0.7852965,-0.0097 -0.1343835,-0.0097 -0.2687654,-0.01937 -0.4073474,-0.03874 -0.033594,-0.0048 -0.06719,-0.0097 -0.1007867,-0.01453 -0.016801,0 -0.033594,-0.0048 -0.050392,-0.0097 l -0.037795,-0.0097 c -0.012592,0 -0.025197,-0.0097 -0.033595,-0.0097 -0.00421,0 -0.012592,-0.0048 -0.012592,-0.01452 0,-0.0048 0,-0.01453 0,-0.01937 0,-0.01452 0.0084,-0.02421 0.016801,-0.03874 l 0.016801,-0.03874 c 0.0084,-0.01452 0.016801,-0.0339 0.025199,-0.04842 0.037794,-0.06779 0.079789,-0.135585 0.1217826,-0.203378 0.041996,-0.06779 0.088189,-0.135586 0.1301833,-0.208221 0.020998,-0.0339 0.046194,-0.07264 0.067192,-0.111374 0.00419,-0.0097 0.012592,-0.01937 0.016801,-0.0339 l 0.012592,-0.02906 0.029396,-0.05811 c 0.075591,-0.150096 0.1553794,-0.305051 0.2351683,-0.455165 0.079791,-0.154954 0.15958,-0.309909 0.239369,-0.464864 0.1637778,-0.31472 0.3317565,-0.629472 0.499735,-0.95391 C 3.6972949,11.504254 3.8694719,11.174975 4.0458493,10.845695 4.4028023,10.191979 4.7723544,9.5479466 5.1041095,8.8651759 5.1880988,8.6956937 5.2678879,8.5213692 5.3434785,8.3470449 5.3812737,8.2598827 5.419069,8.1727205 5.4568642,8.0807157 L 5.5618494,7.8192291 C 5.6332399,7.649747 5.7088303,7.4851073 5.7886193,7.3156252 5.8768088,7.1364585 6.5403208,5.8580793 6.7838882,5.4367951 c 0.0084,-0.014527 0.016801,-0.038739 0.029396,-0.048424 0.020998,-0.014527 0.050394,0 0.067192,0.014527 0.054593,0.062951 0.1091854,0.140428 0.1553795,0.2130633 0.050392,0.072635 0.1049852,0.1549551 0.1679769,0.2372749 0.020998,0.038739 0.046194,0.072635 0.067192,0.1065316 0.020998,0.038739 0.054593,0.067793 0.050394,0.1113739 0,0.048423 -0.025199,0.096847 -0.046194,0.1355858 -0.033596,0.067793 -0.083989,0.1307434 -0.1217841,0.1985361 -0.033595,0.053266 -0.062992,0.1162165 -0.067192,0.1840091 -0.0084,0.058108 0.012592,0.092005 0.041996,0.1404282 0.025197,0.043581 0.054593,0.08232 0.07979,0.125901 0.079789,0.1162163 0.1637782,0.2324325 0.2519658,0.3389641 0.029396,0.033897 0.2057741,0.2469597 0.2351706,0.1113739 0.0084,-0.033896 0,-0.067793 -0.012592,-0.096847 C 7.6363839,7.1122471 7.5859914,7.0202426 7.5397975,6.9233958 7.4978016,6.8410757 7.4390105,6.7635982 7.3886162,6.6861207 7.3676213,6.6522243 7.3466225,6.6183279 7.3466225,6.5795892 c 0,-0.038739 0.016801,-0.072636 0.033595,-0.1016894 C 7.4978016,6.2599944 7.6111877,6.0372465 7.7371706,5.8290255 l 0.016801,-0.033896 c 0.012592,-0.01937 0.025196,-0.043581 0.033597,-0.062951 0.046194,-0.087162 0.092386,-0.1743245 0.134382,-0.2614868 0.041993,-0.087162 0.079789,-0.1743245 0.1217845,-0.2566442 0.0084,-0.01937 0.020995,-0.038739 0.029395,-0.058108 l 0.033597,-0.062951 0.06719,-0.1259011 C 8.2621073,4.8024483 8.3544949,4.6378084 8.446881,4.4731687 8.5056738,4.3714794 8.564467,4.2649479 8.6232582,4.1584163 c 0.029396,-0.053266 0.058794,-0.1065318 0.088188,-0.1597975 0.020998,-0.043581 0.037795,-0.1065316 0.071391,-0.1355855 0.058791,-0.058108 0.075589,0.014527 0.096586,0.058108 0.029396,0.062951 0.067192,0.1259009 0.096588,0.1936937 0.062992,0.1404281 0.1259832,0.2856983 0.1847744,0.4261264 0.058793,0.1307434 0.104987,0.2711715 0.1679785,0.3970724 l 0.012592,0.024211 c 0,0.00484 0,0 0,0 0,0 0,0 0,0 l 0.016801,0.043581 0.033595,0.087162 0.1301835,0.3486488 c 0.088188,0.2324326 0.1763754,0.4697076 0.2603646,0.7021402 0.176377,0.4697081 0.3611538,0.9394156 0.5711258,1.394596 l 0.07559,0.1646397 c 0.0252,0.053266 0.05039,0.1113741 0.07139,0.1694824 0.04619,0.1113738 0.09239,0.2275901 0.134382,0.3438065 0.08399,0.2324324 0.163778,0.464865 0.239369,0.7021399 0.05879,0.1791669 0.117583,0.3583336 0.172176,0.532658 0.0252,0.072635 0.0462,0.1452704 0.06719,0.2179057 0.021,0.077477 0.06719,0.1355857 0.07139,0.2227479 0.0041,0.1016891 -0.0168,0.1888511 -0.05879,0.2711711 -0.05039,0.10169 -0.100787,0.198536 -0.151179,0.300226 -0.100787,0.198536 -0.201574,0.401914 -0.30236,0.600451 -0.08399,0.169482 -0.167979,0.334121 -0.251969,0.503603 -0.03779,0.07748 -0.07139,0.179167 -0.125982,0.242117 z m 6.60993,0.02905 c 0.0462,-0.08232 0.09239,-0.164639 0.138582,-0.246959 0.01259,-0.02421 0.121783,-0.140427 0.121783,-0.159797 0,-0.05326 -0.138582,-0.159797 -0.172177,-0.188851 -0.125984,-0.125903 -0.251966,-0.251803 -0.377951,-0.372862 -0.05459,-0.05327 -0.109186,-0.106532 -0.167977,-0.154955 -0.0252,-0.02421 -0.07139,-0.06779 -0.109186,-0.06779 -0.0378,0 -0.07979,0.05327 -0.08399,0.09685 0,0.0339 0.021,0.06295 0.04199,0.092 0.06299,0.08232 0.142783,0.16464 0.197376,0.256645 0.04619,0.07748 0.08819,0.14527 0.14698,0.213064 0.0378,0.04843 0.07559,0.092 0.117585,0.135585 l 0.0168,0.01453 0.0084,0.0097 c 0,0 0,0 0,0 0,0 0,0 0,0 0,0 0,0 0,0 0,0 -0.0042,0.0097 -0.0042,0.0097 l -0.01259,0.01937 c -0.06299,0.111374 -0.117584,0.222748 -0.167978,0.338964 -0.0378,0 -0.07559,0 -0.109185,0 h 0.01259 c -0.07559,0 -0.146981,0 -0.222571,0 -0.369551,0 -0.739103,0.0048 -1.108653,0.0048 -0.184777,0 -0.369552,0 -0.554329,-0.0048 -0.09239,0 -0.125982,-0.0097 -0.218371,-0.0097 -0.05039,0 -0.134381,0 -0.176377,0.04359 -0.01259,0.01452 -0.021,0.0339 -0.02939,0.04842 -0.0294,0.06295 -0.05879,0.125901 -0.08399,0.193693 -0.07559,0.188852 -0.193175,0.372861 -0.285564,0.552028 -0.09659,0.184009 -0.188974,0.368018 -0.285562,0.552028 -0.188975,0.368017 -0.382149,0.736036 -0.571124,1.104054 -0.0294,0.05811 -0.06719,0.154955 -0.117585,0.198536 -0.0336,0.02906 -0.134383,0.01453 -0.172177,0.01453 -0.07559,0 -0.151181,0 -0.226771,-0.0048 -0.0252,0 -0.29396,-0.01452 -0.302361,0 0.125986,-0.29054 0.323358,-0.576238 0.466139,-0.857094 0.15958,-0.319596 0.293962,-0.658559 0.466139,-0.968469 0,0 0,-0.0048 0.0041,-0.0097 0.0462,-0.07747 0.100786,-0.179167 0.167978,-0.295383 0.0336,-0.05811 0.07139,-0.125901 0.109186,-0.193693 0.0084,-0.01937 0.021,-0.0339 0.02939,-0.05326 0.01259,-0.01453 0.021,-0.0339 0.0336,-0.05326 0.03359,-0.05326 0.113384,-0.145271 0.100786,-0.217907 -0.01259,-0.08716 -0.163778,-0.05326 -0.214172,-0.05326 -0.537529,0 -1.07086,-0.0048 -1.608388,0 0,0 0,-0.07747 0,-0.07747 0.0336,-0.06779 0.06299,-0.135586 0.09659,-0.203379 l 0.05459,-0.116215 c 0.0168,-0.03874 0.03779,-0.07748 0.05459,-0.116217 0.03779,-0.07748 0.07559,-0.154956 0.113384,-0.227591 0.151181,-0.295383 0.31496,-0.585923 0.474538,-0.890991 0,0 0,0 0.0042,-0.0048 h 0.0041 c 0,-0.0048 0,-0.0097 0,-0.0097 l 0.0084,-0.0097 v -0.0097 c 0.0041,0 0.01259,-0.01453 0.01259,-0.01453 0.0084,-0.01453 0.0168,-0.02905 0.0252,-0.04358 0.01259,-0.02905 0.0252,-0.05327 0.0378,-0.07748 0.021,-0.043581 0.042,-0.092005 0.06299,-0.1355862 l 0.08819,-0.1743243 c 0.02939,-0.058108 0.05879,-0.1162162 0.08819,-0.1743245 0.05459,-0.1210587 0.109186,-0.2421173 0.15958,-0.3583335 0.0252,-0.058108 0.05039,-0.1162165 0.07979,-0.1743244 l 0.08399,-0.1743244 c 0.05459,-0.1162165 0.109185,-0.2324327 0.167976,-0.3438066 0.05459,-0.111374 0.113386,-0.2275902 0.176378,-0.334122 0.188974,-0.3341225 0.37375,-0.6827714 0.541729,-1.0362625 0.100787,-0.2082208 0.415744,-0.8619375 0.537529,-1.0265774 0.021,-0.029054 0.0462,-0.06295 0.07979,-0.06295 0.07559,0 0.15538,0.1597973 0.193175,0.2179054 0.07139,0.1113739 0.14698,0.2227479 0.218371,0.3341217 0.382149,0.5859238 0.722305,1.1912171 1.06246,1.8110374 0.08819,0.1597974 0.188975,0.2905409 0.268763,0.4600227 0.09659,0.1985362 0.197376,0.4019149 0.298163,0.5956088 0.188974,0.3728602 0.382149,0.7311938 0.571123,1.0750008 0.09659,0.174324 0.184777,0.343806 0.281363,0.513289 0.09659,0.169482 0.193175,0.329279 0.277164,0.489076 0.042,0.08232 0.08399,0.159798 0.121785,0.242117 0.0084,0.01937 0.0168,0.03874 0.0252,0.05811 -0.348555,0 -0.709706,0 -1.070859,0 z"
     id="path1"
     style="fill:#ffffff;stroke-width:0.0450947" />
</svg>
