<svg width="24" height="24" viewBox="0 0 24 24" fill="none" xmlns="http://www.w3.org/2000/svg">
<path fill-rule="evenodd" clip-rule="evenodd" d="M13.9574 3.25122C14.2851 3.23255 14.587 3.42925 14.7022 3.73667L17.5197 11.25H21C21.4142 11.25 21.75 11.5858 21.75 12C21.75 12.4142 21.4142 12.75 21 12.75H17C16.6874 12.75 16.4075 12.5561 16.2978 12.2634L14.1434 6.51854L10.7276 20.1819C10.648 20.5004 10.3704 20.7301 10.0426 20.7488C9.71486 20.7675 9.41303 20.5708 9.29775 20.2634L6.48025 12.75H3C2.58579 12.75 2.25 12.4142 2.25 12C2.25 11.5858 2.58579 11.25 3 11.25H7C7.31263 11.25 7.59247 11.4439 7.70225 11.7367L9.85655 17.4815L13.2724 3.81811C13.352 3.49959 13.6296 3.26989 13.9574 3.25122Z" fill="#101010"/>
</svg>
