<svg width="24" height="24" viewBox="0 0 24 24" fill="none" xmlns="http://www.w3.org/2000/svg">
<path d="M17.2871 17.6931C17.3749 17.6568 17.4572 17.603 17.5287 17.5319L17.5303 17.5303L17.5319 17.5287C17.6667 17.3931 17.75 17.2063 17.75 17L17.75 7C17.75 6.58579 17.4142 6.25 17 6.25C16.5858 6.25 16.25 6.58579 16.25 7L16.25 15.1893L7.53033 6.46967C7.23744 6.17678 6.76256 6.17678 6.46967 6.46967C6.17678 6.76256 6.17678 7.23744 6.46967 7.53033L15.1893 16.25L7 16.25C6.58579 16.25 6.25 16.5858 6.25 17C6.25 17.4142 6.58579 17.75 7 17.75L17 17.75C17.1017 17.75 17.1987 17.7298 17.2871 17.6931Z" fill="#101010"/>
</svg>
