<svg width="24" height="24" viewBox="0 0 24 24" fill="none" xmlns="http://www.w3.org/2000/svg">
<path fill-rule="evenodd" clip-rule="evenodd" d="M17.4697 15.5303C17.1768 15.2374 17.1768 14.7626 17.4697 14.4697L19.1893 12.75L7.64649 12.75C7.32002 13.9043 6.25878 14.75 5 14.75C3.48122 14.75 2.25 13.5188 2.25 12C2.25 10.4812 3.48122 9.25 5 9.25C6.25878 9.25 7.32002 10.0957 7.64648 11.25L19.1893 11.25L17.4697 9.53033C17.1768 9.23744 17.1768 8.76256 17.4697 8.46967C17.7626 8.17678 18.2374 8.17678 18.5303 8.46967L21.5303 11.4697C21.6022 11.5416 21.6565 11.6245 21.6931 11.7129C21.7289 11.7993 21.7491 11.8939 21.75 11.9931L21.75 12L21.75 12.0069C21.7482 12.1966 21.675 12.3856 21.5303 12.5303L18.5303 15.5303C18.2374 15.8232 17.7626 15.8232 17.4697 15.5303ZM6.25 12C6.25 11.9997 6.25 12.0003 6.25 12C6.25 11.3096 5.69036 10.75 5 10.75C4.30964 10.75 3.75 11.3096 3.75 12C3.75 12.6904 4.30964 13.25 5 13.25C5.69004 13.25 6.24949 12.6899 6.25 12Z" fill="#4992FF"/>
</svg>
