<svg width="24" height="24" viewBox="0 0 24 24" fill="none" xmlns="http://www.w3.org/2000/svg">
<path fill-rule="evenodd" clip-rule="evenodd" d="M17 3.25C16.0335 3.25 15.25 4.0335 15.25 5C15.25 5.9665 16.0335 6.75 17 6.75C17.9665 6.75 18.75 5.9665 18.75 5C18.75 4.0335 17.9665 3.25 17 3.25ZM16.75 5C16.75 4.86193 16.8619 4.75 17 4.75C17.1381 4.75 17.25 4.86193 17.25 5C17.25 5.13807 17.1381 5.25 17 5.25C16.8619 5.25 16.75 5.13807 16.75 5Z" fill="#101010"/>
<path d="M14.1151 7.25888C14.3228 7.29113 14.5074 7.40908 14.624 7.58398L16.4014 10.25H19C19.4142 10.25 19.75 10.5858 19.75 11C19.75 11.4142 19.4142 11.75 19 11.75H16C15.7492 11.75 15.5151 11.6247 15.376 11.416L13.8297 9.09669L10.1229 12.0622L12.5303 14.4697C12.671 14.6103 12.75 14.8011 12.75 15V19C12.75 19.4142 12.4142 19.75 12 19.75C11.5858 19.75 11.25 19.4142 11.25 19V15.3107L8.46967 12.5303C8.31882 12.3795 8.23935 12.1715 8.25115 11.9585C8.26295 11.7455 8.3649 11.5476 8.53148 11.4144L13.5315 7.41435C13.6956 7.28304 13.9073 7.22663 14.1151 7.25888Z" fill="#101010"/>
<path fill-rule="evenodd" clip-rule="evenodd" d="M5 14.25C2.92893 14.25 1.25 15.9289 1.25 18C1.25 20.0711 2.92893 21.75 5 21.75C7.07107 21.75 8.75 20.0711 8.75 18C8.75 15.9289 7.07107 14.25 5 14.25ZM2.75 18C2.75 16.7574 3.75736 15.75 5 15.75C6.24264 15.75 7.25 16.7574 7.25 18C7.25 19.2426 6.24264 20.25 5 20.25C3.75736 20.25 2.75 19.2426 2.75 18Z" fill="#101010"/>
<path fill-rule="evenodd" clip-rule="evenodd" d="M19 14.25C16.9289 14.25 15.25 15.9289 15.25 18C15.25 20.0711 16.9289 21.75 19 21.75C21.0711 21.75 22.75 20.0711 22.75 18C22.75 15.9289 21.0711 14.25 19 14.25ZM16.75 18C16.75 16.7574 17.7574 15.75 19 15.75C20.2426 15.75 21.25 16.7574 21.25 18C21.25 19.2426 20.2426 20.25 19 20.25C17.7574 20.25 16.75 19.2426 16.75 18Z" fill="#101010"/>
</svg>
