<svg width="24" height="24" viewBox="0 0 24 24" fill="none" xmlns="http://www.w3.org/2000/svg">
<path d="M9.25 9.41663C8.83579 9.41663 8.5 9.75241 8.5 10.1666C8.5 10.5808 8.83579 10.9166 9.25 10.9166H9.26C9.67421 10.9166 10.01 10.5808 10.01 10.1666C10.01 9.75241 9.67421 9.41663 9.26 9.41663H9.25Z" fill="#101010"/>
<path d="M14.75 9.41663C14.3358 9.41663 14 9.75241 14 10.1666C14 10.5808 14.3358 10.9166 14.75 10.9166H14.76C15.1742 10.9166 15.51 10.5808 15.51 10.1666C15.51 9.75241 15.1742 9.41663 14.76 9.41663H14.75Z" fill="#101010"/>
<path d="M9.18345 14.2143C9.47932 13.9244 9.95417 13.9292 10.2441 14.2251C10.4729 14.4587 10.7462 14.6443 11.0477 14.771C11.3492 14.8977 11.673 14.963 12 14.963C12.3271 14.963 12.6508 14.8977 12.9523 14.771C13.2539 14.6443 13.5271 14.4587 13.756 14.2251C14.0459 13.9292 14.5207 13.9244 14.8166 14.2143C15.1124 14.5042 15.1173 14.979 14.8274 15.2749C14.4588 15.651 14.0189 15.9499 13.5334 16.1539C13.0479 16.3579 12.5266 16.463 12 16.463C11.4734 16.463 10.9521 16.3579 10.4666 16.1539C9.98109 15.9499 9.54118 15.651 9.17263 15.2749C8.88274 14.979 8.88759 14.5042 9.18345 14.2143Z" fill="#101010"/>
<path fill-rule="evenodd" clip-rule="evenodd" d="M3 12C3 7.02944 7.02944 3 12 3C16.9706 3 21 7.02944 21 12C21 16.9706 16.9706 21 12 21C7.02944 21 3 16.9706 3 12ZM11.234 4.8173C11.4363 4.61493 11.7105 4.50089 11.9966 4.5L12 4.5C16.1421 4.5 19.5 7.85786 19.5 12C19.5 16.1421 16.1421 19.5 12 19.5C7.85786 19.5 4.5 16.1421 4.5 12C4.5 8.73384 6.5878 5.95532 9.50163 4.92619C9.44568 5.13889 9.41666 5.35962 9.41666 5.58333C9.41666 6.26848 9.68883 6.92556 10.1733 7.41003C10.6578 7.8945 11.3148 8.16667 12 8.16667C12.4142 8.16667 12.75 7.83088 12.75 7.41667C12.75 7.00245 12.4142 6.66667 12 6.66667C11.7127 6.66667 11.4371 6.55253 11.234 6.34937C11.0308 6.1462 10.9167 5.87065 10.9167 5.58333C10.9167 5.29602 11.0308 5.02047 11.234 4.8173Z" fill="#101010"/>
</svg>
