<svg width="24" height="24" viewBox="0 0 24 24" fill="none" xmlns="http://www.w3.org/2000/svg">
<path d="M12.75 4.5C12.75 4.08579 12.4142 3.75 12 3.75C11.5858 3.75 11.25 4.08579 11.25 4.5V12.6894L8.36367 9.80304C8.07078 9.51015 7.59591 9.51015 7.30301 9.80304C7.01012 10.0959 7.01012 10.5708 7.30301 10.8637L11.4697 15.0304C11.4897 15.0504 11.5107 15.0691 11.5326 15.0866C11.6452 15.1765 11.7843 15.2346 11.9363 15.2473C11.9574 15.2491 11.9787 15.25 12 15.25C12.0213 15.25 12.0426 15.2491 12.0637 15.2473C12.2084 15.2352 12.3415 15.1819 12.4511 15.0992C12.4789 15.0783 12.5054 15.0553 12.5303 15.0304L16.697 10.8637C16.9899 10.5708 16.9899 10.0959 16.697 9.80304C16.4041 9.51015 15.9292 9.51015 15.6363 9.80304L12.75 12.6894V4.5Z" fill="#101010"/>
<path d="M4.5 13.75C4.91421 13.75 5.25 14.0858 5.25 14.5V17.8333C5.25 18.0764 5.34658 18.3096 5.51849 18.4815C5.69039 18.6534 5.92355 18.75 6.16667 18.75H17.8333C18.0764 18.75 18.3096 18.6534 18.4815 18.4815C18.6534 18.3096 18.75 18.0764 18.75 17.8333V14.5C18.75 14.0858 19.0858 13.75 19.5 13.75C19.9142 13.75 20.25 14.0858 20.25 14.5V17.8333C20.25 18.4743 19.9954 19.089 19.5422 19.5422C19.089 19.9954 18.4743 20.25 17.8333 20.25H6.16667C5.52573 20.25 4.91104 19.9954 4.45783 19.5422C4.00461 19.089 3.75 18.4743 3.75 17.8333V14.5C3.75 14.0858 4.08579 13.75 4.5 13.75Z" fill="#101010"/>
</svg>
