<svg width="24" height="24" viewBox="0 0 24 24" fill="none" xmlns="http://www.w3.org/2000/svg">
<path d="M13.75 4.5C13.75 4.91421 14.0858 5.25 14.5 5.25H17.6893L9.96967 12.9697C9.67678 13.2626 9.67678 13.7374 9.96967 14.0303C10.2626 14.3232 10.7374 14.3232 11.0303 14.0303L18.75 6.31066V9.5C18.75 9.91421 19.0858 10.25 19.5 10.25C19.9142 10.25 20.25 9.91421 20.25 9.5V4.5C20.25 4.08579 19.9142 3.75 19.5 3.75H14.5C14.0858 3.75 13.75 4.08579 13.75 4.5Z" fill="#101010"/>
<path d="M5.51849 8.01849C5.69039 7.84658 5.92355 7.75 6.16667 7.75H11.1667C11.5809 7.75 11.9167 7.41421 11.9167 7C11.9167 6.58579 11.5809 6.25 11.1667 6.25H6.16667C5.52573 6.25 4.91104 6.50461 4.45783 6.95783C4.00461 7.41104 3.75 8.02573 3.75 8.66667V17.8333C3.75 18.4743 4.00461 19.089 4.45783 19.5422C4.91104 19.9954 5.52573 20.25 6.16667 20.25H15.3333C15.9743 20.25 16.589 19.9954 17.0422 19.5422C17.4954 19.089 17.75 18.4743 17.75 17.8333V12.8333C17.75 12.4191 17.4142 12.0833 17 12.0833C16.5858 12.0833 16.25 12.4191 16.25 12.8333V17.8333C16.25 18.0764 16.1534 18.3096 15.9815 18.4815C15.8096 18.6534 15.5764 18.75 15.3333 18.75H6.16667C5.92355 18.75 5.69039 18.6534 5.51849 18.4815C5.34658 18.3096 5.25 18.0764 5.25 17.8333V8.66667C5.25 8.42355 5.34658 8.19039 5.51849 8.01849Z" fill="#101010"/>
</svg>
