<svg width="24" height="24" viewBox="0 0 24 24" fill="none" xmlns="http://www.w3.org/2000/svg">
<path d="M15.5 3.5C14.9477 3.5 14.5 3.94772 14.5 4.5C14.5 5.05228 14.9477 5.5 15.5 5.5H17.0858L13.2929 9.29289C12.9024 9.68342 12.9024 10.3166 13.2929 10.7071C13.6834 11.0976 14.3166 11.0976 14.7071 10.7071L18.5 6.91421V8.5C18.5 9.05228 18.9477 9.5 19.5 9.5C20.0523 9.5 20.5 9.05228 20.5 8.5V4.5C20.5 3.94772 20.0523 3.5 19.5 3.5H15.5Z" fill="#101010"/>
<path d="M20.5191 15.5311C20.5217 14.9788 20.0762 14.529 19.5239 14.5263C18.9716 14.5237 18.5218 14.9692 18.5191 15.5215L18.5115 17.1073L14.7368 13.2963C14.3482 12.9039 13.715 12.9008 13.3226 13.2895C12.9302 13.6781 12.9272 14.3113 13.3159 14.7037L17.0905 18.5147L15.5048 18.5071C14.9525 18.5045 14.5026 18.95 14.5 19.5023C14.4973 20.0546 14.9429 20.5044 15.4952 20.5071L19.4951 20.5263C20.0474 20.5289 20.4973 20.0833 20.4999 19.5311L20.5191 15.5311Z" fill="#101010"/>
<path d="M10.7071 13.2929C11.0976 13.6834 11.0976 14.3166 10.7071 14.7071L6.91421 18.5H8.5C9.05228 18.5 9.5 18.9477 9.5 19.5C9.5 20.0523 9.05228 20.5 8.5 20.5H4.5C3.94772 20.5 3.5 20.0523 3.5 19.5V15.5C3.5 14.9477 3.94772 14.5 4.5 14.5C5.05228 14.5 5.5 14.9477 5.5 15.5V17.0858L9.29289 13.2929C9.68342 12.9024 10.3166 12.9024 10.7071 13.2929Z" fill="#101010"/>
<path d="M4.5 3.5C3.94772 3.5 3.5 3.94772 3.5 4.5V8.5C3.5 9.05228 3.94772 9.5 4.5 9.5C5.05228 9.5 5.5 9.05228 5.5 8.5V6.91421L9.29289 10.7071C9.68342 11.0976 10.3166 11.0976 10.7071 10.7071C11.0976 10.3166 11.0976 9.68342 10.7071 9.29289L6.91421 5.5H8.5C9.05228 5.5 9.5 5.05228 9.5 4.5C9.5 3.94772 9.05228 3.5 8.5 3.5H4.5Z" fill="#101010"/>
</svg>
