<svg width="24" height="24" viewBox="0 0 24 24" fill="none" xmlns="http://www.w3.org/2000/svg">
<path d="M5.33334 3.75C5.74756 3.75 6.08334 4.08579 6.08334 4.5V10.3333C6.08334 10.7475 5.74756 11.0833 5.33334 11.0833C4.91913 11.0833 4.58334 10.7475 4.58334 10.3333V4.5C4.58334 4.08579 4.91913 3.75 5.33334 3.75Z" fill="#101010"/>
<path d="M4.58334 14.4166V19.5C4.58334 19.9142 4.91913 20.25 5.33334 20.25C5.74756 20.25 6.08334 19.9142 6.08334 19.5V14.4166H7.83334C8.24756 14.4166 8.58334 14.0808 8.58334 13.6666C8.58334 13.2524 8.24756 12.9166 7.83334 12.9166H2.83334C2.41913 12.9166 2.08334 13.2524 2.08334 13.6666C2.08334 14.0808 2.41913 14.4166 2.83334 14.4166H4.58334Z" fill="#101010"/>
<path d="M12.75 12C12.75 11.5858 12.4142 11.25 12 11.25C11.5858 11.25 11.25 11.5858 11.25 12V19.5C11.25 19.9142 11.5858 20.25 12 20.25C12.4142 20.25 12.75 19.9142 12.75 19.5V12Z" fill="#101010"/>
<path d="M12 3.75C12.4142 3.75 12.75 4.08579 12.75 4.5V7.91663H14.5C14.9142 7.91663 15.25 8.25241 15.25 8.66663C15.25 9.08084 14.9142 9.41663 14.5 9.41663H12.0079L12 9.41667L11.9921 9.41663H9.50001C9.08579 9.41663 8.75001 9.08084 8.75001 8.66663C8.75001 8.25241 9.08579 7.91663 9.50001 7.91663H11.25V4.5C11.25 4.08579 11.5858 3.75 12 3.75Z" fill="#101010"/>
<path d="M21.1667 14.5834C21.5809 14.5834 21.9167 14.9192 21.9167 15.3334C21.9167 15.7476 21.5809 16.0834 21.1667 16.0834H19.4167V19.5C19.4167 19.9143 19.0809 20.25 18.6667 20.25C18.2525 20.25 17.9167 19.9143 17.9167 19.5V16.0834H16.1667C15.7525 16.0834 15.4167 15.7476 15.4167 15.3334C15.4167 14.9192 15.7525 14.5834 16.1667 14.5834H21.1667Z" fill="#101010"/>
<path d="M18.6667 3.75C19.0809 3.75 19.4167 4.08579 19.4167 4.5V12C19.4167 12.4142 19.0809 12.75 18.6667 12.75C18.2525 12.75 17.9167 12.4142 17.9167 12V4.5C17.9167 4.08579 18.2525 3.75 18.6667 3.75Z" fill="#101010"/>
</svg>
