<svg width="24" height="24" viewBox="0 0 16 14" fill="none" xmlns="http://www.w3.org/2000/svg">
    <path d="M8.25 10.5H14.25Z"/>
    <path d="M0.75 10.5H3.75Z"/>
    <path d="M8.25 10.5C8.25 11.74 7.24 12.75 6 12.75C4.76 12.75 3.75 11.74 3.75 10.5C3.75 9.26 4.76 8.25 6 8.25C7.24 8.25 8.25 9.26 8.25 10.5Z" fill="transparent" />
    <path d="M9.75 3H0.75Z"/>
    <path d="M14.25 3C14.25 1.76 13.24 0.75 12 0.75C10.76 0.75 9.75 1.76 9.75 3C9.75 4.24 10.76 5.25 12 5.25C13.24 5.25 14.25 4.24 14.25 3Z" fill="transparent" />
</svg>



