<svg width="25" height="25" viewBox="0 0 40 40" fill="none" xmlns="http://www.w3.org/2000/svg">
    <circle cx="20" cy="20" r="19.25" fill="#4992FF" stroke="#4992FF"/>
    <path d="M11.6403 19.5859H16.1716V25.5078C15.5726 25.7057 14.9502 25.8646 14.3044 25.9844C13.6585 26.099 12.9268 26.1562 12.1091 26.1562C10.9736 26.1562 10.0101 25.9323 9.21844 25.4844C8.42677 25.0365 7.82521 24.375 7.41375 23.5C7.00229 22.625 6.79656 21.5495 6.79656 20.2734C6.79656 19.0755 7.02573 18.0391 7.48406 17.1641C7.9476 16.2891 8.62208 15.612 9.5075 15.1328C10.3981 14.6536 11.4841 14.4141 12.7653 14.4141C13.3695 14.4141 13.9658 14.4792 14.5544 14.6094C15.1429 14.7396 15.6768 14.9089 16.1559 15.1172L15.3512 17.0547C15.0023 16.8776 14.6039 16.7292 14.1559 16.6094C13.708 16.4896 13.2393 16.4297 12.7497 16.4297C12.0466 16.4297 11.4346 16.5911 10.9137 16.9141C10.3981 17.237 9.99708 17.6901 9.71062 18.2734C9.42937 18.8516 9.28875 19.5339 9.28875 20.3203C9.28875 21.0651 9.39031 21.7266 9.59344 22.3047C9.79656 22.8776 10.1169 23.3281 10.5544 23.6562C10.9919 23.9792 11.5622 24.1406 12.2653 24.1406C12.6091 24.1406 12.8981 24.125 13.1325 24.0938C13.3721 24.0573 13.596 24.0208 13.8044 23.9844V21.6016H11.6403V19.5859ZM28.9453 20.2734C28.9453 21.1536 28.8359 21.9557 28.6172 22.6797C28.3984 23.3984 28.0651 24.0182 27.6172 24.5391C27.1745 25.0599 26.612 25.4609 25.9297 25.7422C25.2474 26.0182 24.4401 26.1562 23.5078 26.1562C22.5755 26.1562 21.7682 26.0182 21.0859 25.7422C20.4036 25.4609 19.8385 25.0599 19.3906 24.5391C18.9479 24.0182 18.6172 23.3958 18.3984 22.6719C18.1797 21.9479 18.0703 21.1432 18.0703 20.2578C18.0703 19.0755 18.263 18.0469 18.6484 17.1719C19.0391 16.2917 19.638 15.6094 20.4453 15.125C21.2526 14.6406 22.2786 14.3984 23.5234 14.3984C24.763 14.3984 25.7812 14.6406 26.5781 15.125C27.3802 15.6094 27.974 16.2917 28.3594 17.1719C28.75 18.0521 28.9453 19.0859 28.9453 20.2734ZM20.6094 20.2734C20.6094 21.0703 20.7083 21.7578 20.9062 22.3359C21.1094 22.9089 21.4245 23.3516 21.8516 23.6641C22.2786 23.9714 22.8307 24.125 23.5078 24.125C24.1953 24.125 24.7526 23.9714 25.1797 23.6641C25.6068 23.3516 25.9167 22.9089 26.1094 22.3359C26.3073 21.7578 26.4062 21.0703 26.4062 20.2734C26.4062 19.0755 26.1823 18.1328 25.7344 17.4453C25.2865 16.7578 24.5495 16.4141 23.5234 16.4141C22.8411 16.4141 22.2839 16.5703 21.8516 16.8828C21.4245 17.1901 21.1094 17.6328 20.9062 18.2109C20.7083 18.7839 20.6094 19.4714 20.6094 20.2734ZM32.805 22.2109H30.8988L30.5003 14.5781H33.2034L32.805 22.2109ZM30.4691 24.8828C30.4691 24.3932 30.6019 24.0495 30.8675 23.8516C31.1383 23.6536 31.4639 23.5547 31.8441 23.5547C32.2139 23.5547 32.5316 23.6536 32.7972 23.8516C33.068 24.0495 33.2034 24.3932 33.2034 24.8828C33.2034 25.3516 33.068 25.6901 32.7972 25.8984C32.5316 26.1068 32.2139 26.2109 31.8441 26.2109C31.4639 26.2109 31.1383 26.1068 30.8675 25.8984C30.6019 25.6901 30.4691 25.3516 30.4691 24.8828Z" fill="white"/>
</svg>
