<svg width="24" height="24" viewBox="0 0 24 24" fill="none" xmlns="http://www.w3.org/2000/svg">
<path d="M12.2829 3.05517C12.3729 3.09178 12.4573 3.14662 12.5303 3.21967L16.197 6.88634C16.4899 7.17923 16.4899 7.6541 16.197 7.947C15.9041 8.23989 15.4292 8.23989 15.1363 7.947L12.75 5.56065V18.4394L15.1363 16.053C15.4292 15.7602 15.9041 15.7602 16.197 16.053C16.4899 16.3459 16.4899 16.8208 16.197 17.1137L12.5303 20.7804C12.4438 20.8669 12.3415 20.9278 12.2326 20.9632C12.1869 20.9781 12.1392 20.9888 12.09 20.9946C12.0316 21.0017 11.9724 21.0018 11.9139 20.9951C11.8599 20.9889 11.8077 20.977 11.7578 20.96C11.6525 20.9242 11.5536 20.8643 11.4697 20.7804L7.80301 17.1137C7.51012 16.8208 7.51012 16.3459 7.80301 16.053C8.09591 15.7602 8.57078 15.7602 8.86367 16.053L11.25 18.4394V5.56067L8.86367 7.947C8.57078 8.23989 8.09591 8.23989 7.80301 7.947C7.51012 7.6541 7.51012 7.17923 7.80301 6.88634L11.4674 3.22198C11.4748 3.21447 11.4824 3.20712 11.4902 3.19994C11.624 3.07586 11.8031 3 12 3" fill="#101010"/>
<path d="M12.0023 3C12.1015 3.0003 12.1962 3.01987 12.2829 3.05517L12.0023 3Z" fill="#101010"/>
</svg>
