<svg width="24" height="24" viewBox="0 0 24 24" fill="none" xmlns="http://www.w3.org/2000/svg">
<path fill-rule="evenodd" clip-rule="evenodd" d="M11.4697 2.46967C11.7626 2.17678 12.2374 2.17678 12.5303 2.46967L21.5303 11.4697C21.8232 11.7626 21.8232 12.2374 21.5303 12.5303C21.2374 12.8232 20.7626 12.8232 20.4697 12.5303L19.75 11.8107V20C19.75 20.4641 19.5656 20.9092 19.2374 21.2374C18.9092 21.5656 18.4641 21.75 18 21.75H6C5.53587 21.75 5.09075 21.5656 4.76256 21.2374C4.43437 20.9092 4.25 20.4641 4.25 20V11.8107L3.53033 12.5303C3.23744 12.8232 2.76256 12.8232 2.46967 12.5303C2.17678 12.2374 2.17678 11.7626 2.46967 11.4697L11.4697 2.46967ZM5.75 10.3107V20C5.75 20.0663 5.77634 20.1299 5.82322 20.1768C5.87011 20.2237 5.93369 20.25 6 20.25H9C9.06631 20.25 9.12989 20.2237 9.17678 20.1768C9.22366 20.1299 9.25 20.0663 9.25 20V16C9.25 15.5359 9.43437 15.0908 9.76256 14.7626C10.0908 14.4344 10.5359 14.25 11 14.25H13C13.4641 14.25 13.9092 14.4344 14.2374 14.7626C14.5656 15.0908 14.75 15.5359 14.75 16V20C14.75 20.0663 14.7763 20.1299 14.8232 20.1768C14.8701 20.2237 14.9337 20.25 15 20.25H18C18.0663 20.25 18.1299 20.2237 18.1768 20.1768C18.2237 20.1299 18.25 20.0663 18.25 20V10.3107L12 4.06066L5.75 10.3107ZM13.2679 20.25C13.2561 20.1677 13.25 20.0842 13.25 20V16C13.25 15.9337 13.2237 15.8701 13.1768 15.8232C13.1299 15.7763 13.0663 15.75 13 15.75H11C10.9337 15.75 10.8701 15.7763 10.8232 15.8232C10.7763 15.8701 10.75 15.9337 10.75 16V20C10.75 20.0842 10.7439 20.1677 10.7321 20.25H13.2679Z" fill="#101010"/>
</svg>
