<svg width="24" height="24" viewBox="0 0 24 24" fill="none" xmlns="http://www.w3.org/2000/svg">
<path fill-rule="evenodd" clip-rule="evenodd" d="M11.4697 4.46967C11.7626 4.17678 12.2374 4.17678 12.5303 4.46967L15.5303 7.46967C15.8232 7.76256 15.8232 8.23744 15.5303 8.53033C15.2374 8.82322 14.7626 8.82322 14.4697 8.53033L12.75 6.81066V13C12.75 13.4142 12.4142 13.75 12 13.75C11.5858 13.75 11.25 13.4142 11.25 13V6.81066L9.53033 8.53033C9.23744 8.82322 8.76256 8.82322 8.46967 8.53033C8.17678 8.23744 8.17678 7.76256 8.46967 7.46967L11.4697 4.46967ZM8.25 17C8.25 16.5858 8.58579 16.25 9 16.25H10C10.4142 16.25 10.75 16.5858 10.75 17C10.75 17.4142 10.4142 17.75 10 17.75H9C8.58579 17.75 8.25 17.4142 8.25 17ZM14 16.25C13.5858 16.25 13.25 16.5858 13.25 17C13.25 17.4142 13.5858 17.75 14 17.75H15C15.4142 17.75 15.75 17.4142 15.75 17C15.75 16.5858 15.4142 16.25 15 16.25H14ZM18.25 17C18.25 16.5858 18.5858 16.25 19 16.25H20C20.4142 16.25 20.75 16.5858 20.75 17C20.75 17.4142 20.4142 17.75 20 17.75H19C18.5858 17.75 18.25 17.4142 18.25 17ZM4 16.25C3.58579 16.25 3.25 16.5858 3.25 17C3.25 17.4142 3.58579 17.75 4 17.75H5C5.41421 17.75 5.75 17.4142 5.75 17C5.75 16.5858 5.41421 16.25 5 16.25H4Z" fill="#101010"/>
</svg>
