<svg width="24" height="24" viewBox="0 0 24 24" fill="none" xmlns="http://www.w3.org/2000/svg">
<path d="M6.63577 5.22047C7.48574 4.93548 8.40406 4.92656 9.2594 5.19499C10.1147 5.46342 10.8633 5.99544 11.398 6.71498C11.5391 6.90479 11.7614 7.01696 11.9979 7.01762C12.2344 7.01829 12.4573 6.90737 12.5995 6.71836C12.951 6.25088 13.3952 5.86098 13.9043 5.57307C14.4134 5.28516 14.9765 5.10544 15.5582 5.04515C16.14 4.98486 16.728 5.0453 17.2853 5.22269C17.8427 5.40008 18.3574 5.6906 18.7973 6.07607C19.2372 6.46153 19.5928 6.93365 19.8418 7.46287C20.0909 7.99208 20.228 8.56701 20.2446 9.15166C20.2612 9.73631 20.157 10.3181 19.9385 10.8606C19.7296 11.3791 19.4206 11.851 19.0295 12.2495C19.0098 12.2654 18.9906 12.2825 18.9722 12.3007L12 19.2061L9.63175 16.8607C9.33744 16.5693 8.86257 16.5716 8.5711 16.8659C8.27964 17.1602 8.28194 17.6351 8.57626 17.9265L11.4723 20.7945C11.7646 21.084 12.2355 21.084 12.5278 20.7945L19.9676 13.4261C19.9876 13.4101 20.0069 13.393 20.0256 13.3747C20.5901 12.8202 21.0341 12.1551 21.3298 11.4211C21.6255 10.6871 21.7665 9.9 21.744 9.10901C21.7215 8.31801 21.536 7.54017 21.199 6.82417C20.8621 6.10817 20.381 5.46942 19.7858 4.94791C19.1907 4.42639 18.4943 4.03334 17.7402 3.79334C16.9862 3.55334 16.1907 3.47157 15.4036 3.55314C14.6165 3.63471 13.8547 3.87786 13.1659 4.26739C12.7422 4.50701 12.3517 4.79884 12.0032 5.1352C11.3597 4.5071 10.5746 4.03559 9.70854 3.76381C8.55131 3.40065 7.30888 3.41271 6.15892 3.79829C5.00897 4.18386 4.01038 4.92319 3.30597 5.91055C2.60157 6.89791 2.22742 8.08273 2.23703 9.29557C2.24031 9.70977 2.57875 10.0429 2.99295 10.0396C3.40715 10.0363 3.74026 9.69788 3.73698 9.28368C3.72988 8.38723 4.00642 7.5115 4.52707 6.78171C5.04772 6.05192 5.7858 5.50546 6.63577 5.22047Z" fill="#101010"/>
<path d="M9.71151 9.02443C9.60943 8.71817 9.32282 8.5116 9 8.5116C8.67718 8.5116 8.39057 8.71817 8.28849 9.02443L6.77342 13.5696L5.62404 11.8456C5.48494 11.6369 5.25076 11.5116 5 11.5116H3C2.58579 11.5116 2.25 11.8474 2.25 12.2616C2.25 12.6758 2.58579 13.0116 3 13.0116H4.59861L6.37596 15.6776C6.53486 15.916 6.81563 16.043 7.09955 16.005C7.38347 15.9669 7.62093 15.7705 7.71151 15.4988L9 11.6333L9.28849 12.4988C9.39057 12.805 9.67718 13.0116 10 13.0116H13C13.4142 13.0116 13.75 12.6758 13.75 12.2616C13.75 11.8474 13.4142 11.5116 13 11.5116H10.5406L9.71151 9.02443Z" fill="#101010"/>
</svg>
