<svg width="24" height="24" viewBox="0 0 24 24" fill="none" xmlns="http://www.w3.org/2000/svg">
<path d="M12 14C13.6569 14 15 12.6569 15 11C15 9.34315 13.6569 8 12 8C10.3431 8 9 9.34315 9 11C9 12.6569 10.3431 14 12 14Z" stroke="#8B8B8B" stroke-width="1.5" stroke-linecap="round" stroke-linejoin="round"/>
<path d="M17.657 16.657L13.414 20.9C13.039 21.2746 12.5306 21.485 12.0005 21.485C11.4704 21.485 10.962 21.2746 10.587 20.9L6.343 16.657C5.22422 15.5381 4.46234 14.1127 4.15369 12.5608C3.84504 11.009 4.00349 9.40047 4.60901 7.93868C5.21452 6.4769 6.2399 5.22749 7.55548 4.34846C8.87107 3.46943 10.4178 3.00024 12 3.00024C13.5822 3.00024 15.1289 3.46943 16.4445 4.34846C17.7601 5.22749 18.7855 6.4769 19.391 7.93868C19.9965 9.40047 20.155 11.009 19.8463 12.5608C19.5377 14.1127 18.7758 15.5381 17.657 16.657V16.657Z" stroke="#8B8B8B" stroke-width="1.5" stroke-linecap="round" stroke-linejoin="round"/>
<path fill-rule="evenodd" clip-rule="evenodd" d="M12 7.25C9.92894 7.25 8.25 8.92893 8.25 11C8.25 13.0711 9.92894 14.75 12 14.75C14.0711 14.75 15.75 13.0711 15.75 11C15.75 8.92893 14.0711 7.25 12 7.25ZM9.75 11C9.75 9.75736 10.7574 8.75 12 8.75C13.2426 8.75 14.25 9.75736 14.25 11C14.25 12.2426 13.2426 13.25 12 13.25C10.7574 13.25 9.75 12.2426 9.75 11Z" fill="#8B8B8B"/>
<path fill-rule="evenodd" clip-rule="evenodd" d="M20.5819 12.7071C20.2443 14.4044 19.411 15.9635 18.1873 17.1873L13.9441 21.4305C13.4284 21.9457 12.7294 22.235 12.0005 22.235C11.2716 22.235 10.5724 21.9455 10.0567 21.4303L5.81266 17.1873C4.589 15.9635 3.75568 14.4044 3.4181 12.7071C3.08052 11.0098 3.25382 9.25049 3.9161 7.65166C4.57838 6.05283 5.69989 4.6863 7.13881 3.72485C8.57773 2.76341 10.2694 2.25024 12 2.25024C13.7306 2.25024 15.4223 2.76341 16.8612 3.72485C18.3001 4.6863 19.4216 6.05283 20.0839 7.65166C20.7462 9.25049 20.9195 11.0098 20.5819 12.7071ZM7.97216 4.97206C9.16441 4.17544 10.5661 3.75024 12 3.75024C13.4339 3.75024 14.8356 4.17544 16.0278 4.97206C17.2201 5.76869 18.1493 6.90096 18.6981 8.2257C19.2468 9.55045 19.3904 11.0082 19.1107 12.4145C18.831 13.8209 18.1406 15.1127 17.1267 16.1266L12.8839 20.3694C12.6496 20.6035 12.3318 20.735 12.0005 20.735C11.6692 20.735 11.3515 20.6035 11.1171 20.3694L6.87327 16.1266C5.85942 15.1126 5.16899 13.8208 4.88928 12.4145C4.60957 11.0082 4.75317 9.55045 5.30191 8.2257C5.85066 6.90096 6.77991 5.76869 7.97216 4.97206Z" fill="#8B8B8B"/>
</svg>
