<svg width="24" height="24" viewBox="0 0 24 24" fill="none" xmlns="http://www.w3.org/2000/svg">
<path fill-rule="evenodd" clip-rule="evenodd" d="M6.53033 8.46967C6.82322 8.76256 6.82322 9.23744 6.53033 9.53033L4.81066 11.25L16.3535 11.25C16.68 10.0957 17.7412 9.25 19 9.25C20.5188 9.25 21.75 10.4812 21.75 12C21.75 13.5188 20.5188 14.75 19 14.75C17.7412 14.75 16.68 13.9043 16.3535 12.75L4.81066 12.75L6.53033 14.4697C6.82322 14.7626 6.82322 15.2374 6.53033 15.5303C6.23744 15.8232 5.76256 15.8232 5.46967 15.5303L2.46967 12.5303C2.39776 12.4584 2.34351 12.3755 2.30691 12.2871C2.27107 12.2007 2.25093 12.1061 2.25003 12.0069L2.25 12L2.25003 11.9931C2.25177 11.8034 2.32498 11.6144 2.46967 11.4697L5.46967 8.46967C5.76256 8.17678 6.23744 8.17678 6.53033 8.46967ZM17.75 12C17.75 12.0003 17.75 11.9997 17.75 12C17.75 12.6904 18.3096 13.25 19 13.25C19.6904 13.25 20.25 12.6904 20.25 12C20.25 11.3096 19.6904 10.75 19 10.75C18.31 10.75 17.7505 11.3101 17.75 12Z" fill="#FFFFFF"/>
</svg>
