<svg width="24" height="24" viewBox="0 0 24 24" fill="none" xmlns="http://www.w3.org/2000/svg">
<path d="M12.9744 18.8677C12.6822 18.7131 12.3325 18.7129 12.0401 18.8672L7.81186 21.0986C7.07844 21.4857 6.21973 20.8632 6.35943 20.0457L7.16899 15.3087C7.22433 14.9849 7.1171 14.6546 6.88213 14.425L3.44686 11.0686C2.85446 10.4898 3.18217 9.48294 4.00176 9.36371L8.73406 8.6753C9.06023 8.62785 9.34207 8.42273 9.4875 8.12695L11.6026 3.82516C11.9689 3.08013 13.0311 3.08013 13.3974 3.82516L15.5125 8.12695C15.6579 8.42273 15.9398 8.62785 16.2659 8.6753L20.9982 9.36371C21.8178 9.48294 22.1455 10.4898 21.5531 11.0686L18.1179 14.425C17.8829 14.6546 17.7757 14.9849 17.831 15.3087L18.6402 20.0434C18.7799 20.8612 17.9203 21.4837 17.1869 21.0958L12.9744 18.8677Z" fill="#FFCF23"/>
</svg>
