<svg width="24" height="24" viewBox="0 0 24 24" fill="none" xmlns="http://www.w3.org/2000/svg">
<path d="M12.75 3.75C12.75 3.33579 12.4142 3 12 3C11.5858 3 11.25 3.33579 11.25 3.75V4.66667C11.25 5.08088 11.5858 5.41667 12 5.41667C12.4142 5.41667 12.75 5.08088 12.75 4.66667V3.75Z" fill="#101010"/>
<path d="M6.66366 5.603C6.37077 5.31011 5.8959 5.31011 5.603 5.603C5.31011 5.8959 5.31011 6.37077 5.603 6.66366L6.24467 7.30533C6.53756 7.59822 7.01244 7.59822 7.30533 7.30533C7.59822 7.01244 7.59822 6.53756 7.30533 6.24467L6.66366 5.603Z" fill="#101010"/>
<path d="M18.397 6.66366C18.6899 6.37077 18.6899 5.8959 18.397 5.603C18.1041 5.31011 17.6292 5.31011 17.3363 5.603L16.6947 6.24467C16.4018 6.53756 16.4018 7.01244 16.6947 7.30533C16.9876 7.59822 17.4624 7.59822 17.7553 7.30533L18.397 6.66366Z" fill="#101010"/>
<path d="M3.75 11.25C3.33579 11.25 3 11.5858 3 12C3 12.4142 3.33579 12.75 3.75 12.75H4.66667C5.08088 12.75 5.41667 12.4142 5.41667 12C5.41667 11.5858 5.08088 11.25 4.66667 11.25H3.75Z" fill="#101010"/>
<path d="M19.3333 11.25C18.9191 11.25 18.5833 11.5858 18.5833 12C18.5833 12.4142 18.9191 12.75 19.3333 12.75H20.25C20.6642 12.75 21 12.4142 21 12C21 11.5858 20.6642 11.25 20.25 11.25H19.3333Z" fill="#101010"/>
<path d="M17.7553 16.6947C17.4624 16.4018 16.9876 16.4018 16.6947 16.6947C16.4018 16.9876 16.4018 17.4624 16.6947 17.7553L17.3363 18.397C17.6292 18.6899 18.1041 18.6899 18.397 18.397C18.6899 18.1041 18.6899 17.6292 18.397 17.3363L17.7553 16.6947Z" fill="#101010"/>
<path d="M7.30533 17.7553C7.59822 17.4624 7.59822 16.9876 7.30533 16.6947C7.01244 16.4018 6.53756 16.4018 6.24467 16.6947L5.603 17.3363C5.31011 17.6292 5.31011 18.1041 5.603 18.397C5.8959 18.6899 6.37077 18.6899 6.66366 18.397L7.30533 17.7553Z" fill="#101010"/>
<path d="M12.75 19.3333C12.75 18.9191 12.4142 18.5833 12 18.5833C11.5858 18.5833 11.25 18.9191 11.25 19.3333V20.25C11.25 20.6642 11.5858 21 12 21C12.4142 21 12.75 20.6642 12.75 20.25V19.3333Z" fill="#101010"/>
<path fill-rule="evenodd" clip-rule="evenodd" d="M12 7.58337C9.56075 7.58337 7.58334 9.56078 7.58334 12C7.58334 14.4393 9.56075 16.4167 12 16.4167C14.4393 16.4167 16.4167 14.4393 16.4167 12C16.4167 9.56078 14.4393 7.58337 12 7.58337ZM9.08334 12C9.08334 10.3892 10.3892 9.08337 12 9.08337C13.6108 9.08337 14.9167 10.3892 14.9167 12C14.9167 13.6109 13.6108 14.9167 12 14.9167C10.3892 14.9167 9.08334 13.6109 9.08334 12Z" fill="#101010"/>
</svg>
