<svg width="24" height="24" viewBox="0 0 24 24" fill="none" xmlns="http://www.w3.org/2000/svg">
<path fill-rule="evenodd" clip-rule="evenodd" d="M10.1667 3C6.20863 3 3 6.20863 3 10.1667C3 14.1247 6.20863 17.3333 10.1667 17.3333C11.8755 17.3333 13.4447 16.7352 14.6763 15.7369L19.7197 20.7803C20.0126 21.0732 20.4874 21.0732 20.7803 20.7803C21.0732 20.4874 21.0732 20.0126 20.7803 19.7197L15.7369 14.6763C16.7352 13.4447 17.3333 11.8755 17.3333 10.1667C17.3333 6.20863 14.1247 3 10.1667 3ZM4.5 10.1667C4.5 7.03705 7.03705 4.5 10.1667 4.5C13.2963 4.5 15.8333 7.03705 15.8333 10.1667C15.8333 13.2963 13.2963 15.8333 10.1667 15.8333C7.03705 15.8333 4.5 13.2963 4.5 10.1667Z" fill="#8B8B8B"/>
</svg>
