<svg width="24" height="24" viewBox="0 0 24 24" fill="none" xmlns="http://www.w3.org/2000/svg">
<path fill-rule="evenodd" clip-rule="evenodd" d="M14 4.5C14 4.08579 14.3358 3.75 14.75 3.75H18.75C19.1642 3.75 19.5 4.08579 19.5 4.5V8.5C19.5 8.91421 19.1642 9.25 18.75 9.25C18.3358 9.25 18 8.91421 18 8.5V6.31066L5.28033 19.0303C4.98744 19.3232 4.51256 19.3232 4.21967 19.0303C3.92678 18.7374 3.92678 18.2626 4.21967 17.9697L16.9393 5.25H14.75C14.3358 5.25 14 4.91421 14 4.5Z" fill="#4992FF"/>
<path fill-rule="evenodd" clip-rule="evenodd" d="M4.21967 4.96967C4.51256 4.67678 4.98744 4.67678 5.28033 4.96967L9.28033 8.96967C9.57322 9.26256 9.57322 9.73744 9.28033 10.0303C8.98744 10.3232 8.51256 10.3232 8.21967 10.0303L4.21967 6.03033C3.92678 5.73744 3.92678 5.26256 4.21967 4.96967ZM13.2197 13.9697C13.5126 13.6768 13.9874 13.6768 14.2803 13.9697L18 17.6893V15.5C18 15.0858 18.3358 14.75 18.75 14.75C19.1642 14.75 19.5 15.0858 19.5 15.5V19.5C19.5 19.9142 19.1642 20.25 18.75 20.25H14.75C14.3358 20.25 14 19.9142 14 19.5C14 19.0858 14.3358 18.75 14.75 18.75H16.9393L13.2197 15.0303C12.9268 14.7374 12.9268 14.2626 13.2197 13.9697Z" fill="#4992FF"/>
</svg>
