<svg width="24" height="24" viewBox="0 0 24 24" fill="none" xmlns="http://www.w3.org/2000/svg">
<path fill-rule="evenodd" clip-rule="evenodd" d="M8.33334 14C7.91913 14 7.58334 14.3358 7.58334 14.75V16.5833C7.58334 16.9975 7.91913 17.3333 8.33334 17.3333H10.1667C10.5809 17.3333 10.9167 16.9975 10.9167 16.5833V14.75C10.9167 14.3358 10.5809 14 10.1667 14H8.33334ZM9.08334 15.8333V15.5H9.41668V15.8333H9.08334Z" fill="#101010"/>
<path fill-rule="evenodd" clip-rule="evenodd" d="M15.6667 3C16.0809 3 16.4167 3.33579 16.4167 3.75V4.83337H17.5C18.9267 4.83337 20.0833 5.98997 20.0833 7.41671V18.4167C20.0833 19.8434 18.9267 21 17.5 21H6.49999C5.07325 21 3.91666 19.8434 3.91666 18.4167V7.41671C3.91666 5.98997 5.07325 4.83337 6.49999 4.83337H7.58334V3.75C7.58334 3.33579 7.91913 3 8.33334 3C8.74756 3 9.08334 3.33579 9.08334 3.75V4.83337H14.9167V3.75C14.9167 3.33579 15.2524 3 15.6667 3ZM18.5833 7.41671V10.3334H5.41666V7.41671C5.41666 6.8184 5.90168 6.33337 6.49999 6.33337H7.58334V7.41667C7.58334 7.83088 7.91913 8.16667 8.33334 8.16667C8.74756 8.16667 9.08334 7.83088 9.08334 7.41667V6.33337H14.9167V7.41667C14.9167 7.83088 15.2524 8.16667 15.6667 8.16667C16.0809 8.16667 16.4167 7.83088 16.4167 7.41667V6.33337H17.5C18.0983 6.33337 18.5833 6.8184 18.5833 7.41671ZM18.5833 11.8334H5.41666V18.4167C5.41666 19.015 5.90168 19.5 6.49999 19.5H17.5C18.0983 19.5 18.5833 19.015 18.5833 18.4167V11.8334Z" fill="#101010"/>
</svg>
