<svg width="24" height="24" viewBox="0 0 24 24" fill="none" xmlns="http://www.w3.org/2000/svg">
<path d="M17 14.5C17 15.3284 16.3284 16 15.5 16C14.6716 16 14 15.3284 14 14.5C14 13.6716 14.6716 13 15.5 13C16.3284 13 17 13.6716 17 14.5Z" fill="#101010"/>
<path d="M8.5 16C9.32843 16 10 15.3284 10 14.5C10 13.6716 9.32843 13 8.5 13C7.67157 13 7 13.6716 7 14.5C7 15.3284 7.67157 16 8.5 16Z" fill="#101010"/>
<path fill-rule="evenodd" clip-rule="evenodd" d="M7.41446 2.48327C8.68296 2.36401 10.312 2.25 12 2.25C14.0131 2.25 15.4278 2.4123 16.5986 2.5518C18.3127 2.75601 19.75 4.20598 19.75 6V15C19.75 15.8444 19.4709 16.6236 19 17.2504V20C19 20.5523 18.5523 21 18 21H17C16.4477 21 16 20.5523 16 20V18.75H8V20C8 20.5523 7.55228 21 7 21H6C5.44772 21 5 20.5523 5 20V17.2504C4.52907 16.6236 4.25 15.8444 4.25 15V6C4.25 4.24611 5.64086 2.65001 7.41446 2.48327ZM12 3.75C10.3751 3.75 8.79625 3.85998 7.55486 3.97669C6.83078 4.04476 6.18741 4.57121 5.90373 5.25H18.0858C17.8005 4.61746 17.1713 4.13063 16.4212 4.04126C15.2686 3.90395 13.9235 3.75 12 3.75ZM5.75 6.75V10.25H18.25V6.75H5.75ZM5.75 11.75V15C5.75 16.2426 6.75736 17.25 8 17.25H16C17.2426 17.25 18.25 16.2426 18.25 15V11.75H5.75Z" fill="#101010"/>
</svg>
