<svg width="24" height="24" viewBox="0 0 24 24" fill="none" xmlns="http://www.w3.org/2000/svg">
<path fill-rule="evenodd" clip-rule="evenodd" d="M12.9167 3C11.9962 3 11.25 3.74619 11.25 4.66667C11.25 5.58714 11.9962 6.33333 12.9167 6.33333C13.8371 6.33333 14.5833 5.58714 14.5833 4.66667C14.5833 3.74619 13.8371 3 12.9167 3ZM12.75 4.66667C12.75 4.57462 12.8246 4.5 12.9167 4.5C13.0087 4.5 13.0833 4.57462 13.0833 4.66667C13.0833 4.75871 13.0087 4.83333 12.9167 4.83333C12.8246 4.83333 12.75 4.75871 12.75 4.66667Z" fill="#101010"/>
<path d="M10.7667 17.0333C11.0152 16.7019 10.948 16.2318 10.6167 15.9833C10.2853 15.7348 9.81518 15.8019 9.56665 16.1333L6.81665 19.8C6.56813 20.1313 6.63528 20.6014 6.96665 20.85C7.29803 21.0985 7.76813 21.0313 8.01665 20.7L10.7667 17.0333Z" fill="#101010"/>
<path d="M11.0721 9.33844L10.3435 13.7101C10.3037 13.949 10.3817 14.1924 10.553 14.3637L13.2169 17.0276L14.9958 20.5854C15.1811 20.9559 15.6316 21.1061 16.0021 20.9209C16.3726 20.7356 16.5227 20.2851 16.3375 19.9146L14.5041 16.248C14.4681 16.1759 14.4207 16.11 14.3637 16.053L11.8866 13.576L12.5002 9.89425L14.2197 11.6137C14.302 11.6961 14.4024 11.7581 14.5128 11.7949L17.2628 12.7116C17.6558 12.8426 18.0805 12.6302 18.2115 12.2372C18.3425 11.8443 18.1301 11.4195 17.7372 11.2885L15.1551 10.4279L12.5374 7.81017C12.4298 7.69948 12.2872 7.6209 12.1233 7.59357C12.0124 7.57508 11.9031 7.58196 11.8013 7.60998L8.15142 8.52245C7.97042 8.5677 7.81278 8.67879 7.70928 8.83403L5.87595 11.584C5.64619 11.9287 5.73932 12.3943 6.08396 12.6241C6.42861 12.8539 6.89426 12.7607 7.12403 12.4161L8.79652 9.90734L11.0721 9.33844Z" fill="#101010"/>
</svg>
