<svg width="24" height="24" viewBox="0 0 24 24" fill="none" xmlns="http://www.w3.org/2000/svg">
<path fill-rule="evenodd" clip-rule="evenodd" d="M2.25 6C2.25 5.58579 2.58579 5.25 3 5.25H11C14.4244 5.25 17.1002 6.0576 18.9392 7.45096C20.7948 8.85688 21.75 10.8268 21.75 13C21.75 13.7293 21.4603 14.4288 20.9445 14.9445C20.4288 15.4603 19.7293 15.75 19 15.75H3C2.58579 15.75 2.25 15.4142 2.25 15C2.25 14.8079 2.32221 14.6327 2.44098 14.5C2.32221 14.3673 2.25 14.1921 2.25 14V6ZM7.25 6.75H3.75V10.25H7.25V6.75ZM8.75 10.25V6.75H11C11.4327 6.75 11.8493 6.7638 12.25 6.79047V10.25H8.75ZM13.75 10.25V6.96061C15.5787 7.2609 16.9999 7.86354 18.0333 8.64654C18.6536 9.11653 19.1422 9.65675 19.5009 10.25H13.75ZM20.1099 11.75C20.2034 12.1535 20.25 12.5714 20.25 13C20.25 13.3315 20.1183 13.6495 19.8839 13.8839C19.6495 14.1183 19.3315 14.25 19 14.25H3.70732C3.73496 14.1718 3.75 14.0877 3.75 14V11.75H20.1099Z" fill="#101010"/>
<path d="M3 18.25C2.58579 18.25 2.25 18.5858 2.25 19C2.25 19.4142 2.58579 19.75 3 19.75H21C21.4142 19.75 21.75 19.4142 21.75 19C21.75 18.5858 21.4142 18.25 21 18.25H3Z" fill="#101010"/>
</svg>
