<svg width="24" height="24" viewBox="0 0 24 24" fill="none" xmlns="http://www.w3.org/2000/svg">
<path fill-rule="evenodd" clip-rule="evenodd" d="M12.75 2.83337C12.75 2.41916 12.4142 2.08337 12 2.08337C11.5858 2.08337 11.25 2.41916 11.25 2.83337V4.36985L10.5021 3.99589C10.1316 3.81064 9.68108 3.96081 9.49584 4.3313C9.3106 4.70178 9.46076 5.15229 9.83125 5.33753L11.25 6.0469V8.34898L9.2202 9.52906L7.21943 8.37392L7.31447 6.79057C7.33929 6.3771 7.02422 6.0218 6.61075 5.99698C6.19728 5.97216 5.84198 6.28723 5.81716 6.7007L5.76706 7.5354L4.43644 6.76716C4.07772 6.56005 3.61902 6.68296 3.41192 7.04168C3.20481 7.4004 3.32772 7.85909 3.68644 8.0662L5.01706 8.83443L4.31924 9.29517C3.97357 9.5234 3.87837 9.98863 4.1066 10.3343C4.33483 10.68 4.80006 10.7752 5.14573 10.5469L6.46943 9.67296L8.46311 10.824L8.4702 13.1719L6.46943 14.327L5.14572 13.453C4.80006 13.2248 4.33483 13.32 4.1066 13.6657C3.87837 14.0113 3.97357 14.4766 4.31924 14.7048L5.01706 15.1655L3.68644 15.9338C3.32772 16.1409 3.20481 16.5996 3.41192 16.9583C3.61902 17.317 4.07772 17.4399 4.43644 17.2328L5.76706 16.4646L5.81716 17.2993C5.84198 17.7128 6.19728 18.0278 6.61075 18.003C7.02422 17.9782 7.33929 17.6229 7.31447 17.2094L7.21943 15.6261L9.21312 14.475L11.25 15.6428V17.9531L9.83124 18.6625C9.46076 18.8477 9.31059 19.2982 9.49584 19.6687C9.68108 20.0392 10.1316 20.1894 10.5021 20.0041L11.25 19.6301V21.1666C11.25 21.5808 11.5858 21.9166 12 21.9166C12.4142 21.9166 12.75 21.5808 12.75 21.1666V19.6301L13.4979 20.0041C13.8684 20.1894 14.3189 20.0392 14.5041 19.6687C14.6894 19.2982 14.5392 18.8477 14.1687 18.6625L12.75 17.9531V15.651L14.7798 14.4709L16.7806 15.6261L16.6855 17.2094C16.6607 17.6229 16.9758 17.9782 17.3892 18.003C17.8027 18.0278 18.158 17.7128 18.1828 17.2993L18.2329 16.4646L19.5635 17.2328C19.9223 17.4399 20.381 17.317 20.5881 16.9583C20.7952 16.5996 20.6723 16.1409 20.3135 15.9338L18.9829 15.1656L19.6807 14.7048C20.0264 14.4766 20.1216 14.0114 19.8934 13.6657C19.6652 13.32 19.1999 13.2248 18.8543 13.4531L17.5306 14.327L15.5369 13.176L15.5298 10.8281L17.5306 9.67298L18.8543 10.547C19.1999 10.7752 19.6652 10.68 19.8934 10.3343C20.1216 9.98865 20.0264 9.52342 19.6807 9.29519L18.9829 8.83445L20.3135 8.06621C20.6723 7.85911 20.7952 7.40042 20.5881 7.0417C20.381 6.68298 19.9223 6.56007 19.5635 6.76718L18.2329 7.53541L18.1828 6.70071C18.158 6.28724 17.8027 5.97218 17.3892 5.997C16.9758 6.02181 16.6607 6.37712 16.6855 6.79059L16.7806 8.37394L14.7869 9.52499L12.75 8.35718V6.0469L14.1687 5.33753C14.5392 5.15229 14.6894 4.70178 14.5041 4.3313C14.3189 3.96081 13.8684 3.81064 13.4979 3.99589L12.75 4.36985V2.83337ZM9.96314 10.8322L9.97023 13.18L12.0071 14.3478L14.0368 13.1678L14.0298 10.82L11.9929 9.65216L9.96314 10.8322Z" fill="#101010"/>
</svg>
