<svg width="24" height="24" viewBox="0 0 24 24" fill="none" xmlns="http://www.w3.org/2000/svg">
<path fill-rule="evenodd" clip-rule="evenodd" d="M14.9167 5.58333C14.9167 4.1566 16.0733 3 17.5 3C18.9267 3 20.0833 4.1566 20.0833 5.58333C20.0833 7.01007 18.9267 8.16667 17.5 8.16667C16.0733 8.16667 14.9167 7.01007 14.9167 5.58333ZM17.5 4.5C16.9017 4.5 16.4167 4.98502 16.4167 5.58333C16.4167 6.18164 16.9017 6.66667 17.5 6.66667C18.0983 6.66667 18.5833 6.18164 18.5833 5.58333C18.5833 4.98502 18.0983 4.5 17.5 4.5Z" fill="#101010"/>
<path fill-rule="evenodd" clip-rule="evenodd" d="M3.91666 18.4167C3.91666 16.99 5.07325 15.8334 6.49999 15.8334C7.92673 15.8334 9.08332 16.99 9.08332 18.4167C9.08332 19.8434 7.92673 21 6.49999 21C5.07325 21 3.91666 19.8434 3.91666 18.4167ZM6.49999 17.3334C5.90168 17.3334 5.41666 17.8184 5.41666 18.4167C5.41666 19.015 5.90168 19.5 6.49999 19.5C7.0983 19.5 7.58332 19.015 7.58332 18.4167C7.58332 17.8184 7.0983 17.3334 6.49999 17.3334Z" fill="#101010"/>
<path d="M7.05337 7.0534C7.5144 6.59238 8.13969 6.33337 8.79168 6.33337H12C12.4142 6.33337 12.75 5.99759 12.75 5.58337C12.75 5.16916 12.4142 4.83337 12 4.83337H8.79168C7.74186 4.83337 6.73504 5.25041 5.99271 5.99274C5.25038 6.73507 4.83334 7.74189 4.83334 8.79171C4.83334 9.84152 5.25038 10.8483 5.99271 11.5907C6.73504 12.333 7.74186 12.75 8.79168 12.75H16.125C16.777 12.75 17.4023 13.009 17.8633 13.4701C18.3243 13.9311 18.5833 14.5564 18.5833 15.2084C18.5833 15.8604 18.3243 16.4857 17.8633 16.9467C17.4023 17.4077 16.777 17.6667 16.125 17.6667H12C11.5858 17.6667 11.25 18.0025 11.25 18.4167C11.25 18.8309 11.5858 19.1667 12 19.1667H16.125C17.1748 19.1667 18.1816 18.7497 18.924 18.0073C19.6663 17.265 20.0833 16.2582 20.0833 15.2084C20.0833 14.1586 19.6663 13.1517 18.924 12.4094C18.1816 11.6671 17.1748 11.25 16.125 11.25H8.79168C8.13969 11.25 7.5144 10.991 7.05337 10.53C6.59235 10.069 6.33334 9.4437 6.33334 8.79171C6.33334 8.13972 6.59235 7.51443 7.05337 7.0534Z" fill="#101010"/>
</svg>
