<?xml version="1.0" encoding="UTF-8" standalone="no"?>
<!-- Uploaded to: SVG Repo, www.svgrepo.com, Generator: SVG Repo Mixer Tools -->

<svg
   fill="#ffffff"
   height="662.7403"
   width="663.6969"
   version="1.1"
   id="Capa_1"
   viewBox="0 0 405.68473 405.10001"
   xml:space="preserve"
   sodipodi:docname="list.svg"
   inkscape:version="1.1.2 (b8e25be833, 2022-02-05)"
   xmlns:inkscape="http://www.inkscape.org/namespaces/inkscape"
   xmlns:sodipodi="http://sodipodi.sourceforge.net/DTD/sodipodi-0.dtd"
   xmlns="http://www.w3.org/2000/svg"
   xmlns:svg="http://www.w3.org/2000/svg"><defs
   id="defs27" /><sodipodi:namedview
   id="namedview25"
   pagecolor="#ffffff"
   bordercolor="#666666"
   borderopacity="1.0"
   inkscape:pageshadow="2"
   inkscape:pageopacity="0.0"
   inkscape:pagecheckerboard="0"
   showgrid="false"
   inkscape:zoom="0.93303299"
   inkscape:cx="264.19216"
   inkscape:cy="263.12039"
   inkscape:window-width="1822"
   inkscape:window-height="1051"
   inkscape:window-x="-9"
   inkscape:window-y="-9"
   inkscape:window-maximized="1"
   inkscape:current-layer="g20" />
<g
   id="g22"
   transform="scale(0.70)">
	<g
   id="g20">
		<path
   d="m 339.4,102 c 0,-10 -8.1,-18.1 -18.1,-18.1 h -69.9 c -10,0 -18.1,8.1 -18.1,18.1 v 69.9 c 0,10 8.1,18.1 18.1,18.1 h 69.9 c 10,0 18.1,-8.1 18.1,-18.1 z"
   id="path905"
   style="fill:#ffffff" /><path
   d="m 189.31528,102.62552 c 0,-9.999999 -8.1,-18.099999 -18.1,-18.099999 h -69.9 c -9.999998,0 -18.099998,8.1 -18.099998,18.099999 v 69.9 c 0,10 8.1,18.1 18.099998,18.1 h 69.9 c 10,0 18.1,-8.1 18.1,-18.1 z"
   id="path905-3"
   style="fill:#ffffff" />
		<path
   d="m 488.9,102 c 0,-10 -8.1,-18.1 -18.1,-18.1 h -69.9 c -10,0 -18.1,8.1 -18.1,18.1 v 69.9 c 0,10 8.1,18.1 18.1,18.1 h 69.9 c 10,0 18.1,-8.1 18.1,-18.1 z"
   id="path902"
   style="fill:#ffffff" />
		<path
   d="m 339.4,251.5 c 0,-10 -8.1,-18.1 -18.1,-18.1 h -69.9 c -10,0 -18.1,8.1 -18.1,18.1 v 69.9 c 0,10 8.1,18.1 18.1,18.1 h 69.9 c 10,0 18.1,-8.1 18.1,-18.1 z"
   id="path899"
   style="fill:#ffffff" />
		<path
   d="m 488.9,251.5 c 0,-10 -8.1,-18.1 -18.1,-18.1 h -69.9 c -10,0 -18.1,8.1 -18.1,18.1 v 69.9 c 0,10 8.1,18.1 18.1,18.1 h 69.9 c 10,0 18.1,-8.1 18.1,-18.1 z"
   id="path896"
   style="fill:#ffffff" />
		<path
   d="m 189.9,251.5 c 0,-10 -8.1,-18.1 -18.1,-18.1 h -69.9 c -10,0 -18.1,8.1 -18.1,18.1 v 69.9 c 0,10 8.1,18.1 18.1,18.1 h 69.9 c 10,0 18.1,-8.1 18.1,-18.1 z"
   id="path893"
   style="fill:#ffffff" />
		<path
   d="m 321.3,382.9 h -69.9 c -10,0 -18.1,8.1 -18.1,18.1 v 69.9 c 0,10 8.1,18.1 18.1,18.1 h 69.9 c 10,0 18.1,-8.1 18.1,-18.1 V 401 c 0,-10 -8.1,-18.1 -18.1,-18.1 z"
   id="path890"
   style="fill:#ffffff" />
		<path
   d="m 400.9,489 h 69.9 c 10,0 18.1,-8.1 18.1,-18.1 V 401 c 0,-10 -8.1,-18.1 -18.1,-18.1 h -69.9 c -10,0 -18.1,8.1 -18.1,18.1 v 69.9 c 0,10 8.1,18.1 18.1,18.1 z"
   id="path887"
   style="fill:#ffffff" />
		<path
   d="m 171.8,382.9 h -69.9 c -10,0 -18.1,8.1 -18.1,18.1 v 69.9 c 0,10 8.1,18.1 18.1,18.1 h 69.9 c 10,0 18.1,-8.1 18.1,-18.1 V 401 c 0,-10 -8.1,-18.1 -18.1,-18.1 z"
   id="path884"
   style="fill:#ffffff" />
		
	</g>
</g>
</svg>
