<svg width="25" height="25" viewBox="0 0 25 25" fill="none" xmlns="http://www.w3.org/2000/svg">
<path d="M16.4535 5.08843C16.1654 4.97638 15.8453 4.97638 15.5651 5.08843L10.4509 7.13734C10.1627 7.24939 9.8426 7.24939 9.56247 7.13734L4.82437 5.2405C4.52023 5.12045 4.16807 5.26451 4.04002 5.57665C4.008 5.64868 4 5.72872 4 5.80075V17.3019C4 17.7901 4.29613 18.2383 4.75233 18.4144L9.55447 20.3352C9.8426 20.4473 10.1627 20.4473 10.4429 20.3352L15.5571 18.2863C15.8453 18.1742 16.1654 18.1742 16.4455 18.2863L21.1756 20.1751C21.4798 20.2952 21.8319 20.1511 21.96 19.839C21.992 19.767 22 19.6869 22 19.6149V8.12178C22 7.63356 21.7039 7.18536 21.2477 7.00929L16.4455 5.08843H16.4535Z" stroke="#f1f1f1" stroke-width="1.68964" stroke-linecap="round" stroke-linejoin="round"/>
<path d="M10.0025 7.2168V20.4227" stroke="#f1f1f1" stroke-width="1.68964" stroke-linecap="round" stroke-linejoin="round"/>
<path d="M16.0049 5V18.2059" stroke="#f1f1f1" stroke-width="1.68964" stroke-linecap="round" stroke-linejoin="round"/>
</svg>
