<svg width="25" height="25" viewBox="0 0 26 26" fill="none" xmlns="http://www.w3.org/2000/svg">
<circle cx="12.5" cy="12.5" r="12.5" fill="white"/>
<path fill-rule="evenodd" clip-rule="evenodd" d="M3.00001 17.4103C3.01523 17.3657 8.07215 9.10827 8.08498 9.10594C8.09254 9.10594 9.23519 10.9657 10.6248 13.2358C12.0142 15.5057 13.1595 17.3807 13.1671 17.4004C13.1775 17.4303 12.4825 17.4354 8.08498 17.4354C4.82999 17.4354 2.99484 17.4277 3.00001 17.4103ZM19.0995 12.189C17.3509 9.33206 15.9109 6.99734 15.8981 7C15.8698 7.00984 12.297 12.8354 12.2943 12.8754C12.2943 12.8927 12.9177 13.922 13.6763 15.1629L15.0608 17.4229L18.6772 17.4303C20.9571 17.4327 22.1855 17.4418 22.2889 17.4578V17.3799C22.2886 17.3833 22.2884 17.3855 22.2884 17.3855C22.2835 17.3855 20.8505 15.0483 19.0995 12.189Z" fill="#4992FF"/>
</svg>
