<?xml version="1.0" encoding="UTF-8" standalone="no"?>
<svg
   width="25"
   height="25"
   viewBox="0 0 26 26"
   fill="none"
   version="1.1"
   id="svg22"
   sodipodi:docname="logo_mapzssi.svg"
   inkscape:version="1.1.2 (b8e25be833, 2022-02-05)"
   xmlns:inkscape="http://www.inkscape.org/namespaces/inkscape"
   xmlns:sodipodi="http://sodipodi.sourceforge.net/DTD/sodipodi-0.dtd"
   xmlns="http://www.w3.org/2000/svg"
   xmlns:svg="http://www.w3.org/2000/svg">
  <defs
     id="defs26" />
  <sodipodi:namedview
     id="namedview24"
     pagecolor="#ffffff"
     bordercolor="#666666"
     borderopacity="1.0"
     inkscape:pageshadow="2"
     inkscape:pageopacity="0.0"
     inkscape:pagecheckerboard="0"
     showgrid="false"
     inkscape:zoom="11.425105"
     inkscape:cx="0.087526547"
     inkscape:cy="15.886068"
     inkscape:window-width="1822"
     inkscape:window-height="1051"
     inkscape:window-x="-9"
     inkscape:window-y="-9"
     inkscape:window-maximized="1"
     inkscape:current-layer="svg22" />
  <circle
     cx="12.742424"
     cy="12.954545"
     r="12.5"
     fill="#dddddd"
     id="circle2" />
  <g
     id="g1251"
     style="fill:#00adef;fill-opacity:1">
    <path
       style="fill:#00adef;fill-opacity:1;stroke-width:0.083856"
       d="m 15.220703,20.208716 c 0.12521,-0.01946 0.330098,-0.01946 0.455308,0 0.125209,0.01946 0.02276,0.03539 -0.227654,0.03539 -0.25042,0 -0.352864,-0.01592 -0.227654,-0.03539 z m -0.615701,-0.08213 c 0.05976,-0.02454 0.13116,-0.02152 0.158669,0.0067 0.02751,0.02823 -0.02139,0.0483 -0.108653,0.04461 -0.09644,-0.0041 -0.116054,-0.0242 -0.05002,-0.05132 z m 1.490099,0 c 0.05976,-0.02454 0.131159,-0.02152 0.158668,0.0067 0.02751,0.02823 -0.02139,0.0483 -0.108653,0.04461 -0.09644,-0.0041 -0.116054,-0.0242 -0.05002,-0.05132 z m 0.388046,-0.11186 c 0.227579,-0.100344 0.358284,-0.100344 0.206958,0 -0.0683,0.04529 -0.180053,0.08024 -0.248349,0.07767 -0.08188,-0.0031 -0.06778,-0.02954 0.04139,-0.07767 z m 0.379423,-0.115909 c 0.01897,-0.01703 0.127625,-0.07647 0.241452,-0.132099 0.195142,-0.09536 0.197784,-0.09359 0.04626,0.03097 -0.131874,0.108409 -0.401322,0.203122 -0.287717,0.101134 z m -4.063277,-0.77599 c -0.201083,-0.210233 -0.346979,-0.382242 -0.324214,-0.382242 0.02277,0 0.205914,0.172009 0.406997,0.382242 0.201083,0.210234 0.346979,0.382243 0.324214,0.382243 -0.02276,0 -0.205914,-0.172009 -0.406997,-0.382243 z m 5.129102,0.02124 c 0.34305,-0.375038 0.417375,-0.442474 0.417375,-0.378693 0,0.01363 -0.176949,0.195198 -0.39322,0.403478 l -0.39322,0.378693 z m -5.795163,-0.92041 c -0.05082,-0.09744 -0.07681,-0.19316 -0.05775,-0.212715 0.01906,-0.01956 0.07716,0.06017 0.129107,0.17716 0.114081,0.256913 0.05854,0.28459 -0.07136,0.03556 z m 6.518456,-0.119072 c 0.07572,-0.162928 0.152369,-0.281152 0.170331,-0.262722 0.03787,0.03886 -0.213432,0.558955 -0.270077,0.558955 -0.02086,0 0.02403,-0.133305 0.09975,-0.296233 z M 11.81243,17.331954 c 0.004,-0.09895 0.02359,-0.119082 0.05001,-0.05132 0.02391,0.06132 0.02097,0.13458 -0.0065,0.162807 -0.02751,0.02823 -0.04707,-0.02194 -0.04348,-0.111487 z m 7.119359,0 c 0.004,-0.09895 0.02359,-0.119082 0.05001,-0.05132 0.02391,0.06132 0.02097,0.13458 -0.0065,0.162807 -0.02751,0.02823 -0.04707,-0.02194 -0.04348,-0.111487 z m -7.181514,-0.842349 c 3.31e-4,-0.32703 0.01533,-0.450406 0.03325,-0.27417 0.01792,0.176236 0.01762,0.443806 -6.62e-4,0.594599 -0.01829,0.150794 -0.03295,0.0066 -0.03258,-0.320429 z m 7.285594,-0.04247 c 0,-0.350389 0.01461,-0.493729 0.03247,-0.318535 0.01786,0.175194 0.01786,0.461876 0,0.63707 -0.01786,0.175195 -0.03247,0.03185 -0.03247,-0.318535 z m -1.925312,-0.04955 c 0.004,-0.09896 0.02359,-0.119082 0.05001,-0.05132 0.02391,0.06132 0.02097,0.13458 -0.0065,0.162807 -0.02751,0.02823 -0.04707,-0.02194 -0.04348,-0.111487 z M 2.5972983,16.229222 C 2.1035489,15.954328 1.9566217,15.093803 2.3176937,14.591631 c 0.1912091,-0.26593 1.767183,-1.631354 2.8655404,-2.482704 0.8102387,-0.628026 1.3177812,-0.658957 1.9777523,-0.120528 0.1999135,0.163097 0.4115784,0.29654 0.4703666,0.29654 0.1385517,0 0.3581062,-0.323672 0.7202327,-1.061784 0.4124332,-0.840651 0.6047252,-1.058201 2.8608553,-3.2366446 2.325261,-2.2451953 2.536862,-2.4120475 3.058941,-2.4120475 0.632346,0 0.834307,0.201779 1.96572,1.9639557 0.653288,1.0174976 1.108285,1.6427186 1.240424,1.7044958 0.157491,0.07363 0.311448,0.073226 0.627565,-0.00165 1.230892,-0.2915357 1.443187,-0.1394584 2.765568,1.9811126 1.257035,2.015781 1.357602,2.212122 1.362183,2.659452 0.0083,0.809292 -0.604731,1.325032 -1.33054,1.119399 -0.400481,-0.113463 -0.643484,-0.400322 -1.60072,-1.889605 l -0.831637,-1.293873 -0.413916,0.0083 c -0.227654,0.0046 -0.600178,0.03587 -0.827832,0.06955 -0.345507,0.05112 -0.475486,0.02868 -0.786441,-0.135729 C 16.119914,11.5897 15.945339,11.372215 15.158615,10.161347 14.510275,9.1634681 14.196673,8.7522858 14.069795,8.7337316 13.867691,8.7041766 13.607216,8.9273271 11.823405,10.658233 L 10.64056,11.806021 9.8456888,13.425799 C 9.40851,14.316678 8.978806,15.140304 8.8907911,15.256079 8.6422468,15.583016 8.316242,15.766419 7.9825579,15.767031 7.5157352,15.767889 7.300112,15.648122 6.7655887,15.091072 6.4284204,14.739696 6.2095283,14.578393 6.0698697,14.578393 c -0.1326146,0 -0.5325761,0.269987 -1.1453814,0.773169 -0.5178862,0.425243 -1.0422056,0.826597 -1.1651542,0.891899 -0.2891847,0.153593 -0.8734431,0.146434 -1.1620358,-0.01424 z m 1.1035396,-0.104236 c 0.1600829,-0.08374 0.6615547,-0.459789 1.1143819,-0.835655 0.4528272,-0.375867 0.9106099,-0.731066 1.017295,-0.789332 0.2992985,-0.16346 0.5454371,-0.04766 0.9619192,0.452555 0.4505624,0.541146 0.857544,0.768563 1.2565187,0.70213 0.5569099,-0.09273 0.7201555,-0.309107 1.641782,-2.176117 l 0.8758203,-1.774217 1.576022,-1.514431 c 0.866812,-0.8329376 1.633562,-1.5474725 1.703888,-1.5878558 0.264641,-0.151964 0.528842,0.1276828 1.392939,1.4743718 0.565954,0.882038 0.970637,1.425013 1.141956,1.532197 0.305205,0.190948 0.831993,0.215719 1.454095,0.06837 0.352685,-0.08353 0.445529,-0.0777 0.618904,0.03886 0.112185,0.07542 0.54458,0.68711 0.960875,1.359301 0.887354,1.432806 1.175994,1.753127 1.636898,1.81656 0.864433,0.11897 1.357179,-0.736541 0.924943,-1.605895 C 21.725072,12.774956 20.104677,10.180744 19.776868,9.7601537 19.41069,9.2903318 19.029647,9.1649763 18.376702,9.299527 17.668585,9.445447 17.40543,9.4242572 17.212268,9.2057649 17.119338,9.1006483 16.614259,8.3434662 16.089871,7.5231382 15.565483,6.7028103 15.032132,5.961506 14.904646,5.8757955 14.536136,5.6280398 14.052696,5.6161168 13.696474,5.8459986 13.414764,6.027795 10.244682,9.0380617 9.2581911,10.060532 c -0.286964,0.29743 -0.5667503,0.720036 -0.8158799,1.232354 -0.3890995,0.800157 -0.6451585,1.161939 -0.8223878,1.161939 -0.055402,0 -0.2809454,-0.152806 -0.5012076,-0.339568 C 6.6151327,11.688265 6.3077207,11.622392 5.83328,11.839811 c -0.4065787,0.18632 -3.0722659,2.356816 -3.3661938,2.740873 -0.7178667,0.937991 0.1989808,2.08562 1.2337517,1.544302 z M 11.81243,15.633099 c 0.004,-0.09895 0.02359,-0.119081 0.05001,-0.05132 0.02391,0.06132 0.02097,0.134581 -0.0065,0.162807 -0.02751,0.02823 -0.04707,-0.02194 -0.04348,-0.111487 z m 7.119359,-0.08494 c 0.004,-0.09895 0.02359,-0.119081 0.05001,-0.05132 0.02391,0.06132 0.02097,0.134581 -0.0065,0.162807 -0.02751,0.02823 -0.04707,-0.02194 -0.04348,-0.111487 z m -7.036026,-0.205278 c -0.0025,-0.07008 0.03156,-0.184751 0.0757,-0.254829 0.09779,-0.155272 0.09779,-0.02116 0,0.212357 -0.04691,0.112018 -0.0727,0.126485 -0.0757,0.04247 z m 6.710299,-0.658307 c -0.09033,-0.216607 -0.08829,-0.221603 0.02811,-0.06871 0.06904,0.09069 0.12552,0.195803 0.12552,0.233592 0,0.129106 -0.05616,0.06883 -0.153625,-0.164885 z m -3.25601,-0.07926 c 0.05976,-0.02454 0.131159,-0.02152 0.158668,0.0067 0.02751,0.02823 -0.02139,0.0483 -0.108653,0.04461 -0.09644,-0.0041 -0.116054,-0.0242 -0.05002,-0.05132 z m -3.049926,-0.192072 c 0.04738,-0.09084 0.127057,-0.191102 0.177066,-0.222815 0.05001,-0.03171 0.0269,0.04261 -0.05136,0.165155 -0.1657,0.259488 -0.251505,0.298845 -0.125708,0.05766 z m 5.761442,-0.494223 c -0.244366,-0.291622 -0.299511,-0.385006 -0.137306,-0.232521 0.24563,0.230913 0.636517,0.723567 0.572016,0.720942 -0.01448,-5.95e-4 -0.210102,-0.220379 -0.43471,-0.488421 z m -5.345058,-0.05209 c 0.113827,-0.13173 0.318715,-0.318407 0.455307,-0.414837 0.295121,-0.208347 0.215763,-0.118992 -0.289741,0.326239 -0.247423,0.217922 -0.303024,0.247675 -0.165566,0.0886 z m 0.745049,-0.604335 c 0,-0.05812 0.506874,-0.315981 0.544744,-0.277123 0.01796,0.01843 -0.09726,0.09708 -0.256043,0.174775 -0.158785,0.0777 -0.288701,0.123751 -0.288701,0.102348 z m 3.228546,-0.298107 c -0.0683,-0.04529 -0.08692,-0.08234 -0.04139,-0.08234 0.04553,0 0.138662,0.03705 0.206958,0.08234 0.0683,0.04529 0.08692,0.08234 0.04139,0.08234 -0.04553,0 -0.138662,-0.03705 -0.206959,-0.08234 z m -2.333452,-0.142968 c 0.05976,-0.02454 0.131159,-0.02152 0.158668,0.0067 0.02751,0.02823 -0.02139,0.0483 -0.108653,0.04461 -0.09644,-0.0041 -0.116054,-0.0242 -0.05002,-0.05132 z m 1.986798,0 c 0.05976,-0.02454 0.131159,-0.02152 0.158668,0.0067 0.02751,0.02823 -0.02139,0.0483 -0.108653,0.04461 -0.09644,-0.0041 -0.116054,-0.0242 -0.05001,-0.05132 z m -1.660839,-0.08317 c 0.05691,-0.02357 0.150044,-0.02357 0.206958,0 0.05691,0.02356 0.01035,0.04284 -0.103479,0.04284 -0.113827,0 -0.160393,-0.01928 -0.103479,-0.04284 z m 1.241748,0 c 0.05691,-0.02357 0.150045,-0.02357 0.206959,0 0.05691,0.02356 0.01035,0.04284 -0.10348,0.04284 -0.113826,0 -0.160392,-0.01928 -0.103479,-0.04284 z"
       id="path1263" />
    <path
       style="fill:#00adef;fill-opacity:1;stroke-width:0.083856"
       d="m 14.891145,20.125749 c 0.08055,-0.02154 0.192303,-0.02012 0.24835,0.0032 0.05605,0.02327 -0.0099,0.04089 -0.146446,0.03916 -0.136592,-0.0017 -0.182449,-0.02077 -0.101904,-0.0423 z m 0.827833,0 c 0.08055,-0.02154 0.192303,-0.02012 0.248349,0.0032 0.05605,0.02327 -0.0099,0.04089 -0.146446,0.03916 -0.136592,-0.0017 -0.182449,-0.02077 -0.101903,-0.0423 z m -2.881405,-1.066627 -0.410805,-0.445949 0.434612,0.421521 c 0.239037,0.231836 0.434612,0.432513 0.434612,0.445949 0,0.06338 -0.07669,-0.0071 -0.458419,-0.421521 z m 4.80454,0.276064 c 0.08241,-0.09344 0.168462,-0.169885 0.191227,-0.169885 0.02277,0 -0.02603,0.07645 -0.108444,0.169885 -0.08241,0.09344 -0.168462,0.169886 -0.191228,0.169886 -0.02276,0 0.02604,-0.07645 0.108445,-0.169886 z m 0.496699,-0.509656 c 0.08241,-0.09344 0.168463,-0.169886 0.191228,-0.169886 0.02276,0 -0.02604,0.07645 -0.108444,0.169886 -0.08241,0.09344 -0.168463,0.169885 -0.191228,0.169885 -0.02276,0 0.02603,-0.07645 0.108444,-0.169885 z m -6.319847,-1.783798 c 0,-0.116796 0.01879,-0.164576 0.04176,-0.106178 0.02296,0.0584 0.02296,0.153959 0,0.212357 -0.02297,0.0584 -0.04176,0.01062 -0.04176,-0.106179 z m 7.112824,0.03539 c 0.004,-0.09895 0.02359,-0.119081 0.05001,-0.05132 0.02391,0.06132 0.02097,0.13458 -0.0065,0.162807 -0.02751,0.02822 -0.04707,-0.02194 -0.04348,-0.111488 z M 2.651748,16.117091 C 2.1605564,15.809749 2.0744897,15.093665 2.4670862,14.580684 c 0.2778811,-0.36309 2.9472197,-2.547571 3.3370223,-2.730888 0.1821231,-0.08565 0.4242641,-0.153985 0.5380911,-0.151857 0.1329707,0.0025 0.06847,0.04213 -0.1804216,0.110895 -0.2130588,0.05887 -0.5297048,0.216527 -0.7036576,0.350359 -0.8409838,0.647017 -2.8467894,2.356247 -2.9603994,2.52268 -0.3412228,0.499872 -0.1899717,1.147563 0.327061,1.400551 0.4424001,0.216469 0.7952863,0.05472 1.988376,-0.911414 0.7381337,-0.59772 1.1122231,-0.847445 1.2694779,-0.847445 0.1644951,0 0.3626447,0.144619 0.7557049,0.55155 0.2930125,0.303352 0.6551478,0.592998 0.8047452,0.643658 0.3323157,0.112534 0.7477794,-0.0064 0.9943416,-0.284539 0.091966,-0.103761 0.5300185,-0.925614 0.9734509,-1.82634 l 0.8062405,-1.637684 1.564998,-1.545534 c 0.860749,-0.8500435 1.652154,-1.5997966 1.758679,-1.6661178 0.403821,-0.2514157 0.571179,-0.1007558 1.521195,1.3694151 0.556635,0.8614057 0.995389,1.4494457 1.171311,1.5698487 0.317815,0.217517 0.644969,0.239725 1.345228,0.09132 0.38694,-0.08201 0.516974,-0.07953 0.685536,0.01303 0.1179,0.06474 0.601785,0.733902 1.116932,1.544591 0.99801,1.57057 1.203169,1.761855 1.772161,1.652328 0.32895,-0.06332 0.712088,-0.462599 0.72746,-0.758105 0.007,-0.13475 0.01954,-0.146 0.04639,-0.04166 0.05777,0.224495 -0.198828,0.647583 -0.484784,0.799315 -0.381321,0.202332 -0.850236,0.113162 -1.19193,-0.22666 -0.151888,-0.151057 -0.616767,-0.824623 -1.033063,-1.496815 -0.416295,-0.672191 -0.84869,-1.283877 -0.960875,-1.359301 -0.173375,-0.116563 -0.266219,-0.122393 -0.618904,-0.03886 -0.622102,0.147344 -1.14889,0.122573 -1.454095,-0.06837 -0.171319,-0.107184 -0.576002,-0.650159 -1.141956,-1.532197 -0.864097,-1.346689 -1.128298,-1.6263358 -1.392939,-1.4743718 -0.07033,0.040383 -0.837076,0.7549182 -1.703888,1.5878558 l -1.57602,1.514428 -0.8758203,1.774217 C 8.7711082,15.345577 8.6078626,15.561953 8.0509527,15.654684 7.651978,15.721117 7.2449964,15.4937 6.794434,14.952554 6.3779519,14.45234 6.1318133,14.336539 5.8325148,14.499999 5.7258297,14.558265 5.268047,14.913464 4.8152198,15.289331 3.585101,16.310384 3.1976107,16.45864 2.651748,16.117091 Z m 9.160682,-0.229164 c 0.004,-0.09895 0.02359,-0.119081 0.05001,-0.05132 0.02391,0.06132 0.02097,0.134581 -0.0065,0.162807 -0.02751,0.02823 -0.04707,-0.02194 -0.04348,-0.111487 z m 7.119359,-0.08494 c 0.004,-0.09895 0.02359,-0.119081 0.05001,-0.05132 0.02391,0.06132 0.02097,0.134581 -0.0065,0.162807 -0.02751,0.02823 -0.04707,-0.02194 -0.04348,-0.111488 z M 12.799293,13.85638 c 0.154455,-0.163515 0.299454,-0.2973 0.32222,-0.2973 0.02276,0 -0.08498,0.133785 -0.239437,0.2973 -0.154455,0.163514 -0.299454,0.297299 -0.32222,0.297299 -0.02276,0 0.08498,-0.133785 0.239437,-0.297299 z m 5.087275,-0.06371 -0.327238,-0.361007 0.351828,0.335774 c 0.327198,0.312267 0.389871,0.386239 0.327238,0.386239 -0.01353,0 -0.171848,-0.162453 -0.351828,-0.361006 z m 4.190984,-0.113257 c 0.004,-0.09895 0.02359,-0.119081 0.05001,-0.05132 0.02391,0.06132 0.02097,0.134581 -0.0065,0.162807 -0.02751,0.02823 -0.04707,-0.02194 -0.04348,-0.111487 z m -1.130088,-1.96671 C 20.404383,10.837351 19.837397,9.9486375 19.687496,9.7377843 l -0.272548,-0.3833696 0.272548,0.3084385 c 0.308544,0.3491748 2.368964,3.6413988 2.278949,3.6413988 -0.01736,0 -0.4759,-0.716197 -1.018981,-1.591549 z m -5.890752,1.023028 c 0.08055,-0.02154 0.192303,-0.02012 0.248349,0.0031 0.05605,0.02327 -0.0099,0.04089 -0.146446,0.03916 -0.136592,-0.0017 -0.182449,-0.02077 -0.101903,-0.04231 z m 0.496699,0 c 0.08055,-0.02154 0.192303,-0.02012 0.24835,0.0031 0.05605,0.02327 -0.0099,0.04089 -0.146446,0.03916 -0.136592,-0.0017 -0.182449,-0.02077 -0.101904,-0.04231 z M 7.1655756,12.225517 6.8802907,11.911266 7.1936084,12.183045 c 0.1723248,0.149479 0.3614066,0.27178 0.4201818,0.27178 0.1833683,0 0.435314,-0.353335 0.828521,-1.161939 0.2491296,-0.512318 0.5289159,-0.934924 0.8158799,-1.232354 1.0135359,-1.0505013 4.1591189,-4.0339874 4.4382829,-4.20957 0.176037,-0.110721 0.42468,-0.1869656 0.592917,-0.1818143 0.284381,0.00871 0.283061,0.010219 -0.07139,0.081708 -0.198623,0.04006 -0.479083,0.1651479 -0.623244,0.2779731 C 13.032168,6.4691287 9.084882,10.34857 8.8865094,10.65615 8.770904,10.835399 8.5381552,11.265649 8.3692899,11.612262 8.2004245,11.958875 8.0047464,12.30936 7.9344496,12.391118 7.7345752,12.623578 7.476481,12.567989 7.1655756,12.225517 Z M 17.370373,9.4531154 C 17.266448,9.3939156 16.676758,8.5693136 16.059951,7.6206666 15.443144,6.6720197 14.980603,5.922564 15.032082,5.9552098 c 0.05148,0.032646 0.55157,0.7725978 1.111312,1.6443377 0.559742,0.87174 1.080071,1.6380358 1.156286,1.7028798 0.0998,0.084912 0.259736,0.1027791 0.571636,0.06386 1.108942,-0.1383761 1.234019,-0.1320462 0.515846,0.026106 -0.896281,0.1973741 -0.788224,0.1909209 -1.016789,0.060722 z"
       id="path1261" />
    <path
       style="fill:#00adef;fill-opacity:1;stroke-width:0.083856"
       d="m 15.305061,20.125749 c 0.08055,-0.02154 0.192303,-0.02012 0.24835,0.0032 0.05605,0.02327 -0.0099,0.04089 -0.146446,0.03916 -0.136592,-0.0017 -0.182449,-0.02077 -0.101904,-0.0423 z m -0.617275,-0.0841 c 0.05976,-0.02454 0.131159,-0.02152 0.158668,0.0067 0.02751,0.02822 -0.02139,0.0483 -0.108653,0.04461 -0.09644,-0.0041 -0.116054,-0.0242 -0.05002,-0.05132 z m -1.485137,-0.685224 c -0.102971,-0.134724 -0.100043,-0.137729 0.03126,-0.03207 0.07968,0.06412 0.144871,0.131011 0.144871,0.14865 0,0.06991 -0.06798,0.02491 -0.176127,-0.116579 z m 5.749101,-2.909289 c 0,-0.30367 0.01502,-0.427899 0.03339,-0.276064 0.01836,0.151835 0.01836,0.400293 0,0.552128 -0.01836,0.151835 -0.03339,0.02761 -0.03339,-0.276064 z m -7.129718,0.212357 c 0.0017,-0.140156 0.02024,-0.187209 0.04123,-0.104562 0.02099,0.08265 0.01961,0.197319 -0.0031,0.254828 -0.02268,0.05751 -0.03985,-0.01011 -0.03816,-0.150266 z m -0.0031,-0.467185 c 0,-0.116796 0.01879,-0.164577 0.04176,-0.106178 0.02296,0.0584 0.02296,0.153958 0,0.212356 -0.02296,0.0584 -0.04176,0.01062 -0.04176,-0.106178 z M 2.7345313,16.032148 C 2.2821982,15.74912 2.1829266,15.188146 2.4969789,14.689762 2.701413,14.365335 5.7628565,11.860225 5.9548968,11.860225 c 0.046505,0 -0.080154,0.112869 -0.2814662,0.250819 -0.5750327,0.394044 -2.876715,2.340978 -3.07812,2.603702 -0.373311,0.486969 -0.1354447,1.22146 0.4373796,1.350555 0.3405065,0.07674 0.6940109,-0.112017 1.6130515,-0.861299 1.5020241,-1.22458 1.4735946,-1.219819 2.2723155,-0.380519 0.3529983,0.370933 0.6491383,0.60572 0.8096199,0.641887 0.3522905,0.07939 0.8202983,-0.139055 0.9964166,-0.465093 C 8.9450603,14.591214 9.098492,14.415548 8.9441959,14.748278 8.7499075,15.16725 8.514657,15.407841 8.1926494,15.516885 7.7730458,15.658979 7.4456154,15.503819 6.8383408,14.875115 6.443229,14.46606 6.247536,14.323565 6.0808802,14.323565 c -0.1591381,0 -0.5148557,0.236186 -1.2190082,0.809389 -1.3227142,1.076729 -1.6335954,1.208133 -2.1273407,0.899194 z M 16.596762,15.109285 c -0.102971,-0.134724 -0.100043,-0.137729 0.03126,-0.03207 0.137896,0.110967 0.181749,0.180721 0.113615,0.180721 -0.01719,0 -0.08238,-0.06689 -0.144871,-0.14865 z m 4.102463,-0.430987 c -0.156942,-0.10115 -0.592695,-0.698778 -1.138794,-1.561836 -0.507303,-0.801745 -0.974102,-1.447153 -1.094482,-1.513259 -0.170623,-0.0937 -0.299263,-0.09633 -0.687419,-0.01407 -0.700259,0.148409 -1.027413,0.126201 -1.345228,-0.09132 C 16.25738,11.377419 15.818626,10.789379 15.261991,9.9279733 14.313134,8.4595976 14.144357,8.307304 13.742899,8.5572486 c -0.105367,0.065601 -0.881225,0.7993205 -1.724127,1.6304884 -1.143591,1.127669 -1.60638,1.644861 -1.823446,2.0378 -0.159991,0.289623 -0.2914683,0.490586 -0.2921703,0.446585 -7.037e-4,-0.044 0.1439933,-0.330682 0.3215453,-0.63707 0.306871,-0.529543 0.782408,-1.024593 3.007116,-3.1305065 0.62255,-0.5893073 0.904336,-0.6683821 1.196816,-0.3358511 0.09246,0.1051166 0.549119,0.774725 1.014806,1.4880186 0.57476,0.880359 0.928578,1.34034 1.101618,1.432157 0.253592,0.134558 0.466291,0.132365 1.46958,-0.01515 0.517408,-0.07608 0.650827,0.05336 1.554383,1.507998 0.934725,1.504818 1.142227,1.724091 1.631539,1.724091 0.264963,0 0.422479,-0.05561 0.594743,-0.209961 l 0.234323,-0.209961 -0.215023,0.237541 c -0.28525,0.315124 -0.763667,0.381552 -1.115377,0.154872 z M 9.6535295,13.13938 c 0,-0.04396 0.036826,-0.103283 0.081835,-0.131826 0.046927,-0.02976 0.060805,0.0043 0.032535,0.07993 -0.055034,0.147157 -0.1143698,0.174081 -0.1143698,0.0519 z m -2.528001,-0.875624 c -0.4050257,-0.439624 -0.4055201,-0.440819 -0.035146,-0.08494 0.5991096,0.575659 0.75638,0.505989 1.2789076,-0.566551 0.1688653,-0.346613 0.4005038,-0.775141 0.5147522,-0.952286 0.1142484,-0.177144 1.0849386,-1.1722241 2.1570897,-2.211288 2.1183,-2.05293 2.738135,-2.6193969 2.866174,-2.6193969 0.04571,0 -0.03513,0.089518 -0.179659,0.1989286 -0.365565,0.2767406 -4.2220978,3.9947103 -4.5447393,4.3814483 -0.145015,0.173824 -0.4745071,0.724802 -0.7322044,1.224394 -0.4203162,0.814859 -0.624843,1.075591 -0.8437286,1.075591 -0.038853,0 -0.2555037,-0.200654 -0.481446,-0.445897 z M 6.1973289,11.801672 c 0.079679,-0.02136 0.2100625,-0.02136 0.2897414,0 0.079679,0.02137 0.014487,0.03885 -0.1448707,0.03885 -0.1593578,0 -0.2245496,-0.01748 -0.1448707,-0.03885 z M 17.381538,9.5671702 c -0.09778,-0.04039 -0.204329,-0.1174963 -0.236765,-0.1713475 -0.03291,-0.054643 0.05378,-0.038081 0.196183,0.037478 0.202762,0.1075876 0.327878,0.118176 0.60929,0.051564 0.410939,-0.097271 0.700355,-0.1038346 0.395524,-0.00897 -0.409289,0.1273738 -0.789663,0.1633803 -0.964232,0.091276 z m 1.358418,-0.2303608 c 0.102975,-0.020318 0.251985,-0.019546 0.331133,0.00171 0.07915,0.02126 -0.0051,0.037884 -0.187227,0.036941 C 18.701738,9.374522 18.636981,9.357127 18.739956,9.3368094 Z M 14.9024,5.9779409 14.744699,5.7868198 14.930961,5.9486347 c 0.102445,0.088998 0.186263,0.1750026 0.186263,0.1911211 0,0.067976 -0.06662,0.017792 -0.214824,-0.1618149 z"
       id="path1259" />
    <path
       style="fill:#00adef;fill-opacity:1;stroke-width:0.083856"
       d="m 15.758794,20.043415 c 0.05691,-0.02356 0.150045,-0.02356 0.206958,0 0.05691,0.02356 0.01035,0.04284 -0.103479,0.04284 -0.113827,0 -0.160393,-0.01928 -0.103479,-0.04284 z m 2.090277,-1.005528 c 0.154455,-0.163515 0.299454,-0.2973 0.32222,-0.2973 0.02276,0 -0.08498,0.133785 -0.239437,0.2973 -0.154455,0.163514 -0.299454,0.297299 -0.32222,0.297299 -0.02276,0 0.08498,-0.133785 0.239437,-0.297299 z M 12.835477,18.97418 12.592335,18.698116 12.86138,18.9476 c 0.250789,0.232555 0.307097,0.302643 0.243142,0.302643 -0.01425,0 -0.135317,-0.124228 -0.269045,-0.276063 z M 2.9066948,16.027061 C 2.4123763,15.819462 2.2554457,15.158086 2.5953106,14.714746 c 0.201405,-0.262724 2.5030873,-2.209658 3.07812,-2.603702 0.2548147,-0.174613 0.4678132,-0.250819 0.7010544,-0.250819 0.2925032,0 0.3901311,0.05583 0.7690746,0.439832 0.4193605,0.424955 0.4418494,0.435946 0.6648691,0.324948 0.1269551,-0.06319 0.2615357,-0.107267 0.2990682,-0.09796 0.037532,0.0093 0.044045,-0.02324 0.014473,-0.07234 -0.069026,-0.114599 0.7244338,-1.64202 1.0648822,-2.049914 0.3513567,-0.4209627 4.2206259,-4.139742 4.5818959,-4.4036879 0.329672,-0.2408619 0.830754,-0.2809747 1.061087,-0.084943 0.08109,0.069016 0.66049,0.913792 1.287551,1.87728 0.815898,1.2536382 1.195363,1.7660254 1.334406,1.8018336 0.106864,0.02752 0.416917,-0.0045 0.689008,-0.071152 0.702568,-0.172107 1.132096,-0.1607499 1.337242,0.035358 0.09355,0.089429 0.700762,1.0114253 1.349359,2.0488823 1.345744,2.152568 1.415223,2.34556 1.011381,2.809327 -0.215078,0.246994 -0.304243,0.288113 -0.624763,0.288113 -0.504647,0 -0.703583,-0.2085 -1.644999,-1.724091 -0.903556,-1.454637 -1.036975,-1.584075 -1.554383,-1.507998 -1.003289,0.147517 -1.215988,0.14971 -1.46958,0.01515 -0.17304,-0.09182 -0.526858,-0.551798 -1.101618,-1.432157 C 14.977752,9.3434194 14.521089,8.673811 14.428633,8.5686944 14.096395,8.1909607 13.875069,8.2935073 12.778648,9.333179 c -2.349565,2.227957 -2.35094,2.229655 -3.1476383,3.88613 -0.902551,1.87656 -0.9924458,2.02105 -1.353792,2.175968 -0.464966,0.199343 -0.7323606,0.08685 -1.3591605,-0.571794 -0.7987209,-0.8393 -0.7702914,-0.844061 -2.2723155,0.380519 -1.0403303,0.848168 -1.3407281,0.990341 -1.7390469,0.823059 z M 7.0742616,14.736608 C 6.876516,14.496597 6.6149639,14.181247 6.4930345,14.035831 L 6.2713447,13.771437 6.0917656,13.95194 5.9121867,14.132444 h 0.2245265 c 0.1645528,0 0.359965,0.138971 0.7315739,0.520274 0.2788761,0.286151 0.5202019,0.520274 0.5362797,0.520274 0.016078,0 -0.1325596,-0.196373 -0.3303052,-0.436384 z M 20.532695,14.217386 c -0.0319,-0.0584 -0.466983,-0.765546 -0.966861,-1.57144 -0.914218,-1.47389 -0.979649,-1.541076 -1.344238,-1.38032 -0.136344,0.06012 -0.140685,0.07406 -0.02459,0.07897 0.368147,0.01559 0.586512,0.257228 1.4346,1.587494 0.487909,0.76531 0.903303,1.391472 0.923096,1.391472 0.01979,0 0.0099,-0.04778 -0.02201,-0.106179 z M 8.0777144,12.690238 c 0.00161,-0.03404 -0.090198,-0.01835 -0.2040247,0.03487 -0.232847,0.10886 -0.2507387,0.160473 -0.1068193,0.308147 0.07833,0.08037 0.1227641,0.06095 0.2040247,-0.08919 0.057137,-0.105567 0.1052058,-0.21979 0.1068193,-0.253827 z m 8.0868206,-1.82809 c -0.640168,-1.0376686 -1.893573,-2.9545601 -1.94208,-2.9701148 -0.03148,-0.010095 -0.128795,0.082201 -0.216253,0.2051034 -0.08746,0.122902 -0.118523,0.1977807 -0.06903,0.166397 0.250215,-0.1586755 0.542178,0.1436673 1.318708,1.3655915 0.753069,1.1850079 1.00717,1.5515589 1.075574,1.5515589 0.01628,0 -0.05883,-0.143341 -0.166915,-0.318536 z"
       id="path1257" />
    <path
       style="fill:#00adef;fill-opacity:1;stroke-width:0.083856"
       d="m 15.179311,20.039724 c 0.102444,-0.02025 0.270081,-0.02025 0.372525,0 0.102444,0.02025 0.01863,0.03681 -0.186262,0.03681 -0.204889,0 -0.288707,-0.01657 -0.186263,-0.03681 z M 6.8682871,14.652718 C 6.5077612,14.282787 6.2991203,14.132444 6.1462713,14.132444 c -0.1182326,0 -0.1951439,-0.03291 -0.170914,-0.07314 0.1096566,-0.182057 0.5186268,-0.0062 0.8257281,0.355087 0.1759585,0.206998 0.3933268,0.462364 0.4830408,0.567481 0.3112177,0.36465 0.088575,0.18842 -0.4158391,-0.329154 z M 19.631605,12.932093 c -0.848088,-1.330266 -1.066453,-1.571903 -1.4346,-1.587494 -0.115093,-0.0049 -0.110578,-0.01854 0.02459,-0.07445 0.09265,-0.03832 0.209539,-0.03247 0.265419,0.01328 0.05492,0.04497 0.144493,0.05345 0.199053,0.01885 0.06076,-0.03854 0.07753,-0.02693 0.04328,0.02994 -0.03076,0.05107 -0.0056,0.123864 0.05592,0.161774 0.158766,0.09785 1.865112,2.829567 1.767466,2.829567 -0.01871,0 -0.433214,-0.626162 -0.921123,-1.391472 z m -6.749529,0.924287 c 0.154455,-0.163515 0.299454,-0.2973 0.32222,-0.2973 0.02277,0 -0.08498,0.133785 -0.239437,0.2973 -0.154455,0.163514 -0.299454,0.297299 -0.322219,0.297299 -0.02277,0 0.08498,-0.133785 0.239436,-0.297299 z m 4.960729,-0.02124 -0.200692,-0.233593 0.227654,0.205928 c 0.212777,0.192471 0.265617,0.261258 0.200692,0.261258 -0.01483,0 -0.117272,-0.105117 -0.227654,-0.233593 z M 7.6667315,12.874971 c 0,-0.02921 0.093131,-0.09665 0.2069582,-0.149863 0.1258966,-0.05886 0.2069581,-0.0642 0.2069581,-0.01363 0,0.04572 -0.039451,0.08312 -0.087669,0.08312 -0.048218,0 -0.069579,0.03003 -0.04747,0.06674 0.02211,0.03671 -0.03157,0.06674 -0.1192892,0.06674 -0.087719,0 -0.1594887,-0.0239 -0.1594887,-0.05311 z m 8.5106705,-1.842937 c -0.06845,-0.08176 -0.483133,-0.713067 -0.921526,-1.4029089 -0.779573,-1.2267114 -1.062325,-1.5183938 -1.325261,-1.3671122 -0.07285,0.041912 -0.07318,0.02957 -0.0014,-0.050302 0.06173,-0.068671 0.163485,-0.082053 0.289741,-0.038104 0.107027,0.037256 0.225304,0.059218 0.262836,0.048805 0.03753,-0.010414 0.04661,0.016973 0.02018,0.060859 -0.02643,0.043886 -0.01667,0.092613 0.0217,0.108283 0.100648,0.041106 1.881768,2.7891301 1.80776,2.7891301 -0.01628,0 -0.0856,-0.06689 -0.154048,-0.14865 z"
       id="path1255" />
    <path
       style="fill:#00adef;fill-opacity:1;stroke-width:0.083856"
       d="m 14.323582,19.864562 c -1.688963,-0.61814 -2.660363,-2.270013 -2.36704,-4.025167 0.324723,-1.943037 2.182378,-3.324652 4.003044,-2.977232 1.521646,0.29036 2.645242,1.464098 2.907937,3.037705 0.254071,1.521951 -0.581963,3.11992 -1.98577,3.795537 -0.48878,0.235237 -0.669267,0.27498 -1.350613,0.297402 -0.599372,0.01972 -0.886611,-0.01078 -1.207558,-0.128245 z m 1.829143,-1.792048 c 0.699014,-0.325839 1.089828,-1.0466 1.008094,-1.859183 -0.147832,-1.469718 -1.851049,-2.155395 -2.932915,-1.180725 -0.747163,0.673131 -0.8027,1.889051 -0.120383,2.635672 0.491968,0.538334 1.380694,0.713991 2.045204,0.404236 z M 6.2775157,14.040077 c -0.1038722,-0.05917 -0.1628553,-0.134265 -0.1310734,-0.166876 0.098496,-0.101066 0.1863347,-0.06619 0.2785405,0.110593 0.1029178,0.19732 0.1012425,0.197959 -0.1474671,0.05628 z m 1.4719991,-1.066508 c 0,-0.04172 0.053981,-0.09711 0.1199589,-0.123088 0.080177,-0.03157 0.1046933,-0.0064 0.073926,0.07585 -0.050247,0.134356 -0.1938853,0.169349 -0.1938853,0.04723 z m 10.8446052,-1.623 c -0.139764,-0.112177 -0.166388,-0.166721 -0.082,-0.167997 0.06873,-0.001 0.171487,0.07456 0.228356,0.167997 0.12715,0.208911 0.113932,0.208911 -0.146355,0 z M 14.266317,8.213905 C 14.081331,8.0922743 14.057935,8.044218 14.146843,7.9685061 c 0.08566,-0.072948 0.143177,-0.03749 0.255408,0.157459 0.07967,0.1383845 0.133431,0.2488139 0.119475,0.2453989 -0.01396,-0.00341 -0.128891,-0.074272 -0.255409,-0.157459 z"
       id="path1253" />
  </g>
  <path
     style="fill:#000000;stroke-width:0.083856"
     d="m 14.699278,19.983918 c -1.087684,-0.240382 -2.01654,-1.00858 -2.499216,-2.066943 -0.855339,-1.875498 0.123028,-4.244027 2.035048,-4.926654 0.579531,-0.206903 1.764179,-0.206903 2.34371,0 1.912021,0.682627 2.890387,3.051156 2.035048,4.926654 -0.493458,1.082006 -1.38155,1.818862 -2.480034,2.057703 -0.659896,0.14348 -0.822408,0.144527 -1.434556,0.0092 z m 1.468092,-1.9305 c 0.618952,-0.307446 1.02066,-0.978288 1.018626,-1.701083 -9.35e-4,-0.333116 -0.316813,-1.070533 -0.549269,-1.282277 -0.0878,-0.07997 -0.340782,-0.227628 -0.562191,-0.328123 -0.965134,-0.438061 -2.098737,0.134138 -2.372758,1.197677 -0.384226,1.491273 1.120967,2.781707 2.465592,2.113806 z M 6.8550546,14.622485 C 6.6185235,14.366424 6.3308623,14.132677 6.2158075,14.103047 6.0489169,14.060067 6.0258559,14.025388 6.1017614,13.931541 c 0.052329,-0.0647 0.1228243,-0.117633 0.1566553,-0.117633 0.033831,0 0.292617,0.286682 0.5750803,0.637071 0.2824632,0.350389 0.4996296,0.63707 0.4825919,0.63707 -0.017038,0 -0.2245031,-0.209504 -0.4610343,-0.465564 z M 19.898148,13.325488 c -1.067096,-1.711437 -1.166007,-1.842913 -1.459736,-1.940328 -0.217374,-0.07209 -0.248217,-0.105292 -0.1381,-0.14865 0.286932,-0.112979 0.365539,-0.03559 1.00021,0.984722 0.355993,0.572302 0.772234,1.241226 0.92498,1.486498 0.152746,0.245272 0.257766,0.445949 0.233376,0.445949 -0.02439,0 -0.276718,-0.372686 -0.56073,-0.828191 z M 7.7478545,13.0049 c -0.057594,-0.07121 -0.090095,-0.1381 -0.072224,-0.14865 0.4080349,-0.240896 0.3998171,-0.241585 0.3089434,0.0259 -0.099477,0.292802 -0.099267,0.292694 -0.2367196,0.122754 z M 15.355014,9.7578927 C 14.733813,8.794247 14.418334,8.3817099 14.227113,8.2829904 13.975207,8.1529415 13.969196,8.138919 14.109485,8.008647 c 0.139458,-0.1294997 0.201596,-0.052482 1.095188,1.3574366 1.049994,1.6566924 1.09413,1.7296574 1.046254,1.7296574 -0.01842,0 -0.42158,-0.602032 -0.895913,-1.3378483 z"
     id="path1213" />
  <path
     style="fill:#ff0000;stroke-width:0.083856"
     d="m 14.699278,19.983918 c -1.087684,-0.240382 -2.01654,-1.00858 -2.499216,-2.066943 -0.855339,-1.875498 0.123028,-4.244027 2.035048,-4.926654 0.579531,-0.206903 1.764179,-0.206903 2.34371,0 1.912021,0.682627 2.890387,3.051156 2.035048,4.926654 -0.493458,1.082006 -1.38155,1.818862 -2.480034,2.057703 -0.659896,0.14348 -0.822408,0.144527 -1.434556,0.0092 z m 1.468092,-1.9305 c 0.618952,-0.307446 1.02066,-0.978288 1.018626,-1.701083 -9.35e-4,-0.333116 -0.316813,-1.070533 -0.549269,-1.282277 -0.0878,-0.07997 -0.340782,-0.227628 -0.562191,-0.328123 -0.965134,-0.438061 -2.098737,0.134138 -2.372758,1.197677 -0.384226,1.491273 1.120967,2.781707 2.465592,2.113806 z M 6.8550546,14.622485 C 6.6185235,14.366424 6.3308623,14.132677 6.2158075,14.103047 6.0489169,14.060067 6.0258559,14.025388 6.1017614,13.931541 c 0.052329,-0.0647 0.1228243,-0.117633 0.1566553,-0.117633 0.033831,0 0.292617,0.286682 0.5750803,0.637071 0.2824632,0.350389 0.4996296,0.63707 0.4825919,0.63707 -0.017038,0 -0.2245031,-0.209504 -0.4610343,-0.465564 z M 19.898148,13.325488 c -1.067096,-1.711437 -1.166007,-1.842913 -1.459736,-1.940328 -0.217374,-0.07209 -0.248217,-0.105292 -0.1381,-0.14865 0.286932,-0.112979 0.365539,-0.03559 1.00021,0.984722 0.355993,0.572302 0.772234,1.241226 0.92498,1.486498 0.152746,0.245272 0.257766,0.445949 0.233376,0.445949 -0.02439,0 -0.276718,-0.372686 -0.56073,-0.828191 z M 7.7478545,13.0049 c -0.057594,-0.07121 -0.090095,-0.1381 -0.072224,-0.14865 0.4080349,-0.240896 0.3998171,-0.241585 0.3089434,0.0259 -0.099477,0.292802 -0.099267,0.292694 -0.2367196,0.122754 z M 15.355014,9.7578927 C 14.733813,8.794247 14.418334,8.3817099 14.227113,8.2829904 13.975207,8.1529415 13.969196,8.138919 14.109485,8.008647 c 0.139458,-0.1294997 0.201596,-0.052482 1.095188,1.3574366 1.049994,1.6566924 1.09413,1.7296574 1.046254,1.7296574 -0.01842,0 -0.42158,-0.602032 -0.895913,-1.3378483 z"
     id="path1193" />
</svg>
