<?xml version="1.0" encoding="UTF-8" standalone="no"?>
<!-- Created with Inkscape (http://www.inkscape.org/) -->

<svg
   width="139.93622mm"
   height="139.84599mm"
   viewBox="0 0 139.93622 139.84599"
   version="1.1"
   id="svg5"
   inkscape:version="1.1.2 (b8e25be833, 2022-02-05)"
   sodipodi:docname="logo_camptocamp.svg"
   xmlns:inkscape="http://www.inkscape.org/namespaces/inkscape"
   xmlns:sodipodi="http://sodipodi.sourceforge.net/DTD/sodipodi-0.dtd"
   xmlns="http://www.w3.org/2000/svg"
   xmlns:svg="http://www.w3.org/2000/svg">
  <sodipodi:namedview
     id="namedview7"
     pagecolor="#ffffff"
     bordercolor="#666666"
     borderopacity="1.0"
     inkscape:pageshadow="2"
     inkscape:pageopacity="0.0"
     inkscape:pagecheckerboard="0"
     inkscape:document-units="mm"
     showgrid="false"
     inkscape:zoom="0.76435185"
     inkscape:cx="270.16354"
     inkscape:cy="145.87523"
     inkscape:window-width="1822"
     inkscape:window-height="1051"
     inkscape:window-x="-9"
     inkscape:window-y="-9"
     inkscape:window-maximized="1"
     inkscape:current-layer="layer1" />
  <defs
     id="defs2" />
  <g
     inkscape:label="Ebene 1"
     inkscape:groupmode="layer"
     id="layer1"
     transform="translate(-33.576927,-110.07693)">
    <g
       id="g1170"
       transform="translate(-0.50929483,16.615384)">
      <path
         style="fill:#fefefe;stroke-width:0.264583"
         d="m 34.871475,158.53846 v -34.66042 h 69.320835 69.32082 v 34.66042 34.66041 H 104.19231 34.871475 Z"
         id="path1186" />
      <path
         style="fill:#fdcea0;stroke-width:0.264583"
         d="m 168.07647,192.55516 c -0.32275,-0.49258 -0.35494,-0.7686 -0.13713,-1.17559 0.24293,-0.45392 0.17784,-0.5829 -0.44422,-0.88012 -2.12515,-1.01538 -0.0127,-5.34092 3.05314,-6.25171 2.19701,-0.65268 2.92823,0.0456 2.84957,2.72122 -0.0975,3.31604 -0.92323,5.08914 -2.71958,5.8397 -1.35211,0.56495 -2.11416,0.4907 -2.60178,-0.2535 z m 2.65984,-5.97087 c 0.12903,-0.63984 0.10146,-0.84427 -0.0892,-0.66146 -0.47653,0.45694 -1.08236,1.80328 -0.9256,2.05694 0.24204,0.39161 0.81264,-0.39306 1.01479,-1.39548 z m -29.32595,3.79236 c -0.097,-0.097 -0.17639,-4.80381 -0.17639,-10.45954 0,-11.12057 0.0249,-11.3388 1.44173,-12.6474 0.70186,-0.64824 0.8123,-0.66298 5.5242,-0.73739 5.5947,-0.0883 6.20309,0.0866 7.26214,2.08817 0.59853,1.13121 0.61306,1.32199 0.53576,7.03108 -0.0737,5.44091 -0.11909,5.92136 -0.62362,6.59643 -1.05026,1.40526 -2.29869,1.81258 -5.87198,1.91581 l -3.24115,0.0936 v 2.83029 c 0,1.84857 -0.11013,2.94043 -0.3175,3.1478 -0.33582,0.33583 -4.21764,0.45666 -4.53319,0.14111 z m 9.36558,-11.74827 c 0.29899,-0.47246 0.31809,-6.34002 0.0222,-6.80652 -0.15534,-0.24487 -0.81477,-0.32036 -2.31106,-0.26458 l -2.09369,0.0781 -0.0739,3.5114 c -0.0723,3.43612 -0.0609,3.5169 0.52917,3.76783 0.88026,0.37433 3.6364,0.17349 3.92729,-0.28618 z m 2.0115,11.74827 c -0.73042,-0.73042 0.73686,-2.62963 1.8213,-2.35746 0.48019,0.12053 0.64815,0.0558 0.64815,-0.24978 0,-0.77899 1.05428,-2.47802 1.97202,-3.17802 0.50522,-0.38535 1.39029,-0.7639 1.96683,-0.84123 0.92998,-0.12474 1.15497,-0.0369 1.99428,0.77818 0.52032,0.50533 0.94603,1.04855 0.94603,1.20716 0,0.695 0.54454,0.53045 0.87705,-0.26503 0.51111,-1.22274 1.04327,-1.57929 2.21334,-1.48294 1.00334,0.0826 1.01123,0.0922 1.09093,1.33098 0.0865,1.3453 -0.27568,2.32411 -0.86008,2.32411 -0.21746,0 -0.43478,0.41712 -0.53913,1.03477 -0.34917,2.06673 -2.13752,2.57637 -2.64683,0.75428 -0.25632,-0.91702 -0.30011,-0.95121 -0.60111,-0.46923 -0.47728,0.76425 -2.27246,1.5906 -3.45546,1.5906 -0.66443,0 -1.37908,-0.23557 -2.00666,-0.66146 -1.13701,-0.77159 -1.2158,-0.78935 -1.2158,-0.27389 0,0.67171 -1.70515,1.25866 -2.20486,0.75896 z m 6.82007,-1.99915 c 0.57316,-0.8183 0.51583,-1.37876 -0.22927,-2.24148 l -0.64115,-0.74236 -0.28489,0.74483 c -0.37635,0.98393 -0.36165,2.11529 0.0326,2.50955 0.44879,0.44879 0.6534,0.39949 1.12271,-0.27054 z m -72.544057,-3.48644 -0.995105,-0.91194 v -6.7612 -6.76119 l 0.733118,-0.73362 0.733118,-0.73361 h 4.823131 4.823132 l 0.07979,1.69291 c 0.04388,0.93111 -0.04311,1.81582 -0.193317,1.96603 -0.159975,0.15998 -1.346433,0.24659 -2.864155,0.20909 -1.425074,-0.0352 -2.918772,0.0606 -3.319324,0.21286 l -0.728276,0.27689 0.07306,4.03882 0.07306,4.03881 3.158524,0.075 c 1.836721,0.0436 3.308487,0.19943 3.516868,0.37237 0.25124,0.2085 0.335245,0.81875 0.281059,2.04169 l -0.07729,1.7443 -4.561144,0.0724 -4.561144,0.0724 z m 14.879897,-0.92536 c -3.048384,-0.78079 -4.081095,-2.56946 -4.094576,-7.09183 -0.01823,-6.11525 1.570519,-7.4875 8.668816,-7.4875 3.13041,0 3.5331,-0.0497 3.39156,-0.41851 -0.0883,-0.23019 -0.1606,-0.46831 -0.1606,-0.52917 0,-0.0609 -2.53603,-0.11065 -5.63562,-0.11065 -4.03049,0 -5.726054,-0.0904 -5.953125,-0.3175 -0.428807,-0.42881 -0.428807,-4.75703 0,-5.18583 0.406787,-0.40679 12.847075,-0.44272 14.292515,-0.0413 1.1883,0.33003 2.445,1.34316 3.06043,2.46727 0.39665,0.72451 0.45351,1.72416 0.45351,7.97213 0,8.15229 -0.0859,8.53967 -2.22834,10.05417 l -1.12288,0.79375 -4.93897,0.0491 c -2.71644,0.027 -5.29616,-0.0424 -5.73272,-0.15418 z m 7.82551,-6.13646 c 0.36364,-0.57444 0.28744,-1.99226 -0.1255,-2.33496 -0.24041,-0.19953 -1.28175,-0.28028 -2.97656,-0.23084 l -2.60679,0.0761 -0.0868,0.75957 c -0.13649,1.19429 0.1626,1.96935 0.81484,2.11159 1.23774,0.26993 4.73818,0.002 4.98081,-0.38142 z m 7.83852,6.20693 c -0.10225,-0.10225 -0.18591,-3.41238 -0.18591,-7.35584 0,-7.99795 0.077,-8.39751 1.85195,-9.60906 0.79113,-0.54002 1.18184,-0.59515 4.20645,-0.59357 2.82404,0.002 3.45041,0.0783 4.09298,0.50191 0.73223,0.48275 0.78754,0.48369 1.5875,0.0271 0.61022,-0.34834 1.61596,-0.50732 3.81314,-0.60276 3.70247,-0.16083 4.8512,0.27104 5.81722,2.18703 0.58465,1.15958 0.59771,1.36533 0.52917,8.33437 l -0.0703,7.14545 h -2.38124 -2.38125 l -0.0713,-5.93226 c -0.0476,-3.95752 -0.17188,-6.05341 -0.37338,-6.29621 -0.20216,-0.24359 -0.74727,-0.33798 -1.64846,-0.28544 l -1.34642,0.0785 -0.13229,6.21771 -0.13229,6.21771 h -2.38125 -2.38125 l -0.13229,-6.13011 c -0.0728,-3.37156 -0.21237,-6.20991 -0.31023,-6.30745 -0.24517,-0.24435 -2.55889,-0.2595 -2.80079,-0.0183 -0.10795,0.10763 -0.25581,2.95424 -0.32857,6.3258 l -0.13229,6.1301 -2.26149,0.0757 c -1.24381,0.0416 -2.34514,-0.008 -2.44739,-0.11024 z m -46.699657,-1.73813 c -0.515866,-0.51587 -0.384974,-1.0478 0.970217,-3.94295 3.197124,-6.83016 3.833603,-9.48978 3.855899,-16.11247 0.0086,-2.54661 -0.07862,-5.18011 -0.193762,-5.85221 l -0.209351,-1.22201 -1.866363,-0.13354 c -1.427118,-0.10211 -1.997591,-0.26476 -2.423956,-0.69113 l -0.557594,-0.55759 0.792917,-1.12818 c 0.436102,-0.6205 0.966284,-1.15101 1.178184,-1.17891 0.211897,-0.0279 0.938104,-0.1232 1.613791,-0.2118 l 1.228527,-0.16108 0.184338,-1.24479 c 0.514731,-3.47587 3.193893,-6.41618 4.581736,-5.02834 0.447842,0.44784 0.39647,1.03818 -0.205856,2.36558 -0.529191,1.16624 -0.729197,3.40234 -0.304319,3.40234 0.12686,0 1.361406,-0.28684 2.743433,-0.63742 2.702123,-0.68545 6.114134,-2.14163 7.506475,-3.20362 0.473665,-0.36129 1.039106,-0.65688 1.256535,-0.65688 0.495694,0 1.492065,1.23938 1.492065,1.85598 0,1.31427 -6.405697,4.76225 -10.782585,5.80391 -0.764434,0.18193 -1.453248,0.43331 -1.530697,0.55863 -0.07745,0.12531 0.170609,1.27421 0.551241,2.5531 0.917461,3.08259 1.151882,7.37209 0.54393,9.9529 -0.957463,4.06453 -3.502667,8.59822 -7.563643,13.47287 -1.947738,2.338 -2.285177,2.57359 -2.861162,1.99761 z m -5.079999,-18.17475 c 0,-6.04336 0.0043,-6.08949 0.635862,-6.82373 0.583274,-0.67809 0.816364,-0.74743 2.81831,-0.83834 2.737305,-0.12431 4.080364,0.24842 4.614079,1.28051 0.470334,0.90952 0.569272,6.86226 0.127767,7.68722 -0.423669,0.79163 -1.29785,1.13464 -3.301227,1.29533 l -1.852083,0.14855 -0.132292,1.5875 -0.132292,1.5875 -1.389062,0.08 -1.389062,0.08 z m 5.291666,-2.392 c 0,-1.60189 -0.06704,-1.85554 -0.529167,-2.00221 -0.291041,-0.0924 -0.767291,-0.0924 -1.058333,0 -0.462129,0.14667 -0.529167,0.40032 -0.529167,2.00221 v 1.83425 h 1.058334 1.058333 z m 15.167022,6.22917 c -2.806115,-0.91116 -4.054665,-2.4794 -4.054314,-5.0924 5.3e-4,-4.46293 4.717283,-9.22845 9.448879,-9.54674 1.332722,-0.0896 1.931231,-0.0186 2.321356,0.27532 0.504336,0.38004 0.506638,0.41712 0.05677,0.91422 -0.454302,0.502 -0.445052,0.52288 0.2973,0.67135 1.30747,0.2615 2.382033,1.39837 2.853001,3.01844 1.413886,4.8636 -2.550696,9.86763 -7.966056,10.05461 -1.024315,0.0354 -2.345885,-0.0964 -2.956935,-0.2948 z m 5.554442,-3.59199 c 1.364422,-1.62153 1.137256,-4.26872 -0.524123,-6.10767 -0.578041,-0.63982 -0.88034,-1.1991 -0.783932,-1.45034 0.0863,-0.2249 0.783985,-0.70086 1.550401,-1.05767 1.096721,-0.51059 1.24956,-0.6493 0.717677,-0.65133 -1.046689,-0.004 -3.035565,1.40926 -3.784002,2.68886 -1.339998,2.29098 -1.518952,5.26313 -0.402363,6.68264 0.791525,1.00626 2.333736,0.95631 3.226342,-0.10449 z m -55.798955,2.06965 c -0.302153,-0.14664 -0.689106,-0.65305 -0.859896,-1.12536 -0.423158,-1.17022 -0.416835,-9.48546 0.0081,-10.66061 0.414686,-1.1468 1.328888,-1.40196 5.029868,-1.40388 3.131574,-0.002 3.382747,0.13288 3.382747,1.81157 0,1.54493 -0.126432,1.62653 -2.52021,1.62653 -1.209456,0 -2.387342,0.0723 -2.617526,0.1606 -0.347567,0.13338 -0.418514,0.66896 -0.418514,3.15939 0,1.64933 0.09525,3.05765 0.211669,3.1296 0.116418,0.0719 1.336809,0.15595 2.711979,0.18666 l 2.50031,0.0558 0.141122,-1.19935 c 0.155591,-1.32233 0.538757,-1.93096 1.404125,-2.23037 0.497275,-0.17205 0.451261,-0.2163 -0.354622,-0.34097 -0.908627,-0.14058 -0.92754,-0.16924 -1.005722,-1.5239 -0.07441,-1.28923 -0.03486,-1.39187 0.597368,-1.55055 0.372377,-0.0935 1.998108,-0.12471 3.612737,-0.0695 2.82771,0.0968 2.959013,0.1276 3.569819,0.83771 0.601504,0.69929 0.634131,0.92128 0.634131,4.31469 v 3.57747 l -0.773398,0.7734 c -0.75325,0.75325 -0.843381,0.7734 -3.459935,0.7734 -2.605315,0 -2.7095,-0.023 -3.446005,-0.75947 l -0.759466,-0.75946 -0.264751,0.75946 -0.264751,0.75947 -3.254909,-0.0179 c -1.7902,-0.01 -3.502125,-0.13788 -3.804277,-0.28451 z m 12.852492,-3.26946 c 0,-0.28663 -0.293981,-0.39687 -1.058333,-0.39687 -0.764352,0 -1.058334,0.11024 -1.058334,0.39687 0,0.28663 0.293982,0.39688 1.058334,0.39688 0.764352,0 1.058333,-0.11025 1.058333,-0.39688 z m 3.880555,3.39549 c -0.09701,-0.097 -0.175943,-1.97225 -0.1754,-4.16719 8.74e-4,-3.48225 0.06637,-4.09802 0.51404,-4.83221 0.416798,-0.68356 0.742425,-0.87581 1.735683,-1.02476 0.672448,-0.10084 1.721053,-0.0978 2.330232,0.007 1.308949,0.22472 1.687499,0.22376 3.657635,-0.009 1.938333,-0.22922 3.281176,0.2039 3.811453,1.22935 0.315418,0.60994 0.383842,1.61841 0.326128,4.8066 l -0.07304,4.03472 -1.144032,0.0823 c -1.788168,0.12866 -1.898676,-0.0864 -1.898676,-3.69489 0,-2.56852 -0.07398,-3.17929 -0.400243,-3.30449 -0.923154,-0.35425 -1.16884,0.37597 -1.245467,3.70173 l -0.07408,3.21534 h -1.322916 -1.322917 l -0.132292,-3.22908 c -0.134235,-3.27651 -0.36508,-4.00349 -1.17284,-3.69353 -0.343082,0.13166 -0.41466,0.68205 -0.41466,3.1885 0,1.66615 -0.07227,3.2177 -0.160599,3.44788 -0.115099,0.29995 -0.514883,0.41852 -1.411111,0.41852 -0.687781,0 -1.329887,-0.0794 -1.426901,-0.17639 z m 80.918404,-6.81312 c -9.0474,-2.41746 -15.4694,-4.66703 -21.00692,-7.35852 l -3.80899,-1.85135 -0.95351,0.57726 c -2.73798,1.65761 -7.2947,3.45129 -8.767757,3.45129 -0.997587,0 -1.843034,-0.41901 -1.843034,-0.91342 0,-0.95843 1.034362,-2.71531 1.757775,-2.9856 3.017796,-1.12754 5.149446,-2.0165 5.562356,-2.31966 0.44879,-0.32951 0.31557,-0.52094 -1.7807,-2.55884 -2.940358,-2.8585 -4.649381,-5.31943 -6.858228,-9.87561 -1.399355,-2.88645 -2.151925,-4.0917 -3.409045,-5.45967 -1.784229,-1.94154 -3.549941,-3.18803 -5.4976,-3.88098 -1.744149,-0.62054 -1.945391,-0.77711 -1.945391,-1.51357 0,-0.84533 0.708353,-1.18432 2.474777,-1.18432 3.097361,0 6.116312,1.19206 9.558192,3.77413 2.548657,1.91199 4.247635,3.64452 8.136605,8.29732 4.48302,5.36353 6.2523,7.24313 6.81796,7.24313 0.25972,0 0.9262,-0.59531 1.48108,-1.32291 1.11635,-1.46386 1.6154,-1.60324 2.77752,-0.77574 1.18931,0.84687 0.98283,1.84255 -0.77851,3.75404 -0.40366,0.43808 -0.57237,0.81753 -0.42244,0.95014 0.68123,0.60257 4.46175,3.30998 6.33502,4.53681 2.16569,1.41834 10.34408,5.52395 15.07757,7.56905 1.45319,0.62785 2.6852,1.27068 2.73782,1.42852 0.0526,0.15783 0.0222,0.57951 -0.0675,0.93707 -0.21697,0.86446 -0.49928,0.83821 -5.57704,-0.51857 z m 24.20937,-1.49827 c -2.11005,-0.27509 -5.7273,-0.86596 -8.03833,-1.31303 -11.90686,-2.30342 -18.02341,-5.49874 -22.61303,-11.81318 -2.46443,-3.39059 -4.56685,-4.92389 -8.03051,-5.85665 -1.41043,-0.37983 -1.68114,-0.54803 -1.75836,-1.09256 -0.056,-0.39468 0.0915,-0.77726 0.3813,-0.98916 0.66456,-0.48594 4.18764,-0.44006 5.9458,0.0774 2.30932,0.67971 5.9348,2.68723 8.507,4.71054 7.08194,5.57068 7.7094,5.99595 12.07958,8.18714 5.90604,2.96126 8.08164,3.75719 16.43004,6.0109 2.91518,0.78698 3.62709,1.26789 3.16236,2.13623 -0.32779,0.6125 -0.97254,0.60637 -6.06585,-0.0577 z M 54.357698,154.08487 c -0.477399,-0.52835 -0.475166,-0.58612 0.0881,-2.27874 0.567155,-1.7043 0.613233,-1.75706 2.474192,-2.83278 7.461348,-4.31302 16.543941,-11.99654 19.580754,-16.56456 1.459521,-2.19543 2.005827,-2.38724 3.212383,-1.12787 l 0.755239,0.78831 -0.993912,2.32055 c -0.546653,1.2763 -1.173496,2.73727 -1.392986,3.24659 -2.183419,5.06659 -11.314157,12.86196 -18.493761,15.78905 -2.916243,1.18894 -4.563868,1.39669 -5.230009,0.65945 z"
         id="path1184" />
      <path
         style="fill:#cfcece;stroke-width:0.264583"
         d="m 168.50779,192.71033 c -0.43016,-0.80377 -0.35295,-1.21438 0.37631,-2.00126 0.79416,-0.85692 1.23053,-0.69216 1.01542,0.38339 -0.20228,1.01141 0.34875,1.05366 0.729,0.0559 0.85308,-2.23849 0.52049,-2.70521 -1.08413,-1.52135 -1.61084,1.18844 -2.84628,0.6762 -2.56403,-1.06309 0.39947,-2.46161 3.34636,-4.55496 5.61179,-3.98637 0.59332,0.14892 0.68446,0.29965 0.62168,1.02828 -0.0405,0.46959 0.0126,0.99317 0.11785,1.1635 0.25581,0.41392 -0.23445,2.52445 -0.88065,3.7911 -0.5803,1.13749 -1.87857,2.2412 -2.95105,2.50879 -0.54818,0.13677 -0.76983,0.0566 -0.99219,-0.35888 z m 2.15741,-4.73698 c 0.22499,-0.25466 0.49203,-0.96904 0.59343,-1.5875 0.15067,-0.91904 0.10934,-1.12448 -0.22624,-1.12448 -0.53022,0 -1.75259,1.79595 -1.75259,2.57496 0,0.73559 0.78774,0.81349 1.3854,0.13702 z m -29.25484,2.4033 c -0.097,-0.097 -0.17639,-4.80381 -0.17639,-10.45954 0,-11.12057 0.0249,-11.3388 1.44173,-12.6474 0.70186,-0.64824 0.8123,-0.66298 5.5242,-0.73739 5.5947,-0.0883 6.20309,0.0866 7.26214,2.08817 0.59853,1.13121 0.61306,1.32199 0.53576,7.03108 -0.0737,5.44091 -0.11909,5.92136 -0.62362,6.59643 -1.05026,1.40526 -2.29869,1.81258 -5.87198,1.91581 l -3.24115,0.0936 v 2.83029 c 0,1.84857 -0.11013,2.94043 -0.3175,3.1478 -0.33582,0.33583 -4.21764,0.45666 -4.53319,0.14111 z m 9.36558,-11.74827 c 0.29899,-0.47246 0.31809,-6.34002 0.0222,-6.80652 -0.15534,-0.24487 -0.81477,-0.32036 -2.31106,-0.26458 l -2.09369,0.0781 -0.0739,3.5114 c -0.0723,3.43612 -0.0609,3.5169 0.52917,3.76783 0.88026,0.37433 3.6364,0.17349 3.92729,-0.28618 z m 2.44616,11.22724 c -0.22445,-0.58491 0.24248,-1.26813 0.93733,-1.3715 0.45408,-0.0676 0.56829,0.0502 0.56829,0.586 0,0.39216 -0.21247,0.78426 -0.51177,0.94444 -0.68503,0.36662 -0.79918,0.34836 -0.99385,-0.15894 z m 3.68642,0.0375 c -1.21104,-0.52633 -1.53838,-1.51336 -0.98363,-2.96596 0.4653,-1.21837 1.9126,-2.59942 2.92742,-2.79341 0.93484,-0.17871 0.96913,0.0593 0.12249,0.85017 -1.05033,0.98115 -1.51468,2.74445 -0.94978,3.6066 0.23049,0.35176 0.63599,0.63957 0.90113,0.63957 1.19427,0 1.77892,-1.92689 0.94562,-3.11659 -0.51894,-0.74089 -0.29682,-1.11674 0.66,-1.11674 0.98491,0 1.46726,0.63238 1.43453,1.88073 -0.0355,1.35429 -0.69111,2.28855 -2.03369,2.89813 -1.31214,0.59575 -1.87348,0.61756 -3.02409,0.1175 z m 5.84552,-0.0194 c -0.26301,-0.68539 0.10597,-3.2361 0.6204,-4.28873 0.4295,-0.87885 0.60263,-0.99382 1.60588,-1.06641 l 1.12448,-0.0814 -0.004,1.0074 c -0.005,1.26841 -0.40243,1.992 -0.77531,1.41194 -0.36588,-0.56917 -0.58815,-0.19816 -0.74051,1.23604 -0.13889,1.30741 -0.66794,2.19588 -1.30756,2.19588 -0.2003,0 -0.43579,-0.18664 -0.52333,-0.41476 z m -75.690587,-4.98263 -0.995105,-0.91195 v -6.76119 -6.76119 l 0.733118,-0.73362 0.733118,-0.73362 h 4.823131 4.823132 l 0.07979,1.69292 c 0.04388,0.93111 -0.04311,1.81582 -0.193317,1.96603 -0.159975,0.15997 -1.346433,0.24658 -2.864155,0.20908 -1.425074,-0.0352 -2.918772,0.0606 -3.319324,0.21287 l -0.728276,0.27688 0.07306,4.03882 0.07306,4.03881 3.158524,0.075 c 1.836721,0.0436 3.308487,0.19943 3.516868,0.37237 0.25124,0.2085 0.335245,0.81875 0.281059,2.04169 l -0.07729,1.7443 -4.561144,0.0724 -4.561144,0.0724 -0.995106,-0.91195 z m 14.879897,-0.92537 c -3.048384,-0.78079 -4.081095,-2.56946 -4.094576,-7.09183 -0.01823,-6.11525 1.570519,-7.4875 8.668816,-7.4875 3.13041,0 3.5331,-0.0497 3.39156,-0.41851 -0.0883,-0.23019 -0.1606,-0.46831 -0.1606,-0.52917 0,-0.0609 -2.53603,-0.11065 -5.63562,-0.11065 -4.03049,0 -5.726054,-0.0904 -5.953125,-0.3175 -0.428807,-0.42881 -0.428807,-4.75703 0,-5.18583 0.406787,-0.40679 12.847075,-0.44272 14.292515,-0.0413 1.1883,0.33003 2.445,1.34316 3.06043,2.46727 0.39665,0.72451 0.45351,1.72416 0.45351,7.97213 0,8.15229 -0.0859,8.53967 -2.22834,10.05417 l -1.12288,0.79375 -4.93897,0.0491 c -2.71644,0.027 -5.29616,-0.0424 -5.73272,-0.15418 z m 7.82551,-6.13646 c 0.36364,-0.57444 0.28744,-1.99226 -0.1255,-2.33496 -0.24041,-0.19953 -1.28175,-0.28028 -2.97656,-0.23084 l -2.60679,0.0761 -0.0868,0.75957 c -0.13649,1.19429 0.1626,1.96935 0.81484,2.11159 1.23774,0.26993 4.73818,0.002 4.98081,-0.38142 z m 7.83852,6.20693 c -0.10225,-0.10225 -0.18591,-3.41238 -0.18591,-7.35584 0,-7.99795 0.077,-8.39751 1.85195,-9.60906 0.79113,-0.54002 1.18184,-0.59515 4.20645,-0.59357 2.82404,0.002 3.45041,0.0783 4.09298,0.50191 0.73223,0.48275 0.78754,0.48369 1.5875,0.0271 0.61022,-0.34834 1.61596,-0.50732 3.81314,-0.60276 3.70247,-0.16083 4.8512,0.27104 5.81722,2.18703 0.58465,1.15958 0.59771,1.36533 0.52917,8.33437 l -0.0703,7.14545 h -2.38124 -2.38125 l -0.0713,-5.93226 c -0.0476,-3.95752 -0.17188,-6.05341 -0.37338,-6.29621 -0.20216,-0.24359 -0.74727,-0.33798 -1.64846,-0.28544 l -1.34642,0.0785 -0.13229,6.21771 -0.13229,6.21771 h -2.38125 -2.38125 l -0.13229,-6.13011 c -0.0728,-3.37156 -0.21237,-6.20991 -0.31023,-6.30745 -0.24517,-0.24435 -2.55889,-0.2595 -2.80079,-0.0183 -0.10795,0.10763 -0.25581,2.95424 -0.32857,6.3258 l -0.13229,6.1301 -2.26149,0.0757 c -1.24381,0.0416 -2.34514,-0.008 -2.44739,-0.11024 z m -46.646311,-2.3191 c -0.07794,-0.20312 0.210989,-1.06801 0.642074,-1.92199 2.604194,-5.15887 3.817049,-8.99179 4.549482,-14.37746 0.33483,-2.46205 -0.08773,-9.88054 -0.599062,-10.51719 -0.158779,-0.19768 -0.898194,-0.33072 -1.838132,-0.33072 -2.633257,0 -3.1878,-0.63348 -1.828429,-2.08869 0.629234,-0.6736 0.975032,-0.82246 1.918229,-0.82578 0.632838,-0.002 1.299263,-0.0984 1.480941,-0.21381 0.181679,-0.11536 0.459878,-0.91721 0.618221,-1.78188 0.397597,-2.17118 1.40984,-3.95176 2.555642,-4.49547 0.837686,-0.39751 0.959315,-0.39947 1.33723,-0.0216 0.377915,0.37792 0.361479,0.53156 -0.180721,1.68918 -0.328049,0.7004 -0.61794,1.86477 -0.644199,2.5875 l -0.04775,1.31405 1.332486,-0.0526 c 2.501731,-0.0987 7.662945,-2.05516 9.878039,-3.7444 l 0.891773,-0.68007 0.629581,0.73193 c 0.346268,0.40256 0.629579,0.84049 0.629579,0.97319 0,0.46288 -2.825134,2.36938 -5.042162,3.40262 -1.228632,0.5726 -3.305442,1.36611 -4.61513,1.76336 -1.309687,0.39725 -2.531837,0.86055 -2.715889,1.02955 -0.268351,0.24642 -0.227185,0.61911 0.207814,1.88143 0.643543,1.86748 1.31745,5.53829 1.31745,7.17621 0,1.74833 -0.739864,5.00876 -1.615191,7.11783 -1.071972,2.58287 -2.95521,5.54969 -5.655635,8.90979 -2.194647,2.73077 -2.899344,3.27474 -3.206244,2.47497 z m -5.133345,-17.59378 c 0,-6.04336 0.0043,-6.08949 0.635862,-6.82373 0.583274,-0.67809 0.816364,-0.74743 2.81831,-0.83834 2.737305,-0.12431 4.080364,0.24842 4.614079,1.28051 0.470334,0.90952 0.569272,6.86226 0.127767,7.68722 -0.423669,0.79163 -1.29785,1.13464 -3.301227,1.29533 l -1.852083,0.14855 -0.132292,1.5875 -0.132292,1.5875 -1.389062,0.08 -1.389062,0.08 z m 5.291666,-2.392 c 0,-1.60189 -0.06704,-1.85554 -0.529167,-2.00221 -0.291041,-0.0924 -0.767291,-0.0924 -1.058333,0 -0.462129,0.14667 -0.529167,0.40032 -0.529167,2.00221 v 1.83425 h 1.058334 1.058333 z m 15.560346,5.95884 c -3.583448,-1.03226 -4.92267,-3.5154 -3.753503,-6.95961 1.436277,-4.2311 6.321903,-7.63593 10.08145,-7.02584 1.147294,0.18618 0.989166,0.59886 -0.384932,1.00458 -3.08951,0.91223 -5.093208,3.74661 -5.097719,7.21113 -0.0039,3.00667 2.172785,4.70098 4.095946,3.18823 1.930365,-1.51843 1.950492,-4.74406 0.04371,-7.00523 -0.385855,-0.45757 -0.701553,-0.96941 -0.701553,-1.13742 0,-0.42516 2.07613,-1.32509 3.073172,-1.33212 1.022813,-0.007 2.166247,0.86285 2.647432,2.01449 0.485404,1.16173 0.462795,3.68328 -0.04642,5.17776 -1.233104,3.61897 -6.072878,5.98307 -9.957583,4.86403 z m -50.637837,-1.25201 c -0.302153,-0.14664 -0.689106,-0.65305 -0.859896,-1.12536 -0.423158,-1.17022 -0.416835,-9.48546 0.0081,-10.66061 0.414686,-1.1468 1.328888,-1.40196 5.029868,-1.40388 3.131574,-0.002 3.382747,0.13288 3.382747,1.81157 0,1.54493 -0.126432,1.62653 -2.52021,1.62653 -1.209456,0 -2.387342,0.0723 -2.617526,0.1606 -0.347567,0.13338 -0.418514,0.66896 -0.418514,3.15939 0,1.64933 0.09525,3.05765 0.211669,3.1296 0.116418,0.0719 1.336809,0.15595 2.711979,0.18666 l 2.50031,0.0558 0.141122,-1.19935 c 0.155591,-1.32233 0.538757,-1.93096 1.404125,-2.23037 0.497275,-0.17205 0.451261,-0.2163 -0.354622,-0.34097 -0.908627,-0.14058 -0.92754,-0.16924 -1.005722,-1.5239 -0.07441,-1.28923 -0.03486,-1.39187 0.597368,-1.55055 0.372377,-0.0935 1.998108,-0.12471 3.612737,-0.0695 2.82771,0.0968 2.959013,0.1276 3.569819,0.83771 0.601504,0.69929 0.634131,0.92128 0.634131,4.31469 v 3.57747 l -0.773398,0.7734 c -0.75325,0.75325 -0.843381,0.7734 -3.459935,0.7734 -2.605315,0 -2.7095,-0.023 -3.446005,-0.75947 l -0.759466,-0.75946 -0.264751,0.75946 -0.264751,0.75947 -3.254909,-0.0179 c -1.7902,-0.01 -3.502125,-0.13788 -3.804277,-0.28451 z m 12.852492,-3.26946 c 0,-0.28663 -0.293981,-0.39687 -1.058333,-0.39687 -0.764352,0 -1.058334,0.11024 -1.058334,0.39687 0,0.28663 0.293982,0.39688 1.058334,0.39688 0.764352,0 1.058333,-0.11025 1.058333,-0.39688 z m 3.880555,3.39549 c -0.09701,-0.097 -0.175943,-1.97225 -0.1754,-4.16719 8.74e-4,-3.48225 0.06637,-4.09802 0.51404,-4.83221 0.416798,-0.68356 0.742425,-0.87581 1.735683,-1.02476 0.672448,-0.10084 1.721053,-0.0978 2.330232,0.007 1.308949,0.22472 1.687499,0.22376 3.657635,-0.009 1.938333,-0.22922 3.281176,0.2039 3.811453,1.22935 0.315418,0.60994 0.383842,1.61841 0.326128,4.8066 l -0.07304,4.03472 -1.144032,0.0823 c -1.788168,0.12866 -1.898676,-0.0864 -1.898676,-3.69489 0,-2.56852 -0.07398,-3.17929 -0.400243,-3.30449 -0.923154,-0.35425 -1.16884,0.37597 -1.245467,3.70173 l -0.07408,3.21534 h -1.322916 -1.322917 l -0.132292,-3.22908 c -0.134235,-3.27651 -0.36508,-4.00349 -1.17284,-3.69353 -0.343082,0.13166 -0.41466,0.68205 -0.41466,3.1885 0,1.66615 -0.07227,3.2177 -0.160599,3.44788 -0.115099,0.29995 -0.514883,0.41852 -1.411111,0.41852 -0.687781,0 -1.329887,-0.0794 -1.426901,-0.17639 z m 83.167354,-6.61772 c -9.24255,-2.31775 -17.52859,-5.14377 -23.01875,-7.85075 -4.58554,-2.26094 -4.34541,-2.1547 -4.14787,-1.83509 0.3926,0.63525 -6.73331,3.94806 -9.093674,4.22761 -1.309126,0.15505 -2.368867,-0.21712 -2.368867,-0.83191 0,-0.95843 1.034362,-2.71531 1.757775,-2.9856 3.476876,-1.29907 5.290216,-2.09065 5.678336,-2.47876 0.25151,-0.25151 0.49698,-0.43341 0.54549,-0.40423 0.0485,0.0292 -0.99304,-1.02253 -2.31455,-2.33715 -2.87252,-2.85754 -4.676568,-5.46697 -6.579372,-9.51659 -1.624893,-3.45816 -2.960499,-5.38059 -4.955404,-7.13268 -1.443945,-1.26818 -4.179181,-2.80657 -4.990055,-2.80657 -0.644237,0 -1.122238,-0.67369 -0.923126,-1.30103 0.353377,-1.11339 2.877944,-1.06735 5.955408,0.10862 4.309081,1.64659 7.873862,4.61179 13.277669,11.04443 4.199,4.99845 6.89481,7.87506 7.38011,7.87506 0.15411,0 0.20661,-0.11906 0.11668,-0.26458 -0.0899,-0.14552 -0.0502,-0.26459 0.0882,-0.26459 0.13846,0 0.70573,-0.59531 1.26061,-1.32291 1.11635,-1.46386 1.6154,-1.60324 2.77752,-0.77574 1.21787,0.8672 0.98581,1.85999 -0.9071,3.88063 -0.441,0.47076 -0.75043,0.90478 -0.68762,0.9645 0.42747,0.40636 4.96526,3.66778 6.5965,4.74106 2.05223,1.35027 10.31066,5.48722 14.94896,7.48848 1.45521,0.62787 2.6807,1.30631 2.72333,1.50763 0.17783,0.84003 -0.5845,0.90604 -3.12021,0.27016 z m 21.96042,-1.69367 c -2.11005,-0.27509 -5.7273,-0.86596 -8.03833,-1.31303 -11.90686,-2.30342 -18.02341,-5.49874 -22.61303,-11.81318 -2.46443,-3.39059 -4.56685,-4.92389 -8.03051,-5.85665 -1.41043,-0.37983 -1.68114,-0.54803 -1.75836,-1.09256 -0.056,-0.39468 0.0915,-0.77726 0.3813,-0.98916 0.66456,-0.48594 4.18764,-0.44006 5.9458,0.0774 2.30932,0.67971 5.9348,2.68723 8.507,4.71054 7.08194,5.57068 7.7094,5.99595 12.07958,8.18714 5.90604,2.96126 8.08164,3.75719 16.43004,6.0109 2.91518,0.78698 3.62709,1.26789 3.16236,2.13623 -0.32779,0.6125 -0.97254,0.60637 -6.06585,-0.0577 z m -102.989058,-4.1442 c -0.576459,-0.13302 -0.585162,-0.78581 -0.03298,-2.474 0.359942,-1.10046 0.629488,-1.42971 1.653646,-2.01991 7.778738,-4.48275 17.204046,-12.3881 20.271868,-17.00276 0.678151,-1.02009 1.381696,-1.8547 1.563436,-1.8547 0.408768,0 1.481011,1.11211 1.481011,1.53607 0,0.2884 -0.922476,2.56562 -2.145496,5.29635 -1.772407,3.95739 -8.341034,10.17569 -14.390962,13.62344 -3.499824,1.99449 -7.030812,3.21156 -8.40052,2.89551 z"
         id="path1182" />
      <path
         style="fill:#fdac5a;stroke-width:0.264583"
         d="m 168.50779,192.71033 c -0.43016,-0.80377 -0.35295,-1.21438 0.37631,-2.00126 0.79416,-0.85692 1.23053,-0.69216 1.01542,0.38339 -0.20228,1.01141 0.34875,1.05366 0.729,0.0559 0.85308,-2.23849 0.52049,-2.70521 -1.08413,-1.52135 -1.61084,1.18844 -2.84628,0.6762 -2.56403,-1.06309 0.39947,-2.46161 3.34636,-4.55496 5.61179,-3.98637 0.59332,0.14892 0.68446,0.29965 0.62168,1.02828 -0.0405,0.46959 0.0126,0.99317 0.11785,1.1635 0.25581,0.41392 -0.23445,2.52445 -0.88065,3.7911 -0.5803,1.13749 -1.87857,2.2412 -2.95105,2.50879 -0.54818,0.13677 -0.76983,0.0566 -0.99219,-0.35888 z m 2.15741,-4.73698 c 0.22499,-0.25466 0.49203,-0.96904 0.59343,-1.5875 0.15067,-0.91904 0.10934,-1.12448 -0.22624,-1.12448 -0.53022,0 -1.75259,1.79595 -1.75259,2.57496 0,0.73559 0.78774,0.81349 1.3854,0.13702 z m -29.3066,1.71733 c -0.0854,-0.34042 -0.11866,-4.95885 -0.0738,-10.26319 0.0777,-9.19603 0.10729,-9.69343 0.63647,-10.70258 0.98517,-1.87872 1.72586,-2.11666 6.58878,-2.11666 4.65804,0 5.39004,0.20054 6.58693,1.80457 0.51981,0.69664 0.56217,1.13159 0.63726,6.54448 0.0913,6.57917 -0.0345,7.16493 -1.74367,8.1215 -1.28989,0.72191 -2.5869,0.95244 -5.48052,0.97411 l -2.38125,0.0178 -0.13229,3.04271 -0.13229,3.04271 -2.17512,0.0767 c -2.08866,0.0737 -2.18129,0.0521 -2.33046,-0.54221 z m 9.65564,-11.0265 c 0.15065,-0.28147 0.2739,-1.83711 0.2739,-3.45698 0,-1.61986 -0.12325,-3.1755 -0.2739,-3.45697 -0.23469,-0.43852 -0.56795,-0.51177 -2.32833,-0.51177 -1.24512,0 -2.17951,0.12507 -2.37194,0.3175 -0.4399,0.4399 -0.4399,6.86259 0,7.30249 0.19243,0.19243 1.12682,0.3175 2.37194,0.3175 1.76038,0 2.09364,-0.0733 2.32833,-0.51177 z m 2.20786,11.19144 c -0.22445,-0.58491 0.24248,-1.26813 0.93733,-1.3715 0.45408,-0.0676 0.56829,0.0502 0.56829,0.586 0,0.39216 -0.21247,0.78426 -0.51177,0.94444 -0.68503,0.36662 -0.79918,0.34836 -0.99385,-0.15894 z m 3.68642,0.0375 c -1.21104,-0.52633 -1.53838,-1.51336 -0.98363,-2.96596 0.4653,-1.21837 1.9126,-2.59942 2.92742,-2.79341 0.93484,-0.17871 0.96913,0.0593 0.12249,0.85017 -1.05033,0.98115 -1.51468,2.74445 -0.94978,3.6066 0.23049,0.35176 0.63599,0.63957 0.90113,0.63957 1.19427,0 1.77892,-1.92689 0.94562,-3.11659 -0.51894,-0.74089 -0.29682,-1.11674 0.66,-1.11674 0.98491,0 1.46726,0.63238 1.43453,1.88073 -0.0355,1.35429 -0.69111,2.28855 -2.03369,2.89813 -1.31214,0.59575 -1.87348,0.61756 -3.02409,0.1175 z m 5.84552,-0.0194 c -0.26301,-0.68539 0.10597,-3.2361 0.6204,-4.28873 0.4295,-0.87885 0.60263,-0.99382 1.60588,-1.06641 l 1.12448,-0.0814 -0.004,1.0074 c -0.005,1.26841 -0.40243,1.992 -0.77531,1.41194 -0.36588,-0.56917 -0.58815,-0.19816 -0.74051,1.23604 -0.13889,1.30741 -0.66794,2.19588 -1.30756,2.19588 -0.2003,0 -0.43579,-0.18664 -0.52333,-0.41476 z m -74.104375,-4.34108 c -1.05423,-0.25027 -1.557949,-0.65291 -2.135743,-1.70719 -0.380418,-0.69413 -0.445574,-1.68353 -0.445574,-6.76614 0,-4.35095 0.09112,-6.11261 0.338571,-6.5457 0.668697,-1.17036 1.775552,-1.47791 5.770507,-1.60339 4.644302,-0.14587 4.871129,-0.0562 4.871129,1.92508 0,0.85567 -0.132868,1.51477 -0.330729,1.64058 -0.181901,0.11566 -1.365205,0.17057 -2.629561,0.12202 -1.305256,-0.0501 -2.706111,0.0461 -3.241146,0.2227 l -0.942313,0.311 v 4.04812 c 0,3.01817 0.08834,4.12144 0.347204,4.33628 0.19494,0.16179 1.732349,0.32103 3.505729,0.36313 l 3.158525,0.075 0.0811,1.58011 c 0.111993,2.18195 -0.03931,2.2629 -4.166568,2.22927 -1.827577,-0.0149 -3.709088,-0.11878 -4.181133,-0.23084 z m 12.797525,-1.98287 c -1.454904,-0.5186 -2.707585,-1.83079 -3.051456,-3.19643 -0.366945,-1.45727 -0.37203,-5.76199 -0.0084,-7.07158 0.41374,-1.48987 1.641806,-2.72891 3.237576,-3.2665 1.06566,-0.35901 2.1672,-0.45563 4.87522,-0.42762 1.92418,0.0199 3.56679,-0.0743 3.65026,-0.20935 0.0835,-0.13505 0.023,-0.48613 -0.13437,-0.78018 -0.27339,-0.51084 -0.53765,-0.53463 -5.93705,-0.53463 -6.465619,0 -5.97212,0.21863 -5.97212,-2.64584 0,-2.88176 -0.609833,-2.64604 6.84133,-2.64435 3.91639,7.9e-4 6.9378,0.11743 7.56605,0.29185 1.33747,0.37133 2.65504,1.6889 3.02637,3.02637 0.17431,0.62785 0.28865,3.58416 0.28604,7.39592 -0.004,5.61764 -0.0608,6.47206 -0.49432,7.40834 -0.57032,1.23183 -1.69784,2.3612 -2.75676,2.76129 -1.13314,0.42813 -9.86242,0.34398 -11.12841,-0.10729 z m 8.58537,-5.733 c 0.35838,-0.66964 0.1432,-2.34315 -0.34078,-2.65023 -0.5492,-0.34847 -5.34772,-0.26982 -5.71114,0.0936 -0.38979,0.38979 -0.41528,1.91584 -0.0436,2.61031 0.24391,0.45576 0.57594,0.51177 3.0334,0.51177 2.54775,0 2.78273,-0.0434 3.06213,-0.56545 z m 7.84004,5.95547 c -0.1026,-0.1026 -0.18655,-3.3266 -0.18655,-7.16444 0,-6.34174 0.046,-7.0674 0.50399,-7.95955 0.86159,-1.67817 1.80458,-2.03998 5.31685,-2.03998 2.67203,0 3.15636,0.0707 3.97562,0.58026 l 0.93291,0.58025 0.91597,-0.58025 c 0.80811,-0.51194 1.28005,-0.58026 4.0079,-0.58026 3.36584,0 3.87566,0.18205 5.10021,1.82127 0.52023,0.69641 0.54551,1.0696 0.54551,8.05345 v 7.32319 h -2.11666 -2.11667 l -0.13229,-6.02934 c -0.10906,-4.97043 -0.202,-6.07333 -0.52917,-6.2798 -0.59799,-0.37738 -2.80123,-0.31205 -3.13742,0.093 -0.18852,0.22715 -0.31704,2.45128 -0.36313,6.28385 l -0.0713,5.93226 h -2.11667 -2.11667 l -0.13229,-5.95312 c -0.0728,-3.27422 -0.22862,-6.10195 -0.34634,-6.28386 -0.12757,-0.1971 -0.7894,-0.33072 -1.63803,-0.33072 -0.84864,0 -1.51047,0.13362 -1.63803,0.33072 -0.11773,0.18191 -0.27359,3.00964 -0.34635,6.28386 l -0.13229,5.95312 -1.99627,0.0763 c -1.09795,0.042 -2.08022,-0.008 -2.18281,-0.11024 z m -46.911531,-2.05515 c -0.07794,-0.20312 0.210989,-1.06801 0.642074,-1.92199 2.604194,-5.15887 3.817049,-8.99179 4.549482,-14.37746 0.33483,-2.46205 -0.08773,-9.88054 -0.599062,-10.51719 -0.158779,-0.19768 -0.898194,-0.33072 -1.838132,-0.33072 -2.633257,0 -3.1878,-0.63348 -1.828429,-2.08869 0.629234,-0.6736 0.975032,-0.82246 1.918229,-0.82578 0.632838,-0.002 1.299263,-0.0984 1.480941,-0.21381 0.181679,-0.11536 0.459878,-0.91721 0.618221,-1.78188 0.397597,-2.17118 1.40984,-3.95176 2.555642,-4.49547 0.837686,-0.39751 0.959315,-0.39947 1.33723,-0.0216 0.377915,0.37792 0.361479,0.53156 -0.180721,1.68918 -0.328049,0.7004 -0.61794,1.86477 -0.644199,2.5875 l -0.04775,1.31405 1.332486,-0.0526 c 2.501731,-0.0987 7.662945,-2.05516 9.878039,-3.7444 l 0.891773,-0.68007 0.629581,0.73193 c 0.346268,0.40256 0.629579,0.84049 0.629579,0.97319 0,0.46288 -2.825134,2.36938 -5.042162,3.40262 -1.228632,0.5726 -3.305442,1.36611 -4.61513,1.76336 -1.309687,0.39725 -2.531837,0.86055 -2.715889,1.02955 -0.268351,0.24642 -0.227185,0.61911 0.207814,1.88143 0.643543,1.86748 1.31745,5.53829 1.31745,7.17621 0,1.74833 -0.739864,5.00876 -1.615191,7.11783 -1.071972,2.58287 -2.95521,5.54969 -5.655635,8.90979 -2.194647,2.73077 -2.899344,3.27474 -3.206244,2.47497 z m -5.016648,-12.43092 c -0.08688,-0.34616 -0.118915,-2.93577 -0.07119,-5.75469 0.114282,-6.74949 0.272736,-6.98411 4.596741,-6.80654 2.118178,0.087 2.328773,0.14727 2.921286,0.83611 0.602914,0.70093 0.638545,0.93089 0.638545,4.12106 0,3.2841 -0.019,3.39655 -0.678201,4.01584 -0.563181,0.52909 -1.011901,0.65399 -2.645833,0.7365 l -1.967632,0.0994 v 1.27236 c 0,1.90167 -0.145587,2.10939 -1.478476,2.10939 -0.998042,0 -1.179009,-0.0866 -1.315243,-0.62939 z m 5.384535,-7.63884 0.07728,-2.05052 H 70.072185 68.73814 v 1.94028 c 0,1.06715 0.08498,2.02525 0.188838,2.12911 0.103863,0.10386 0.669409,0.15347 1.256771,0.11024 l 1.067933,-0.0786 z m 15.35078,6.04282 c -3.583448,-1.03226 -4.92267,-3.5154 -3.753503,-6.95961 1.436277,-4.2311 6.321903,-7.63593 10.08145,-7.02584 1.147294,0.18618 0.989166,0.59886 -0.384932,1.00458 -3.08951,0.91223 -5.093208,3.74661 -5.097719,7.21113 -0.0039,3.00667 2.172785,4.70098 4.095946,3.18823 1.930365,-1.51843 1.950492,-4.74406 0.04371,-7.00523 -0.385855,-0.45757 -0.701553,-0.96941 -0.701553,-1.13742 0,-0.42516 2.07613,-1.32509 3.073172,-1.33212 1.022813,-0.007 2.166247,0.86285 2.647432,2.01449 0.485404,1.16173 0.462795,3.68328 -0.04642,5.17776 -1.233104,3.61897 -6.072878,5.98307 -9.957583,4.86403 z M 36.12824,166.19018 c -1.066882,-0.62141 -1.256765,-1.59339 -1.256765,-6.43321 0,-4.51124 0.01619,-4.64741 0.63847,-5.37095 0.625968,-0.72782 0.702624,-0.74416 3.915001,-0.83423 3.728585,-0.10455 4.004774,0.0189 3.864122,1.72705 l -0.08322,1.01066 -2.38125,0.13667 c -1.309688,0.0752 -2.530078,0.23102 -2.711979,0.34634 -0.23414,0.14844 -0.330729,1.12411 -0.330729,3.34075 0,2.61106 0.06951,3.15775 0.418514,3.29168 0.230183,0.0883 1.40807,0.1606 2.617526,0.1606 2.345524,0 2.520209,0.10086 2.520209,1.45521 0,1.42158 -0.08356,1.4558 -3.534036,1.44716 -1.767061,-0.004 -3.4212,-0.12941 -3.675865,-0.27773 z m 8.3885,-0.36366 c -0.572048,-0.57204 -0.649432,-0.88182 -0.649432,-2.59971 0,-1.74814 0.06989,-2.01594 0.674343,-2.58379 0.546004,-0.51294 1.024374,-0.65329 2.513541,-0.73744 1.01156,-0.0572 1.839199,-0.20508 1.839199,-0.32872 0,-0.12364 -1.101328,-0.25903 -2.447396,-0.30087 l -2.447395,-0.0761 v -1.19062 -1.19063 l 2.381249,-0.0818 c 4.935127,-0.16951 5.447367,0.17565 5.637527,3.79867 0.155313,2.95909 -0.106987,4.53497 -0.884194,5.31218 -0.578251,0.57825 -0.840671,0.62824 -3.298124,0.62824 -2.481916,0 -2.715609,-0.0457 -3.319318,-0.64944 z m 4.642234,-2.65786 c 0,-0.60625 -0.09806,-0.66145 -1.17501,-0.66145 -1.217349,0 -1.623682,0.27835 -1.370281,0.93871 0.09888,0.25767 0.542296,0.3842 1.346362,0.3842 1.102469,0 1.198929,-0.0532 1.198929,-0.66146 z m 3.704167,-0.7996 v -4.13589 l 0.802746,-0.80275 c 0.786125,-0.78612 0.842279,-0.79927 2.711979,-0.63482 1.050078,0.0924 2.147358,0.16793 2.4384,0.16793 0.291041,0 1.388321,-0.0756 2.438399,-0.16793 1.872724,-0.16471 1.924714,-0.15244 2.718943,0.64178 l 0.80971,0.80971 -0.07311,4.04829 -0.07311,4.04828 h -1.190625 -1.190625 l -0.07154,-3.175 c -0.07598,-3.37178 -0.291346,-3.93418 -1.395961,-3.64532 -0.474309,0.12404 -0.51687,0.38139 -0.51687,3.12538 0,1.64461 -0.07227,3.17854 -0.160599,3.40872 -0.11188,0.29155 -0.504616,0.41852 -1.294609,0.41852 -0.789994,0 -1.18273,-0.12697 -1.29461,-0.41852 -0.08833,-0.23018 -0.160599,-1.76997 -0.160599,-3.42175 0,-2.69501 -0.05048,-3.01926 -0.491893,-3.15936 -1.198988,-0.38055 -1.340322,-0.0299 -1.41862,3.51924 l -0.07386,3.34809 -1.25677,0.0806 -1.256771,0.0806 z m 83.079159,-2.42263 c -9.2803,-2.32721 -17.53748,-5.14436 -23.11416,-7.88598 l -3.93187,-1.93299 -0.96292,0.65456 c -2.32853,1.58286 -7.20773,3.5231 -8.859677,3.5231 -1.352378,0 -1.644115,-0.52039 -1.096134,-1.95525 0.310187,-0.81222 0.667756,-1.25926 1.149676,-1.43736 3.921505,-1.44925 6.388005,-2.55218 6.388005,-2.85647 0,-0.0851 -1.111,-1.24397 -2.46889,-2.57523 -2.92099,-2.86372 -4.718903,-5.44657 -6.645512,-9.54685 -1.624893,-3.45816 -2.960499,-5.38059 -4.955404,-7.13268 -1.443945,-1.26818 -4.179181,-2.80657 -4.990055,-2.80657 -0.644237,0 -1.122238,-0.67369 -0.923126,-1.30103 0.353377,-1.11339 2.877944,-1.06735 5.955408,0.10862 4.309081,1.64659 7.873862,4.61179 13.277669,11.04443 4.08933,4.8679 6.89371,7.87506 7.34404,7.87506 0.13427,0 0.80357,-0.65484 1.48734,-1.45521 1.37027,-1.60391 1.86216,-1.75632 2.72033,-0.84284 0.79054,0.84149 0.7335,1.16032 -0.49825,2.78502 -0.58919,0.77716 -1.03517,1.50881 -0.99105,1.62589 0.10543,0.27982 4.05075,3.19289 6.5625,4.84551 2.05223,1.35027 10.31066,5.48722 14.94896,7.48848 1.45521,0.62787 2.6807,1.30631 2.72333,1.50763 0.17783,0.84003 -0.5845,0.90604 -3.12021,0.27016 z m 21.82813,-1.95441 c -4.68723,-0.62567 -11.35792,-1.91931 -14.31354,-2.77582 -7.94989,-2.30379 -12.05565,-4.98237 -16.30287,-10.63593 -2.61139,-3.47607 -4.24545,-4.54043 -8.87865,-5.78324 -0.55978,-0.15015 -0.68894,-0.90984 -0.23232,-1.36646 0.57072,-0.57072 3.54928,-0.5321 5.64184,0.0731 2.16572,0.62641 5.72001,2.51835 7.82012,4.16263 0.97923,0.76669 3.15147,2.47249 4.82718,3.79066 3.32229,2.61342 5.72249,4.0364 10.59032,6.27861 3.73067,1.7184 4.8607,2.11244 11.58321,4.03906 2.78304,0.7976 5.14408,1.58611 5.24676,1.75225 0.10268,0.16615 0.12544,0.46171 0.0506,0.6568 -0.17799,0.46384 -1.41635,0.42449 -6.03263,-0.19171 z M 54.913662,154.10858 c -0.576459,-0.13302 -0.585162,-0.78581 -0.03298,-2.474 0.359942,-1.10046 0.629488,-1.42971 1.653646,-2.01991 7.778738,-4.48275 17.204046,-12.3881 20.271868,-17.00276 0.678151,-1.02009 1.381696,-1.8547 1.563436,-1.8547 0.408768,0 1.481011,1.11211 1.481011,1.53607 0,0.2884 -0.922476,2.56562 -2.145496,5.29635 -1.772407,3.95739 -8.341034,10.17569 -14.390962,13.62344 -3.499824,1.99449 -7.030812,3.21156 -8.40052,2.89551 z"
         id="path1180" />
      <path
         style="fill:#a09f9f;stroke-width:0.264583"
         d="m 168.83389,192.96047 c -0.36192,-0.2661 -0.4054,-1.35781 -0.0702,-1.76175 0.47027,-0.56664 0.78066,-0.46269 0.78066,0.26146 0,0.35341 0.17408,0.81664 0.38684,1.02941 0.33941,0.3394 0.30906,0.40171 -0.24748,0.5081 -0.34888,0.0667 -0.73132,0.0499 -0.84986,-0.0372 z m 2.19323,-2.05803 c 0.44597,-1.48186 0.47486,-2.46607 0.0724,-2.46607 -0.20599,0 -0.2138,-0.10133 -0.0255,-0.33073 0.14932,-0.1819 0.35621,-1.01534 0.45976,-1.85208 0.15437,-1.24737 0.27809,-1.52136 0.68696,-1.52136 0.27427,0 0.5005,0.14883 0.50273,0.33073 0.003,0.22049 0.0896,0.19844 0.26053,-0.0661 0.19915,-0.30816 0.25739,-0.23074 0.26054,0.34634 0.002,0.42891 -0.10785,0.67407 -0.26054,0.5797 -0.14552,-0.0899 -0.26458,0.0887 -0.26458,0.39687 0,0.30822 0.10889,0.4931 0.24199,0.41085 0.32817,-0.20282 0.47074,0.31051 0.3378,1.21628 -0.0604,0.4118 -0.21562,0.68338 -0.34484,0.60352 -0.12922,-0.0799 -0.23495,0.0623 -0.23495,0.31604 0,0.71969 -1.05738,2.72585 -1.58575,3.00863 -0.44962,0.24063 -0.45549,0.18698 -0.10651,-0.97258 z m -29.66852,-1.21176 c -0.0854,-0.34042 -0.11866,-4.95885 -0.0738,-10.26319 0.0777,-9.19603 0.10729,-9.69343 0.63647,-10.70258 0.98517,-1.87872 1.72586,-2.11666 6.58878,-2.11666 4.65804,0 5.39004,0.20054 6.58693,1.80457 0.51981,0.69664 0.56217,1.13159 0.63726,6.54448 0.0913,6.57917 -0.0345,7.16493 -1.74367,8.1215 -1.28989,0.72191 -2.5869,0.95244 -5.48052,0.97411 l -2.38125,0.0178 -0.13229,3.04271 -0.13229,3.04271 -2.17512,0.0767 c -2.08866,0.0737 -2.18129,0.0521 -2.33046,-0.54221 z m 9.65564,-11.0265 c 0.15065,-0.28147 0.2739,-1.83711 0.2739,-3.45698 0,-1.61986 -0.12325,-3.1755 -0.2739,-3.45697 -0.23469,-0.43852 -0.56795,-0.51177 -2.32833,-0.51177 -1.24512,0 -2.17951,0.12507 -2.37194,0.3175 -0.4399,0.4399 -0.4399,6.86259 0,7.30249 0.19243,0.19243 1.12682,0.3175 2.37194,0.3175 1.76038,0 2.09364,-0.0733 2.32833,-0.51177 z m 5.89629,10.83342 c -0.72578,-0.44251 -0.85962,-0.67964 -0.85815,-1.52036 0.002,-1.03282 0.59628,-2.17924 1.47469,-2.84388 0.77728,-0.58812 0.95704,-0.47587 0.53742,0.33559 -1.06267,2.05497 -0.65917,4.0058 0.83652,4.04435 0.64123,0.0165 0.66263,0.0439 0.19233,0.24599 -0.82582,0.35487 -1.25621,0.30327 -2.18281,-0.26169 z m 6.19566,0.34988 c -0.3097,-0.3097 -0.15854,-2.02624 0.31067,-3.52778 0.43518,-1.39263 0.49706,-1.45874 1.43905,-1.53732 0.90714,-0.0757 0.98431,-0.0276 0.98431,0.61314 0,0.57477 -0.0917,0.66617 -0.52896,0.52738 -0.64085,-0.2034 -1.05854,0.68334 -1.05854,2.24721 0,0.57651 -0.18129,1.2035 -0.41578,1.43799 -0.47352,0.47352 -0.49091,0.47922 -0.73075,0.23938 z m 4.37445,-0.14111 c -0.17463,-0.17462 -0.3175,-0.56803 -0.3175,-0.87424 0,-0.82938 1.3914,-2.84171 2.34209,-3.38728 1.00551,-0.57703 1.02495,-0.48997 0.17145,0.76774 -0.69518,1.02439 -0.85816,2.18584 -0.37458,2.66941 0.20612,0.20612 0.11506,0.40723 -0.32346,0.71438 -0.72827,0.5101 -1.07261,0.53539 -1.498,0.10999 z M 153.4048,189.5271 c 0,-0.33351 0.77668,-0.93141 0.96512,-0.74297 0.27095,0.27095 -0.13341,0.97516 -0.55994,0.97516 -0.22285,0 -0.40518,-0.10449 -0.40518,-0.23219 z m 6.73188,-0.62043 c 0.45932,-0.65579 0.55737,-2.46582 0.14729,-2.71926 -0.51287,-0.31697 -0.27046,-0.92604 0.36857,-0.92604 1.18014,0 1.34848,2.13683 0.26937,3.41928 -0.78459,0.93244 -1.40513,1.11105 -0.78523,0.22602 z m -71.487015,-3.37405 c -1.05423,-0.25027 -1.557949,-0.65291 -2.135743,-1.70719 -0.380418,-0.69413 -0.445574,-1.68353 -0.445574,-6.76614 0,-4.35095 0.09112,-6.11261 0.338571,-6.5457 0.668697,-1.17036 1.775552,-1.47791 5.770507,-1.60339 4.644302,-0.14587 4.871129,-0.0562 4.871129,1.92508 0,0.85567 -0.132868,1.51477 -0.330729,1.64058 -0.181901,0.11566 -1.365205,0.17057 -2.629561,0.12202 -1.305256,-0.0501 -2.706111,0.0461 -3.241146,0.2227 l -0.942313,0.311 v 4.04812 c 0,3.01817 0.08834,4.12144 0.347204,4.33628 0.19494,0.16179 1.732349,0.32103 3.505729,0.36313 l 3.158525,0.075 0.0811,1.58011 c 0.111993,2.18195 -0.03931,2.2629 -4.166568,2.22927 -1.827577,-0.0149 -3.709088,-0.11878 -4.181133,-0.23084 z m 12.797525,-1.98287 c -1.454904,-0.5186 -2.707585,-1.83079 -3.051456,-3.19643 -0.366945,-1.45727 -0.37203,-5.76199 -0.0084,-7.07158 0.41374,-1.48987 1.641806,-2.72891 3.237576,-3.2665 1.06566,-0.35901 2.1672,-0.45563 4.87522,-0.42762 1.92418,0.0199 3.56679,-0.0743 3.65026,-0.20935 0.0835,-0.13505 0.023,-0.48613 -0.13437,-0.78018 -0.27339,-0.51084 -0.53765,-0.53463 -5.93705,-0.53463 -6.465619,0 -5.97212,0.21863 -5.97212,-2.64584 0,-2.88176 -0.609833,-2.64604 6.84133,-2.64435 3.91639,7.9e-4 6.9378,0.11743 7.56605,0.29185 1.33747,0.37133 2.65504,1.6889 3.02637,3.02637 0.17431,0.62785 0.28865,3.58416 0.28604,7.39592 -0.004,5.61764 -0.0608,6.47206 -0.49432,7.40834 -0.57032,1.23183 -1.69784,2.3612 -2.75676,2.76129 -1.13314,0.42813 -9.86242,0.34398 -11.12841,-0.10729 z m 8.58537,-5.733 c 0.35838,-0.66964 0.1432,-2.34315 -0.34078,-2.65023 -0.5492,-0.34847 -5.34772,-0.26982 -5.71114,0.0936 -0.38979,0.38979 -0.41528,1.91584 -0.0436,2.61031 0.24391,0.45576 0.57594,0.51177 3.0334,0.51177 2.54775,0 2.78273,-0.0434 3.06213,-0.56545 z m 7.84004,5.95547 c -0.1026,-0.1026 -0.18655,-3.3266 -0.18655,-7.16444 0,-6.34174 0.046,-7.0674 0.50399,-7.95955 0.86159,-1.67817 1.80458,-2.03998 5.31685,-2.03998 2.67203,0 3.15636,0.0707 3.97562,0.58026 l 0.93291,0.58025 0.91597,-0.58025 c 0.80811,-0.51194 1.28005,-0.58026 4.0079,-0.58026 3.36584,0 3.87566,0.18205 5.10021,1.82127 0.52023,0.69641 0.54551,1.0696 0.54551,8.05345 v 7.32319 h -2.11666 -2.11667 l -0.13229,-6.02934 c -0.10906,-4.97043 -0.202,-6.07333 -0.52917,-6.2798 -0.59799,-0.37738 -2.80123,-0.31205 -3.13742,0.093 -0.18852,0.22715 -0.31704,2.45128 -0.36313,6.28385 l -0.0713,5.93226 h -2.11667 -2.11667 l -0.13229,-5.95312 c -0.0728,-3.27422 -0.22862,-6.10195 -0.34634,-6.28386 -0.12757,-0.1971 -0.7894,-0.33072 -1.63803,-0.33072 -0.84864,0 -1.51047,0.13362 -1.63803,0.33072 -0.11773,0.18191 -0.27359,3.00964 -0.34635,6.28386 l -0.13229,5.95312 -1.99627,0.0763 c -1.09795,0.042 -2.08022,-0.008 -2.18281,-0.11024 z m -46.666879,-2.28116 c 0.07862,-0.1819 0.93464,-2.10636 1.902272,-4.27657 1.930715,-4.33023 2.509554,-6.27859 3.19846,-10.76598 0.408033,-2.65781 0.422085,-3.45022 0.128241,-7.23147 -0.181501,-2.33562 -0.454244,-4.39628 -0.606091,-4.57925 -0.16823,-0.20271 -0.926846,-0.33267 -1.941846,-0.33267 -2.661211,0 -3.044717,-0.347 -1.830618,-1.65635 0.547704,-0.59067 0.902893,-0.72565 1.918229,-0.72895 0.685335,-0.002 1.387626,-0.0941 1.560645,-0.20407 0.173022,-0.11002 0.491776,-1.04984 0.708345,-2.08851 0.595074,-2.85399 1.56364,-4.31795 2.856788,-4.31795 0.725271,0 0.765667,0.36431 0.173183,1.56183 -0.347183,0.70172 -0.565345,1.68208 -0.583819,2.62355 l -0.02949,1.50316 0.862647,0.0831 c 1.894681,0.18255 7.977301,-1.87042 10.102069,-3.4096 0.588084,-0.426 1.240843,-0.77455 1.450578,-0.77455 0.516951,0 0.799404,0.99444 0.414263,1.4585 -1.106294,1.333 -5.93635,3.70236 -9.522266,4.67109 -2.815071,0.76049 -2.801334,0.7359 -1.982978,3.54899 2.049336,7.04457 1.182381,12.08853 -3.206895,18.65776 -1.729677,2.58873 -5.029242,6.58866 -5.435026,6.58866 -0.153797,0 -0.215307,-0.14883 -0.136686,-0.33073 z m -5.2613,-12.20491 c -0.08688,-0.34616 -0.118915,-2.93577 -0.07119,-5.75469 0.114282,-6.74949 0.272736,-6.98411 4.596741,-6.80654 2.118178,0.087 2.328773,0.14727 2.921286,0.83611 0.602914,0.70093 0.638545,0.93089 0.638545,4.12106 0,3.2841 -0.019,3.39655 -0.678201,4.01584 -0.563181,0.52909 -1.011901,0.65399 -2.645833,0.7365 l -1.967632,0.0994 v 1.27236 c 0,1.90167 -0.145587,2.10939 -1.478476,2.10939 -0.998042,0 -1.179009,-0.0866 -1.315243,-0.62939 z m 5.384535,-7.63884 0.07728,-2.05052 H 70.072185 68.73814 v 1.94028 c 0,1.06715 0.08498,2.02525 0.188838,2.12911 0.103863,0.10386 0.669409,0.15347 1.256771,0.11024 l 1.067933,-0.0786 z m 16.000716,5.88581 c -4.631748,-0.96886 -5.834245,-4.54823 -3.000775,-8.93216 1.822194,-2.81928 4.724583,-4.56663 7.560284,-4.55158 l 1.5875,0.008 -1.406893,0.48591 c -2.735059,0.94463 -4.537131,3.5224 -4.751967,6.79746 -0.145021,2.21076 0.368898,3.609 1.551191,4.22039 3.753792,1.94116 6.258137,-4.63691 2.916031,-7.65943 -0.767683,-0.69428 -0.712083,-0.86147 0.490472,-1.47497 1.975014,-1.00758 3.377908,-0.50809 4.134072,1.47189 0.56688,1.48436 0.398624,4.06719 -0.361027,5.54197 -1.500164,2.9124 -5.464243,4.77288 -8.718888,4.09209 z M 36.12824,166.19018 c -1.066882,-0.62141 -1.256765,-1.59339 -1.256765,-6.43321 0,-4.51124 0.01619,-4.64741 0.63847,-5.37095 0.625968,-0.72782 0.702624,-0.74416 3.915001,-0.83423 3.728585,-0.10455 4.004774,0.0189 3.864122,1.72705 l -0.08322,1.01066 -2.38125,0.13667 c -1.309688,0.0752 -2.530078,0.23102 -2.711979,0.34634 -0.23414,0.14844 -0.330729,1.12411 -0.330729,3.34075 0,2.61106 0.06951,3.15775 0.418514,3.29168 0.230183,0.0883 1.40807,0.1606 2.617526,0.1606 2.345524,0 2.520209,0.10086 2.520209,1.45521 0,1.42158 -0.08356,1.4558 -3.534036,1.44716 -1.767061,-0.004 -3.4212,-0.12941 -3.675865,-0.27773 z m 8.3885,-0.36366 c -0.572048,-0.57204 -0.649432,-0.88182 -0.649432,-2.59971 0,-1.74814 0.06989,-2.01594 0.674343,-2.58379 0.546004,-0.51294 1.024374,-0.65329 2.513541,-0.73744 1.01156,-0.0572 1.839199,-0.20508 1.839199,-0.32872 0,-0.12364 -1.101328,-0.25903 -2.447396,-0.30087 l -2.447395,-0.0761 v -1.19062 -1.19063 l 2.381249,-0.0818 c 4.935127,-0.16951 5.447367,0.17565 5.637527,3.79867 0.155313,2.95909 -0.106987,4.53497 -0.884194,5.31218 -0.578251,0.57825 -0.840671,0.62824 -3.298124,0.62824 -2.481916,0 -2.715609,-0.0457 -3.319318,-0.64944 z m 4.642234,-2.65786 c 0,-0.60625 -0.09806,-0.66145 -1.17501,-0.66145 -1.217349,0 -1.623682,0.27835 -1.370281,0.93871 0.09888,0.25767 0.542296,0.3842 1.346362,0.3842 1.102469,0 1.198929,-0.0532 1.198929,-0.66146 z m 3.704167,-0.7996 v -4.13589 l 0.802746,-0.80275 c 0.786125,-0.78612 0.842279,-0.79927 2.711979,-0.63482 1.050078,0.0924 2.147358,0.16793 2.4384,0.16793 0.291041,0 1.388321,-0.0756 2.438399,-0.16793 1.872724,-0.16471 1.924714,-0.15244 2.718943,0.64178 l 0.80971,0.80971 -0.07311,4.04829 -0.07311,4.04828 h -1.190625 -1.190625 l -0.07154,-3.175 c -0.07598,-3.37178 -0.291346,-3.93418 -1.395961,-3.64532 -0.474309,0.12404 -0.51687,0.38139 -0.51687,3.12538 0,1.64461 -0.07227,3.17854 -0.160599,3.40872 -0.11188,0.29155 -0.504616,0.41852 -1.294609,0.41852 -0.789994,0 -1.18273,-0.12697 -1.29461,-0.41852 -0.08833,-0.23018 -0.160599,-1.76997 -0.160599,-3.42175 0,-2.69501 -0.05048,-3.01926 -0.491893,-3.15936 -1.198988,-0.38055 -1.340322,-0.0299 -1.41862,3.51924 l -0.07386,3.34809 -1.25677,0.0806 -1.256771,0.0806 z m 81.756249,-3.06889 c -9.18493,-2.39104 -15.9284,-4.73686 -21.66137,-7.53526 -3.84583,-1.87724 -4.08529,-1.95826 -4.41143,-1.49264 -0.18967,0.27079 -1.45534,1.04488 -2.81259,1.7202 -4.23908,2.10919 -7.142942,2.81797 -7.884495,1.92445 -0.502465,-0.60543 0.376052,-2.67119 1.27771,-3.00441 2.815825,-1.04063 4.043835,-1.54345 5.197385,-2.12813 0.7276,-0.36879 1.41221,-0.64671 1.52135,-0.6176 0.52659,0.14045 0.0152,-0.45592 -2.03983,-2.37857 -3.06881,-2.87121 -4.580663,-4.96651 -6.918585,-9.5886 -2.264595,-4.47712 -3.666646,-6.44846 -5.704324,-8.02051 -1.352507,-1.04346 -3.991355,-2.44095 -4.619447,-2.44639 -0.467667,-0.004 -0.917485,-0.6874 -0.746236,-1.13367 0.08535,-0.22242 0.552177,-0.47888 1.037394,-0.56991 1.066644,-0.2001 3.096871,0.088 2.897169,0.41112 -0.07871,0.12735 0.07859,0.23154 0.349533,0.23154 0.270946,0 1.466532,0.47097 2.656856,1.04659 4.019698,1.94389 6.782154,4.35989 11.66062,10.1982 3.698,4.42558 7.12487,8.07762 7.55815,8.05476 0.15667,-0.008 0.85988,-0.72264 1.5627,-1.5875 0.70282,-0.86486 1.48574,-1.57247 1.73982,-1.57247 0.52258,0 1.61253,1.05234 1.61253,1.55688 0,0.45989 -1.48345,2.57357 -2.11829,3.01824 -0.51509,0.36078 -0.51421,0.37191 0.0707,0.89526 3.85864,3.45217 10.84995,7.47582 20.15863,11.60173 5.30309,2.3505 5.16468,2.86113 -0.384,1.41669 z m 23.15104,-1.30815 c -4.68723,-0.62567 -11.35792,-1.91931 -14.31354,-2.77582 -7.94989,-2.30379 -12.05565,-4.98237 -16.30287,-10.63593 -2.61139,-3.47607 -4.24545,-4.54043 -8.87865,-5.78324 -0.55978,-0.15015 -0.68894,-0.90984 -0.23232,-1.36646 0.57072,-0.57072 3.54928,-0.5321 5.64184,0.0731 2.16572,0.62641 5.72001,2.51835 7.82012,4.16263 0.97923,0.76669 3.15147,2.47249 4.82718,3.79066 3.32229,2.61342 5.72249,4.0364 10.59032,6.27861 3.73067,1.7184 4.8607,2.11244 11.58321,4.03906 2.78304,0.7976 5.14408,1.58611 5.24676,1.75225 0.10268,0.16615 0.12544,0.46171 0.0506,0.6568 -0.17799,0.46384 -1.41635,0.42449 -6.03263,-0.19171 z M 54.715224,153.51517 c 0,-0.85683 0.738885,-2.77856 1.189085,-3.09263 0.291889,-0.20364 2.316644,-1.53518 4.499456,-2.959 2.182813,-1.42381 5.218906,-3.57944 6.746875,-4.79028 3.491995,-2.76723 8.621307,-7.88072 9.882031,-9.85155 0.527857,-0.82517 1.053748,-1.55841 1.168646,-1.62942 0.114901,-0.071 0.502383,0.0923 0.861076,0.36282 0.583327,0.44 0.619858,0.57047 0.346088,1.23607 -0.168344,0.40929 -0.687152,1.69665 -1.152909,2.86082 -1.096959,2.74186 -2.244351,4.44348 -4.858112,7.20474 -4.453852,4.70519 -10.368814,8.75795 -15.217927,10.42688 -1.536299,0.52876 -3.464309,0.65762 -3.464309,0.23155 z"
         id="path1178" />
      <path
         style="fill:#fd9832;stroke-width:0.264583"
         d="m 168.83389,192.96047 c -0.36192,-0.2661 -0.4054,-1.35781 -0.0702,-1.76175 0.47027,-0.56664 0.78066,-0.46269 0.78066,0.26146 0,0.35341 0.17408,0.81664 0.38684,1.02941 0.33941,0.3394 0.30906,0.40171 -0.24748,0.5081 -0.34888,0.0667 -0.73132,0.0499 -0.84986,-0.0372 z m 2.19323,-2.05803 c 0.44597,-1.48186 0.47486,-2.46607 0.0724,-2.46607 -0.20599,0 -0.2138,-0.10133 -0.0255,-0.33073 0.14932,-0.1819 0.35621,-1.01534 0.45976,-1.85208 0.15437,-1.24737 0.27809,-1.52136 0.68696,-1.52136 0.27427,0 0.5005,0.14883 0.50273,0.33073 0.003,0.22049 0.0896,0.19844 0.26053,-0.0661 0.19915,-0.30816 0.25739,-0.23074 0.26054,0.34634 0.002,0.42891 -0.10785,0.67407 -0.26054,0.5797 -0.14552,-0.0899 -0.26458,0.0887 -0.26458,0.39687 0,0.30822 0.10889,0.4931 0.24199,0.41085 0.32817,-0.20282 0.47074,0.31051 0.3378,1.21628 -0.0604,0.4118 -0.21562,0.68338 -0.34484,0.60352 -0.12922,-0.0799 -0.23495,0.0623 -0.23495,0.31604 0,0.71969 -1.05738,2.72585 -1.58575,3.00863 -0.44962,0.24063 -0.45549,0.18698 -0.10651,-0.97258 z m -29.41503,-1.2289 c -0.0789,-0.20551 -0.1069,-4.82444 -0.0623,-10.26427 0.1074,-13.10406 -0.20656,-12.53644 6.93414,-12.53644 4.65766,0 5.3324,0.16358 6.3523,1.54003 0.5167,0.69733 0.55819,1.14246 0.63275,6.78826 l 0.0798,6.042 -0.7947,0.9051 c -1.0548,1.20136 -2.47069,1.60733 -5.84718,1.67654 -1.52797,0.0313 -2.86353,0.0697 -2.9679,0.0853 -0.10438,0.0156 -0.22344,1.36783 -0.26458,3.00494 l -0.0748,2.97656 -1.92205,0.0778 c -1.46514,0.0593 -1.95614,-0.011 -2.06545,-0.29585 z m 9.35855,-10.5505 c 0.44165,-0.44165 0.44165,-7.39002 0,-7.83167 -0.19029,-0.19028 -1.10956,-0.3175 -2.29427,-0.3175 -2.89325,0 -2.94448,0.074 -2.94448,4.25544 0,4.18898 0.0152,4.21123 2.8764,4.21123 1.23766,0 2.17018,-0.12533 2.36235,-0.3175 z m 5.93989,10.37456 c -0.72578,-0.44251 -0.85962,-0.67964 -0.85815,-1.52036 0.002,-1.03282 0.59628,-2.17924 1.47469,-2.84388 0.77728,-0.58812 0.95704,-0.47587 0.53742,0.33559 -1.06267,2.05497 -0.65917,4.0058 0.83652,4.04435 0.64123,0.0165 0.66263,0.0439 0.19233,0.24599 -0.82582,0.35487 -1.25621,0.30327 -2.18281,-0.26169 z m 6.19566,0.34988 c -0.3097,-0.3097 -0.15854,-2.02624 0.31067,-3.52778 0.43518,-1.39263 0.49706,-1.45874 1.43905,-1.53732 0.90714,-0.0757 0.98431,-0.0276 0.98431,0.61314 0,0.57477 -0.0917,0.66617 -0.52896,0.52738 -0.64085,-0.2034 -1.05854,0.68334 -1.05854,2.24721 0,0.57651 -0.18129,1.2035 -0.41578,1.43799 -0.47352,0.47352 -0.49091,0.47922 -0.73075,0.23938 z m 4.37445,-0.14111 c -0.17463,-0.17462 -0.3175,-0.56803 -0.3175,-0.87424 0,-0.82938 1.3914,-2.84171 2.34209,-3.38728 1.00551,-0.57703 1.02495,-0.48997 0.17145,0.76774 -0.69518,1.02439 -0.85816,2.18584 -0.37458,2.66941 0.20612,0.20612 0.11506,0.40723 -0.32346,0.71438 -0.72827,0.5101 -1.07261,0.53539 -1.498,0.10999 z M 153.4048,189.5271 c 0,-0.33351 0.77668,-0.93141 0.96512,-0.74297 0.27095,0.27095 -0.13341,0.97516 -0.55994,0.97516 -0.22285,0 -0.40518,-0.10449 -0.40518,-0.23219 z m 6.73188,-0.62043 c 0.45932,-0.65579 0.55737,-2.46582 0.14729,-2.71926 -0.51287,-0.31697 -0.27046,-0.92604 0.36857,-0.92604 1.18014,0 1.34848,2.13683 0.26937,3.41928 -0.78459,0.93244 -1.40513,1.11105 -0.78523,0.22602 z m -71.96426,-3.74904 c -1.687341,-0.74255 -1.830258,-1.28756 -1.924439,-7.33878 -0.134657,-8.65175 -0.197194,-8.56477 6.158198,-8.56477 h 4.245501 v 1.5875 1.5875 h -2.910416 c -4.278955,0 -4.101931,-0.20332 -4.096991,4.70566 0.0021,2.21408 0.116597,4.20418 0.254151,4.42246 0.192042,0.30476 1.004861,0.42759 3.501676,0.52917 l 3.25158,0.13229 v 1.5875 1.5875 l -3.836458,0.0594 c -2.744001,0.0425 -4.066069,-0.0416 -4.642802,-0.29544 z m 13.27808,-1.87132 c -1.34689,-0.48016 -2.490891,-1.60699 -2.814643,-2.7724 -0.143788,-0.51759 -0.259482,-2.25077 -0.257098,-3.8515 0.0085,-5.73323 1.413978,-6.89667 8.238971,-6.82035 3.00648,0.0336 3.6419,-0.0269 3.76937,-0.35909 0.12202,-0.31797 -0.14355,-1.188 -0.44942,-1.47235 -0.0313,-0.0291 -2.61668,-0.11836 -5.74537,-0.19844 l -5.688546,-0.1456 v -2.24896 -2.24896 l 6.748156,-0.0705 c 6.55759,-0.0685 6.78175,-0.0536 7.9375,0.52917 0.87157,0.43943 1.3484,0.91508 1.78466,1.78019 0.57061,1.13157 0.59507,1.45532 0.5895,7.80521 -0.005,5.87431 -0.0611,6.74454 -0.49427,7.683 -0.56509,1.22439 -1.43454,2.0946 -2.49371,2.49591 -1.13001,0.42816 -9.86047,0.34548 -11.1251,-0.10535 z m 8.50972,-4.95702 c 0.17463,-0.17463 0.3175,-0.94434 0.3175,-1.71049 0,-1.78725 -0.27998,-1.94076 -3.53948,-1.94076 -2.29995,0 -2.55128,0.0505 -2.92781,0.58804 -0.22653,0.32342 -0.41187,0.95177 -0.41187,1.39633 0,0.44457 0.18534,1.07292 0.41187,1.39634 0.38004,0.54259 0.62137,0.58804 3.12209,0.58804 1.75516,0 2.82209,-0.11189 3.0277,-0.3175 z m 8.04477,-2.04681 0.0779,-7.39138 0.78115,-0.81492 c 1.03181,-1.07641 2.37568,-1.4023 5.33332,-1.29331 2.02805,0.0747 2.57746,0.19059 3.24463,0.68426 l 0.80318,0.59429 1.24212,-0.66044 c 1.09062,-0.57989 1.57139,-0.66044 3.94171,-0.66044 2.36617,0 2.81063,0.0742 3.59862,0.60058 1.73382,1.15828 1.82419,1.62319 1.82465,9.38744 l 4.1e-4,6.94531 h -1.95607 c -1.5396,0 -1.99026,-0.0891 -2.11666,-0.41851 -0.0883,-0.23019 -0.1606,-2.96444 -0.1606,-6.07611 0,-6.40378 0.0679,-6.20925 -2.16542,-6.20133 -1.99456,0.007 -1.92615,-0.21695 -2.0156,6.60053 l -0.08,6.09542 h -1.97055 -1.97055 l -0.004,-5.62239 c -0.005,-6.90141 -0.019,-6.94532 -2.24505,-6.94532 -2.22608,0 -2.24027,0.0439 -2.24506,6.94532 l -0.004,5.62239 h -1.99617 -1.99616 z m -46.799269,5.20858 c 0.07862,-0.1819 0.93464,-2.10636 1.902272,-4.27657 1.930715,-4.33023 2.509554,-6.27859 3.19846,-10.76598 0.408033,-2.65781 0.422085,-3.45022 0.128241,-7.23147 -0.181501,-2.33562 -0.454244,-4.39628 -0.606091,-4.57925 -0.16823,-0.20271 -0.926846,-0.33267 -1.941846,-0.33267 -2.661211,0 -3.044717,-0.347 -1.830618,-1.65635 0.547704,-0.59067 0.902893,-0.72565 1.918229,-0.72895 0.685335,-0.002 1.387626,-0.0941 1.560645,-0.20407 0.173022,-0.11002 0.491776,-1.04984 0.708345,-2.08851 0.595074,-2.85399 1.56364,-4.31795 2.856788,-4.31795 0.725271,0 0.765667,0.36431 0.173183,1.56183 -0.347183,0.70172 -0.565345,1.68208 -0.583819,2.62355 l -0.02949,1.50316 0.862647,0.0831 c 1.894681,0.18255 7.977301,-1.87042 10.102069,-3.4096 0.588084,-0.426 1.240843,-0.77455 1.450578,-0.77455 0.516951,0 0.799404,0.99444 0.414263,1.4585 -1.106294,1.333 -5.93635,3.70236 -9.522266,4.67109 -2.815071,0.76049 -2.801334,0.7359 -1.982978,3.54899 2.049336,7.04457 1.182381,12.08853 -3.206895,18.65776 -1.729677,2.58873 -5.029242,6.58866 -5.435026,6.58866 -0.153797,0 -0.215307,-0.14883 -0.136686,-0.33073 z m -4.833869,-11.95437 c -0.221189,-0.26652 -0.286803,-1.94235 -0.228711,-5.84169 l 0.08146,-5.46797 0.742358,-0.63803 c 0.665477,-0.57197 0.988689,-0.63804 3.120882,-0.63804 2.172565,0 2.434756,0.0562 3.027952,0.64943 0.622348,0.62234 0.649433,0.79168 0.649433,4.06003 0,4.22527 -0.08711,4.3517 -3.135455,4.55095 l -2.02392,0.13229 -0.0813,1.45521 c -0.04472,0.80037 -0.16378,1.52913 -0.264583,1.61949 -0.449622,0.403 -1.592416,0.47462 -1.888112,0.11833 z m 4.991809,-5.81439 c 0.191625,-0.23089 0.279339,-1.1106 0.230836,-2.3151 l -0.07823,-1.9427 H 70.061059 68.60585 l -0.07823,1.9427 c -0.09171,2.2775 0.14223,2.68751 1.533441,2.68751 0.546446,0 1.13262,-0.16759 1.302604,-0.37241 z m 15.966011,3.81082 c -4.631748,-0.96886 -5.834245,-4.54823 -3.000775,-8.93216 1.822194,-2.81928 4.724583,-4.56663 7.560284,-4.55158 l 1.5875,0.008 -1.406893,0.48591 c -2.735059,0.94463 -4.537131,3.5224 -4.751967,6.79746 -0.145021,2.21076 0.368898,3.609 1.551191,4.22039 3.753792,1.94116 6.258137,-4.63691 2.916031,-7.65943 -0.767683,-0.69428 -0.712083,-0.86147 0.490472,-1.47497 1.975014,-1.00758 3.377908,-0.50809 4.134072,1.47189 0.56688,1.48436 0.398624,4.06719 -0.361027,5.54197 -1.500164,2.9124 -5.464243,4.77288 -8.718888,4.09209 z m -51.677419,-1.9963 c -0.630682,-0.67064 -0.650751,-0.81883 -0.730958,-5.39773 -0.082,-4.68145 -0.07876,-4.71249 0.571832,-5.4695 l 0.654303,-0.76134 h 3.396918 3.396918 l 0.08136,1.12448 c 0.04475,0.61846 -0.01478,1.13488 -0.132292,1.1476 -0.117507,0.0127 -1.177661,0.0425 -2.355898,0.0661 -3.006887,0.0604 -3.017127,0.0736 -3.017127,3.89627 0,2.21104 0.09688,3.18968 0.330729,3.34104 0.181901,0.11773 1.402292,0.27358 2.711979,0.34634 l 2.38125,0.13229 v 1.05834 1.05833 l -3.320263,0.0736 c -3.278245,0.0727 -3.32847,0.0649 -3.96875,-0.61591 z m 9.215082,0.39316 c -1.093829,-0.63752 -1.207508,-4.23646 -0.163658,-5.18114 0.355234,-0.32148 1.069442,-0.4971 2.287461,-0.56247 2.31584,-0.1243 2.588118,-0.21546 2.165238,-0.725 -0.244066,-0.29408 -0.916798,-0.39375 -2.657802,-0.39375 -2.098651,0 -2.347766,-0.0528 -2.498974,-0.52916 -0.09237,-0.29105 -0.09237,-0.7673 0,-1.05834 0.154242,-0.48597 0.398643,-0.52887 2.994392,-0.52555 1.554542,0.002 3.0991,0.0767 3.432349,0.16592 1.019486,0.27309 1.378467,1.38659 1.378467,4.27576 0,2.83345 -0.308679,4.14934 -1.068769,4.55612 -0.63208,0.33828 -5.280317,0.32055 -5.868704,-0.0224 z m 4.423931,-2.76132 c 0,-0.78549 -0.0151,-0.79375 -1.451585,-0.79375 -1.186878,0 -1.468292,0.0868 -1.543202,0.47574 -0.16445,0.85391 0.466988,1.27605 1.780988,1.19065 1.154746,-0.0751 1.213799,-0.1175 1.213799,-0.87264 z m 3.732474,2.6242 c -0.266466,-0.6944 -0.177456,-5.99246 0.118587,-7.05847 0.41372,-1.48975 1.19919,-1.88103 3.359381,-1.67344 2.032948,0.19536 2.154784,0.19523 4.752634,-0.005 1.787695,-0.138 1.951504,-0.10477 2.579688,0.52342 0.658773,0.65877 0.670777,0.74229 0.670777,4.66752 v 3.99675 l -0.992188,-0.0821 -0.992187,-0.0821 -0.06543,-2.77812 c -0.09194,-3.90348 -0.130807,-4.01776 -1.332545,-3.91805 l -0.983271,0.0816 -0.132292,3.30729 -0.132291,3.30729 H 58.81627 57.757936 l -0.132291,-3.30729 -0.132292,-3.30729 H 56.43502 55.376686 l -0.07405,3.37343 -0.07405,3.37344 H 54.20646 c -0.687965,0 -1.074625,-0.13682 -1.18272,-0.41851 z m 81.59565,-6.49269 c -9.18444,-2.39091 -15.92841,-4.73687 -21.66043,-7.5348 -3.57611,-1.74558 -4.11769,-1.9396 -4.49792,-1.61138 -1.67813,1.44859 -7.5192,3.88655 -9.311741,3.88655 -1.304311,0 -1.499417,-0.39574 -0.860504,-1.74539 0.361167,-0.76293 0.740817,-1.10645 1.537885,-1.39152 2.01851,-0.72191 5.9599,-2.48084 6.11256,-2.72785 0.0844,-0.13654 -0.86465,-1.20078 -2.10897,-2.36498 -3.09343,-2.89424 -4.600463,-4.9805 -6.942735,-9.61119 -2.264595,-4.47712 -3.666646,-6.44846 -5.704324,-8.02051 -1.352507,-1.04346 -3.991355,-2.44095 -4.619447,-2.44639 -0.467667,-0.004 -0.917485,-0.6874 -0.746236,-1.13367 0.08535,-0.22242 0.552177,-0.47888 1.037394,-0.56991 1.066644,-0.2001 3.096871,0.088 2.897169,0.41112 -0.07871,0.12735 0.07859,0.23154 0.349533,0.23154 0.270946,0 1.466532,0.47097 2.656856,1.04659 4.019698,1.94389 6.782154,4.35989 11.66062,10.1982 4.04374,4.83936 7.1314,8.07416 7.69044,8.05695 0.22943,-0.007 0.94765,-0.66191 1.59604,-1.45521 1.25327,-1.53334 1.78009,-1.7366 2.48426,-0.95851 0.65176,0.72019 0.5523,1.08976 -0.7343,2.72865 l -1.17185,1.49272 0.5767,0.51525 c 3.85507,3.4443 10.85024,7.4682 20.143,11.58705 5.30309,2.3505 5.16468,2.86113 -0.384,1.41669 z m 22.75416,-1.5897 c -4.58268,-0.61071 -10.60664,-1.79893 -13.89062,-2.73992 -7.83662,-2.24548 -12.00672,-4.93819 -16.01231,-10.33941 -2.47128,-3.33233 -4.2052,-4.63576 -7.40332,-5.56523 -1.51541,-0.44043 -1.98437,-0.68863 -1.98437,-1.05024 0,-0.99957 2.95076,-1.10056 5.82083,-0.19923 2.07423,0.6514 5.65074,2.58734 7.60125,4.11449 0.97923,0.76669 3.18189,2.50333 4.8948,3.8592 2.57528,2.03849 3.98234,2.8987 8.12876,4.96954 5.02036,2.50731 9.08051,3.99151 15.88769,5.8078 2.69671,0.71953 3.41454,1.05424 3.15647,1.4718 -0.20912,0.33837 -1.84323,0.25169 -6.19918,-0.3288 z m -102.658326,-4.1953 c 0,-0.85683 0.738885,-2.77856 1.189085,-3.09263 0.291889,-0.20364 2.316644,-1.53518 4.499456,-2.959 2.182813,-1.42381 5.218906,-3.57944 6.746875,-4.79028 3.491995,-2.76723 8.621307,-7.88072 9.882031,-9.85155 0.527857,-0.82517 1.053748,-1.55841 1.168646,-1.62942 0.114901,-0.071 0.502383,0.0923 0.861076,0.36282 0.583327,0.44 0.619858,0.57047 0.346088,1.23607 -0.168344,0.40929 -0.687152,1.69665 -1.152909,2.86082 -1.096959,2.74186 -2.244351,4.44348 -4.858112,7.20474 -4.453852,4.70519 -10.368814,8.75795 -15.217927,10.42688 -1.536299,0.52876 -3.464309,0.65762 -3.464309,0.23155 z"
         id="path1176" />
      <path
         style="fill:#5e5c5c;stroke-width:0.264583"
         d="m 141.61209,189.67354 c -0.0789,-0.20551 -0.1069,-4.82444 -0.0623,-10.26427 0.1074,-13.10406 -0.20656,-12.53644 6.93414,-12.53644 4.65766,0 5.3324,0.16358 6.3523,1.54003 0.5167,0.69733 0.55819,1.14246 0.63275,6.78826 l 0.0798,6.042 -0.7947,0.9051 c -1.0548,1.20136 -2.47069,1.60733 -5.84718,1.67654 -1.52797,0.0313 -2.86353,0.0697 -2.9679,0.0853 -0.10438,0.0156 -0.22344,1.36783 -0.26458,3.00494 l -0.0748,2.97656 -1.92205,0.0778 c -1.46514,0.0593 -1.95614,-0.011 -2.06545,-0.29585 z m 9.35855,-10.5505 c 0.44165,-0.44165 0.44165,-7.39002 0,-7.83167 -0.19029,-0.19028 -1.10956,-0.3175 -2.29427,-0.3175 -2.89325,0 -2.94448,0.074 -2.94448,4.25544 0,4.18898 0.0152,4.21123 2.8764,4.21123 1.23766,0 2.17018,-0.12533 2.36235,-0.3175 z m -62.79822,6.03459 c -1.687341,-0.74255 -1.830258,-1.28756 -1.924439,-7.33878 -0.134657,-8.65175 -0.197194,-8.56477 6.158198,-8.56477 h 4.245501 v 1.5875 1.5875 h -2.910416 c -4.278955,0 -4.101931,-0.20332 -4.096991,4.70566 0.0021,2.21408 0.116597,4.20418 0.254151,4.42246 0.192042,0.30476 1.004861,0.42759 3.501676,0.52917 l 3.25158,0.13229 v 1.5875 1.5875 l -3.836458,0.0594 c -2.744001,0.0425 -4.066069,-0.0416 -4.642802,-0.29544 z m 13.27808,-1.87132 c -1.34689,-0.48016 -2.490891,-1.60699 -2.814643,-2.7724 -0.143788,-0.51759 -0.259482,-2.25077 -0.257098,-3.8515 0.0085,-5.73323 1.413978,-6.89667 8.238971,-6.82035 3.00648,0.0336 3.6419,-0.0269 3.76937,-0.35909 0.12202,-0.31797 -0.14355,-1.188 -0.44942,-1.47235 -0.0313,-0.0291 -2.61668,-0.11836 -5.74537,-0.19844 l -5.688546,-0.1456 v -2.24896 -2.24896 l 6.748156,-0.0705 c 6.55759,-0.0685 6.78175,-0.0536 7.9375,0.52917 0.87157,0.43943 1.3484,0.91508 1.78466,1.78019 0.57061,1.13157 0.59507,1.45532 0.5895,7.80521 -0.005,5.87431 -0.0611,6.74454 -0.49427,7.683 -0.56509,1.22439 -1.43454,2.0946 -2.49371,2.49591 -1.13001,0.42816 -9.86047,0.34548 -11.1251,-0.10535 z m 8.50972,-4.95702 c 0.17463,-0.17463 0.3175,-0.94434 0.3175,-1.71049 0,-1.78725 -0.27998,-1.94076 -3.53948,-1.94076 -2.29995,0 -2.55128,0.0505 -2.92781,0.58804 -0.22653,0.32342 -0.41187,0.95177 -0.41187,1.39633 0,0.44457 0.18534,1.07292 0.41187,1.39634 0.38004,0.54259 0.62137,0.58804 3.12209,0.58804 1.75516,0 2.82209,-0.11189 3.0277,-0.3175 z m 8.04477,-2.04681 0.0779,-7.39138 0.78115,-0.81492 c 1.03181,-1.07641 2.37568,-1.4023 5.33332,-1.29331 2.02805,0.0747 2.57746,0.19059 3.24463,0.68426 l 0.80318,0.59429 1.24212,-0.66044 c 1.09062,-0.57989 1.57139,-0.66044 3.94171,-0.66044 2.36617,0 2.81063,0.0742 3.59862,0.60058 1.73382,1.15828 1.82419,1.62319 1.82465,9.38744 l 4.1e-4,6.94531 h -1.95607 c -1.5396,0 -1.99026,-0.0891 -2.11666,-0.41851 -0.0883,-0.23019 -0.1606,-2.96444 -0.1606,-6.07611 0,-6.40378 0.0679,-6.20925 -2.16542,-6.20133 -1.99456,0.007 -1.92615,-0.21695 -2.0156,6.60053 l -0.08,6.09542 h -1.97055 -1.97055 l -0.004,-5.62239 c -0.005,-6.90141 -0.019,-6.94532 -2.24505,-6.94532 -2.22608,0 -2.24027,0.0439 -2.24506,6.94532 l -0.004,5.62239 h -1.99617 -1.99616 z m -51.633138,-6.74579 c -0.221189,-0.26652 -0.286803,-1.94235 -0.228711,-5.84169 l 0.08146,-5.46797 0.742358,-0.63803 c 0.665477,-0.57197 0.988689,-0.63804 3.120882,-0.63804 2.172565,0 2.434756,0.0562 3.027952,0.64943 0.622348,0.62234 0.649433,0.79168 0.649433,4.06003 0,4.22527 -0.08711,4.3517 -3.135455,4.55095 l -2.02392,0.13229 -0.0813,1.45521 c -0.04472,0.80037 -0.16378,1.52913 -0.264583,1.61949 -0.449622,0.403 -1.592416,0.47462 -1.888112,0.11833 z m 4.991809,-5.81439 c 0.191625,-0.23089 0.279339,-1.1106 0.230836,-2.3151 l -0.07823,-1.9427 H 70.061059 68.60585 l -0.07823,1.9427 c -0.09171,2.2775 0.14223,2.68751 1.533441,2.68751 0.546446,0 1.13262,-0.16759 1.302604,-0.37241 z m -35.711408,1.81452 c -0.630682,-0.67064 -0.650751,-0.81883 -0.730958,-5.39773 -0.082,-4.68145 -0.07876,-4.71249 0.571832,-5.4695 l 0.654303,-0.76134 h 3.396918 3.396918 l 0.08136,1.12448 c 0.04475,0.61846 -0.01478,1.13488 -0.132292,1.1476 -0.117507,0.0127 -1.177661,0.0425 -2.355898,0.0661 -3.006887,0.0604 -3.017127,0.0736 -3.017127,3.89627 0,2.21104 0.09688,3.18968 0.330729,3.34104 0.181901,0.11773 1.402292,0.27358 2.711979,0.34634 l 2.38125,0.13229 v 1.05834 1.05833 l -3.320263,0.0736 c -3.278245,0.0727 -3.32847,0.0649 -3.96875,-0.61591 z m 9.215082,0.39316 c -1.093829,-0.63752 -1.207508,-4.23646 -0.163658,-5.18114 0.355234,-0.32148 1.069442,-0.4971 2.287461,-0.56247 2.31584,-0.1243 2.588118,-0.21546 2.165238,-0.725 -0.244066,-0.29408 -0.916798,-0.39375 -2.657802,-0.39375 -2.098651,0 -2.347766,-0.0528 -2.498974,-0.52916 -0.09237,-0.29105 -0.09237,-0.7673 0,-1.05834 0.154242,-0.48597 0.398643,-0.52887 2.994392,-0.52555 1.554542,0.002 3.0991,0.0767 3.432349,0.16592 1.019486,0.27309 1.378467,1.38659 1.378467,4.27576 0,2.83345 -0.308679,4.14934 -1.068769,4.55612 -0.63208,0.33828 -5.280317,0.32055 -5.868704,-0.0224 z m 4.423931,-2.76132 c 0,-0.78549 -0.0151,-0.79375 -1.451585,-0.79375 -1.186878,0 -1.468292,0.0868 -1.543202,0.47574 -0.16445,0.85391 0.466988,1.27605 1.780988,1.19065 1.154746,-0.0751 1.213799,-0.1175 1.213799,-0.87264 z m 3.732474,2.6242 c -0.266466,-0.6944 -0.177456,-5.99246 0.118587,-7.05847 0.41372,-1.48975 1.19919,-1.88103 3.359381,-1.67344 2.032948,0.19536 2.154784,0.19523 4.752634,-0.005 1.787695,-0.138 1.951504,-0.10477 2.579688,0.52342 0.658773,0.65877 0.670777,0.74229 0.670777,4.66752 v 3.99675 l -0.992188,-0.0821 -0.992187,-0.0821 -0.06543,-2.77812 c -0.09194,-3.90348 -0.130807,-4.01776 -1.332545,-3.91805 l -0.983271,0.0816 -0.132292,3.30729 -0.132291,3.30729 H 58.81627 57.757936 l -0.132291,-3.30729 -0.132292,-3.30729 H 56.43502 55.376686 l -0.07405,3.37343 -0.07405,3.37344 H 54.20646 c -0.687965,0 -1.074625,-0.13682 -1.18272,-0.41851 z m 104.34981,-8.08239 c -4.58268,-0.61071 -10.60664,-1.79893 -13.89062,-2.73992 -7.83662,-2.24548 -12.00672,-4.93819 -16.01231,-10.33941 -2.47128,-3.33233 -4.2052,-4.63576 -7.40332,-5.56523 -1.51541,-0.44043 -1.98437,-0.68863 -1.98437,-1.05024 0,-0.99957 2.95076,-1.10056 5.82083,-0.19923 2.07423,0.6514 5.65074,2.58734 7.60125,4.11449 0.97923,0.76669 3.18189,2.50333 4.8948,3.8592 2.57528,2.03849 3.98234,2.8987 8.12876,4.96954 5.02036,2.50731 9.08051,3.99151 15.88769,5.8078 2.69671,0.71953 3.41454,1.05424 3.15647,1.4718 -0.20912,0.33837 -1.84323,0.25169 -6.19918,-0.3288 z m -59.423789,-4.03612 c -0.07728,-0.2014 0.07589,-0.82578 0.340386,-1.38751 0.415123,-0.88162 0.707006,-1.10191 2.133923,-1.61051 0.90916,-0.32405 2.56392,-1.01005 3.67725,-1.52444 l 2.02424,-0.93526 1.28131,0.82221 c 0.70472,0.45222 1.21745,0.92553 1.1394,1.05181 -0.26644,0.43111 -4.48223,2.57326 -6.42025,3.26229 -2.140172,0.7609 -3.954041,0.9005 -4.176259,0.32141 z m 15.569949,-8.69579 c -0.46837,-0.32742 -0.85365,-0.75181 -0.85617,-0.94308 -0.007,-0.52688 2.18463,-2.95925 2.6664,-2.95939 0.49628,-1.6e-4 1.29778,0.8148 1.29778,1.31957 0,0.29015 -1.99471,3.17821 -2.19511,3.17821 -0.0337,0 -0.44452,-0.26789 -0.9129,-0.59531 z"
         id="path1174" />
      <path
         style="fill:#272424;stroke-width:0.264583"
         d="m 141.87186,189.39641 c -0.0766,-0.19958 -0.10261,-4.69419 -0.0578,-9.98802 0.0729,-8.61477 0.13059,-9.71515 0.54993,-10.48255 0.89051,-1.62961 1.42347,-1.78843 6.00172,-1.78843 4.80334,0 5.5954,0.21704 6.376,1.74713 0.46119,0.90401 0.51522,1.58121 0.51522,6.45755 0,5.98917 -0.14082,6.65763 -1.55667,7.3898 -1.13472,0.58678 -3.92552,0.95941 -5.78108,0.7719 -2.36865,-0.23937 -2.45184,-0.12477 -2.45184,3.37748 v 2.87802 h -1.72809 c -1.22006,0 -1.76904,-0.10668 -1.86735,-0.36288 z m 9.60372,-10.48504 c 0.4515,-0.89437 0.45154,-6.51384 6e-5,-7.40833 -0.31238,-0.61889 -0.48175,-0.66637 -2.63178,-0.73776 -3.31334,-0.11001 -3.37656,-0.026 -3.37656,4.48724 0,4.50724 -0.006,4.49949 3.28346,4.39573 2.24981,-0.071 2.41061,-0.11445 2.72482,-0.73688 z m -62.761399,6.16418 c -0.840679,-0.20906 -1.698334,-1.14995 -1.983301,-2.17578 -0.34848,-1.25446 -0.337926,-10.19984 0.01352,-11.46538 0.473731,-1.70585 1.094018,-1.91573 5.66188,-1.91573 h 3.980809 v 1.32292 1.32292 l -1.774375,-0.0926 c -2.267738,-0.1183 -4.348445,0.16777 -4.847082,0.66641 -0.310636,0.31064 -0.389993,1.23918 -0.389993,4.56342 0,5.28308 -0.188505,5.04919 4.069556,5.04919 h 3.101848 l -0.07997,1.38907 -0.07997,1.38906 -3.571875,0.039 c -1.964531,0.0215 -3.81,-0.0202 -4.101041,-0.0926 z m 12.925949,-1.95514 c -1.18844,-0.34431 -2.374652,-1.55571 -2.71153,-2.7691 -0.373788,-1.34632 -0.373788,-5.76689 0,-7.11321 0.671211,-2.4176 2.64729,-3.21539 7.76332,-3.13422 2.14594,0.0341 3.55442,-0.0525 3.77032,-0.23168 0.50211,-0.41672 0.42198,-1.20225 -0.18452,-1.80874 -0.49557,-0.49557 -0.88194,-0.52917 -6.08542,-0.52917 h -5.556245 v -2.13269 -2.13268 l 6.945315,0.0822 c 10.04225,0.1188 9.55655,-0.36384 9.66812,9.60717 0.0752,6.72397 0.0633,6.906 -0.52917,8.0687 -0.39884,0.78271 -0.9681,1.39202 -1.66447,1.78158 -0.99091,0.55433 -1.36176,0.59081 -5.82084,0.57254 -2.61937,-0.0107 -5.13707,-0.12803 -5.59488,-0.26066 z m 8.65239,-4.62375 c 0.1893,-0.22809 0.35271,-1.01237 0.36313,-1.74284 0.0286,-2.00807 -0.51753,-2.34037 -3.84682,-2.34037 -3.16011,0 -3.67486,0.31502 -3.67486,2.24896 0,1.97081 0.48685,2.24896 3.93636,2.24896 2.29046,0 2.94828,-0.0847 3.22219,-0.41471 z m 7.9227,-1.97968 c 0,-7.49952 0.071,-7.91909 1.49796,-8.85408 0.53422,-0.35004 1.42682,-0.51263 3.31276,-0.60344 2.39848,-0.1155 2.6846,-0.0739 4.03538,0.587 l 1.45387,0.71131 0.82042,-0.60657 c 0.71239,-0.52669 1.19268,-0.61767 3.64741,-0.69086 3.30614,-0.0986 4.38276,0.27766 5.14169,1.79687 0.40443,0.80959 0.46266,1.78279 0.46302,7.73906 l 4.1e-4,6.81302 h -1.70547 -1.70548 l -0.0805,-5.79367 c -0.0958,-6.89674 -0.0994,-6.90633 -2.62001,-6.90633 -2.35083,0 -2.35525,0.013 -2.35525,6.93804 v 5.76196 h -1.71979 -1.71979 l -0.004,-5.6224 c -0.005,-6.87562 -0.0169,-6.91344 -2.25234,-7.02238 -2.69864,-0.13151 -2.62503,-0.31208 -2.71877,6.66992 l -0.0802,5.97486 h -1.70573 -1.70572 z M 66.40388,163.80631 c 0.10422,-6.81752 -0.02261,-6.59077 3.686487,-6.59077 3.340007,0 3.410273,0.0889 3.410273,4.31505 0,4.18292 -0.02127,4.21472 -2.946874,4.40477 l -2.212501,0.14372 -0.07877,1.65365 -0.07877,1.65364 H 67.25115 66.318576 Z m 5.19176,0.23548 c 0.191243,-0.19124 0.3175,-1.11713 0.3175,-2.32833 0,-1.21121 -0.126257,-2.13709 -0.3175,-2.32834 -0.174625,-0.17462 -0.865188,-0.3175 -1.534583,-0.3175 -0.669396,0 -1.359959,0.14288 -1.534584,0.3175 -0.192323,0.19233 -0.3175,1.12597 -0.3175,2.3681 0,1.67383 0.08508,2.10016 0.463021,2.32029 0.641541,0.37367 2.538847,0.35308 2.923646,-0.0317 z m -35.665832,1.37583 c -0.291041,-0.29104 -0.541035,-0.43987 -0.55554,-0.33073 -0.01451,0.10914 -0.1217,-0.0992 -0.23821,-0.46302 -0.275456,-0.86011 -0.275456,-8.4003 0,-9.26041 0.11651,-0.36381 0.223704,-0.54941 0.23821,-0.41246 0.0145,0.13696 0.195139,0.0179 0.401408,-0.26458 0.336165,-0.46036 0.713212,-0.51359 3.63802,-0.51359 h 3.262987 v 0.87109 0.87109 l -2.274505,0.055 c -3.166811,0.0765 -3.150369,0.0557 -3.145402,3.98994 0.0022,1.76482 0.116591,3.38735 0.25414,3.60563 0.181921,0.2887 0.920026,0.43293 2.707927,0.52917 l 2.45784,0.13229 0.08291,0.85989 0.08291,0.8599 h -3.191764 c -2.838985,0 -3.250251,-0.0585 -3.72093,-0.52917 z m 8.904549,0.0453 c -0.621629,-0.68689 -0.621989,-4.06105 -4.76e-4,-4.57685 0.262264,-0.21766 1.27643,-0.40111 2.532933,-0.45817 2.184912,-0.0992 2.72489,-0.42294 2.05396,-1.23136 -0.244185,-0.29422 -0.919295,-0.39351 -2.675446,-0.39351 h -2.348853 v -0.79375 -0.79375 h 2.881104 c 4.116923,0 4.130354,0.014 4.130354,4.31447 0,4.3725 -0.03581,4.41678 -3.571875,4.41678 -2.147768,0 -2.634878,-0.0785 -3.001701,-0.48386 z m 4.435269,-1.26424 c 0.494452,-0.18974 0.560982,-1.44318 0.101015,-1.90315 -0.411641,-0.41164 -2.657526,-0.41164 -3.069167,0 -0.40812,0.40812 -0.40812,1.33813 0,1.74625 0.332168,0.33217 2.247559,0.43342 2.968152,0.1569 z m 4.122681,-2.08836 c 0,-3.53388 0.04344,-3.8799 0.550786,-4.38724 0.485416,-0.48542 0.760182,-0.5323 2.315104,-0.39502 2.205229,0.1947 2.910908,0.1947 5.116137,0 1.554922,-0.13728 1.829689,-0.0904 2.315104,0.39502 0.507346,0.50734 0.550786,0.85336 0.550786,4.38724 v 3.83646 h -0.79375 -0.79375 v -3.14261 c 0,-3.55803 -0.126802,-3.82258 -1.767473,-3.68749 l -1.010652,0.0832 -0.07405,3.37344 -0.07405,3.37344 h -0.918136 -0.918137 v -3.31297 c 0,-3.23512 -0.01484,-3.31972 -0.631475,-3.60068 -0.477137,-0.2174 -0.816634,-0.19909 -1.389062,0.0749 l -0.757588,0.36263 -0.07429,3.23805 -0.07429,3.23806 h -0.785606 -0.785607 z m 104.260483,-4.65707 c -8.60897,-1.13962 -16.89898,-3.23822 -21.0408,-5.32644 -3.72056,-1.87583 -6.35419,-4.12118 -8.83146,-7.52944 -2.41454,-3.32194 -4.66659,-5.02599 -7.79394,-5.89741 -0.84476,-0.23538 -1.52711,-0.54122 -1.51632,-0.67964 0.0366,-0.47029 1.43407,-0.63222 3.24258,-0.37573 3.58073,0.50784 6.97044,2.32208 12.10903,6.481 4.42142,3.57847 6.15244,4.73903 9.93711,6.66233 5.21976,2.65259 9.79987,4.29745 17.64946,6.33848 0.98226,0.25541 1.78594,0.55854 1.78594,0.67363 0,0.30156 -1.22122,0.22514 -5.5416,-0.34678 z M 98.256074,153.5387 c -0.08065,-0.13049 0.01185,-0.6142 0.205584,-1.07491 0.305871,-0.72746 0.732107,-0.99443 3.239862,-2.02924 1.58821,-0.65536 3.22242,-1.33162 3.63157,-1.50279 0.62862,-0.26299 0.88479,-0.22952 1.65292,0.21596 0.49996,0.28995 0.9256,0.64625 0.94587,0.79177 0.0542,0.38928 -3.82943,2.40029 -6.12173,3.16991 -2.053889,0.68958 -3.300174,0.84012 -3.554076,0.4293 z m 15.218526,-8.99744 -0.63959,-0.49167 1.03646,-1.34326 c 1.12221,-1.45439 1.33641,-1.55619 2.0999,-0.99791 0.59262,0.43333 0.3844,1.08806 -0.78983,2.48355 -0.83406,0.99122 -0.86395,0.99733 -1.70694,0.34929 z"
         id="path1172" />
    </g>
  </g>
</svg>
