<?xml version="1.0" encoding="UTF-8" standalone="no"?>
<!-- Created with Inkscape (http://www.inkscape.org/) -->

<svg
   version="1.1"
   id="svg831"
   width="171.91457"
   height="152.76456"
   viewBox="0 0 171.91457 152.76456"
   sodipodi:docname="gamssteig.png"
   inkscape:version="1.1.2 (b8e25be833, 2022-02-05)"
   xmlns:inkscape="http://www.inkscape.org/namespaces/inkscape"
   xmlns:sodipodi="http://sodipodi.sourceforge.net/DTD/sodipodi-0.dtd"
   xmlns="http://www.w3.org/2000/svg"
   xmlns:svg="http://www.w3.org/2000/svg">
  <defs
     id="defs835" />
  <sodipodi:namedview
     id="namedview833"
     pagecolor="#ffffff"
     bordercolor="#666666"
     borderopacity="1.0"
     inkscape:pageshadow="2"
     inkscape:pageopacity="0.0"
     inkscape:pagecheckerboard="0"
     showgrid="false"
     inkscape:zoom="2.3964286"
     inkscape:cx="79.076006"
     inkscape:cy="104.11326"
     inkscape:window-width="1822"
     inkscape:window-height="1051"
     inkscape:window-x="-9"
     inkscape:window-y="-9"
     inkscape:window-maximized="1"
     inkscape:current-layer="g837" />
  <g
     inkscape:groupmode="layer"
     inkscape:label="Image"
     id="g837"
     transform="translate(-201.30575,-60.171525)">
    <path
       style="fill:#c90404;fill-opacity:1"
       d="m 281.14938,211.53149 c -4.48256,-2.43617 -14.28481,-18.21171 -25.18964,-40.53965 -13.41294,-27.4634 -14.71871,-30.52022 -15.36081,-35.95981 -0.57076,-4.83512 1.95832,-12.7957 5.76251,-18.13819 2.74013,-3.84815 1.68051,-7.27272 -7.07382,-22.861808 -7.26145,-12.93068 -12.70534,-19.19703 -19.46342,-22.40395 -3.33553,-1.58281 -3.78511,-1.58361 -7.09574,-0.0126 -4.68654,2.22391 -5.74285,4.51217 -5.57864,12.08488 0.10836,4.99726 -0.17596,6.33169 -1.34906,6.33169 -4.0216,0 -6.03849,-13.1639 -3.09591,-20.20648 1.6771,-4.01387 8.16933,-8.69388 13.19079,-9.50875 6.16235,-1.00001 14.64332,3.20988 22.75982,11.29779 7.68374,7.65669 9.55867,10.20359 17.60701,23.91744 2.90504,4.949998 5.3311,9.068858 5.39123,9.153028 0.0601,0.0842 3.93434,-0.52212 8.60934,-1.34729 6.25989,-1.10493 11.92604,-1.33081 21.5,-0.85713 7.15,0.35376 14.96748,0.73504 17.37218,0.84729 l 4.37217,0.2041 5.33339,-8.999998 c 7.95339,-13.42123 9.25628,-15.17512 17.01379,-22.9033 8.13323,-8.10247 16.60991,-12.31253 22.77587,-11.31193 5.02146,0.81487 11.51369,5.49488 13.19079,9.50875 2.94258,7.04258 0.92569,20.20648 -3.09591,20.20648 -1.1731,0 -1.45742,-1.33443 -1.34906,-6.33169 0.16421,-7.57271 -0.8921,-9.86097 -5.57864,-12.08488 -3.3254,-1.578 -3.7565,-1.57303 -7.28458,0.0841 -6.38699,2.99991 -13.29633,11.10465 -20.02924,23.49453 -8.28062,15.237998 -8.67246,16.708958 -5.63991,21.171768 4.23616,6.23406 6.66943,13.70046 6.08326,18.6662 -0.6421,5.43959 -1.94787,8.49641 -15.36081,35.95981 -11.1225,22.77365 -20.77315,38.19756 -25.39563,40.58793 -3.53396,1.82749 -9.61137,1.80495 -13.02133,-0.0483 z m 10.11617,-16.00076 c 1.59676,-0.82571 4.21605,-3.41321 5.82064,-5.75 5.73241,-8.34815 18.38187,-35.39591 21.8408,-46.70119 1.18949,-3.88778 1.1548,-5.09266 -0.27355,-9.5 -1.97544,-6.09544 -5.48594,-10.08477 -10.30535,-11.71099 -2.24712,-0.75825 -9.92938,-1.20971 -20.58505,-1.20971 -10.65567,0 -18.33793,0.45146 -20.58505,1.20971 -4.81941,1.62622 -8.32991,5.61555 -10.30535,11.71099 -1.42835,4.40734 -1.46304,5.61222 -0.27355,9.5 3.45702,11.29903 16.10782,38.35219 21.83441,46.69191 2.57444,3.7492 6.81703,7.10478 9.1292,7.22054 0.43981,0.022 2.1061,-0.63554 3.70285,-1.46126 z"
       id="path1108" />
  </g>
</svg>
