<?xml version="1.0" encoding="UTF-8" standalone="no"?>
<!-- Created with Inkscape (http://www.inkscape.org/) -->

<svg
   width="18.256248mm"
   height="6.0854201mm"
   viewBox="0 0 18.256248 6.0854201"
   version="1.1"
   id="svg1820"
   inkscape:version="1.1.2 (b8e25be833, 2022-02-05)"
   xmlns:inkscape="http://www.inkscape.org/namespaces/inkscape"
   xmlns:sodipodi="http://sodipodi.sourceforge.net/DTD/sodipodi-0.dtd"
   xmlns="http://www.w3.org/2000/svg"
   xmlns:svg="http://www.w3.org/2000/svg">
  <sodipodi:namedview
     id="namedview1822"
     pagecolor="#ffffff"
     bordercolor="#666666"
     borderopacity="1.0"
     inkscape:pageshadow="2"
     inkscape:pageopacity="0.0"
     inkscape:pagecheckerboard="0"
     inkscape:document-units="mm"
     showgrid="false"
     inkscape:zoom="3.0574074"
     inkscape:cx="62.634767"
     inkscape:cy="2.4530588"
     inkscape:window-width="1822"
     inkscape:window-height="1051"
     inkscape:window-x="-9"
     inkscape:window-y="-9"
     inkscape:window-maximized="1"
     inkscape:current-layer="layer1" />
  <defs
     id="defs1817" />
  <g
     inkscape:label="Ebene 1"
     inkscape:groupmode="layer"
     id="layer1"
     transform="translate(-57.684537,-182.45)">
    <path
       style="fill:#d40000;stroke-width:0.264583"
       d="m 57.684537,185.88958 v -2.64583 h 0.661458 c 0.579564,0 0.661458,0.11465 0.661458,0.92604 0,0.90399 0.0252,0.92604 1.058334,0.92604 1.033135,0 1.058333,-0.022 1.058333,-0.92604 0,-0.85254 0.063,-0.92604 0.79375,-0.92604 h 0.79375 v 2.64583 2.64584 h -0.79375 c -0.749653,0 -0.79375,-0.0588 -0.79375,-1.05834 v -1.05833 h -1.058333 -1.058334 v 1.05833 c 0,0.9525 -0.06615,1.05834 -0.661458,1.05834 h -0.661458 z m 5.688541,0.79375 c 0,-1.79916 0.0189,-1.85208 0.661458,-1.85208 0.64256,0 0.661459,0.0529 0.661459,1.85208 0,1.79917 -0.0189,1.85209 -0.661459,1.85209 -0.642559,0 -0.661458,-0.0529 -0.661458,-1.85209 z m 1.984375,-0.79375 v -2.64583 h 0.661458 c 0.617361,0 0.661459,0.0882 0.661459,1.32292 0,1.41743 0.204459,1.63903 0.732347,0.79375 0.217419,-0.34815 0.617016,-0.52917 1.168099,-0.52917 h 0.837628 l -0.580813,0.61825 -0.580813,0.61824 0.689605,1.23384 0.689604,1.23384 h -0.784271 c -0.622896,0 -0.852288,-0.16421 -1.114828,-0.79804 -0.26245,-0.63361 -0.405347,-0.73596 -0.693557,-0.49677 -0.199651,0.1657 -0.363001,0.52481 -0.363001,0.79804 0,0.3535 -0.190768,0.49677 -0.661459,0.49677 h -0.661458 z m 4.497916,0.79375 c 0,-1.79916 0.0189,-1.85208 0.661459,-1.85208 0.363802,0 0.661458,0.14287 0.661458,0.3175 0,0.24694 0.07056,0.24694 0.3175,0 0.387833,-0.38783 1.27,-0.42004 1.27,-0.0464 0,0.14912 -0.281418,0.37813 -0.625373,0.5089 -0.728632,0.27703 -0.962127,0.76719 -0.962127,2.01973 0,0.78831 -0.08491,0.90441 -0.661458,0.90441 -0.64256,0 -0.661459,-0.0529 -0.661459,-1.85209 z m 4.348107,-2.40959 c -0.120716,-0.19532 -0.0011,-0.23582 0.358993,-0.12153 0.297019,0.0943 0.616612,0.0475 0.710207,-0.10395 0.09457,-0.15302 -0.04834,-0.27534 -0.321692,-0.27534 -0.270526,0 -0.625436,-0.13357 -0.788689,-0.29683 -0.510585,-0.51058 -0.06809,-1.02609 0.880757,-1.02609 0.818726,0 0.897734,0.069 0.897734,0.78444 0,1.02978 -1.272661,1.79112 -1.73731,1.0393 z m 1.064552,-1.01171 c 0.195671,-0.3166 -0.302055,-0.6303 -0.654475,-0.41249 -0.295899,0.18288 -0.101644,0.65879 0.268899,0.65879 0.128345,0 0.301854,-0.11083 0.385576,-0.2463 z m -11.858338,0.37859 c 0.197091,-0.51361 1.052602,-0.51361 1.249693,0 0.114072,0.29727 -0.04276,0.39688 -0.624847,0.39688 -0.58209,0 -0.738918,-0.0996 -0.624846,-0.39688 z m 4.725888,-0.13229 c 0.08994,-0.14552 0.216026,-0.26458 0.280198,-0.26458 0.06417,0 0.116677,0.11906 0.116677,0.26458 0,0.14552 -0.126089,0.26459 -0.280198,0.26459 -0.154109,0 -0.206614,-0.11907 -0.116677,-0.26459 z m 1.38117,-0.0759 c -0.235884,-0.6147 0.219688,-1.02984 1.028789,-0.93748 0.559541,0.0639 0.765041,0.22947 0.765041,0.6165 0,0.39902 -0.203186,0.54894 -0.826123,0.60956 -0.522534,0.0508 -0.878152,-0.0552 -0.967707,-0.28858 z m 1.396955,-0.32098 c 0,-0.21828 -0.171567,-0.39688 -0.38126,-0.39688 -0.442025,0 -0.740412,0.37764 -0.493492,0.62456 0.316219,0.31622 0.874752,0.17084 0.874752,-0.22768 z m 1.322916,0 c 0,-0.51576 0.131131,-0.65686 0.595313,-0.64057 0.327422,0.0115 0.446484,0.0809 0.264583,0.15434 -0.181901,0.0734 -0.330729,0.36165 -0.330729,0.64057 0,0.27891 -0.119063,0.50712 -0.264583,0.50712 -0.145521,0 -0.264584,-0.29766 -0.264584,-0.66146 z"
       id="path1893" />
  </g>
</svg>
