<?xml version="1.0" encoding="UTF-8" standalone="no"?>
<!-- Created with Inkscape (http://www.inkscape.org/) -->

<svg
   width="96.302643mm"
   height="112.65504mm"
   viewBox="0 0 96.302643 112.65504"
   version="1.1"
   id="svg2019"
   inkscape:version="1.1.2 (b8e25be833, 2022-02-05)"
   xmlns:inkscape="http://www.inkscape.org/namespaces/inkscape"
   xmlns:sodipodi="http://sodipodi.sourceforge.net/DTD/sodipodi-0.dtd"
   xmlns="http://www.w3.org/2000/svg"
   xmlns:svg="http://www.w3.org/2000/svg">
  <sodipodi:namedview
     id="namedview2021"
     pagecolor="#ffffff"
     bordercolor="#666666"
     borderopacity="1.0"
     inkscape:pageshadow="2"
     inkscape:pageopacity="0.0"
     inkscape:pagecheckerboard="0"
     inkscape:document-units="mm"
     showgrid="false"
     inkscape:zoom="0.76435185"
     inkscape:cx="238.76439"
     inkscape:cy="297.6378"
     inkscape:window-width="1822"
     inkscape:window-height="1051"
     inkscape:window-x="-9"
     inkscape:window-y="-9"
     inkscape:window-maximized="1"
     inkscape:current-layer="layer1" />
  <defs
     id="defs2016" />
  <g
     inkscape:label="Ebene 1"
     inkscape:groupmode="layer"
     id="layer1"
     transform="translate(-41.848678,-70.018638)">
    <rect
       style="fill:#a6b339;fill-opacity:1;stroke-width:0.331523"
       id="rect2424"
       width="69.230774"
       height="69.57692"
       x="53.653847"
       y="79.615387" />
    <path
       style="fill:#000000;stroke-width:0.264583"
       d="m 88.277371,182.20479 c -1.38738,-0.64373 -1.84119,-1.16044 -7.48474,-8.52214 -3.66503,-4.78083 -5.02506,-6.36405 -5.79576,-6.74687 -0.92806,-0.46099 -1.91955,-0.51057 -12.64866,-0.63249 l -11.64167,-0.13229 -1.77888,-0.8427 c -3.12263,-1.47925 -5.57652,-4.28067 -6.58339,-7.51574 -0.48227,-1.54953 -0.50102,-3.04641 -0.4948,-39.48857 0.004,-24.577768 0.10045,-38.285668 0.27413,-39.039038 0.95719,-4.15201 4.45402,-7.79868 8.50916,-8.87379 1.5201,-0.40301 4.93406,-0.43379 40.17195,-0.36217 l 38.510679,0.0783 2.01757,0.99718 c 3.1495,1.55663 5.23393,3.87313 6.31654,7.0198 0.48374,1.40599 0.50182,2.84762 0.50182,39.994938 v 38.53637 l -0.56378,1.66944 c -1.13122,3.34978 -4.12538,6.27892 -7.5777,7.41318 -1.56131,0.51296 -2.27944,0.5455 -12.17084,0.55144 -5.7814,0.003 -10.97866,0.11463 -11.54949,0.24702 -0.57082,0.13239 -1.34473,0.46667 -1.71979,0.74285 -0.37506,0.27618 -3.0671,3.58806 -5.982309,7.35975 -4.39967,5.69228 -5.49951,6.95877 -6.47221,7.45292 -1.41667,0.7197 -2.43347,0.74424 -3.83783,0.0926 z m 11.773959,-33.71441 c 11.06264,-2.65191 16.70799,-9.44406 18.40116,-22.13917 0.48243,-3.61723 0.5537,-12.29307 0.12931,-15.74271 -1.27288,-10.34667 -5.37088,-17.085028 -12.53771,-20.615888 -4.31374,-2.12523 -9.133889,-3.06023 -15.789289,-3.06276 -7.15509,-0.003 -11.64424,0.87767 -16.39722,3.21572 -2.42667,1.19371 -3.07937,1.67077 -5.15937,3.77101 -2.73465,2.76125 -4.1923,5.12784 -5.3921,8.754418 -1.67643,5.06724 -2.29827,10.32217 -2.06644,17.4625 0.58221,17.93151 6.93677,26.47095 21.48145,28.8674 1.47128,0.24241 4.01249,0.31928 8.33437,0.2521 5.5264,-0.0859 6.52659,-0.1707 8.995839,-0.76262 z M 86.954451,136.14724 c -5.45764,-0.77898 -8.29338,-3.61447 -9.57877,-9.57791 -0.69006,-3.20147 -0.6854,-13.65991 0.007,-16.88687 0.96417,-4.49018 3.18177,-7.50584 6.40685,-8.71249 2.16116,-0.8086 5.92138,-1.160358 8.7055,-0.81439 6.30713,0.78375 9.130139,3.5462 10.304549,10.08349 1.22495,6.81864 0.53581,16.76487 -1.42835,20.61495 -1.2685,2.48645 -3.783359,4.35861 -6.747119,5.0228 -1.77498,0.39778 -5.78687,0.53922 -7.67018,0.27042 z"
       id="path2302" />
  </g>
</svg>
