<?xml version="1.0" encoding="UTF-8"?>
<svg id="Ebene_1" xmlns="http://www.w3.org/2000/svg" version="1.1" viewBox="0 0 465.73 171.21">
  <!-- Generator: Adobe Illustrator 29.3.1, SVG Export Plug-In . SVG Version: 2.1.0 Build 151)  -->
  <defs>
    <style>
      .st0 {
        fill: #e6320f;
      }
    </style>
  </defs>
  <g>
    <path d="M276.67,152.5c-1.25,0-2.54-.58-2.54-2.02,0-1.15,1.08-2.02,2.81-2.02s2.9.79,2.9.79v1.56s-1.2,1.68-3.17,1.68M277.03,142.61c-2.42,0-4.15,1.13-4.15,1.13l.84,1.68s1.63-.94,3.31-.94c.89,0,2.81.31,2.81,2.62v.6s-1.3-.91-3.34-.91c-2.5,0-4.39,1.54-4.39,3.7,0,2.4,2.14,3.79,4.13,3.79,2.52,0,3.77-1.9,3.77-1.9v1.61h1.85v-7.3c0-2.06-1.56-4.08-4.82-4.08M265.39,139.35c0,.74.62,1.37,1.37,1.37s1.37-.62,1.37-1.37-.62-1.37-1.37-1.37-1.37.62-1.37,1.37M265.75,153.99h2.02v-11.09h-2.02v11.09ZM260.75,142.61c-2.11,0-3.1,1.99-3.1,1.99v-1.7h-1.87v11.09h2.02v-7.63s.79-1.87,2.54-1.87c.84,0,1.27.24,1.27.24l.74-1.82s-.7-.29-1.61-.29M244.36,144.73h2.16v6.07c0,2.45,1.75,3.48,3.34,3.48.65,0,1.34-.14,2.3-.67l-.74-1.66s-.65.46-1.27.46c-1.08,0-1.61-.62-1.61-1.7v-5.98h3.46v-1.82h-3.46v-3.38h-2.02v3.38h-2.16v1.82ZM232.24,151.95s1.63,2.33,4.75,2.33c2.14,0,4.39-1.1,4.39-3.24,0-2.26-1.8-3.05-3.91-3.5-1.82-.38-2.69-.84-2.69-1.68,0-.72.7-1.42,2.11-1.42,1.68,0,2.78,1.22,2.78,1.22l1.32-1.37s-1.49-1.68-4.1-1.68c-2.47,0-4.08,1.58-4.08,3.19,0,2.09,1.68,3.02,4.06,3.5,1.7.34,2.52.82,2.52,1.78,0,.89-1.27,1.37-2.4,1.37-2.18,0-3.36-1.8-3.36-1.8l-1.39,1.3ZM223.17,154.28c2.4,0,3.41-1.99,3.41-1.99v1.7h1.87v-11.09h-2.02v7.68s-.89,1.82-2.76,1.82c-1.49,0-2.66-.82-2.66-2.71v-6.79h-2.02v7.13c0,2.74,1.97,4.25,4.18,4.25M208.34,140.07l2.88,7.46h-5.76l2.88-7.46ZM200.8,153.99h2.16l1.75-4.54h7.25l1.75,4.54h2.11l-6.55-16.8h-1.87l-6.6,16.8ZM183.26,144.73h2.3v9.26h2.02v-9.26h2.88v-1.82h-2.88v-3.7c0-1.08.6-1.78,1.68-1.78.62,0,1.3.43,1.3.43l.74-1.66c-.96-.53-1.68-.65-2.33-.65-1.58,0-3.41,1.18-3.41,3.53v3.82h-2.3v1.82ZM174.86,152.41c-2.23,0-3.7-1.78-3.7-3.96s1.46-3.96,3.7-3.96,3.7,1.78,3.7,3.96-1.46,3.96-3.7,3.96M174.86,142.61c-3.26,0-5.71,2.57-5.71,5.83s2.45,5.83,5.71,5.83,5.71-2.57,5.71-5.83-2.45-5.83-5.71-5.83M157.05,150.82s-1.08,1.58-3.24,1.58-3.7-1.78-3.7-3.96,1.46-3.96,3.7-3.96c1.97,0,3.05,1.34,3.05,1.34l1.37-1.22s-1.58-1.99-4.42-1.99c-3.26,0-5.71,2.59-5.71,5.83s2.45,5.83,5.71,5.83c2.93,0,4.54-2.14,4.54-2.14l-1.3-1.32ZM141.62,139.35c0,.74.62,1.37,1.37,1.37s1.37-.62,1.37-1.37-.62-1.37-1.37-1.37-1.37.62-1.37,1.37M141.98,153.99h2.02v-11.09h-2.02v11.09ZM134.66,153.99h2.02v-18.14h-2.02v18.14ZM121.53,146.41s1.06-1.92,3.26-1.92,3.67,1.78,3.67,3.96-1.42,3.96-3.67,3.96-3.26-1.92-3.26-1.92v-4.08ZM125.11,142.61c-2.45,0-3.58,1.66-3.58,1.66v-8.42h-2.02v18.14h1.85v-1.61s1.08,1.9,3.74,1.9c3,0,5.38-2.57,5.38-5.83s-2.38-5.83-5.38-5.83M109.29,154.28c2.4,0,3.41-1.99,3.41-1.99v1.7h1.87v-11.09h-2.02v7.68s-.89,1.82-2.76,1.82c-1.49,0-2.66-.82-2.66-2.71v-6.79h-2.02v7.13c0,2.74,1.97,4.25,4.18,4.25M92.42,146.38s1.06-1.9,3.26-1.9,3.67,1.78,3.67,3.96-1.42,3.96-3.67,3.96-3.26-1.9-3.26-1.9v-4.13ZM90.4,142.9v16.61h2.02v-6.89c.38.5,1.54,1.66,3.58,1.66,3,0,5.38-2.57,5.38-5.83s-2.38-5.83-5.38-5.83c-2.64,0-3.74,1.9-3.74,1.9v-1.61h-1.85ZM77.73,147.49c.14-1.15,1.13-3,3.53-3,2.23,0,3.36,1.75,3.43,3h-6.96ZM81.26,142.61c-3.34,0-5.54,2.59-5.54,5.83s2.42,5.83,5.78,5.83c2.93,0,4.61-2.18,4.61-2.18l-1.27-1.32s-1.15,1.63-3.34,1.63-3.7-1.56-3.82-3.24h8.95c.02-.26.02-.43.02-.65,0-3.58-2.3-5.9-5.4-5.9M62.2,153.99h2.02v-6.86h1.56l4.54,6.86h2.42l-4.66-7.03c.48-.07,4.1-.82,4.1-4.8,0-3-2.28-4.97-5.62-4.97h-4.37v16.8ZM66.69,145.21h-2.47v-6.1h2.47c2.26,0,3.48,1.2,3.48,3.05s-1.22,3.05-3.48,3.05"/>
    <path d="M428.9,114.73h2.16v6.07c0,2.45,1.75,3.48,3.34,3.48.65,0,1.34-.14,2.3-.67l-.74-1.66s-.65.46-1.27.46c-1.08,0-1.61-.62-1.61-1.7v-5.98h3.46v-1.82h-3.46v-3.38h-2.02v3.38h-2.16v1.82ZM421.17,112.61c-2.4,0-3.41,1.85-3.41,1.85v-1.56h-1.87v11.09h2.02v-7.63s.96-1.87,2.76-1.87c1.49,0,2.66.82,2.66,2.71v6.79h2.02v-7.13c0-2.74-1.97-4.25-4.17-4.25M403.22,117.49c.14-1.15,1.13-3,3.53-3,2.23,0,3.36,1.75,3.43,3h-6.96ZM406.74,112.61c-3.34,0-5.54,2.59-5.54,5.83s2.42,5.83,5.78,5.83c2.93,0,4.61-2.18,4.61-2.18l-1.27-1.32s-1.15,1.63-3.34,1.63-3.7-1.56-3.82-3.24h8.95c.02-.26.02-.43.02-.65,0-3.58-2.3-5.9-5.4-5.9M393.62,112.61c-2.42,0-3.31,2.06-3.31,2.06,0,0-.7-2.06-3.46-2.06-2.26,0-3.07,1.92-3.07,1.92v-1.63h-1.87v11.09h2.02v-7.73s.74-1.78,2.38-1.78c1.44,0,2.38.89,2.38,2.69v6.82h2.02v-7.73s.72-1.78,2.38-1.78c1.44,0,2.38.89,2.38,2.69v6.82h2.02v-7.13c0-2.74-1.54-4.25-3.84-4.25M369.23,117.49c.14-1.15,1.13-3,3.53-3,2.23,0,3.36,1.75,3.43,3h-6.96ZM372.76,112.61c-3.34,0-5.54,2.59-5.54,5.83s2.42,5.83,5.78,5.83c2.93,0,4.61-2.18,4.61-2.18l-1.27-1.32s-1.15,1.63-3.34,1.63-3.7-1.56-3.82-3.24h8.95c.02-.26.02-.43.02-.65,0-3.58-2.3-5.9-5.4-5.9M361.46,120.53s-1.06,1.87-3.27,1.87-3.67-1.78-3.67-3.96,1.42-3.96,3.67-3.96,3.27,1.87,3.27,1.87v4.18ZM361.46,124.13c0,2.5-1.46,3.79-3.82,3.79s-3.62-1.75-3.62-1.75l-1.22,1.51s1.8,2.11,4.85,2.11c3.22,0,5.83-1.92,5.83-5.76v-11.14h-1.85v1.61s-1.08-1.9-3.74-1.9c-3,0-5.38,2.57-5.38,5.83s2.38,5.83,5.38,5.83c2.04,0,3.19-1.18,3.58-1.68v1.54ZM343.58,122.5c-1.25,0-2.54-.58-2.54-2.02,0-1.15,1.08-2.02,2.81-2.02s2.9.79,2.9.79v1.56s-1.2,1.68-3.17,1.68M343.94,112.61c-2.42,0-4.15,1.13-4.15,1.13l.84,1.68s1.63-.94,3.31-.94c.89,0,2.81.31,2.81,2.62v.6s-1.3-.91-3.34-.91c-2.5,0-4.39,1.54-4.39,3.7,0,2.4,2.14,3.79,4.13,3.79,2.52,0,3.77-1.9,3.77-1.9v1.61h1.85v-7.3c0-2.06-1.56-4.08-4.82-4.08M330.86,112.61c-2.4,0-3.41,1.85-3.41,1.85v-1.56h-1.87v11.09h2.02v-7.63s.96-1.87,2.76-1.87c1.49,0,2.66.82,2.66,2.71v6.79h2.02v-7.13c0-2.74-1.97-4.25-4.18-4.25M315.88,122.5c-1.25,0-2.54-.58-2.54-2.02,0-1.15,1.08-2.02,2.81-2.02s2.9.79,2.9.79v1.56s-1.2,1.68-3.17,1.68M316.24,112.61c-2.42,0-4.15,1.13-4.15,1.13l.84,1.68s1.63-.94,3.31-.94c.89,0,2.81.31,2.81,2.62v.6s-1.3-.91-3.34-.91c-2.5,0-4.39,1.54-4.39,3.7,0,2.4,2.14,3.79,4.13,3.79,2.52,0,3.77-1.9,3.77-1.9v1.61h1.85v-7.3c0-2.06-1.56-4.08-4.82-4.08M291.4,107.19v16.8h2.02v-13.13l5.74,9.31,5.74-9.34v13.15h2.02v-16.8h-1.94l-5.76,9.38-5.78-9.38h-2.02ZM278.18,112.61c-2.11,0-3.1,1.99-3.1,1.99v-1.7h-1.87v11.09h2.02v-7.63s.79-1.87,2.54-1.87c.84,0,1.27.24,1.27.24l.74-1.82s-.7-.29-1.61-.29M260.54,117.49c.14-1.15,1.13-3,3.53-3,2.23,0,3.36,1.75,3.43,3h-6.96ZM264.07,112.61c-3.34,0-5.54,2.59-5.54,5.83s2.42,5.83,5.78,5.83c2.93,0,4.61-2.18,4.61-2.18l-1.27-1.32s-1.15,1.63-3.34,1.63-3.7-1.56-3.82-3.24h8.95c.02-.26.02-.43.02-.65,0-3.58-2.3-5.9-5.4-5.9M247.87,114.73h2.16v6.07c0,2.45,1.75,3.48,3.34,3.48.65,0,1.34-.14,2.3-.67l-.74-1.66s-.65.46-1.27.46c-1.08,0-1.61-.62-1.61-1.7v-5.98h3.46v-1.82h-3.46v-3.38h-2.02v3.38h-2.16v1.82ZM239.13,122.5c-1.25,0-2.54-.58-2.54-2.02,0-1.15,1.08-2.02,2.81-2.02s2.9.79,2.9.79v1.56s-1.2,1.68-3.17,1.68M239.49,112.61c-2.42,0-4.15,1.13-4.15,1.13l.84,1.68s1.63-.94,3.31-.94c.89,0,2.81.31,2.81,2.62v.6s-1.3-.91-3.34-.91c-2.5,0-4.39,1.54-4.39,3.7,0,2.4,2.14,3.79,4.13,3.79,2.52,0,3.77-1.9,3.77-1.9v1.61h1.85v-7.3c0-2.06-1.56-4.08-4.82-4.08M233.42,107.19h-2.14l-4.3,11.64-4.08-11.64h-1.46l-4.13,11.64-4.25-11.64h-2.26l6.46,17.28,4.85-13.22,4.82,13.22,6.48-17.28ZM197.13,120.49s-1.06,1.92-3.26,1.92-3.67-1.78-3.67-3.96,1.46-3.96,3.67-3.96,3.26,1.92,3.26,1.92v4.08ZM193.55,112.61c-3,0-5.38,2.57-5.38,5.83s2.38,5.83,5.38,5.83c2.66,0,3.74-1.9,3.74-1.9v1.61h1.85v-18.14h-2.02v8.42s-1.13-1.66-3.58-1.66M180.26,112.61c-2.4,0-3.41,1.85-3.41,1.85v-1.56h-1.87v11.09h2.02v-7.63s.96-1.87,2.76-1.87c1.49,0,2.66.82,2.66,2.71v6.79h2.02v-7.13c0-2.74-1.97-4.25-4.18-4.25M165.28,122.5c-1.25,0-2.54-.58-2.54-2.02,0-1.15,1.08-2.02,2.81-2.02s2.9.79,2.9.79v1.56s-1.2,1.68-3.17,1.68M165.64,112.61c-2.42,0-4.15,1.13-4.15,1.13l.84,1.68s1.63-.94,3.31-.94c.89,0,2.81.31,2.81,2.62v.6s-1.3-.91-3.34-.91c-2.5,0-4.39,1.54-4.39,3.7,0,2.4,2.14,3.79,4.13,3.79,2.52,0,3.77-1.9,3.77-1.9v1.61h1.85v-7.3c0-2.06-1.56-4.08-4.82-4.08M140.01,121.95s1.63,2.33,4.75,2.33c2.14,0,4.39-1.1,4.39-3.24,0-2.26-1.8-3.05-3.91-3.5-1.82-.38-2.69-.84-2.69-1.68,0-.72.7-1.42,2.11-1.42,1.68,0,2.78,1.22,2.78,1.22l1.32-1.37s-1.49-1.68-4.1-1.68c-2.47,0-4.08,1.58-4.08,3.19,0,2.09,1.68,3.02,4.06,3.5,1.7.34,2.52.82,2.52,1.78,0,.89-1.27,1.37-2.4,1.37-2.18,0-3.36-1.8-3.36-1.8l-1.39,1.3ZM132.04,112.61c-2.4,0-3.41,1.85-3.41,1.85v-1.56h-1.87v11.09h2.02v-7.63s.96-1.87,2.76-1.87c1.49,0,2.66.82,2.66,2.71v6.79h2.02v-7.13c0-2.74-1.97-4.25-4.18-4.25M117.31,122.41c-2.23,0-3.7-1.78-3.7-3.96s1.46-3.96,3.7-3.96,3.7,1.78,3.7,3.96-1.46,3.96-3.7,3.96M117.31,112.61c-3.26,0-5.71,2.57-5.71,5.83s2.45,5.83,5.71,5.83,5.71-2.57,5.71-5.83-2.45-5.83-5.71-5.83M105.12,109.35c0,.74.62,1.37,1.37,1.37s1.37-.62,1.37-1.37-.62-1.37-1.37-1.37-1.37.62-1.37,1.37M105.48,123.99h2.02v-11.09h-2.02v11.09ZM98.59,120.53s-1.06,1.87-3.26,1.87-3.67-1.78-3.67-3.96,1.42-3.96,3.67-3.96,3.26,1.87,3.26,1.87v4.18ZM98.59,124.13c0,2.5-1.46,3.79-3.82,3.79s-3.62-1.75-3.62-1.75l-1.22,1.51s1.8,2.11,4.85,2.11c3.22,0,5.83-1.92,5.83-5.76v-11.14h-1.85v1.61s-1.08-1.9-3.74-1.9c-3,0-5.38,2.57-5.38,5.83s2.38,5.83,5.38,5.83c2.04,0,3.19-1.18,3.58-1.68v1.54ZM77.73,117.49c.14-1.15,1.13-3,3.53-3,2.23,0,3.36,1.75,3.43,3h-6.96ZM81.26,112.61c-3.34,0-5.54,2.59-5.54,5.83s2.42,5.83,5.78,5.83c2.93,0,4.61-2.18,4.61-2.18l-1.27-1.32s-1.15,1.63-3.34,1.63-3.7-1.56-3.82-3.24h8.95c.02-.26.02-.43.02-.65,0-3.58-2.3-5.9-5.4-5.9M62.2,123.99h2.02v-6.86h1.56l4.54,6.86h2.42l-4.66-7.03c.48-.07,4.1-.82,4.1-4.8,0-3-2.28-4.97-5.62-4.97h-4.37v16.8ZM66.69,115.21h-2.47v-6.1h2.47c2.26,0,3.48,1.2,3.48,3.05s-1.22,3.05-3.48,3.05"/>
    <path d="M406.7,97.4l1.7.6,2.06-5.59-1.82-.62-1.94,5.62ZM398.97,82.61c-2.4,0-3.41,1.85-3.41,1.85v-1.56h-1.87v11.09h2.02v-7.63s.96-1.87,2.76-1.87c1.49,0,2.66.82,2.66,2.71v6.79h2.02v-7.13c0-2.74-1.97-4.25-4.18-4.25M384.23,92.41c-2.23,0-3.7-1.78-3.7-3.96s1.46-3.96,3.7-3.96,3.7,1.78,3.7,3.96-1.46,3.96-3.7,3.96M384.23,82.61c-3.26,0-5.71,2.57-5.71,5.83s2.45,5.83,5.71,5.83,5.71-2.57,5.71-5.83-2.45-5.83-5.71-5.83M372.04,79.35c0,.74.62,1.37,1.37,1.37s1.37-.62,1.37-1.37-.62-1.37-1.37-1.37-1.37.62-1.37,1.37M372.4,93.99h2.02v-11.09h-2.02v11.09ZM360.62,84.73h2.16v6.07c0,2.45,1.75,3.48,3.34,3.48.65,0,1.34-.14,2.3-.67l-.74-1.66s-.65.46-1.27.46c-1.08,0-1.61-.62-1.61-1.7v-5.98h3.46v-1.82h-3.46v-3.38h-2.02v3.38h-2.16v1.82ZM356.87,90.82s-1.08,1.58-3.24,1.58-3.7-1.78-3.7-3.96,1.46-3.96,3.7-3.96c1.97,0,3.05,1.34,3.05,1.34l1.37-1.22s-1.58-1.99-4.42-1.99c-3.26,0-5.71,2.59-5.71,5.83s2.45,5.83,5.71,5.83c2.93,0,4.54-2.14,4.54-2.14l-1.3-1.32ZM336.02,87.49c.14-1.15,1.13-3,3.53-3,2.23,0,3.36,1.75,3.43,3h-6.96ZM339.55,82.61c-3.34,0-5.54,2.59-5.54,5.83s2.42,5.83,5.78,5.83c2.93,0,4.61-2.18,4.61-2.18l-1.27-1.32s-1.15,1.63-3.34,1.63-3.7-1.56-3.82-3.24h8.95c.02-.26.02-.43.02-.65,0-3.58-2.3-5.9-5.4-5.9M323.35,84.73h2.16v6.07c0,2.45,1.75,3.48,3.34,3.48.65,0,1.34-.14,2.3-.67l-.74-1.66s-.65.46-1.27.46c-1.08,0-1.61-.62-1.61-1.7v-5.98h3.46v-1.82h-3.46v-3.38h-2.02v3.38h-2.16v1.82ZM314.85,92.41c-2.23,0-3.7-1.78-3.7-3.96s1.46-3.96,3.7-3.96,3.7,1.78,3.7,3.96-1.46,3.96-3.7,3.96M314.85,82.61c-3.26,0-5.71,2.57-5.71,5.83s2.45,5.83,5.71,5.83,5.71-2.57,5.71-5.83-2.45-5.83-5.71-5.83M305.66,82.61c-2.11,0-3.1,1.99-3.1,1.99v-1.7h-1.87v11.09h2.02v-7.63s.79-1.87,2.54-1.87c.84,0,1.27.24,1.27.24l.74-1.82s-.7-.29-1.61-.29M289.03,85.4v-6.29h2.21c2.28,0,3.84,1.01,3.84,3.14s-1.56,3.14-3.84,3.14h-2.21ZM287.01,93.99h2.02v-6.67h2.33c3.5,0,5.74-1.85,5.74-5.06s-2.23-5.06-5.74-5.06h-4.34v16.8ZM271.46,93.99h2.02v-18.14h-2.02v18.14ZM261.33,92.5c-1.25,0-2.54-.58-2.54-2.02,0-1.15,1.08-2.02,2.81-2.02s2.9.79,2.9.79v1.56s-1.2,1.68-3.17,1.68M261.69,82.61c-2.42,0-4.15,1.13-4.15,1.13l.84,1.68s1.63-.94,3.31-.94c.89,0,2.81.31,2.81,2.62v.6s-1.3-.91-3.34-.91c-2.5,0-4.39,1.54-4.39,3.7,0,2.4,2.14,3.79,4.13,3.79,2.52,0,3.77-1.9,3.77-1.9v1.61h1.85v-7.3c0-2.06-1.56-4.08-4.82-4.08M245.87,84.73h2.16v6.07c0,2.45,1.75,3.48,3.34,3.48.65,0,1.34-.14,2.3-.67l-.74-1.66s-.65.46-1.27.46c-1.08,0-1.61-.62-1.61-1.7v-5.98h3.46v-1.82h-3.46v-3.38h-2.02v3.38h-2.16v1.82ZM238.15,82.61c-2.4,0-3.41,1.85-3.41,1.85v-1.56h-1.87v11.09h2.02v-7.63s.96-1.87,2.76-1.87c1.49,0,2.66.82,2.66,2.71v6.79h2.02v-7.13c0-2.74-1.97-4.25-4.18-4.25M220.19,87.49c.14-1.15,1.13-3,3.53-3,2.23,0,3.36,1.75,3.43,3h-6.96ZM223.72,82.61c-3.34,0-5.54,2.59-5.54,5.83s2.42,5.83,5.78,5.83c2.93,0,4.61-2.18,4.61-2.18l-1.27-1.32s-1.15,1.63-3.34,1.63-3.7-1.56-3.82-3.24h8.95c.02-.26.02-.43.02-.65,0-3.58-2.3-5.9-5.4-5.9M210.59,82.61c-2.42,0-3.31,2.06-3.31,2.06,0,0-.7-2.06-3.46-2.06-2.26,0-3.07,1.92-3.07,1.92v-1.63h-1.87v11.09h2.02v-7.73s.74-1.78,2.38-1.78c1.44,0,2.38.89,2.38,2.69v6.82h2.02v-7.73s.72-1.78,2.38-1.78c1.44,0,2.38.89,2.38,2.69v6.82h2.02v-7.13c0-2.74-1.54-4.25-3.84-4.25M190.2,82.61c-2.4,0-3.41,1.85-3.41,1.85v-1.56h-1.87v11.09h2.02v-7.63s.96-1.87,2.76-1.87c1.49,0,2.66.82,2.66,2.71v6.79h2.02v-7.13c0-2.74-1.97-4.25-4.18-4.25M175.46,92.41c-2.23,0-3.7-1.78-3.7-3.96s1.46-3.96,3.7-3.96,3.7,1.78,3.7,3.96-1.46,3.96-3.7,3.96M175.46,82.61c-3.26,0-5.71,2.57-5.71,5.83s2.45,5.83,5.71,5.83,5.71-2.57,5.71-5.83-2.45-5.83-5.71-5.83M166.27,82.61c-2.11,0-3.1,1.99-3.1,1.99v-1.7h-1.87v11.09h2.02v-7.63s.79-1.87,2.54-1.87c.84,0,1.27.24,1.27.24l.74-1.82s-.7-.29-1.61-.29M154.05,79.35c0,.74.62,1.37,1.37,1.37s1.37-.62,1.37-1.37-.62-1.37-1.37-1.37-1.37.62-1.37,1.37M154.41,93.99h2.02v-11.09h-2.02v11.09ZM139.84,82.9l5.54,11.57,5.54-11.57h-2.06l-3.41,7.51-3.41-7.51h-2.21ZM132.55,82.61c-2.4,0-3.41,1.85-3.41,1.85v-1.56h-1.87v11.09h2.02v-7.63s.96-1.87,2.76-1.87c1.49,0,2.66.82,2.66,2.71v6.79h2.02v-7.13c0-2.74-1.97-4.25-4.18-4.25M115.22,79.11h7.68v-1.92h-9.7v16.8h9.84v-1.92h-7.83v-5.74h7.11v-1.92h-7.11v-5.3ZM97.65,90.49s-1.06,1.92-3.26,1.92-3.67-1.78-3.67-3.96,1.46-3.96,3.67-3.96,3.26,1.92,3.26,1.92v4.08ZM94.08,82.61c-3,0-5.38,2.57-5.38,5.83s2.38,5.83,5.38,5.83c2.66,0,3.74-1.9,3.74-1.9v1.61h1.85v-18.14h-2.02v8.42s-1.13-1.66-3.58-1.66M80.78,82.61c-2.4,0-3.41,1.85-3.41,1.85v-1.56h-1.87v11.09h2.02v-7.63s.96-1.87,2.76-1.87c1.49,0,2.66.82,2.66,2.71v6.79h2.02v-7.13c0-2.74-1.97-4.25-4.18-4.25M65.8,92.5c-1.25,0-2.54-.58-2.54-2.02,0-1.15,1.08-2.02,2.81-2.02s2.9.79,2.9.79v1.56s-1.2,1.68-3.17,1.68M66.16,82.61c-2.42,0-4.15,1.13-4.15,1.13l.84,1.68s1.63-.94,3.31-.94c.89,0,2.81.31,2.81,2.62v.6s-1.3-.91-3.34-.91c-2.5,0-4.39,1.54-4.39,3.7,0,2.4,2.14,3.79,4.13,3.79,2.52,0,3.77-1.9,3.77-1.9v1.61h1.85v-7.3c0-2.06-1.56-4.08-4.82-4.08"/>
    <path d="M439.1,57.49c.14-1.15,1.13-3,3.53-3,2.23,0,3.36,1.75,3.43,3h-6.96ZM442.62,52.61c-3.34,0-5.54,2.59-5.54,5.83s2.42,5.83,5.78,5.83c2.93,0,4.61-2.18,4.61-2.18l-1.27-1.32s-1.15,1.63-3.34,1.63-3.7-1.56-3.82-3.24h8.95c.02-.26.02-.43.02-.65,0-3.58-2.3-5.9-5.4-5.9M426.42,54.73h2.16v6.07c0,2.45,1.75,3.48,3.34,3.48.65,0,1.34-.14,2.3-.67l-.74-1.66s-.65.46-1.27.46c-1.08,0-1.61-.62-1.61-1.7v-5.98h3.46v-1.82h-3.46v-3.38h-2.02v3.38h-2.16v1.82ZM417.69,62.5c-1.25,0-2.54-.58-2.54-2.02,0-1.15,1.08-2.02,2.81-2.02s2.9.79,2.9.79v1.56s-1.2,1.68-3.17,1.68M418.05,52.61c-2.42,0-4.15,1.13-4.15,1.13l.84,1.68s1.63-.94,3.31-.94c.89,0,2.81.31,2.81,2.62v.6s-1.3-.91-3.34-.91c-2.5,0-4.39,1.54-4.39,3.7,0,2.4,2.14,3.79,4.13,3.79,2.52,0,3.77-1.9,3.77-1.9v1.61h1.85v-7.3c0-2.06-1.56-4.08-4.82-4.08M405.3,52.61c-2.42,0-3.31,2.06-3.31,2.06,0,0-.7-2.06-3.46-2.06-2.26,0-3.07,1.92-3.07,1.92v-1.63h-1.87v11.09h2.02v-7.73s.74-1.78,2.38-1.78c1.44,0,2.38.89,2.38,2.69v6.82h2.02v-7.73s.72-1.78,2.38-1.78c1.44,0,2.38.89,2.38,2.69v6.82h2.02v-7.13c0-2.74-1.54-4.25-3.84-4.25M386.34,49.35c0,.74.62,1.37,1.37,1.37s1.37-.62,1.37-1.37-.62-1.37-1.37-1.37-1.37.62-1.37,1.37M386.7,63.99h2.02v-11.09h-2.02v11.09ZM379.38,63.99h2.02v-18.14h-2.02v18.14ZM375.3,49.47s-2.09-2.57-6.02-2.57c-4.85,0-8.3,3.84-8.3,8.69s3.46,8.69,8.3,8.69c3.94,0,6.22-2.76,6.22-2.76l-1.37-1.39s-1.8,2.23-4.85,2.23c-3.65,0-6.14-3.19-6.14-6.77s2.5-6.77,6.14-6.77c3.07,0,4.63,1.97,4.63,1.97l1.39-1.32ZM345.55,67.4l1.7.6,2.06-5.59-1.82-.62-1.94,5.62ZM333.67,69.01s.98.79,2.35.79c1.18,0,2.42-.62,3.07-2.23.26-.65,5.83-14.66,5.83-14.66h-2.18l-3.31,8.76-3.89-8.76h-2.28l5.18,11.14-.86,2.18c-.43,1.08-.84,1.7-1.73,1.7-.62,0-1.32-.58-1.32-.58l-.86,1.66ZM329.92,52.61c-2.11,0-3.1,1.99-3.1,1.99v-1.7h-1.87v11.09h2.02v-7.63s.79-1.87,2.54-1.87c.84,0,1.27.24,1.27.24l.74-1.82s-.7-.29-1.61-.29M313.53,54.73h2.16v6.07c0,2.45,1.75,3.48,3.34,3.48.65,0,1.34-.14,2.3-.67l-.74-1.66s-.65.46-1.27.46c-1.08,0-1.61-.62-1.61-1.7v-5.98h3.46v-1.82h-3.46v-3.38h-2.02v3.38h-2.16v1.82ZM301.41,61.95s1.63,2.33,4.75,2.33c2.14,0,4.39-1.1,4.39-3.24,0-2.26-1.8-3.05-3.91-3.5-1.82-.38-2.69-.84-2.69-1.68,0-.72.7-1.42,2.11-1.42,1.68,0,2.78,1.22,2.78,1.22l1.32-1.37s-1.49-1.68-4.1-1.68c-2.47,0-4.08,1.58-4.08,3.19,0,2.09,1.68,3.02,4.06,3.5,1.7.34,2.52.82,2.52,1.78,0,.89-1.27,1.37-2.4,1.37-2.18,0-3.36-1.8-3.36-1.8l-1.39,1.3ZM289.46,57.49c.14-1.15,1.13-3,3.53-3,2.23,0,3.36,1.75,3.43,3h-6.96ZM292.99,52.61c-3.34,0-5.54,2.59-5.54,5.83s2.42,5.83,5.78,5.83c2.93,0,4.61-2.18,4.61-2.18l-1.27-1.32s-1.15,1.63-3.34,1.63-3.7-1.56-3.82-3.24h8.95c.02-.26.02-.43.02-.65,0-3.58-2.3-5.9-5.4-5.9M283.96,52.61c-2.11,0-3.1,1.99-3.1,1.99v-1.7h-1.87v11.09h2.02v-7.63s.79-1.87,2.54-1.87c.84,0,1.27.24,1.27.24l.74-1.82s-.7-.29-1.61-.29M269.54,62.41c-2.23,0-3.7-1.78-3.7-3.96s1.46-3.96,3.7-3.96,3.7,1.78,3.7,3.96-1.46,3.96-3.7,3.96M269.54,52.61c-3.26,0-5.71,2.57-5.71,5.83s2.45,5.83,5.71,5.83,5.71-2.57,5.71-5.83-2.45-5.83-5.71-5.83M253.6,49.11h7.46v-1.92h-9.48v16.8h2.02v-7.66h6.98v-1.92h-6.98v-5.3ZM236.03,60.49s-1.06,1.92-3.26,1.92-3.67-1.78-3.67-3.96,1.46-3.96,3.67-3.96,3.26,1.92,3.26,1.92v4.08ZM232.46,52.61c-3,0-5.38,2.57-5.38,5.83s2.38,5.83,5.38,5.83c2.66,0,3.74-1.9,3.74-1.9v1.61h1.85v-18.14h-2.02v8.42s-1.13-1.66-3.58-1.66M219.16,52.61c-2.4,0-3.41,1.85-3.41,1.85v-1.56h-1.87v11.09h2.02v-7.63s.96-1.87,2.76-1.87c1.49,0,2.66.82,2.66,2.71v6.79h2.02v-7.13c0-2.74-1.97-4.25-4.18-4.25M204.19,62.5c-1.25,0-2.54-.58-2.54-2.02,0-1.15,1.08-2.02,2.81-2.02s2.9.79,2.9.79v1.56s-1.2,1.68-3.17,1.68M204.55,52.61c-2.42,0-4.15,1.13-4.15,1.13l.84,1.68s1.63-.94,3.31-.94c.89,0,2.81.31,2.81,2.62v.6s-1.3-.91-3.34-.91c-2.5,0-4.39,1.54-4.39,3.7,0,2.4,2.14,3.79,4.13,3.79,2.52,0,3.77-1.9,3.77-1.9v1.61h1.85v-7.3c0-2.06-1.56-4.08-4.82-4.08M179.32,57.49c.14-1.15,1.13-3,3.53-3,2.23,0,3.36,1.75,3.43,3h-6.96ZM182.85,52.61c-3.34,0-5.54,2.59-5.54,5.83s2.42,5.83,5.78,5.83c2.93,0,4.61-2.18,4.61-2.18l-1.27-1.32s-1.15,1.63-3.34,1.63-3.7-1.56-3.82-3.24h8.95c.02-.26.02-.43.02-.65,0-3.58-2.3-5.9-5.4-5.9M173.83,52.61c-2.11,0-3.1,1.99-3.1,1.99v-1.7h-1.87v11.09h2.02v-7.63s.79-1.87,2.54-1.87c.84,0,1.27.24,1.27.24l.74-1.82s-.7-.29-1.61-.29M159.07,64.28c2.4,0,3.41-1.99,3.41-1.99v1.7h1.87v-11.09h-2.02v7.68s-.89,1.82-2.76,1.82c-1.49,0-2.66-.82-2.66-2.71v-6.79h-2.02v7.13c0,2.74,1.97,4.25,4.18,4.25M143.47,54.73h2.16v6.07c0,2.45,1.75,3.48,3.34,3.48.65,0,1.34-.14,2.3-.67l-.74-1.66s-.65.46-1.27.46c-1.08,0-1.61-.62-1.61-1.7v-5.98h3.46v-1.82h-3.46v-3.38h-2.02v3.38h-2.16v1.82ZM137.47,63.99h2.02v-18.14h-2.02v18.14ZM127.24,64.28c2.4,0,3.41-1.99,3.41-1.99v1.7h1.87v-11.09h-2.02v7.68s-.89,1.82-2.76,1.82c-1.49,0-2.66-.82-2.66-2.71v-6.79h-2.02v7.13c0,2.74,1.97,4.25,4.18,4.25M118.36,60.82s-1.08,1.58-3.24,1.58-3.7-1.78-3.7-3.96,1.46-3.96,3.7-3.96c1.97,0,3.05,1.34,3.05,1.34l1.37-1.22s-1.58-1.99-4.42-1.99c-3.26,0-5.71,2.59-5.71,5.83s2.45,5.83,5.71,5.83c2.93,0,4.54-2.14,4.54-2.14l-1.3-1.32ZM102.93,49.35c0,.74.62,1.37,1.37,1.37s1.37-.62,1.37-1.37-.62-1.37-1.37-1.37-1.37.62-1.37,1.37M103.29,63.99h2.02v-11.09h-2.02v11.09ZM98.3,52.61c-2.11,0-3.1,1.99-3.1,1.99v-1.7h-1.87v11.09h2.02v-7.63s.79-1.87,2.54-1.87c.84,0,1.27.24,1.27.24l.74-1.82s-.7-.29-1.61-.29M86.8,60.53s-1.06,1.87-3.26,1.87-3.67-1.78-3.67-3.96,1.42-3.96,3.67-3.96,3.26,1.87,3.26,1.87v4.18ZM86.8,64.13c0,2.5-1.46,3.79-3.82,3.79s-3.62-1.75-3.62-1.75l-1.22,1.51s1.8,2.11,4.85,2.11c3.22,0,5.83-1.92,5.83-5.76v-11.14h-1.85v1.61s-1.08-1.9-3.74-1.9c-3,0-5.38,2.57-5.38,5.83s2.38,5.83,5.38,5.83c2.04,0,3.19-1.18,3.58-1.68v1.54ZM67.96,50.07l2.88,7.46h-5.76l2.88-7.46ZM60.43,63.99h2.16l1.75-4.54h7.25l1.75,4.54h2.11l-6.55-16.8h-1.87l-6.6,16.8Z"/>
    <path d="M237.67,39.01s.98.79,2.35.79c1.18,0,2.42-.62,3.07-2.23.26-.65,5.83-14.66,5.83-14.66h-2.18l-3.31,8.76-3.89-8.76h-2.28l5.18,11.14-.86,2.18c-.43,1.08-.84,1.7-1.73,1.7-.62,0-1.32-.58-1.32-.58l-.86,1.66ZM233.92,22.61c-2.11,0-3.1,1.99-3.1,1.99v-1.7h-1.87v11.09h2.02v-7.63s.79-1.87,2.54-1.87c.84,0,1.27.24,1.27.24l.74-1.82s-.7-.29-1.61-.29M217.53,24.73h2.16v6.07c0,2.45,1.75,3.48,3.34,3.48.65,0,1.34-.14,2.3-.67l-.74-1.66s-.65.46-1.27.46c-1.08,0-1.61-.62-1.61-1.7v-5.98h3.46v-1.82h-3.46v-3.38h-2.02v3.38h-2.16v1.82ZM205.41,31.95s1.63,2.33,4.75,2.33c2.14,0,4.39-1.1,4.39-3.24,0-2.26-1.8-3.05-3.91-3.5-1.82-.38-2.69-.84-2.69-1.68,0-.72.7-1.42,2.11-1.42,1.68,0,2.78,1.22,2.78,1.22l1.32-1.37s-1.49-1.68-4.1-1.68c-2.47,0-4.08,1.58-4.08,3.19,0,2.09,1.68,3.02,4.06,3.5,1.7.34,2.52.82,2.52,1.78,0,.89-1.27,1.37-2.4,1.37-2.18,0-3.36-1.8-3.36-1.8l-1.39,1.3ZM198.88,19.35c0,.74.62,1.37,1.37,1.37s1.37-.62,1.37-1.37-.62-1.37-1.37-1.37-1.37.62-1.37,1.37M199.24,33.99h2.02v-11.09h-2.02v11.09ZM190.2,22.61c-2.4,0-3.41,1.85-3.41,1.85v-1.56h-1.87v11.09h2.02v-7.63s.96-1.87,2.76-1.87c1.49,0,2.66.82,2.66,2.71v6.79h2.02v-7.13c0-2.74-1.97-4.25-4.18-4.25M177.67,19.35c0,.74.62,1.37,1.37,1.37s1.37-.62,1.37-1.37-.62-1.37-1.37-1.37-1.37.62-1.37,1.37M178.03,33.99h2.02v-11.09h-2.02v11.09ZM157.22,17.19v16.8h2.02v-13.13l5.74,9.31,5.74-9.34v13.15h2.02v-16.8h-1.94l-5.76,9.38-5.78-9.38h-2.02ZM141.67,33.99h2.02V15.85h-2.02v18.14ZM131.54,32.5c-1.25,0-2.54-.58-2.54-2.02,0-1.15,1.08-2.02,2.81-2.02s2.9.79,2.9.79v1.56s-1.2,1.68-3.17,1.68M131.9,22.61c-2.42,0-4.15,1.13-4.15,1.13l.84,1.68s1.63-.94,3.31-.94c.89,0,2.81.31,2.81,2.62v.6s-1.3-.91-3.34-.91c-2.5,0-4.39,1.54-4.39,3.7,0,2.4,2.14,3.79,4.13,3.79,2.52,0,3.77-1.9,3.77-1.9v1.61h1.85v-7.3c0-2.06-1.56-4.08-4.82-4.08M123.16,22.61c-2.11,0-3.1,1.99-3.1,1.99v-1.7h-1.87v11.09h2.02v-7.63s.79-1.87,2.54-1.87c.84,0,1.27.24,1.27.24l.74-1.82s-.7-.29-1.61-.29M105.52,27.49c.14-1.15,1.13-3,3.53-3,2.23,0,3.36,1.75,3.43,3h-6.96ZM109.05,22.61c-3.34,0-5.54,2.59-5.54,5.83s2.42,5.83,5.78,5.83c2.93,0,4.61-2.18,4.61-2.18l-1.27-1.32s-1.15,1.63-3.34,1.63-3.7-1.56-3.82-3.24h8.95c.02-.26.02-.43.02-.65,0-3.58-2.3-5.9-5.4-5.9M97.32,30.49s-1.06,1.92-3.26,1.92-3.67-1.78-3.67-3.96,1.46-3.96,3.67-3.96,3.26,1.92,3.26,1.92v4.08ZM93.74,22.61c-3,0-5.38,2.57-5.38,5.83s2.38,5.83,5.38,5.83c2.66,0,3.74-1.9,3.74-1.9v1.61h1.85V15.85h-2.02v8.42s-1.13-1.66-3.58-1.66M76.46,27.49c.14-1.15,1.13-3,3.53-3,2.23,0,3.36,1.75,3.43,3h-6.96ZM79.99,22.61c-3.34,0-5.54,2.59-5.54,5.83s2.42,5.83,5.78,5.83c2.93,0,4.61-2.18,4.61-2.18l-1.27-1.32s-1.15,1.63-3.34,1.63-3.7-1.56-3.82-3.24h8.95c.02-.26.02-.43.02-.65,0-3.58-2.3-5.9-5.4-5.9M64.22,19.11h7.46v-1.92h-9.48v16.8h2.02v-7.66h6.98v-1.92h-6.98v-5.3Z"/>
  </g>
  <polygon class="st0" points="43.23 22.68 43.23 17.01 17.01 17.01 19.65 22.68 43.23 22.68"/>
  <polygon class="st0" points="24.94 34.02 43.23 34.02 43.23 28.35 22.29 28.35 24.94 34.02"/>
</svg>