<svg width="25" height="26" viewBox="0 0 25 26" fill="none" xmlns="http://www.w3.org/2000/svg">
<path d="M23.5753 23.0753C23.5753 23.928 22.8869 24.6164 22.0342 24.6164H3.54109C2.68835 24.6164 2 23.928 2 23.0753V3.04109C2 2.18835 2.68835 1.5 3.54109 1.5H18.952C19.3527 1.5 19.7431 1.65411 20.0308 1.94178L23.113 4.90068C23.4109 5.18835 23.5753 5.58903 23.5753 5.99999V23.0753Z" stroke="#101010" stroke-width="1.54109" stroke-linecap="round" stroke-linejoin="round"/>
<path d="M10.2196 8.01375C10.1477 7.4795 9.97306 6.9658 9.69566 6.50348C9.41827 6.04115 8.91484 5.7432 8.37033 5.72266C7.6717 5.79457 7.10663 6.33909 7.01417 7.03772C6.94225 7.72607 7.1169 8.41443 7.51759 8.9795C8.77101 10.4281 10.1272 11.7946 11.5655 13.0583C13.1785 14.363 14.997 15.3802 16.9491 16.0685C17.4833 16.3151 18.0689 16.4384 18.6545 16.4281C19.2607 16.4076 19.7847 15.9966 19.9491 15.4213C20.0107 14.9487 19.8258 14.4761 19.4559 14.1781C19.086 13.8904 18.6443 13.7055 18.1819 13.6233C16.3429 13.3562 14.4628 13.5514 12.7162 14.1987C11.0518 14.7124 6.18198 16.3254 6.408 20.4144C6.408 20.5171 6.408 21.1952 7.28129 21.1027C8.01074 20.9589 8.64772 20.5171 9.03813 19.8801C10.158 18.298 10.2813 16.274 10.4251 14.4041C10.6409 12.2672 10.5792 10.1096 10.2402 7.98292L10.2196 8.01375Z" stroke="#101010" stroke-width="1.54109" stroke-linecap="round" stroke-linejoin="round"/>
</svg>
