<?xml version="1.0" encoding="UTF-8"?>
<svg width="641.43" height="641.43" viewBox="0 0 641.42657 463.63971" xmlns="http://www.w3.org/2000/svg" xmlns:xlink="http://www.w3.org/1999/xlink">
 <defs>
  <linearGradient id="a">
   <stop stop-color="#0f0" offset="0"/>
   <stop offset="1"/>
  </linearGradient>
  <linearGradient id="b">
   <stop offset="0"/>
   <stop stop-color="#d3d3d3" offset="1"/>
  </linearGradient>
  <linearGradient id="c">
   <stop stop-color="#fff" offset="0"/>
   <stop stop-color="#a8a8a8" offset="1"/>
  </linearGradient>
  <linearGradient id="g" x1="274.03" x2="304.82" gradientUnits="userSpaceOnUse">
   <stop offset="0"/>
   <stop stop-color="#f00" offset="1"/>
  </linearGradient>
  <linearGradient id="w" x1="241.15" x2="303.83" gradientUnits="userSpaceOnUse" xlink:href="#a"/>
  <linearGradient id="v" x1="243.78" x2="302.28" gradientUnits="userSpaceOnUse" xlink:href="#a"/>
  <linearGradient id="u" x1="253.55" x2="303.04" gradientUnits="userSpaceOnUse" xlink:href="#a"/>
  <linearGradient id="t" x1="270.87" x2="305.95" gradientUnits="userSpaceOnUse" xlink:href="#a"/>
  <linearGradient id="s" x1="289.32" x2="312.39" gradientUnits="userSpaceOnUse" xlink:href="#a"/>
  <linearGradient id="r" x1="302.29" x2="320.34" gradientUnits="userSpaceOnUse" xlink:href="#a"/>
  <linearGradient id="q" x1="314.11" x2="327.92" gradientUnits="userSpaceOnUse" xlink:href="#a"/>
  <linearGradient id="p" x1="323" x2="334.29" gradientUnits="userSpaceOnUse" xlink:href="#a"/>
  <linearGradient id="o" x1="328.63" x2="338.3" gradientUnits="userSpaceOnUse" xlink:href="#a"/>
  <linearGradient id="n" x1="333.25" x2="348.8" gradientUnits="userSpaceOnUse" xlink:href="#a"/>
  <linearGradient id="m" x1="346.67" x2="332.51" gradientUnits="userSpaceOnUse" xlink:href="#a"/>
  <linearGradient id="l" x1="228.5" x2="240.93" gradientUnits="userSpaceOnUse" xlink:href="#a"/>
  <linearGradient id="k" x1="259.64" x2="323.69" y1="237.52" y2="255.9" gradientUnits="userSpaceOnUse" xlink:href="#a"/>
  <linearGradient id="j" x1="341.51" x2="333.56" y1="264.37" y2="262.07" gradientUnits="userSpaceOnUse" xlink:href="#b"/>
  <linearGradient id="i" x1="347.26" x2="337.25" y1="231.35" y2="228.52" gradientUnits="userSpaceOnUse" xlink:href="#b"/>
  <linearGradient id="h" x1="249.96" x2="232.49" y1="224.19" y2="219.24" gradientUnits="userSpaceOnUse" xlink:href="#b"/>
  <linearGradient id="f" x1="283.26" x2="275.13" y1="241.34" y2="225.28" gradientUnits="userSpaceOnUse" xlink:href="#c"/>
  <linearGradient id="e" x1="290.65" x2="306.72" y1="241.64" y2="230.14" gradientUnits="userSpaceOnUse" xlink:href="#c"/>
  <radialGradient id="d" cx="276.96" cy="293.55" r="49.552" gradientTransform="matrix(1.0541 -.56225 .32999 .61865 -111.85 261.46)" gradientUnits="userSpaceOnUse" xlink:href="#a"/>
 </defs>
 <g transform="translate(41.355 15.923)">
  <g transform="matrix(-.88269 -.46995 -.46995 .88269 444.03 162)" stroke="#000">
   <path d="m249.76 298.87c15.348-1.8525 32.213-1.0388 47.736-0.13877 5.156 0.29896 3.8603 9.0899-0.13899 12.466-13.42 11.328-32.863 17.82-49.25 11.084-7.7094-3.1687-4.6888-13.193-0.76584-20.552 1.0324-1.9368 1.2101-2.7132 2.4191-2.8592z" fill="url(#w)" fill-rule="evenodd"/>
   <path d="m246.22 318.57c-6.4589 2.9238 2.0205 16.629 10.333 16.86 13.598 0.37937 26.626-5.2716 37.417-13.083 4.9998-3.6196 0.63008-11.59-4.5563-7.6494-5.3733 4.0822-12.211 6.1525-19.059 6.5066-8.143 0.42109-17.934-5.4411-24.134-2.6343z" fill="url(#v)" fill-rule="evenodd"/>
   <path d="m254.81 333.47c-4.384 1.5724 4.3719 9.7688 9.9341 10.087 13.242 0.75803 25.643-6.8783 33.606-16.972 3.5879-4.5479-0.25858-11.775-5.2749-8.2762-11.254 7.8495-27.235 11.205-38.265 15.161z" fill="url(#u)" fill-rule="evenodd"/>
   <path d="m271.6 340.66c-3.4494 2.561 5.6807 8.8898 10.884 7.5456 11.076-2.8614 23.504-12.636 22.099-23.369-0.64663-4.9421-9.9554-1.37-11.466 3.6279-2.5557 8.4535-16.22 8.2636-21.517 12.196z" fill="url(#t)" fill-rule="evenodd"/>
   <path d="m289.91 344.71c-0.27626 4.1308 13.389 0.21288 16.174-5.8761 2.9535-6.4561 8.1304-14.277 5.5902-20.475-1.8998-4.6357-10.608 0.50293-10.423 5.847 0.27843 8.0253-11.017 15.653-11.342 20.504z" fill="url(#s)" fill-rule="evenodd"/>
   <path d="m302.79 341.8c3.3931 4.3767 16.083-5.8247 16.886-14.235 0.47275-4.9508 0.32566-11.908-4.48-13.226-5.0008-1.3717-8.6721 5.8461-7.4617 10.956 1.3435 5.6723-7.189 13.61-4.9445 16.505z" fill="url(#r)" fill-rule="evenodd"/>
   <path d="m314.66 338.77c1.4248 1.6676 10.987-5.3919 12.618-10.534 1.5236-4.8014-0.18333-11.08-2.6167-15.175-2.7011-4.5452-11.226 2.9711-8.2185 7.8025 3.4621 5.5611-3.3138 16.114-1.7831 17.906z" fill="url(#q)" fill-rule="evenodd"/>
   <path d="m325.14 332.2c2.5955 2.3317 7.5231-8.069 8.2215-13.451 0.65649-5.0586-6.4506-9.3088-8.3868-4.2133-2.1746 5.7232-2.4356 15.327 0.16529 17.664z" fill="url(#p)" fill-rule="evenodd"/>
   <path d="m331.84 325.64c3.1654-0.60654 9.8155-10.803 6.9534-15.612-2.6792-4.501-10.904 3.944-7.1136 8.132 1.8608 2.0561-1.1383 7.7286 0.16022 7.4798z" fill="url(#o)" fill-rule="evenodd"/>
   <path d="m337.01 317.33c3.4315 4.5272 11.818 2.3003 11.173-3.5082-0.60713-5.4636-7.3606-9.9032-11.968-6.9546-3.4507 2.2084-1.5325 7.392 0.79505 10.463z" fill="url(#n)" fill-rule="evenodd"/>
   <path d="m294.16 303.21c7.841-3.5339 13.296-11.527 21.32-15.468 6.8749-3.3769 13.745-8.1385 17.558-14.826 2.6045-4.5677 4.1954-12.977-0.33105-15.791-5.1979-3.2318-3.7253 6.5346-4.2557 9.9211-0.94476 6.0315-8.8382 7.5811-11.82 12.71-2.4794 4.2653-8.8189 8.4928-11.727 1.968-1.7831-4.0003-6.8309-0.34771-10.394-0.71271-3.7515-0.38424-7.8906 0.68307-11.42-0.58999-5.8797-2.1211-12.407-4.2392-16.372-9.5478-3.5027-4.69-12.716-0.68394-9.5878 5.1696 1.5092 2.8244-1.2229 9.9764-3.7209 4.831-2.5636-5.2804-6.9976-9.4042-9.2424-14.945-2.0446-5.0464-3.0122-10.771-0.26403-15.733 2.5785-4.6558 6.2895-10.425 4.5323-15.382-1.973-5.566-8.6601 1.5189-10.308 5.238-2.6238 5.9215-0.22645 12.071 0.33658 18 0.90227 9.5014 4.6255 18.497 6.5514 27.834 1.0656 5.1658 3.4819 10.028 8.2711 13.106 5.5747 3.583 12.179 3.408 18.167 5.4814 4.9612 1.718 10.413 1.5666 15.441-0.10297 2.3243-0.77179 5.0704-0.17202 7.2644-1.1608z" fill="url(#d)" fill-rule="evenodd"/>
   <path d="m339.06 264.68c-2.2941-0.0601-4.6227 0.41999-6.6471 1.4407-2.8138 1.4188-2.9399 5.9706-0.46716 7.9352 3.0963 2.4601 7.7967 2.3122 10.852-0.1222 1.2401-0.98801 2.6145-2.0153 3.2344-3.4586 0.57769-1.345-0.74716-2.6991-1.8519-3.4986-1.5222-1.1016-3.1833-2.2458-5.1206-2.2966z" fill="url(#m)" fill-rule="evenodd"/>
   <path d="m234.41 231.8c-2.1215-0.98901-4.725 0.70153-5.2024 2.9374-0.49262 2.3071 0.218 4.6061 0.92951 6.7642 0.50684 1.5374 1.7054 2.7496 3.1129 3.5537 1.215 0.69413 2.522 1.4069 3.9683 1.249 0.87469-0.0955 1.9626 0.2 2.631-0.52545 0.71138-0.772 0.57872-1.9196 0.29712-2.8812-0.49253-1.6819-0.28112-3.5236-0.43155-5.2664-0.16277-1.8857-1.7279-3.3893-3.1097-4.6293-0.62215-0.5583-1.4399-0.84988-2.1953-1.202z" fill="url(#l)" fill-rule="evenodd"/>
   <path d="m266.23 271.75c0.13696-7.0693-5.5872-12.305-5.9411-19.311-0.38944-7.7091-0.087-15.596 1.9426-22.951 1.9068-6.9104 7.188-12.438 11.945-17.698 3.1067-3.4349 8.6226-4.2497 12.49-1.6078 3.1764 2.1696 6.8223 3.0625 10.517 1.2041 4.4747-2.2509 9.2099 1.023 13.177 3.2694 3.7833 2.1421 8.4044 1.7889 11.887 4.587 3.9419 3.1669 5.6081 8.2636 5.0927 13.309-0.70899 6.941-0.7411 14.295-4.6494 20.478-5.519 8.7306-8.9086 19.301-17.422 25.816-4.6026 3.522-10.139 5.725-15.975 5.5986-6.3428-0.13727-13.131-0.99484-18.391-4.6785-2.5809-1.8075-4.7354-4.7986-4.6731-8.0162z" fill="url(#k)" fill-rule="evenodd"/>
   <path d="m288.85 211.64c0.93166 0.77995 2.0984 1.3273 2.7707 2.38 0.56803 0.93074 1.2067 1.8495 1.472 2.9234" fill="none"/>
   <path d="m312.19 215.53c0.15046 0.35385-2.3305 1.4188-3.0085 2.1149-0.75365 0.6674-2.7213 1.8473-2.8252 1.951" fill="none"/>
   <path d="m310.24 223.49c0.47257 0.36234 3.4818-0.0612 4.864 0.74418 1.0919 0.63617 2.1549 3.7398 2.2267 4.6324" fill="none"/>
   <path d="m276.48 218.18c0.43895 0.39165 4.5682-2.7241 6.4771-2.5954 1.2971 0.0874 3.8797 2.5012 4.3063 2.5954" fill="none"/>
   <path d="m338 247.47 6.375 0.125-9.375 40.75-6.25-2.25 9.25-38.625z" fill="url(#j)" fill-rule="evenodd"/>
   <path d="m337.75 247.47 5.625-36.125c0.16667 0.125 4.1195 4.353 4.25 4.875 0.11793 0.4717 0 1.1356 0 1.625l-2.625 1.875 3 3-2.75 2.25 2.125 2.625-2.75 2 2.5 2.5-2.75 2.5 2.25 2.25-2.75 2.25 1.875 2.25-2.625 2.75 1.375 3.375" fill="url(#i)" fill-rule="evenodd"/>
   <path d="m227.87 257.61c2.3066 3.0996 7.677 4.1987 7.6506-1.1588 0.34634-4.5144 6.4618-31.076 8.7182-34.601 3.744-0.0518 7.5323-3.6906 8.9222-6.4569 1.4617-6.3688 2.8754-12.763 4.4076-19.125l-7.4246 13.965c-5.0053 1.7162-1.8198-4.2734-1.3654-6.6885 0.91635-3.1946 1.887-6.3735 2.7797-9.575l-8.1317 15.026c-4.657 2.0767-1.6206-4.1958-1.7779-6.5548 0.42344-3.2352 0.79908-6.4767 1.2475-9.7087-2.1478 5.5117-4.868 10.847-6.6382 16.477-0.12287 3.5834 0.55767 7.2586 2.2175 10.429-1.7451 3.3375-10.324 36.769-10.605 37.971z" fill="url(#h)" fill-rule="evenodd"/>
   <path d="m280.04 260.54c-1.5299-1.4536-2.9232-3.0344-4.1008-4.7967m0.36632-0.61606-3.8891 6.5407 9.5459-1.4142" fill="#fff" fill-rule="evenodd"/>
   <path d="m286.05 265.32c-1.5299-1.4536-2.9232-3.0344-4.1008-4.7967m0.36632-0.61606-3.8891 6.5407 9.5459-1.4142" fill="#fff" fill-rule="evenodd"/>
   <path d="m303.6 255.54c-0.28378 2.0912-0.75064 4.146-1.4908 6.1321m-0.71394 0.0634 7.5798-0.67279-6.7319-6.9142" fill="#fff" fill-rule="evenodd"/>
   <path d="m303.06 262.26c-0.28378 2.0912-0.75064 4.146-1.4908 6.1321m-0.71394 0.0634 7.5798-0.67279-6.7319-6.9142" fill="#fff" fill-rule="evenodd"/>
   <path d="m291.7 269.38c-1.5299-1.4536-2.9232-3.0344-4.1008-4.7967m0.36632-0.61606-3.8891 6.5407 9.5459-1.4142" fill="#fff" fill-rule="evenodd"/>
   <path d="m274.53 252.48c8.0748 9.3065 21.241 2.1178 29.79 1.4068-3.8958 6.2974 3.7923 18.389-7.8331 18.604-6.8476-5.1695-15.896-9.4381-20.825-17.156l-0.62999-1.3778-0.50154-1.4768z" fill="url(#g)" fill-rule="evenodd"/>
   <path d="m285.67 245.23c-3.1753-0.0821-6.5816-0.91851-8.8072-3.3317-1.4205-1.6924-1.5536-4.1864-0.72188-6.1753 0.96006-3.4477 2.3711-6.8484 4.6927-9.6122 0.84182-0.83632 2.311 0.0259 2.259 1.1364 0.55934 2.4417 1.2809 4.8437 1.9112 7.268 0.6352 2.4437 1.345 4.8784 1.7612 7.3708 0.13004 1.0445 0.13272 2.1873-0.44726 3.1087-0.16639 0.16698-0.40852 0.27836-0.64785 0.23528z" fill="url(#f)" fill-rule="evenodd"/>
   <path d="m286.91 245.58c2.7328 0.70912 5.676 0.34935 8.253-0.75707 2.4544-0.18084 4.5996-1.5586 6.5514-2.947 1.3118-1.1623 2.325-2.7035 2.8198-4.3858 0.35439-1.5515 0.49484-3.1471 0.62407-4.7293 0.0378-1.4665-0.48615-3.0411-1.7584-3.8788-1.0499-0.87173-2.3918-0.18571-3.2008 0.64918-4.4274 3.2788-8.8578 6.5536-13.301 9.8113-0.79775 1.1691-0.44885 2.2979-1.1195 3.5214-0.39212 0.71538-0.0997 2.6586 1.1311 2.716z" fill="url(#e)" fill-rule="evenodd"/>
   <path transform="translate(-1.591 -2.8284)" d="m286.38 243.46c0 1.4645-1.1872 2.6516-2.6516 2.6516s-2.6516-1.1872-2.6516-2.6516 1.1872-2.6516 2.6516-2.6516 2.6516 1.1872 2.6516 2.6516z"/>
   <path transform="translate(6.8943 -1.591)" d="m286.38 243.46c0 1.4645-1.1872 2.6516-2.6516 2.6516s-2.6516-1.1872-2.6516-2.6516 1.1872-2.6516 2.6516-2.6516 2.6516 1.1872 2.6516 2.6516z"/>
  </g>
  <g fill="#5f8dd3">
   <g transform="matrix(-.75882 .19848 .18385 .74875 -1112.4 -457.51)" fill="#5f8dd3" stroke="#000">
    <path d="m-1822 1531.8c-2.9435 2.3788-1.8614 3.1053 2.603 2.4186s12.306-2.7951 22.747-6.2363 23.478-8.2219 38.27-14.288 31.336-13.421 48.786-21.958 35.802-18.256 54.267-28.941 37.039-22.336 55.043-34.608 35.436-25.162 51.776-38.205 31.585-26.237 45.4-39.021c9.3635-8.6592 18.069-17.15 26.044-25.266s15.219-15.856 21.702-23.014c9.09 5.7558 18.392 10.96 27.812 15.217s18.961 7.5678 28.459 9.5545c10.929-10.986 21.009-22.308 30.446-33.833 9.4369-11.525 18.232-23.253 26.555-35.103s16.173-23.823 23.663-35.893 14.621-24.235 21.43-36.537c-22.869-13.967-44.069-28.507-63.966-43.378s-38.495-30.072-56.204-45.236c-3.5134 13.317-7.621 26.642-12.434 39.927s-10.332 26.53-16.733 39.668-13.686 26.168-22.075 38.989-17.886 25.433-28.736 37.68c3.2244 7.7755 7.9987 14.566 13.449 20.941s11.573 12.329 17.437 18.496c-10.16 11.863-22.446 24.878-36.589 38.292-13.2 12.5-27.995 25.376-44.018 38.117s-33.272 25.343-51.199 37.396-36.529 23.556-55.096 34.23-37.098 20.52-54.769 29.403-34.477 16.805-49.536 23.754-28.368 12.929-39.034 17.992-18.687 9.2154-23.208 12.474-5.5388 5.632-2.2907 6.9692z" stroke-linecap="round" stroke-linejoin="round" stroke-width="3"/>
    <path d="m-1487.3 1258.7c20.25-22.096 36.972-45.876 50.211-70.669s23.001-50.6 29.434-76.931"/>
    <path d="m-1472.4 1263.4c18.543-21.66 34.06-44.826 46.364-68.953s21.397-49.216 27.252-74.819"/>
    <path d="m-1466.8 1278.2c18.644-22.044 34.796-45.437 47.996-69.804s23.45-49.708 30.371-75.653"/>
    <path d="m-1456.2 1287.7c18.427-22.009 34.601-44.962 47.872-68.706s23.633-48.278 30.571-73.394"/>
    <path d="m-1445.6 1292.1c18.914-22.476 34.716-46.041 47.432-70.124s22.353-48.686 28.959-73.369"/>
    <path d="m-1419.3 1294.7c13.513-21.541 25.508-43.337 36.013-64.969s19.523-43.097 27.021-64.052"/>
    <path d="m-1413 1304c14.053-19.978 26.454-40.5 37.423-60.802s20.508-40.38 28.884-59.613"/>
    <path d="m-1401.1 1312.6c15.828-20.876 29.492-42.516 42.054-63.828 6.2807-10.656 12.283-21.237 18.116-31.649s11.498-20.656 17.087-30.676"/>
    <path d="m-1322.8 1202c-17.949-11.072-35.033-21.449-51.446-31.812s-32.16-20.706-47.218-31.589"/>
    <path d="m-1333.4 1226.5c-14.691-7.976-28.738-16.436-42.345-24.711s-26.771-16.366-39.825-23.639"/>
    <path d="m-1354.2 1258.1c-18.158-4.7733-34.742-12.237-50.084-21.156s-29.453-19.298-42.877-30.138"/>
    <path d="m-1473.5 1228.3c13.837 11.974 27.732 24.52 43.145 35.402 7.7065 5.4413 15.79 10.461 24.401 14.739s17.752 7.8134 27.526 10.248"/>
   </g>
  </g>
  <path d="m223.29 113.37c3.4594-10.692 15.288-14.49 21.943-22.691 10.883-10.703 24.478-17.874 37.678-25.229 8.8035-5.7408 17.57-11.86 27.793-14.81 15.346-5.4616 29.304-14.102 44.725-19.387 3.6272-1.7417 8.151-2.3387 11.304-4.7566" fill="none" stroke="#666" stroke-width="2"/>
  <path d="m266.73 100.23c12.603-5.6943 25.092-12.006 38.677-15.041 12.213-3.7677 24.068-8.6335 36.412-11.991 6.9422-2.4151 13.846-4.9809 21.079-6.4126 2.2518-0.51828 4.5488-0.91715 6.867-0.90009" fill="none" stroke="#000"/>
 </g>
</svg>
