<?xml version="1.0" encoding="UTF-8" standalone="no"?>
<!-- Created with Inkscape (http://www.inkscape.org/) -->

<svg
   width="18.665001mm"
   height="18.665001mm"
   viewBox="0 0 18.665002 18.665"
   version="1.1"
   id="svg1"
   xml:space="preserve"
   inkscape:version="1.4.2 (f4327f4, 2025-05-13)"
   sodipodi:docname="logo_wegwandernch.svg"
   xmlns:inkscape="http://www.inkscape.org/namespaces/inkscape"
   xmlns:sodipodi="http://sodipodi.sourceforge.net/DTD/sodipodi-0.dtd"
   xmlns="http://www.w3.org/2000/svg"
   xmlns:svg="http://www.w3.org/2000/svg"><sodipodi:namedview
     id="namedview1"
     pagecolor="#ffffff"
     bordercolor="#000000"
     borderopacity="0.25"
     inkscape:showpageshadow="2"
     inkscape:pageopacity="0.0"
     inkscape:pagecheckerboard="0"
     inkscape:deskcolor="#d1d1d1"
     inkscape:document-units="mm"
     inkscape:zoom="2.4"
     inkscape:cx="-20.833333"
     inkscape:cy="150.20833"
     inkscape:window-width="2560"
     inkscape:window-height="1369"
     inkscape:window-x="-8"
     inkscape:window-y="-8"
     inkscape:window-maximized="1"
     inkscape:current-layer="layer1" /><defs
     id="defs1" /><g
     inkscape:label="Ebene 1"
     inkscape:groupmode="layer"
     id="layer1"
     transform="translate(-110.55021,-111.90048)"><rect
       style="fill:#ffffff;stroke-width:0.264583"
       id="rect1"
       width="9.7013969"
       height="9.8116236"
       x="115.07018"
       y="114.21558" /><path
       style="fill:#d9040e;stroke:none"
       d="m 119.75137,130.56535 h 0.52917 c 1.14007,-1.60455 2.31741,-3.20631 3.52777,-4.7625 1.43279,-1.84215 3.11537,-3.65769 3.35139,-6.08541 0.81142,-8.34596 -11.60237,-11.05822 -13.97882,-2.91042 -0.27496,0.94274 -0.40482,1.92149 -0.30868,2.91042 0.19469,2.00252 1.39545,3.4775 2.55764,5.02708 1.44782,1.93043 2.92604,3.85681 4.32153,5.82083 m 1.85208,-16.40416 v 3.175 h 3.175 v 3.175 h -3.175 v 3.175 h -3.175 v -3.175 h -3.175 v -3.175 h 3.175 v -3.175 z"
       id="path4108"
       transform="translate(-1.2291666e-6)" /></g></svg>
